G04 #@! TF.GenerationSoftware,KiCad,Pcbnew,5.1.5-1.fc30*
G04 #@! TF.CreationDate,2020-09-01T08:29:50+02:00*
G04 #@! TF.ProjectId,BeaconTemperature,42656163-6f6e-4546-956d-706572617475,rev?*
G04 #@! TF.SameCoordinates,Original*
G04 #@! TF.FileFunction,Legend,Top*
G04 #@! TF.FilePolarity,Positive*
%FSLAX46Y46*%
G04 Gerber Fmt 4.6, Leading zero omitted, Abs format (unit mm)*
G04 Created by KiCad (PCBNEW 5.1.5-1.fc30) date 2020-09-01 08:29:50*
%MOMM*%
%LPD*%
G04 APERTURE LIST*
%ADD10C,0.120000*%
%ADD11C,0.150000*%
G04 APERTURE END LIST*
D10*
X125670000Y-86670000D02*
X127000000Y-86670000D01*
X125670000Y-88000000D02*
X125670000Y-86670000D01*
X125670000Y-89270000D02*
X128330000Y-89270000D01*
X128330000Y-89270000D02*
X128330000Y-94410000D01*
X125670000Y-89270000D02*
X125670000Y-94410000D01*
X125670000Y-94410000D02*
X128330000Y-94410000D01*
X117770000Y-42070000D02*
X119100000Y-42070000D01*
X117770000Y-43400000D02*
X117770000Y-42070000D01*
X117770000Y-44670000D02*
X120430000Y-44670000D01*
X120430000Y-44670000D02*
X120430000Y-62510000D01*
X117770000Y-44670000D02*
X117770000Y-62510000D01*
X117770000Y-62510000D02*
X120430000Y-62510000D01*
X164050000Y-16000000D02*
X164050000Y-94000000D01*
X164050000Y-94000000D02*
X143950000Y-94000000D01*
X143950000Y-94000000D02*
X143950000Y-16000000D01*
X143950000Y-16000000D02*
X164050000Y-16000000D01*
X140741422Y-49710000D02*
X141258578Y-49710000D01*
X140741422Y-48290000D02*
X141258578Y-48290000D01*
X132850000Y-32300000D02*
X132850000Y-34850000D01*
X131150000Y-32300000D02*
X131150000Y-34850000D01*
X132850000Y-32300000D02*
X131150000Y-32300000D01*
D11*
X129925000Y-80425000D02*
X129925000Y-80625000D01*
X134075000Y-80425000D02*
X134075000Y-80625000D01*
X134075000Y-85575000D02*
X134075000Y-85375000D01*
X129925000Y-85575000D02*
X129925000Y-85375000D01*
X129925000Y-80425000D02*
X134075000Y-80425000D01*
X129925000Y-85575000D02*
X134075000Y-85575000D01*
X129925000Y-80625000D02*
X128625000Y-80625000D01*
X139475000Y-79325000D02*
X139475000Y-80675000D01*
X142625000Y-79325000D02*
X142625000Y-74675000D01*
X139375000Y-79325000D02*
X139375000Y-74675000D01*
X142625000Y-79325000D02*
X142425000Y-79325000D01*
X142625000Y-74675000D02*
X142425000Y-74675000D01*
X139375000Y-74675000D02*
X139575000Y-74675000D01*
X139375000Y-79325000D02*
X139475000Y-79325000D01*
D10*
X131590000Y-70100000D02*
X131590000Y-64090000D01*
X138410000Y-67850000D02*
X138410000Y-64090000D01*
X131590000Y-64090000D02*
X132850000Y-64090000D01*
X138410000Y-64090000D02*
X137150000Y-64090000D01*
X132100000Y-78610000D02*
X134550000Y-78610000D01*
X133900000Y-75390000D02*
X132100000Y-75390000D01*
D11*
X138810000Y-58524000D02*
X140334000Y-58524000D01*
X140334000Y-58524000D02*
X140334000Y-55476000D01*
X140334000Y-55476000D02*
X138810000Y-55476000D01*
X137540000Y-58270000D02*
X129920000Y-58270000D01*
X129920000Y-58270000D02*
X129920000Y-55730000D01*
X129920000Y-55730000D02*
X137540000Y-55730000D01*
X137540000Y-55730000D02*
X137540000Y-58270000D01*
D10*
X130610000Y-33862779D02*
X130610000Y-33537221D01*
X129590000Y-33862779D02*
X129590000Y-33537221D01*
X141510000Y-42162779D02*
X141510000Y-41837221D01*
X140490000Y-42162779D02*
X140490000Y-41837221D01*
X131190000Y-93600000D02*
X131190000Y-93340000D01*
X131190000Y-91060000D02*
X131190000Y-89290000D01*
X131190000Y-89290000D02*
X131570000Y-89290000D01*
X138810000Y-89290000D02*
X138810000Y-91060000D01*
X138810000Y-93340000D02*
X138810000Y-93600000D01*
X138810000Y-89290000D02*
X138430000Y-89290000D01*
X141330000Y-32670000D02*
X141330000Y-34000000D01*
X140000000Y-32670000D02*
X141330000Y-32670000D01*
X141330000Y-35270000D02*
X141330000Y-37870000D01*
X138730000Y-35270000D02*
X141330000Y-35270000D01*
X138730000Y-32670000D02*
X138730000Y-35270000D01*
X141330000Y-37870000D02*
X133590000Y-37870000D01*
X138730000Y-32670000D02*
X133590000Y-32670000D01*
X133590000Y-32670000D02*
X133590000Y-37870000D01*
X132490000Y-72837221D02*
X132490000Y-73162779D01*
X133510000Y-72837221D02*
X133510000Y-73162779D01*
X136490000Y-72837221D02*
X136490000Y-73162779D01*
X137510000Y-72837221D02*
X137510000Y-73162779D01*
D11*
X136625000Y-49400000D02*
X138050000Y-49400000D01*
X129375000Y-49625000D02*
X129700000Y-49625000D01*
X129375000Y-42375000D02*
X129700000Y-42375000D01*
X136625000Y-42375000D02*
X136300000Y-42375000D01*
X136625000Y-49625000D02*
X136300000Y-49625000D01*
X136625000Y-42375000D02*
X136625000Y-42700000D01*
X129375000Y-42375000D02*
X129375000Y-42700000D01*
X129375000Y-49625000D02*
X129375000Y-49300000D01*
X136625000Y-49625000D02*
X136625000Y-49400000D01*
D10*
X137162779Y-76490000D02*
X136837221Y-76490000D01*
X137162779Y-77510000D02*
X136837221Y-77510000D01*
X127510000Y-83162779D02*
X127510000Y-82837221D01*
X126490000Y-83162779D02*
X126490000Y-82837221D01*
X138049721Y-85510000D02*
X138375279Y-85510000D01*
X138049721Y-84490000D02*
X138375279Y-84490000D01*
X138049721Y-83510000D02*
X138375279Y-83510000D01*
X138049721Y-82490000D02*
X138375279Y-82490000D01*
X129510000Y-75162779D02*
X129510000Y-74837221D01*
X128490000Y-75162779D02*
X128490000Y-74837221D01*
X140302500Y-85735000D02*
X142587500Y-85735000D01*
X140302500Y-84265000D02*
X140302500Y-85735000D01*
X142587500Y-84265000D02*
X140302500Y-84265000D01*
X140302500Y-83735000D02*
X142587500Y-83735000D01*
X140302500Y-82265000D02*
X140302500Y-83735000D01*
X142587500Y-82265000D02*
X140302500Y-82265000D01*
X141490000Y-90837221D02*
X141490000Y-91162779D01*
X142510000Y-90837221D02*
X142510000Y-91162779D01*
X128490000Y-77837221D02*
X128490000Y-78162779D01*
X129510000Y-77837221D02*
X129510000Y-78162779D01*
D11*
X123857142Y-86122380D02*
X123857142Y-85122380D01*
X124238095Y-85122380D01*
X124333333Y-85170000D01*
X124380952Y-85217619D01*
X124428571Y-85312857D01*
X124428571Y-85455714D01*
X124380952Y-85550952D01*
X124333333Y-85598571D01*
X124238095Y-85646190D01*
X123857142Y-85646190D01*
X125000000Y-86122380D02*
X124904761Y-86074761D01*
X124857142Y-86027142D01*
X124809523Y-85931904D01*
X124809523Y-85646190D01*
X124857142Y-85550952D01*
X124904761Y-85503333D01*
X125000000Y-85455714D01*
X125142857Y-85455714D01*
X125238095Y-85503333D01*
X125285714Y-85550952D01*
X125333333Y-85646190D01*
X125333333Y-85931904D01*
X125285714Y-86027142D01*
X125238095Y-86074761D01*
X125142857Y-86122380D01*
X125000000Y-86122380D01*
X125666666Y-85455714D02*
X125857142Y-86122380D01*
X126047619Y-85646190D01*
X126238095Y-86122380D01*
X126428571Y-85455714D01*
X127190476Y-86074761D02*
X127095238Y-86122380D01*
X126904761Y-86122380D01*
X126809523Y-86074761D01*
X126761904Y-85979523D01*
X126761904Y-85598571D01*
X126809523Y-85503333D01*
X126904761Y-85455714D01*
X127095238Y-85455714D01*
X127190476Y-85503333D01*
X127238095Y-85598571D01*
X127238095Y-85693809D01*
X126761904Y-85789047D01*
X127666666Y-86122380D02*
X127666666Y-85455714D01*
X127666666Y-85646190D02*
X127714285Y-85550952D01*
X127761904Y-85503333D01*
X127857142Y-85455714D01*
X127952380Y-85455714D01*
X128285714Y-86122380D02*
X128285714Y-85122380D01*
X128761904Y-85455714D02*
X128761904Y-86122380D01*
X128761904Y-85550952D02*
X128809523Y-85503333D01*
X128904761Y-85455714D01*
X129047619Y-85455714D01*
X129142857Y-85503333D01*
X129190476Y-85598571D01*
X129190476Y-86122380D01*
X130190476Y-86122380D02*
X129619047Y-86122380D01*
X129904761Y-86122380D02*
X129904761Y-85122380D01*
X129809523Y-85265238D01*
X129714285Y-85360476D01*
X129619047Y-85408095D01*
X116123809Y-41474761D02*
X116266666Y-41522380D01*
X116504761Y-41522380D01*
X116600000Y-41474761D01*
X116647619Y-41427142D01*
X116695238Y-41331904D01*
X116695238Y-41236666D01*
X116647619Y-41141428D01*
X116600000Y-41093809D01*
X116504761Y-41046190D01*
X116314285Y-40998571D01*
X116219047Y-40950952D01*
X116171428Y-40903333D01*
X116123809Y-40808095D01*
X116123809Y-40712857D01*
X116171428Y-40617619D01*
X116219047Y-40570000D01*
X116314285Y-40522380D01*
X116552380Y-40522380D01*
X116695238Y-40570000D01*
X117504761Y-41474761D02*
X117409523Y-41522380D01*
X117219047Y-41522380D01*
X117123809Y-41474761D01*
X117076190Y-41379523D01*
X117076190Y-40998571D01*
X117123809Y-40903333D01*
X117219047Y-40855714D01*
X117409523Y-40855714D01*
X117504761Y-40903333D01*
X117552380Y-40998571D01*
X117552380Y-41093809D01*
X117076190Y-41189047D01*
X117980952Y-41522380D02*
X117980952Y-40855714D01*
X117980952Y-41046190D02*
X118028571Y-40950952D01*
X118076190Y-40903333D01*
X118171428Y-40855714D01*
X118266666Y-40855714D01*
X118504761Y-40855714D02*
X118742857Y-41522380D01*
X118980952Y-40855714D01*
X119361904Y-41522380D02*
X119361904Y-40855714D01*
X119361904Y-40522380D02*
X119314285Y-40570000D01*
X119361904Y-40617619D01*
X119409523Y-40570000D01*
X119361904Y-40522380D01*
X119361904Y-40617619D01*
X120266666Y-41474761D02*
X120171428Y-41522380D01*
X119980952Y-41522380D01*
X119885714Y-41474761D01*
X119838095Y-41427142D01*
X119790476Y-41331904D01*
X119790476Y-41046190D01*
X119838095Y-40950952D01*
X119885714Y-40903333D01*
X119980952Y-40855714D01*
X120171428Y-40855714D01*
X120266666Y-40903333D01*
X121076190Y-41474761D02*
X120980952Y-41522380D01*
X120790476Y-41522380D01*
X120695238Y-41474761D01*
X120647619Y-41379523D01*
X120647619Y-40998571D01*
X120695238Y-40903333D01*
X120790476Y-40855714D01*
X120980952Y-40855714D01*
X121076190Y-40903333D01*
X121123809Y-40998571D01*
X121123809Y-41093809D01*
X120647619Y-41189047D01*
X122076190Y-41522380D02*
X121504761Y-41522380D01*
X121790476Y-41522380D02*
X121790476Y-40522380D01*
X121695238Y-40665238D01*
X121600000Y-40760476D01*
X121504761Y-40808095D01*
X152928571Y-55785714D02*
X152976190Y-55642857D01*
X153023809Y-55595238D01*
X153119047Y-55547619D01*
X153261904Y-55547619D01*
X153357142Y-55595238D01*
X153404761Y-55642857D01*
X153452380Y-55738095D01*
X153452380Y-56119047D01*
X152452380Y-56119047D01*
X152452380Y-55785714D01*
X152500000Y-55690476D01*
X152547619Y-55642857D01*
X152642857Y-55595238D01*
X152738095Y-55595238D01*
X152833333Y-55642857D01*
X152880952Y-55690476D01*
X152928571Y-55785714D01*
X152928571Y-56119047D01*
X152452380Y-55261904D02*
X152452380Y-54690476D01*
X153452380Y-54976190D02*
X152452380Y-54976190D01*
X153452380Y-53833333D02*
X153452380Y-54404761D01*
X153452380Y-54119047D02*
X152452380Y-54119047D01*
X152595238Y-54214285D01*
X152690476Y-54309523D01*
X152738095Y-54404761D01*
X140833333Y-47707142D02*
X140785714Y-47754761D01*
X140642857Y-47802380D01*
X140547619Y-47802380D01*
X140404761Y-47754761D01*
X140309523Y-47659523D01*
X140261904Y-47564285D01*
X140214285Y-47373809D01*
X140214285Y-47230952D01*
X140261904Y-47040476D01*
X140309523Y-46945238D01*
X140404761Y-46850000D01*
X140547619Y-46802380D01*
X140642857Y-46802380D01*
X140785714Y-46850000D01*
X140833333Y-46897619D01*
X141738095Y-46802380D02*
X141261904Y-46802380D01*
X141214285Y-47278571D01*
X141261904Y-47230952D01*
X141357142Y-47183333D01*
X141595238Y-47183333D01*
X141690476Y-47230952D01*
X141738095Y-47278571D01*
X141785714Y-47373809D01*
X141785714Y-47611904D01*
X141738095Y-47707142D01*
X141690476Y-47754761D01*
X141595238Y-47802380D01*
X141357142Y-47802380D01*
X141261904Y-47754761D01*
X141214285Y-47707142D01*
X134302380Y-34538095D02*
X133302380Y-34538095D01*
X133302380Y-34300000D01*
X133350000Y-34157142D01*
X133445238Y-34061904D01*
X133540476Y-34014285D01*
X133730952Y-33966666D01*
X133873809Y-33966666D01*
X134064285Y-34014285D01*
X134159523Y-34061904D01*
X134254761Y-34157142D01*
X134302380Y-34300000D01*
X134302380Y-34538095D01*
X133302380Y-33633333D02*
X133302380Y-33014285D01*
X133683333Y-33347619D01*
X133683333Y-33204761D01*
X133730952Y-33109523D01*
X133778571Y-33061904D01*
X133873809Y-33014285D01*
X134111904Y-33014285D01*
X134207142Y-33061904D01*
X134254761Y-33109523D01*
X134302380Y-33204761D01*
X134302380Y-33490476D01*
X134254761Y-33585714D01*
X134207142Y-33633333D01*
X131238095Y-79152380D02*
X131238095Y-79961904D01*
X131285714Y-80057142D01*
X131333333Y-80104761D01*
X131428571Y-80152380D01*
X131619047Y-80152380D01*
X131714285Y-80104761D01*
X131761904Y-80057142D01*
X131809523Y-79961904D01*
X131809523Y-79152380D01*
X132190476Y-79152380D02*
X132809523Y-79152380D01*
X132476190Y-79533333D01*
X132619047Y-79533333D01*
X132714285Y-79580952D01*
X132761904Y-79628571D01*
X132809523Y-79723809D01*
X132809523Y-79961904D01*
X132761904Y-80057142D01*
X132714285Y-80104761D01*
X132619047Y-80152380D01*
X132333333Y-80152380D01*
X132238095Y-80104761D01*
X132190476Y-80057142D01*
X140523809Y-43526190D02*
X140523809Y-44002380D01*
X140190476Y-43002380D02*
X140523809Y-43526190D01*
X140857142Y-43002380D01*
X141714285Y-44002380D02*
X141142857Y-44002380D01*
X141428571Y-44002380D02*
X141428571Y-43002380D01*
X141333333Y-43145238D01*
X141238095Y-43240476D01*
X141142857Y-43288095D01*
X134238095Y-19552380D02*
X134238095Y-20361904D01*
X134285714Y-20457142D01*
X134333333Y-20504761D01*
X134428571Y-20552380D01*
X134619047Y-20552380D01*
X134714285Y-20504761D01*
X134761904Y-20457142D01*
X134809523Y-20361904D01*
X134809523Y-19552380D01*
X135761904Y-19552380D02*
X135285714Y-19552380D01*
X135238095Y-20028571D01*
X135285714Y-19980952D01*
X135380952Y-19933333D01*
X135619047Y-19933333D01*
X135714285Y-19980952D01*
X135761904Y-20028571D01*
X135809523Y-20123809D01*
X135809523Y-20361904D01*
X135761904Y-20457142D01*
X135714285Y-20504761D01*
X135619047Y-20552380D01*
X135380952Y-20552380D01*
X135285714Y-20504761D01*
X135238095Y-20457142D01*
X137902380Y-77761904D02*
X138711904Y-77761904D01*
X138807142Y-77714285D01*
X138854761Y-77666666D01*
X138902380Y-77571428D01*
X138902380Y-77380952D01*
X138854761Y-77285714D01*
X138807142Y-77238095D01*
X138711904Y-77190476D01*
X137902380Y-77190476D01*
X138235714Y-76285714D02*
X138902380Y-76285714D01*
X137854761Y-76523809D02*
X138569047Y-76761904D01*
X138569047Y-76142857D01*
X129952380Y-66761904D02*
X130761904Y-66761904D01*
X130857142Y-66714285D01*
X130904761Y-66666666D01*
X130952380Y-66571428D01*
X130952380Y-66380952D01*
X130904761Y-66285714D01*
X130857142Y-66238095D01*
X130761904Y-66190476D01*
X129952380Y-66190476D01*
X130047619Y-65761904D02*
X130000000Y-65714285D01*
X129952380Y-65619047D01*
X129952380Y-65380952D01*
X130000000Y-65285714D01*
X130047619Y-65238095D01*
X130142857Y-65190476D01*
X130238095Y-65190476D01*
X130380952Y-65238095D01*
X130952380Y-65809523D01*
X130952380Y-65190476D01*
X132238095Y-79352380D02*
X132238095Y-80161904D01*
X132285714Y-80257142D01*
X132333333Y-80304761D01*
X132428571Y-80352380D01*
X132619047Y-80352380D01*
X132714285Y-80304761D01*
X132761904Y-80257142D01*
X132809523Y-80161904D01*
X132809523Y-79352380D01*
X133809523Y-80352380D02*
X133238095Y-80352380D01*
X133523809Y-80352380D02*
X133523809Y-79352380D01*
X133428571Y-79495238D01*
X133333333Y-79590476D01*
X133238095Y-79638095D01*
X133714285Y-49102380D02*
X134285714Y-49102380D01*
X134000000Y-50102380D02*
X134000000Y-49102380D01*
X134619047Y-50102380D02*
X134619047Y-49102380D01*
X134619047Y-49578571D02*
X135190476Y-49578571D01*
X135190476Y-50102380D02*
X135190476Y-49102380D01*
X136190476Y-50102380D02*
X135619047Y-50102380D01*
X135904761Y-50102380D02*
X135904761Y-49102380D01*
X135809523Y-49245238D01*
X135714285Y-49340476D01*
X135619047Y-49388095D01*
X129122380Y-33866666D02*
X128646190Y-34200000D01*
X129122380Y-34438095D02*
X128122380Y-34438095D01*
X128122380Y-34057142D01*
X128170000Y-33961904D01*
X128217619Y-33914285D01*
X128312857Y-33866666D01*
X128455714Y-33866666D01*
X128550952Y-33914285D01*
X128598571Y-33961904D01*
X128646190Y-34057142D01*
X128646190Y-34438095D01*
X128122380Y-33533333D02*
X128122380Y-32866666D01*
X129122380Y-33295238D01*
X140022380Y-42166666D02*
X139546190Y-42500000D01*
X140022380Y-42738095D02*
X139022380Y-42738095D01*
X139022380Y-42357142D01*
X139070000Y-42261904D01*
X139117619Y-42214285D01*
X139212857Y-42166666D01*
X139355714Y-42166666D01*
X139450952Y-42214285D01*
X139498571Y-42261904D01*
X139546190Y-42357142D01*
X139546190Y-42738095D01*
X139022380Y-41309523D02*
X139022380Y-41500000D01*
X139070000Y-41595238D01*
X139117619Y-41642857D01*
X139260476Y-41738095D01*
X139450952Y-41785714D01*
X139831904Y-41785714D01*
X139927142Y-41738095D01*
X139974761Y-41690476D01*
X140022380Y-41595238D01*
X140022380Y-41404761D01*
X139974761Y-41309523D01*
X139927142Y-41261904D01*
X139831904Y-41214285D01*
X139593809Y-41214285D01*
X139498571Y-41261904D01*
X139450952Y-41309523D01*
X139403333Y-41404761D01*
X139403333Y-41595238D01*
X139450952Y-41690476D01*
X139498571Y-41738095D01*
X139593809Y-41785714D01*
X134666666Y-87152380D02*
X134666666Y-87866666D01*
X134619047Y-88009523D01*
X134523809Y-88104761D01*
X134380952Y-88152380D01*
X134285714Y-88152380D01*
X135666666Y-88152380D02*
X135095238Y-88152380D01*
X135380952Y-88152380D02*
X135380952Y-87152380D01*
X135285714Y-87295238D01*
X135190476Y-87390476D01*
X135095238Y-87438095D01*
X142782380Y-37222380D02*
X141782380Y-37222380D01*
X142687142Y-36174761D02*
X142734761Y-36222380D01*
X142782380Y-36365238D01*
X142782380Y-36460476D01*
X142734761Y-36603333D01*
X142639523Y-36698571D01*
X142544285Y-36746190D01*
X142353809Y-36793809D01*
X142210952Y-36793809D01*
X142020476Y-36746190D01*
X141925238Y-36698571D01*
X141830000Y-36603333D01*
X141782380Y-36460476D01*
X141782380Y-36365238D01*
X141830000Y-36222380D01*
X141877619Y-36174761D01*
X142734761Y-35793809D02*
X142782380Y-35650952D01*
X142782380Y-35412857D01*
X142734761Y-35317619D01*
X142687142Y-35270000D01*
X142591904Y-35222380D01*
X142496666Y-35222380D01*
X142401428Y-35270000D01*
X142353809Y-35317619D01*
X142306190Y-35412857D01*
X142258571Y-35603333D01*
X142210952Y-35698571D01*
X142163333Y-35746190D01*
X142068095Y-35793809D01*
X141972857Y-35793809D01*
X141877619Y-35746190D01*
X141830000Y-35698571D01*
X141782380Y-35603333D01*
X141782380Y-35365238D01*
X141830000Y-35222380D01*
X142782380Y-34793809D02*
X141782380Y-34793809D01*
X141782380Y-34412857D01*
X141830000Y-34317619D01*
X141877619Y-34270000D01*
X141972857Y-34222380D01*
X142115714Y-34222380D01*
X142210952Y-34270000D01*
X142258571Y-34317619D01*
X142306190Y-34412857D01*
X142306190Y-34793809D01*
X142782380Y-33270000D02*
X142782380Y-33841428D01*
X142782380Y-33555714D02*
X141782380Y-33555714D01*
X141925238Y-33650952D01*
X142020476Y-33746190D01*
X142068095Y-33841428D01*
X134787142Y-73166666D02*
X134834761Y-73214285D01*
X134882380Y-73357142D01*
X134882380Y-73452380D01*
X134834761Y-73595238D01*
X134739523Y-73690476D01*
X134644285Y-73738095D01*
X134453809Y-73785714D01*
X134310952Y-73785714D01*
X134120476Y-73738095D01*
X134025238Y-73690476D01*
X133930000Y-73595238D01*
X133882380Y-73452380D01*
X133882380Y-73357142D01*
X133930000Y-73214285D01*
X133977619Y-73166666D01*
X134215714Y-72309523D02*
X134882380Y-72309523D01*
X133834761Y-72547619D02*
X134549047Y-72785714D01*
X134549047Y-72166666D01*
X138787142Y-73166666D02*
X138834761Y-73214285D01*
X138882380Y-73357142D01*
X138882380Y-73452380D01*
X138834761Y-73595238D01*
X138739523Y-73690476D01*
X138644285Y-73738095D01*
X138453809Y-73785714D01*
X138310952Y-73785714D01*
X138120476Y-73738095D01*
X138025238Y-73690476D01*
X137930000Y-73595238D01*
X137882380Y-73452380D01*
X137882380Y-73357142D01*
X137930000Y-73214285D01*
X137977619Y-73166666D01*
X137882380Y-72833333D02*
X137882380Y-72214285D01*
X138263333Y-72547619D01*
X138263333Y-72404761D01*
X138310952Y-72309523D01*
X138358571Y-72261904D01*
X138453809Y-72214285D01*
X138691904Y-72214285D01*
X138787142Y-72261904D01*
X138834761Y-72309523D01*
X138882380Y-72404761D01*
X138882380Y-72690476D01*
X138834761Y-72785714D01*
X138787142Y-72833333D01*
X132238095Y-51502380D02*
X132238095Y-52311904D01*
X132285714Y-52407142D01*
X132333333Y-52454761D01*
X132428571Y-52502380D01*
X132619047Y-52502380D01*
X132714285Y-52454761D01*
X132761904Y-52407142D01*
X132809523Y-52311904D01*
X132809523Y-51502380D01*
X133714285Y-51502380D02*
X133523809Y-51502380D01*
X133428571Y-51550000D01*
X133380952Y-51597619D01*
X133285714Y-51740476D01*
X133238095Y-51930952D01*
X133238095Y-52311904D01*
X133285714Y-52407142D01*
X133333333Y-52454761D01*
X133428571Y-52502380D01*
X133619047Y-52502380D01*
X133714285Y-52454761D01*
X133761904Y-52407142D01*
X133809523Y-52311904D01*
X133809523Y-52073809D01*
X133761904Y-51978571D01*
X133714285Y-51930952D01*
X133619047Y-51883333D01*
X133428571Y-51883333D01*
X133333333Y-51930952D01*
X133285714Y-51978571D01*
X133238095Y-52073809D01*
X136833333Y-78882380D02*
X136500000Y-78406190D01*
X136261904Y-78882380D02*
X136261904Y-77882380D01*
X136642857Y-77882380D01*
X136738095Y-77930000D01*
X136785714Y-77977619D01*
X136833333Y-78072857D01*
X136833333Y-78215714D01*
X136785714Y-78310952D01*
X136738095Y-78358571D01*
X136642857Y-78406190D01*
X136261904Y-78406190D01*
X137738095Y-77882380D02*
X137261904Y-77882380D01*
X137214285Y-78358571D01*
X137261904Y-78310952D01*
X137357142Y-78263333D01*
X137595238Y-78263333D01*
X137690476Y-78310952D01*
X137738095Y-78358571D01*
X137785714Y-78453809D01*
X137785714Y-78691904D01*
X137738095Y-78787142D01*
X137690476Y-78834761D01*
X137595238Y-78882380D01*
X137357142Y-78882380D01*
X137261904Y-78834761D01*
X137214285Y-78787142D01*
X126022380Y-83166666D02*
X125546190Y-83500000D01*
X126022380Y-83738095D02*
X125022380Y-83738095D01*
X125022380Y-83357142D01*
X125070000Y-83261904D01*
X125117619Y-83214285D01*
X125212857Y-83166666D01*
X125355714Y-83166666D01*
X125450952Y-83214285D01*
X125498571Y-83261904D01*
X125546190Y-83357142D01*
X125546190Y-83738095D01*
X125355714Y-82309523D02*
X126022380Y-82309523D01*
X124974761Y-82547619D02*
X125689047Y-82785714D01*
X125689047Y-82166666D01*
X138045833Y-84022380D02*
X137712500Y-83546190D01*
X137474404Y-84022380D02*
X137474404Y-83022380D01*
X137855357Y-83022380D01*
X137950595Y-83070000D01*
X137998214Y-83117619D01*
X138045833Y-83212857D01*
X138045833Y-83355714D01*
X137998214Y-83450952D01*
X137950595Y-83498571D01*
X137855357Y-83546190D01*
X137474404Y-83546190D01*
X138379166Y-83022380D02*
X138998214Y-83022380D01*
X138664880Y-83403333D01*
X138807738Y-83403333D01*
X138902976Y-83450952D01*
X138950595Y-83498571D01*
X138998214Y-83593809D01*
X138998214Y-83831904D01*
X138950595Y-83927142D01*
X138902976Y-83974761D01*
X138807738Y-84022380D01*
X138522023Y-84022380D01*
X138426785Y-83974761D01*
X138379166Y-83927142D01*
X138045833Y-82022380D02*
X137712500Y-81546190D01*
X137474404Y-82022380D02*
X137474404Y-81022380D01*
X137855357Y-81022380D01*
X137950595Y-81070000D01*
X137998214Y-81117619D01*
X138045833Y-81212857D01*
X138045833Y-81355714D01*
X137998214Y-81450952D01*
X137950595Y-81498571D01*
X137855357Y-81546190D01*
X137474404Y-81546190D01*
X138426785Y-81117619D02*
X138474404Y-81070000D01*
X138569642Y-81022380D01*
X138807738Y-81022380D01*
X138902976Y-81070000D01*
X138950595Y-81117619D01*
X138998214Y-81212857D01*
X138998214Y-81308095D01*
X138950595Y-81450952D01*
X138379166Y-82022380D01*
X138998214Y-82022380D01*
X128022380Y-75166666D02*
X127546190Y-75500000D01*
X128022380Y-75738095D02*
X127022380Y-75738095D01*
X127022380Y-75357142D01*
X127070000Y-75261904D01*
X127117619Y-75214285D01*
X127212857Y-75166666D01*
X127355714Y-75166666D01*
X127450952Y-75214285D01*
X127498571Y-75261904D01*
X127546190Y-75357142D01*
X127546190Y-75738095D01*
X128022380Y-74214285D02*
X128022380Y-74785714D01*
X128022380Y-74500000D02*
X127022380Y-74500000D01*
X127165238Y-74595238D01*
X127260476Y-74690476D01*
X127308095Y-74785714D01*
X141049404Y-84022380D02*
X141049404Y-83022380D01*
X141287500Y-83022380D01*
X141430357Y-83070000D01*
X141525595Y-83165238D01*
X141573214Y-83260476D01*
X141620833Y-83450952D01*
X141620833Y-83593809D01*
X141573214Y-83784285D01*
X141525595Y-83879523D01*
X141430357Y-83974761D01*
X141287500Y-84022380D01*
X141049404Y-84022380D01*
X142001785Y-83117619D02*
X142049404Y-83070000D01*
X142144642Y-83022380D01*
X142382738Y-83022380D01*
X142477976Y-83070000D01*
X142525595Y-83117619D01*
X142573214Y-83212857D01*
X142573214Y-83308095D01*
X142525595Y-83450952D01*
X141954166Y-84022380D01*
X142573214Y-84022380D01*
X141049404Y-82022380D02*
X141049404Y-81022380D01*
X141287500Y-81022380D01*
X141430357Y-81070000D01*
X141525595Y-81165238D01*
X141573214Y-81260476D01*
X141620833Y-81450952D01*
X141620833Y-81593809D01*
X141573214Y-81784285D01*
X141525595Y-81879523D01*
X141430357Y-81974761D01*
X141287500Y-82022380D01*
X141049404Y-82022380D01*
X142573214Y-82022380D02*
X142001785Y-82022380D01*
X142287500Y-82022380D02*
X142287500Y-81022380D01*
X142192261Y-81165238D01*
X142097023Y-81260476D01*
X142001785Y-81308095D01*
X143787142Y-91166666D02*
X143834761Y-91214285D01*
X143882380Y-91357142D01*
X143882380Y-91452380D01*
X143834761Y-91595238D01*
X143739523Y-91690476D01*
X143644285Y-91738095D01*
X143453809Y-91785714D01*
X143310952Y-91785714D01*
X143120476Y-91738095D01*
X143025238Y-91690476D01*
X142930000Y-91595238D01*
X142882380Y-91452380D01*
X142882380Y-91357142D01*
X142930000Y-91214285D01*
X142977619Y-91166666D01*
X142977619Y-90785714D02*
X142930000Y-90738095D01*
X142882380Y-90642857D01*
X142882380Y-90404761D01*
X142930000Y-90309523D01*
X142977619Y-90261904D01*
X143072857Y-90214285D01*
X143168095Y-90214285D01*
X143310952Y-90261904D01*
X143882380Y-90833333D01*
X143882380Y-90214285D01*
X130787142Y-78166666D02*
X130834761Y-78214285D01*
X130882380Y-78357142D01*
X130882380Y-78452380D01*
X130834761Y-78595238D01*
X130739523Y-78690476D01*
X130644285Y-78738095D01*
X130453809Y-78785714D01*
X130310952Y-78785714D01*
X130120476Y-78738095D01*
X130025238Y-78690476D01*
X129930000Y-78595238D01*
X129882380Y-78452380D01*
X129882380Y-78357142D01*
X129930000Y-78214285D01*
X129977619Y-78166666D01*
X130882380Y-77214285D02*
X130882380Y-77785714D01*
X130882380Y-77500000D02*
X129882380Y-77500000D01*
X130025238Y-77595238D01*
X130120476Y-77690476D01*
X130168095Y-77785714D01*
M02*
