G04 #@! TF.GenerationSoftware,KiCad,Pcbnew,5.1.5-1.fc30*
G04 #@! TF.CreationDate,2020-09-01T08:29:50+02:00*
G04 #@! TF.ProjectId,BeaconTemperature,42656163-6f6e-4546-956d-706572617475,rev?*
G04 #@! TF.SameCoordinates,Original*
G04 #@! TF.FileFunction,Legend,Bot*
G04 #@! TF.FilePolarity,Positive*
%FSLAX46Y46*%
G04 Gerber Fmt 4.6, Leading zero omitted, Abs format (unit mm)*
G04 Created by KiCad (PCBNEW 5.1.5-1.fc30) date 2020-09-01 08:29:50*
%MOMM*%
%LPD*%
G04 APERTURE LIST*
%ADD10C,0.150000*%
G04 APERTURE END LIST*
D10*
X156307142Y-45495238D02*
X156402380Y-45780952D01*
X156497619Y-45876190D01*
X156688095Y-45971428D01*
X156973809Y-45971428D01*
X157164285Y-45876190D01*
X157259523Y-45780952D01*
X157354761Y-45590476D01*
X157354761Y-44828571D01*
X155354761Y-44828571D01*
X155354761Y-45495238D01*
X155450000Y-45685714D01*
X155545238Y-45780952D01*
X155735714Y-45876190D01*
X155926190Y-45876190D01*
X156116666Y-45780952D01*
X156211904Y-45685714D01*
X156307142Y-45495238D01*
X156307142Y-44828571D01*
X157259523Y-47590476D02*
X157354761Y-47400000D01*
X157354761Y-47019047D01*
X157259523Y-46828571D01*
X157069047Y-46733333D01*
X156307142Y-46733333D01*
X156116666Y-46828571D01*
X156021428Y-47019047D01*
X156021428Y-47400000D01*
X156116666Y-47590476D01*
X156307142Y-47685714D01*
X156497619Y-47685714D01*
X156688095Y-46733333D01*
X157354761Y-49400000D02*
X156307142Y-49400000D01*
X156116666Y-49304761D01*
X156021428Y-49114285D01*
X156021428Y-48733333D01*
X156116666Y-48542857D01*
X157259523Y-49400000D02*
X157354761Y-49209523D01*
X157354761Y-48733333D01*
X157259523Y-48542857D01*
X157069047Y-48447619D01*
X156878571Y-48447619D01*
X156688095Y-48542857D01*
X156592857Y-48733333D01*
X156592857Y-49209523D01*
X156497619Y-49400000D01*
X157259523Y-51209523D02*
X157354761Y-51019047D01*
X157354761Y-50638095D01*
X157259523Y-50447619D01*
X157164285Y-50352380D01*
X156973809Y-50257142D01*
X156402380Y-50257142D01*
X156211904Y-50352380D01*
X156116666Y-50447619D01*
X156021428Y-50638095D01*
X156021428Y-51019047D01*
X156116666Y-51209523D01*
X157354761Y-52352380D02*
X157259523Y-52161904D01*
X157164285Y-52066666D01*
X156973809Y-51971428D01*
X156402380Y-51971428D01*
X156211904Y-52066666D01*
X156116666Y-52161904D01*
X156021428Y-52352380D01*
X156021428Y-52638095D01*
X156116666Y-52828571D01*
X156211904Y-52923809D01*
X156402380Y-53019047D01*
X156973809Y-53019047D01*
X157164285Y-52923809D01*
X157259523Y-52828571D01*
X157354761Y-52638095D01*
X157354761Y-52352380D01*
X156021428Y-53876190D02*
X157354761Y-53876190D01*
X156211904Y-53876190D02*
X156116666Y-53971428D01*
X156021428Y-54161904D01*
X156021428Y-54447619D01*
X156116666Y-54638095D01*
X156307142Y-54733333D01*
X157354761Y-54733333D01*
X155354761Y-56923809D02*
X155354761Y-58066666D01*
X157354761Y-57495238D02*
X155354761Y-57495238D01*
X157259523Y-59495238D02*
X157354761Y-59304761D01*
X157354761Y-58923809D01*
X157259523Y-58733333D01*
X157069047Y-58638095D01*
X156307142Y-58638095D01*
X156116666Y-58733333D01*
X156021428Y-58923809D01*
X156021428Y-59304761D01*
X156116666Y-59495238D01*
X156307142Y-59590476D01*
X156497619Y-59590476D01*
X156688095Y-58638095D01*
X157354761Y-60447619D02*
X156021428Y-60447619D01*
X156211904Y-60447619D02*
X156116666Y-60542857D01*
X156021428Y-60733333D01*
X156021428Y-61019047D01*
X156116666Y-61209523D01*
X156307142Y-61304761D01*
X157354761Y-61304761D01*
X156307142Y-61304761D02*
X156116666Y-61400000D01*
X156021428Y-61590476D01*
X156021428Y-61876190D01*
X156116666Y-62066666D01*
X156307142Y-62161904D01*
X157354761Y-62161904D01*
X156021428Y-63114285D02*
X158021428Y-63114285D01*
X156116666Y-63114285D02*
X156021428Y-63304761D01*
X156021428Y-63685714D01*
X156116666Y-63876190D01*
X156211904Y-63971428D01*
X156402380Y-64066666D01*
X156973809Y-64066666D01*
X157164285Y-63971428D01*
X157259523Y-63876190D01*
X157354761Y-63685714D01*
X157354761Y-63304761D01*
X157259523Y-63114285D01*
X160504761Y-47542857D02*
X158504761Y-47542857D01*
X158504761Y-48019047D01*
X158600000Y-48304761D01*
X158790476Y-48495238D01*
X158980952Y-48590476D01*
X159361904Y-48685714D01*
X159647619Y-48685714D01*
X160028571Y-48590476D01*
X160219047Y-48495238D01*
X160409523Y-48304761D01*
X160504761Y-48019047D01*
X160504761Y-47542857D01*
X160314285Y-49542857D02*
X160409523Y-49638095D01*
X160504761Y-49542857D01*
X160409523Y-49447619D01*
X160314285Y-49542857D01*
X160504761Y-49542857D01*
X159457142Y-51161904D02*
X159552380Y-51447619D01*
X159647619Y-51542857D01*
X159838095Y-51638095D01*
X160123809Y-51638095D01*
X160314285Y-51542857D01*
X160409523Y-51447619D01*
X160504761Y-51257142D01*
X160504761Y-50495238D01*
X158504761Y-50495238D01*
X158504761Y-51161904D01*
X158600000Y-51352380D01*
X158695238Y-51447619D01*
X158885714Y-51542857D01*
X159076190Y-51542857D01*
X159266666Y-51447619D01*
X159361904Y-51352380D01*
X159457142Y-51161904D01*
X159457142Y-50495238D01*
X160504761Y-52495238D02*
X159171428Y-52495238D01*
X159552380Y-52495238D02*
X159361904Y-52590476D01*
X159266666Y-52685714D01*
X159171428Y-52876190D01*
X159171428Y-53066666D01*
X160504761Y-53733333D02*
X159171428Y-53733333D01*
X158504761Y-53733333D02*
X158600000Y-53638095D01*
X158695238Y-53733333D01*
X158600000Y-53828571D01*
X158504761Y-53733333D01*
X158695238Y-53733333D01*
X159171428Y-55542857D02*
X160790476Y-55542857D01*
X160980952Y-55447619D01*
X161076190Y-55352380D01*
X161171428Y-55161904D01*
X161171428Y-54876190D01*
X161076190Y-54685714D01*
X160409523Y-55542857D02*
X160504761Y-55352380D01*
X160504761Y-54971428D01*
X160409523Y-54780952D01*
X160314285Y-54685714D01*
X160123809Y-54590476D01*
X159552380Y-54590476D01*
X159361904Y-54685714D01*
X159266666Y-54780952D01*
X159171428Y-54971428D01*
X159171428Y-55352380D01*
X159266666Y-55542857D01*
X160504761Y-57352380D02*
X159457142Y-57352380D01*
X159266666Y-57257142D01*
X159171428Y-57066666D01*
X159171428Y-56685714D01*
X159266666Y-56495238D01*
X160409523Y-57352380D02*
X160504761Y-57161904D01*
X160504761Y-56685714D01*
X160409523Y-56495238D01*
X160219047Y-56400000D01*
X160028571Y-56400000D01*
X159838095Y-56495238D01*
X159742857Y-56685714D01*
X159742857Y-57161904D01*
X159647619Y-57352380D01*
X159171428Y-58304761D02*
X160504761Y-58304761D01*
X159361904Y-58304761D02*
X159266666Y-58400000D01*
X159171428Y-58590476D01*
X159171428Y-58876190D01*
X159266666Y-59066666D01*
X159457142Y-59161904D01*
X160504761Y-59161904D01*
X159171428Y-59828571D02*
X159171428Y-60590476D01*
X158504761Y-60114285D02*
X160219047Y-60114285D01*
X160409523Y-60209523D01*
X160504761Y-60400000D01*
X160504761Y-60590476D01*
X160504761Y-61257142D02*
X159171428Y-61257142D01*
X158504761Y-61257142D02*
X158600000Y-61161904D01*
X158695238Y-61257142D01*
X158600000Y-61352380D01*
X158504761Y-61257142D01*
X158695238Y-61257142D01*
X161845238Y-50971428D02*
X161750000Y-51066666D01*
X161654761Y-51257142D01*
X161654761Y-51733333D01*
X161750000Y-51923809D01*
X161845238Y-52019047D01*
X162035714Y-52114285D01*
X162226190Y-52114285D01*
X162511904Y-52019047D01*
X163654761Y-50876190D01*
X163654761Y-52114285D01*
X161654761Y-53352380D02*
X161654761Y-53542857D01*
X161750000Y-53733333D01*
X161845238Y-53828571D01*
X162035714Y-53923809D01*
X162416666Y-54019047D01*
X162892857Y-54019047D01*
X163273809Y-53923809D01*
X163464285Y-53828571D01*
X163559523Y-53733333D01*
X163654761Y-53542857D01*
X163654761Y-53352380D01*
X163559523Y-53161904D01*
X163464285Y-53066666D01*
X163273809Y-52971428D01*
X162892857Y-52876190D01*
X162416666Y-52876190D01*
X162035714Y-52971428D01*
X161845238Y-53066666D01*
X161750000Y-53161904D01*
X161654761Y-53352380D01*
X161845238Y-54780952D02*
X161750000Y-54876190D01*
X161654761Y-55066666D01*
X161654761Y-55542857D01*
X161750000Y-55733333D01*
X161845238Y-55828571D01*
X162035714Y-55923809D01*
X162226190Y-55923809D01*
X162511904Y-55828571D01*
X163654761Y-54685714D01*
X163654761Y-55923809D01*
X161654761Y-57161904D02*
X161654761Y-57352380D01*
X161750000Y-57542857D01*
X161845238Y-57638095D01*
X162035714Y-57733333D01*
X162416666Y-57828571D01*
X162892857Y-57828571D01*
X163273809Y-57733333D01*
X163464285Y-57638095D01*
X163559523Y-57542857D01*
X163654761Y-57352380D01*
X163654761Y-57161904D01*
X163559523Y-56971428D01*
X163464285Y-56876190D01*
X163273809Y-56780952D01*
X162892857Y-56685714D01*
X162416666Y-56685714D01*
X162035714Y-56780952D01*
X161845238Y-56876190D01*
X161750000Y-56971428D01*
X161654761Y-57161904D01*
M02*
