G04 #@! TF.GenerationSoftware,KiCad,Pcbnew,5.1.5-1.fc30*
G04 #@! TF.CreationDate,2020-09-01T08:29:50+02:00*
G04 #@! TF.ProjectId,BeaconTemperature,42656163-6f6e-4546-956d-706572617475,rev?*
G04 #@! TF.SameCoordinates,Original*
G04 #@! TF.FileFunction,Soldermask,Bot*
G04 #@! TF.FilePolarity,Negative*
%FSLAX46Y46*%
G04 Gerber Fmt 4.6, Leading zero omitted, Abs format (unit mm)*
G04 Created by KiCad (PCBNEW 5.1.5-1.fc30) date 2020-09-01 08:29:50*
%MOMM*%
%LPD*%
G04 APERTURE LIST*
%ADD10C,0.100000*%
G04 APERTURE END LIST*
D10*
G36*
X127113512Y-92183927D02*
G01*
X127262812Y-92213624D01*
X127426784Y-92281544D01*
X127574354Y-92380147D01*
X127699853Y-92505646D01*
X127798456Y-92653216D01*
X127866376Y-92817188D01*
X127901000Y-92991259D01*
X127901000Y-93168741D01*
X127866376Y-93342812D01*
X127798456Y-93506784D01*
X127699853Y-93654354D01*
X127574354Y-93779853D01*
X127426784Y-93878456D01*
X127262812Y-93946376D01*
X127113512Y-93976073D01*
X127088742Y-93981000D01*
X126911258Y-93981000D01*
X126886488Y-93976073D01*
X126737188Y-93946376D01*
X126573216Y-93878456D01*
X126425646Y-93779853D01*
X126300147Y-93654354D01*
X126201544Y-93506784D01*
X126133624Y-93342812D01*
X126099000Y-93168741D01*
X126099000Y-92991259D01*
X126133624Y-92817188D01*
X126201544Y-92653216D01*
X126300147Y-92505646D01*
X126425646Y-92380147D01*
X126573216Y-92281544D01*
X126737188Y-92213624D01*
X126886488Y-92183927D01*
X126911258Y-92179000D01*
X127088742Y-92179000D01*
X127113512Y-92183927D01*
G37*
G36*
X154525331Y-89268211D02*
G01*
X154853092Y-89403974D01*
X155148070Y-89601072D01*
X155398928Y-89851930D01*
X155596026Y-90146908D01*
X155731789Y-90474669D01*
X155801000Y-90822616D01*
X155801000Y-91177384D01*
X155731789Y-91525331D01*
X155596026Y-91853092D01*
X155398928Y-92148070D01*
X155148070Y-92398928D01*
X154853092Y-92596026D01*
X154525331Y-92731789D01*
X154177384Y-92801000D01*
X153822616Y-92801000D01*
X153474669Y-92731789D01*
X153146908Y-92596026D01*
X152851930Y-92398928D01*
X152601072Y-92148070D01*
X152403974Y-91853092D01*
X152268211Y-91525331D01*
X152199000Y-91177384D01*
X152199000Y-90822616D01*
X152268211Y-90474669D01*
X152403974Y-90146908D01*
X152601072Y-89851930D01*
X152851930Y-89601072D01*
X153146908Y-89403974D01*
X153474669Y-89268211D01*
X153822616Y-89199000D01*
X154177384Y-89199000D01*
X154525331Y-89268211D01*
G37*
G36*
X127113512Y-89643927D02*
G01*
X127262812Y-89673624D01*
X127426784Y-89741544D01*
X127574354Y-89840147D01*
X127699853Y-89965646D01*
X127798456Y-90113216D01*
X127866376Y-90277188D01*
X127901000Y-90451259D01*
X127901000Y-90628741D01*
X127866376Y-90802812D01*
X127798456Y-90966784D01*
X127699853Y-91114354D01*
X127574354Y-91239853D01*
X127426784Y-91338456D01*
X127262812Y-91406376D01*
X127113512Y-91436073D01*
X127088742Y-91441000D01*
X126911258Y-91441000D01*
X126886488Y-91436073D01*
X126737188Y-91406376D01*
X126573216Y-91338456D01*
X126425646Y-91239853D01*
X126300147Y-91114354D01*
X126201544Y-90966784D01*
X126133624Y-90802812D01*
X126099000Y-90628741D01*
X126099000Y-90451259D01*
X126133624Y-90277188D01*
X126201544Y-90113216D01*
X126300147Y-89965646D01*
X126425646Y-89840147D01*
X126573216Y-89741544D01*
X126737188Y-89673624D01*
X126886488Y-89643927D01*
X126911258Y-89639000D01*
X127088742Y-89639000D01*
X127113512Y-89643927D01*
G37*
G36*
X127901000Y-88901000D02*
G01*
X126099000Y-88901000D01*
X126099000Y-87099000D01*
X127901000Y-87099000D01*
X127901000Y-88901000D01*
G37*
G36*
X154375256Y-81646298D02*
G01*
X154481579Y-81667447D01*
X154782042Y-81791903D01*
X155052451Y-81972585D01*
X155282415Y-82202549D01*
X155463097Y-82472958D01*
X155587553Y-82773421D01*
X155651000Y-83092391D01*
X155651000Y-83417609D01*
X155587553Y-83736579D01*
X155463097Y-84037042D01*
X155282415Y-84307451D01*
X155052451Y-84537415D01*
X154782042Y-84718097D01*
X154481579Y-84842553D01*
X154375256Y-84863702D01*
X154162611Y-84906000D01*
X153837389Y-84906000D01*
X153624744Y-84863702D01*
X153518421Y-84842553D01*
X153217958Y-84718097D01*
X152947549Y-84537415D01*
X152717585Y-84307451D01*
X152536903Y-84037042D01*
X152412447Y-83736579D01*
X152349000Y-83417609D01*
X152349000Y-83092391D01*
X152412447Y-82773421D01*
X152536903Y-82472958D01*
X152717585Y-82202549D01*
X152947549Y-81972585D01*
X153217958Y-81791903D01*
X153518421Y-81667447D01*
X153624744Y-81646298D01*
X153837389Y-81604000D01*
X154162611Y-81604000D01*
X154375256Y-81646298D01*
G37*
G36*
X119213512Y-60283927D02*
G01*
X119362812Y-60313624D01*
X119526784Y-60381544D01*
X119674354Y-60480147D01*
X119799853Y-60605646D01*
X119898456Y-60753216D01*
X119966376Y-60917188D01*
X120001000Y-61091259D01*
X120001000Y-61268741D01*
X119966376Y-61442812D01*
X119898456Y-61606784D01*
X119799853Y-61754354D01*
X119674354Y-61879853D01*
X119526784Y-61978456D01*
X119362812Y-62046376D01*
X119213512Y-62076073D01*
X119188742Y-62081000D01*
X119011258Y-62081000D01*
X118986488Y-62076073D01*
X118837188Y-62046376D01*
X118673216Y-61978456D01*
X118525646Y-61879853D01*
X118400147Y-61754354D01*
X118301544Y-61606784D01*
X118233624Y-61442812D01*
X118199000Y-61268741D01*
X118199000Y-61091259D01*
X118233624Y-60917188D01*
X118301544Y-60753216D01*
X118400147Y-60605646D01*
X118525646Y-60480147D01*
X118673216Y-60381544D01*
X118837188Y-60313624D01*
X118986488Y-60283927D01*
X119011258Y-60279000D01*
X119188742Y-60279000D01*
X119213512Y-60283927D01*
G37*
G36*
X119213512Y-57743927D02*
G01*
X119362812Y-57773624D01*
X119526784Y-57841544D01*
X119674354Y-57940147D01*
X119799853Y-58065646D01*
X119898456Y-58213216D01*
X119966376Y-58377188D01*
X120001000Y-58551259D01*
X120001000Y-58728741D01*
X119966376Y-58902812D01*
X119898456Y-59066784D01*
X119799853Y-59214354D01*
X119674354Y-59339853D01*
X119526784Y-59438456D01*
X119362812Y-59506376D01*
X119213512Y-59536073D01*
X119188742Y-59541000D01*
X119011258Y-59541000D01*
X118986488Y-59536073D01*
X118837188Y-59506376D01*
X118673216Y-59438456D01*
X118525646Y-59339853D01*
X118400147Y-59214354D01*
X118301544Y-59066784D01*
X118233624Y-58902812D01*
X118199000Y-58728741D01*
X118199000Y-58551259D01*
X118233624Y-58377188D01*
X118301544Y-58213216D01*
X118400147Y-58065646D01*
X118525646Y-57940147D01*
X118673216Y-57841544D01*
X118837188Y-57773624D01*
X118986488Y-57743927D01*
X119011258Y-57739000D01*
X119188742Y-57739000D01*
X119213512Y-57743927D01*
G37*
G36*
X136449294Y-55946233D02*
G01*
X136621695Y-55998531D01*
X136780583Y-56083458D01*
X136919849Y-56197751D01*
X137034142Y-56337017D01*
X137119069Y-56495906D01*
X137171367Y-56668307D01*
X137184600Y-56802670D01*
X137184600Y-57197331D01*
X137171367Y-57331694D01*
X137119069Y-57504095D01*
X137034142Y-57662983D01*
X136919849Y-57802249D01*
X136780583Y-57916542D01*
X136621694Y-58001469D01*
X136449293Y-58053767D01*
X136270000Y-58071425D01*
X136090706Y-58053767D01*
X135918305Y-58001469D01*
X135759417Y-57916542D01*
X135620151Y-57802249D01*
X135505858Y-57662983D01*
X135420931Y-57504094D01*
X135368633Y-57331693D01*
X135355400Y-57197330D01*
X135355400Y-56802669D01*
X135368633Y-56668306D01*
X135420931Y-56495905D01*
X135505858Y-56337018D01*
X135620152Y-56197751D01*
X135759418Y-56083458D01*
X135918306Y-55998531D01*
X136090707Y-55946233D01*
X136270000Y-55928575D01*
X136449294Y-55946233D01*
G37*
G36*
X133909294Y-55946233D02*
G01*
X134081695Y-55998531D01*
X134240583Y-56083458D01*
X134379849Y-56197751D01*
X134494142Y-56337017D01*
X134579069Y-56495906D01*
X134631367Y-56668307D01*
X134644600Y-56802670D01*
X134644600Y-57197331D01*
X134631367Y-57331694D01*
X134579069Y-57504095D01*
X134494142Y-57662983D01*
X134379849Y-57802249D01*
X134240583Y-57916542D01*
X134081694Y-58001469D01*
X133909293Y-58053767D01*
X133730000Y-58071425D01*
X133550706Y-58053767D01*
X133378305Y-58001469D01*
X133219417Y-57916542D01*
X133080151Y-57802249D01*
X132965858Y-57662983D01*
X132880931Y-57504094D01*
X132828633Y-57331693D01*
X132815400Y-57197330D01*
X132815400Y-56802669D01*
X132828633Y-56668306D01*
X132880931Y-56495905D01*
X132965858Y-56337018D01*
X133080152Y-56197751D01*
X133219418Y-56083458D01*
X133378306Y-55998531D01*
X133550707Y-55946233D01*
X133730000Y-55928575D01*
X133909294Y-55946233D01*
G37*
G36*
X131369294Y-55946233D02*
G01*
X131541695Y-55998531D01*
X131700583Y-56083458D01*
X131839849Y-56197751D01*
X131954142Y-56337017D01*
X132039069Y-56495906D01*
X132091367Y-56668307D01*
X132104600Y-56802670D01*
X132104600Y-57197331D01*
X132091367Y-57331694D01*
X132039069Y-57504095D01*
X131954142Y-57662983D01*
X131839849Y-57802249D01*
X131700583Y-57916542D01*
X131541694Y-58001469D01*
X131369293Y-58053767D01*
X131190000Y-58071425D01*
X131010706Y-58053767D01*
X130838305Y-58001469D01*
X130679417Y-57916542D01*
X130540151Y-57802249D01*
X130425858Y-57662983D01*
X130340931Y-57504094D01*
X130288633Y-57331693D01*
X130275400Y-57197330D01*
X130275400Y-56802669D01*
X130288633Y-56668306D01*
X130340931Y-56495905D01*
X130425858Y-56337018D01*
X130540152Y-56197751D01*
X130679418Y-56083458D01*
X130838306Y-55998531D01*
X131010707Y-55946233D01*
X131190000Y-55928575D01*
X131369294Y-55946233D01*
G37*
G36*
X139724600Y-58067000D02*
G01*
X137895400Y-58067000D01*
X137895400Y-55933000D01*
X139724600Y-55933000D01*
X139724600Y-58067000D01*
G37*
G36*
X119213512Y-55203927D02*
G01*
X119362812Y-55233624D01*
X119526784Y-55301544D01*
X119674354Y-55400147D01*
X119799853Y-55525646D01*
X119898456Y-55673216D01*
X119966376Y-55837188D01*
X120001000Y-56011259D01*
X120001000Y-56188741D01*
X119966376Y-56362812D01*
X119898456Y-56526784D01*
X119799853Y-56674354D01*
X119674354Y-56799853D01*
X119526784Y-56898456D01*
X119362812Y-56966376D01*
X119213512Y-56996073D01*
X119188742Y-57001000D01*
X119011258Y-57001000D01*
X118986488Y-56996073D01*
X118837188Y-56966376D01*
X118673216Y-56898456D01*
X118525646Y-56799853D01*
X118400147Y-56674354D01*
X118301544Y-56526784D01*
X118233624Y-56362812D01*
X118199000Y-56188741D01*
X118199000Y-56011259D01*
X118233624Y-55837188D01*
X118301544Y-55673216D01*
X118400147Y-55525646D01*
X118525646Y-55400147D01*
X118673216Y-55301544D01*
X118837188Y-55233624D01*
X118986488Y-55203927D01*
X119011258Y-55199000D01*
X119188742Y-55199000D01*
X119213512Y-55203927D01*
G37*
G36*
X119213512Y-52663927D02*
G01*
X119362812Y-52693624D01*
X119526784Y-52761544D01*
X119674354Y-52860147D01*
X119799853Y-52985646D01*
X119898456Y-53133216D01*
X119966376Y-53297188D01*
X120001000Y-53471259D01*
X120001000Y-53648741D01*
X119966376Y-53822812D01*
X119898456Y-53986784D01*
X119799853Y-54134354D01*
X119674354Y-54259853D01*
X119526784Y-54358456D01*
X119362812Y-54426376D01*
X119213512Y-54456073D01*
X119188742Y-54461000D01*
X119011258Y-54461000D01*
X118986488Y-54456073D01*
X118837188Y-54426376D01*
X118673216Y-54358456D01*
X118525646Y-54259853D01*
X118400147Y-54134354D01*
X118301544Y-53986784D01*
X118233624Y-53822812D01*
X118199000Y-53648741D01*
X118199000Y-53471259D01*
X118233624Y-53297188D01*
X118301544Y-53133216D01*
X118400147Y-52985646D01*
X118525646Y-52860147D01*
X118673216Y-52761544D01*
X118837188Y-52693624D01*
X118986488Y-52663927D01*
X119011258Y-52659000D01*
X119188742Y-52659000D01*
X119213512Y-52663927D01*
G37*
G36*
X119213512Y-50123927D02*
G01*
X119362812Y-50153624D01*
X119526784Y-50221544D01*
X119674354Y-50320147D01*
X119799853Y-50445646D01*
X119898456Y-50593216D01*
X119966376Y-50757188D01*
X120001000Y-50931259D01*
X120001000Y-51108741D01*
X119966376Y-51282812D01*
X119898456Y-51446784D01*
X119799853Y-51594354D01*
X119674354Y-51719853D01*
X119526784Y-51818456D01*
X119362812Y-51886376D01*
X119213512Y-51916073D01*
X119188742Y-51921000D01*
X119011258Y-51921000D01*
X118986488Y-51916073D01*
X118837188Y-51886376D01*
X118673216Y-51818456D01*
X118525646Y-51719853D01*
X118400147Y-51594354D01*
X118301544Y-51446784D01*
X118233624Y-51282812D01*
X118199000Y-51108741D01*
X118199000Y-50931259D01*
X118233624Y-50757188D01*
X118301544Y-50593216D01*
X118400147Y-50445646D01*
X118525646Y-50320147D01*
X118673216Y-50221544D01*
X118837188Y-50153624D01*
X118986488Y-50123927D01*
X119011258Y-50119000D01*
X119188742Y-50119000D01*
X119213512Y-50123927D01*
G37*
G36*
X119213512Y-47583927D02*
G01*
X119362812Y-47613624D01*
X119526784Y-47681544D01*
X119674354Y-47780147D01*
X119799853Y-47905646D01*
X119898456Y-48053216D01*
X119966376Y-48217188D01*
X120001000Y-48391259D01*
X120001000Y-48568741D01*
X119966376Y-48742812D01*
X119898456Y-48906784D01*
X119799853Y-49054354D01*
X119674354Y-49179853D01*
X119526784Y-49278456D01*
X119362812Y-49346376D01*
X119213512Y-49376073D01*
X119188742Y-49381000D01*
X119011258Y-49381000D01*
X118986488Y-49376073D01*
X118837188Y-49346376D01*
X118673216Y-49278456D01*
X118525646Y-49179853D01*
X118400147Y-49054354D01*
X118301544Y-48906784D01*
X118233624Y-48742812D01*
X118199000Y-48568741D01*
X118199000Y-48391259D01*
X118233624Y-48217188D01*
X118301544Y-48053216D01*
X118400147Y-47905646D01*
X118525646Y-47780147D01*
X118673216Y-47681544D01*
X118837188Y-47613624D01*
X118986488Y-47583927D01*
X119011258Y-47579000D01*
X119188742Y-47579000D01*
X119213512Y-47583927D01*
G37*
G36*
X119213512Y-45043927D02*
G01*
X119362812Y-45073624D01*
X119526784Y-45141544D01*
X119674354Y-45240147D01*
X119799853Y-45365646D01*
X119898456Y-45513216D01*
X119966376Y-45677188D01*
X120001000Y-45851259D01*
X120001000Y-46028741D01*
X119966376Y-46202812D01*
X119898456Y-46366784D01*
X119799853Y-46514354D01*
X119674354Y-46639853D01*
X119526784Y-46738456D01*
X119362812Y-46806376D01*
X119213512Y-46836073D01*
X119188742Y-46841000D01*
X119011258Y-46841000D01*
X118986488Y-46836073D01*
X118837188Y-46806376D01*
X118673216Y-46738456D01*
X118525646Y-46639853D01*
X118400147Y-46514354D01*
X118301544Y-46366784D01*
X118233624Y-46202812D01*
X118199000Y-46028741D01*
X118199000Y-45851259D01*
X118233624Y-45677188D01*
X118301544Y-45513216D01*
X118400147Y-45365646D01*
X118525646Y-45240147D01*
X118673216Y-45141544D01*
X118837188Y-45073624D01*
X118986488Y-45043927D01*
X119011258Y-45039000D01*
X119188742Y-45039000D01*
X119213512Y-45043927D01*
G37*
G36*
X120001000Y-44301000D02*
G01*
X118199000Y-44301000D01*
X118199000Y-42499000D01*
X120001000Y-42499000D01*
X120001000Y-44301000D01*
G37*
G36*
X140113512Y-35643927D02*
G01*
X140262812Y-35673624D01*
X140426784Y-35741544D01*
X140574354Y-35840147D01*
X140699853Y-35965646D01*
X140798456Y-36113216D01*
X140866376Y-36277188D01*
X140901000Y-36451259D01*
X140901000Y-36628741D01*
X140866376Y-36802812D01*
X140798456Y-36966784D01*
X140699853Y-37114354D01*
X140574354Y-37239853D01*
X140426784Y-37338456D01*
X140262812Y-37406376D01*
X140113512Y-37436073D01*
X140088742Y-37441000D01*
X139911258Y-37441000D01*
X139886488Y-37436073D01*
X139737188Y-37406376D01*
X139573216Y-37338456D01*
X139425646Y-37239853D01*
X139300147Y-37114354D01*
X139201544Y-36966784D01*
X139133624Y-36802812D01*
X139099000Y-36628741D01*
X139099000Y-36451259D01*
X139133624Y-36277188D01*
X139201544Y-36113216D01*
X139300147Y-35965646D01*
X139425646Y-35840147D01*
X139573216Y-35741544D01*
X139737188Y-35673624D01*
X139886488Y-35643927D01*
X139911258Y-35639000D01*
X140088742Y-35639000D01*
X140113512Y-35643927D01*
G37*
G36*
X137573512Y-35643927D02*
G01*
X137722812Y-35673624D01*
X137886784Y-35741544D01*
X138034354Y-35840147D01*
X138159853Y-35965646D01*
X138258456Y-36113216D01*
X138326376Y-36277188D01*
X138361000Y-36451259D01*
X138361000Y-36628741D01*
X138326376Y-36802812D01*
X138258456Y-36966784D01*
X138159853Y-37114354D01*
X138034354Y-37239853D01*
X137886784Y-37338456D01*
X137722812Y-37406376D01*
X137573512Y-37436073D01*
X137548742Y-37441000D01*
X137371258Y-37441000D01*
X137346488Y-37436073D01*
X137197188Y-37406376D01*
X137033216Y-37338456D01*
X136885646Y-37239853D01*
X136760147Y-37114354D01*
X136661544Y-36966784D01*
X136593624Y-36802812D01*
X136559000Y-36628741D01*
X136559000Y-36451259D01*
X136593624Y-36277188D01*
X136661544Y-36113216D01*
X136760147Y-35965646D01*
X136885646Y-35840147D01*
X137033216Y-35741544D01*
X137197188Y-35673624D01*
X137346488Y-35643927D01*
X137371258Y-35639000D01*
X137548742Y-35639000D01*
X137573512Y-35643927D01*
G37*
G36*
X135033512Y-35643927D02*
G01*
X135182812Y-35673624D01*
X135346784Y-35741544D01*
X135494354Y-35840147D01*
X135619853Y-35965646D01*
X135718456Y-36113216D01*
X135786376Y-36277188D01*
X135821000Y-36451259D01*
X135821000Y-36628741D01*
X135786376Y-36802812D01*
X135718456Y-36966784D01*
X135619853Y-37114354D01*
X135494354Y-37239853D01*
X135346784Y-37338456D01*
X135182812Y-37406376D01*
X135033512Y-37436073D01*
X135008742Y-37441000D01*
X134831258Y-37441000D01*
X134806488Y-37436073D01*
X134657188Y-37406376D01*
X134493216Y-37338456D01*
X134345646Y-37239853D01*
X134220147Y-37114354D01*
X134121544Y-36966784D01*
X134053624Y-36802812D01*
X134019000Y-36628741D01*
X134019000Y-36451259D01*
X134053624Y-36277188D01*
X134121544Y-36113216D01*
X134220147Y-35965646D01*
X134345646Y-35840147D01*
X134493216Y-35741544D01*
X134657188Y-35673624D01*
X134806488Y-35643927D01*
X134831258Y-35639000D01*
X135008742Y-35639000D01*
X135033512Y-35643927D01*
G37*
G36*
X140901000Y-34901000D02*
G01*
X139099000Y-34901000D01*
X139099000Y-33099000D01*
X140901000Y-33099000D01*
X140901000Y-34901000D01*
G37*
G36*
X137573512Y-33103927D02*
G01*
X137722812Y-33133624D01*
X137886784Y-33201544D01*
X138034354Y-33300147D01*
X138159853Y-33425646D01*
X138258456Y-33573216D01*
X138326376Y-33737188D01*
X138361000Y-33911259D01*
X138361000Y-34088741D01*
X138326376Y-34262812D01*
X138258456Y-34426784D01*
X138159853Y-34574354D01*
X138034354Y-34699853D01*
X137886784Y-34798456D01*
X137722812Y-34866376D01*
X137573512Y-34896073D01*
X137548742Y-34901000D01*
X137371258Y-34901000D01*
X137346488Y-34896073D01*
X137197188Y-34866376D01*
X137033216Y-34798456D01*
X136885646Y-34699853D01*
X136760147Y-34574354D01*
X136661544Y-34426784D01*
X136593624Y-34262812D01*
X136559000Y-34088741D01*
X136559000Y-33911259D01*
X136593624Y-33737188D01*
X136661544Y-33573216D01*
X136760147Y-33425646D01*
X136885646Y-33300147D01*
X137033216Y-33201544D01*
X137197188Y-33133624D01*
X137346488Y-33103927D01*
X137371258Y-33099000D01*
X137548742Y-33099000D01*
X137573512Y-33103927D01*
G37*
G36*
X135033512Y-33103927D02*
G01*
X135182812Y-33133624D01*
X135346784Y-33201544D01*
X135494354Y-33300147D01*
X135619853Y-33425646D01*
X135718456Y-33573216D01*
X135786376Y-33737188D01*
X135821000Y-33911259D01*
X135821000Y-34088741D01*
X135786376Y-34262812D01*
X135718456Y-34426784D01*
X135619853Y-34574354D01*
X135494354Y-34699853D01*
X135346784Y-34798456D01*
X135182812Y-34866376D01*
X135033512Y-34896073D01*
X135008742Y-34901000D01*
X134831258Y-34901000D01*
X134806488Y-34896073D01*
X134657188Y-34866376D01*
X134493216Y-34798456D01*
X134345646Y-34699853D01*
X134220147Y-34574354D01*
X134121544Y-34426784D01*
X134053624Y-34262812D01*
X134019000Y-34088741D01*
X134019000Y-33911259D01*
X134053624Y-33737188D01*
X134121544Y-33573216D01*
X134220147Y-33425646D01*
X134345646Y-33300147D01*
X134493216Y-33201544D01*
X134657188Y-33133624D01*
X134806488Y-33103927D01*
X134831258Y-33099000D01*
X135008742Y-33099000D01*
X135033512Y-33103927D01*
G37*
G36*
X154375256Y-26036298D02*
G01*
X154481579Y-26057447D01*
X154782042Y-26181903D01*
X155052451Y-26362585D01*
X155282415Y-26592549D01*
X155463097Y-26862958D01*
X155587553Y-27163421D01*
X155651000Y-27482391D01*
X155651000Y-27807609D01*
X155587553Y-28126579D01*
X155463097Y-28427042D01*
X155282415Y-28697451D01*
X155052451Y-28927415D01*
X154782042Y-29108097D01*
X154481579Y-29232553D01*
X154375256Y-29253702D01*
X154162611Y-29296000D01*
X153837389Y-29296000D01*
X153624744Y-29253702D01*
X153518421Y-29232553D01*
X153217958Y-29108097D01*
X152947549Y-28927415D01*
X152717585Y-28697451D01*
X152536903Y-28427042D01*
X152412447Y-28126579D01*
X152349000Y-27807609D01*
X152349000Y-27482391D01*
X152412447Y-27163421D01*
X152536903Y-26862958D01*
X152717585Y-26592549D01*
X152947549Y-26362585D01*
X153217958Y-26181903D01*
X153518421Y-26057447D01*
X153624744Y-26036298D01*
X153837389Y-25994000D01*
X154162611Y-25994000D01*
X154375256Y-26036298D01*
G37*
G36*
X155801000Y-20801000D02*
G01*
X152199000Y-20801000D01*
X152199000Y-17199000D01*
X155801000Y-17199000D01*
X155801000Y-20801000D01*
G37*
M02*
