M48
; DRILL file {KiCad 5.1.5-1.fc30} date Tue 01 Sep 2020 08:30:01 CEST
; FORMAT={-:-/ absolute / metric / decimal}
; #@! TF.CreationDate,2020-09-01T08:30:01+02:00
; #@! TF.GenerationSoftware,Kicad,Pcbnew,5.1.5-1.fc30
; #@! TF.FileFunction,Plated,1,2,PTH
FMAT,2
METRIC
T1C0.400
T2C1.000
T3C1.016
T4C2.000
%
G90
G05
T1
X132.0Y-31.0
X135.0Y-45.0
X137.1Y-65.9
T2
X119.1Y-43.4
X119.1Y-45.94
X119.1Y-48.48
X119.1Y-51.02
X119.1Y-53.56
X119.1Y-56.1
X119.1Y-58.64
X119.1Y-61.18
X127.0Y-88.0
X127.0Y-90.54
X127.0Y-93.08
X134.92Y-34.0
X134.92Y-36.54
X137.46Y-34.0
X137.46Y-36.54
X140.0Y-34.0
X140.0Y-36.54
T3
X131.19Y-57.0
X133.73Y-57.0
X136.27Y-57.0
X138.81Y-57.0
T4
X154.0Y-19.0
X154.0Y-91.0
T0
M30
