G04 #@! TF.GenerationSoftware,KiCad,Pcbnew,5.1.5-1.fc30*
G04 #@! TF.CreationDate,2020-10-13T00:09:32+02:00*
G04 #@! TF.ProjectId,BeaconTemperature2,42656163-6f6e-4546-956d-706572617475,rev?*
G04 #@! TF.SameCoordinates,Original*
G04 #@! TF.FileFunction,Legend,Top*
G04 #@! TF.FilePolarity,Positive*
%FSLAX46Y46*%
G04 Gerber Fmt 4.6, Leading zero omitted, Abs format (unit mm)*
G04 Created by KiCad (PCBNEW 5.1.5-1.fc30) date 2020-10-13 00:09:32*
%MOMM*%
%LPD*%
G04 APERTURE LIST*
%ADD10C,0.120000*%
%ADD11C,0.150000*%
%ADD12C,0.100000*%
G04 APERTURE END LIST*
D10*
X52624721Y-109010000D02*
X52950279Y-109010000D01*
X52624721Y-107990000D02*
X52950279Y-107990000D01*
X34670000Y-98000000D02*
X34670000Y-96670000D01*
X34670000Y-96670000D02*
X36000000Y-96670000D01*
X37270000Y-96670000D02*
X60190000Y-96670000D01*
X60190000Y-99330000D02*
X60190000Y-96670000D01*
X37270000Y-99330000D02*
X60190000Y-99330000D01*
X37270000Y-99330000D02*
X37270000Y-96670000D01*
X63302500Y-68735000D02*
X65587500Y-68735000D01*
X63302500Y-67265000D02*
X63302500Y-68735000D01*
X65587500Y-67265000D02*
X63302500Y-67265000D01*
X86470000Y-78655000D02*
X91540000Y-78655000D01*
X86470000Y-88425000D02*
X91540000Y-88425000D01*
X91540000Y-88425000D02*
X91540000Y-78655000D01*
X86470000Y-88425000D02*
X86470000Y-78655000D01*
X59330000Y-91330000D02*
X58000000Y-91330000D01*
X59330000Y-90000000D02*
X59330000Y-91330000D01*
X59330000Y-88730000D02*
X56670000Y-88730000D01*
X56670000Y-88730000D02*
X56670000Y-68350000D01*
X59330000Y-88730000D02*
X59330000Y-68350000D01*
X59330000Y-68350000D02*
X56670000Y-68350000D01*
X114000000Y-79330000D02*
X112670000Y-79330000D01*
X112670000Y-79330000D02*
X112670000Y-78000000D01*
X115270000Y-79330000D02*
X115270000Y-76730000D01*
X115270000Y-76730000D02*
X112670000Y-76730000D01*
X112670000Y-76730000D02*
X112670000Y-69050000D01*
X117870000Y-69050000D02*
X112670000Y-69050000D01*
X117870000Y-79330000D02*
X117870000Y-69050000D01*
X117870000Y-79330000D02*
X115270000Y-79330000D01*
X28000000Y-43950000D02*
X106000000Y-43950000D01*
X106000000Y-43950000D02*
X106000000Y-64050000D01*
X106000000Y-64050000D02*
X28000000Y-64050000D01*
X28000000Y-64050000D02*
X28000000Y-43950000D01*
X112700000Y-24300000D02*
X112700000Y-25700000D01*
X112000000Y-26400000D02*
X111400000Y-26400000D01*
X110700000Y-25700000D02*
X110700000Y-24300000D01*
X111400000Y-23600000D02*
X112000000Y-23600000D01*
X112000000Y-23600000D02*
G75*
G02X112700000Y-24300000I0J-700000D01*
G01*
X110700000Y-24300000D02*
G75*
G02X111400000Y-23600000I700000J0D01*
G01*
X111400000Y-26400000D02*
G75*
G02X110700000Y-25700000I0J700000D01*
G01*
X112700000Y-25700000D02*
G75*
G02X112000000Y-26400000I-700000J0D01*
G01*
X118670000Y-28130000D02*
X120000000Y-28130000D01*
X118670000Y-29460000D02*
X118670000Y-28130000D01*
X118670000Y-30730000D02*
X121330000Y-30730000D01*
X121330000Y-30730000D02*
X121330000Y-33330000D01*
X118670000Y-30730000D02*
X118670000Y-33330000D01*
X118670000Y-33330000D02*
X121330000Y-33330000D01*
X110890302Y-51485000D02*
X110890302Y-52285000D01*
X110490302Y-51885000D02*
X111290302Y-51885000D01*
X118981000Y-53667000D02*
X118981000Y-54733000D01*
X118941000Y-53432000D02*
X118941000Y-54968000D01*
X118901000Y-53252000D02*
X118901000Y-55148000D01*
X118861000Y-53102000D02*
X118861000Y-55298000D01*
X118821000Y-52971000D02*
X118821000Y-55429000D01*
X118781000Y-52854000D02*
X118781000Y-55546000D01*
X118741000Y-52747000D02*
X118741000Y-55653000D01*
X118701000Y-52648000D02*
X118701000Y-55752000D01*
X118661000Y-52555000D02*
X118661000Y-55845000D01*
X118621000Y-52469000D02*
X118621000Y-55931000D01*
X118581000Y-52387000D02*
X118581000Y-56013000D01*
X118541000Y-52310000D02*
X118541000Y-56090000D01*
X118501000Y-52236000D02*
X118501000Y-56164000D01*
X118461000Y-52166000D02*
X118461000Y-56234000D01*
X118421000Y-55240000D02*
X118421000Y-56302000D01*
X118421000Y-52098000D02*
X118421000Y-53160000D01*
X118381000Y-55240000D02*
X118381000Y-56366000D01*
X118381000Y-52034000D02*
X118381000Y-53160000D01*
X118341000Y-55240000D02*
X118341000Y-56428000D01*
X118341000Y-51972000D02*
X118341000Y-53160000D01*
X118301000Y-55240000D02*
X118301000Y-56487000D01*
X118301000Y-51913000D02*
X118301000Y-53160000D01*
X118261000Y-55240000D02*
X118261000Y-56545000D01*
X118261000Y-51855000D02*
X118261000Y-53160000D01*
X118221000Y-55240000D02*
X118221000Y-56600000D01*
X118221000Y-51800000D02*
X118221000Y-53160000D01*
X118181000Y-55240000D02*
X118181000Y-56654000D01*
X118181000Y-51746000D02*
X118181000Y-53160000D01*
X118141000Y-55240000D02*
X118141000Y-56705000D01*
X118141000Y-51695000D02*
X118141000Y-53160000D01*
X118101000Y-55240000D02*
X118101000Y-56756000D01*
X118101000Y-51644000D02*
X118101000Y-53160000D01*
X118061000Y-55240000D02*
X118061000Y-56804000D01*
X118061000Y-51596000D02*
X118061000Y-53160000D01*
X118021000Y-55240000D02*
X118021000Y-56851000D01*
X118021000Y-51549000D02*
X118021000Y-53160000D01*
X117981000Y-55240000D02*
X117981000Y-56897000D01*
X117981000Y-51503000D02*
X117981000Y-53160000D01*
X117941000Y-55240000D02*
X117941000Y-56941000D01*
X117941000Y-51459000D02*
X117941000Y-53160000D01*
X117901000Y-55240000D02*
X117901000Y-56984000D01*
X117901000Y-51416000D02*
X117901000Y-53160000D01*
X117861000Y-55240000D02*
X117861000Y-57026000D01*
X117861000Y-51374000D02*
X117861000Y-53160000D01*
X117821000Y-55240000D02*
X117821000Y-57067000D01*
X117821000Y-51333000D02*
X117821000Y-53160000D01*
X117781000Y-55240000D02*
X117781000Y-57107000D01*
X117781000Y-51293000D02*
X117781000Y-53160000D01*
X117741000Y-55240000D02*
X117741000Y-57145000D01*
X117741000Y-51255000D02*
X117741000Y-53160000D01*
X117701000Y-55240000D02*
X117701000Y-57183000D01*
X117701000Y-51217000D02*
X117701000Y-53160000D01*
X117661000Y-55240000D02*
X117661000Y-57219000D01*
X117661000Y-51181000D02*
X117661000Y-53160000D01*
X117621000Y-55240000D02*
X117621000Y-57255000D01*
X117621000Y-51145000D02*
X117621000Y-53160000D01*
X117581000Y-55240000D02*
X117581000Y-57290000D01*
X117581000Y-51110000D02*
X117581000Y-53160000D01*
X117541000Y-55240000D02*
X117541000Y-57324000D01*
X117541000Y-51076000D02*
X117541000Y-53160000D01*
X117501000Y-55240000D02*
X117501000Y-57356000D01*
X117501000Y-51044000D02*
X117501000Y-53160000D01*
X117461000Y-55240000D02*
X117461000Y-57389000D01*
X117461000Y-51011000D02*
X117461000Y-53160000D01*
X117421000Y-55240000D02*
X117421000Y-57420000D01*
X117421000Y-50980000D02*
X117421000Y-53160000D01*
X117381000Y-55240000D02*
X117381000Y-57450000D01*
X117381000Y-50950000D02*
X117381000Y-53160000D01*
X117341000Y-55240000D02*
X117341000Y-57480000D01*
X117341000Y-50920000D02*
X117341000Y-53160000D01*
X117301000Y-55240000D02*
X117301000Y-57509000D01*
X117301000Y-50891000D02*
X117301000Y-53160000D01*
X117261000Y-55240000D02*
X117261000Y-57538000D01*
X117261000Y-50862000D02*
X117261000Y-53160000D01*
X117221000Y-55240000D02*
X117221000Y-57565000D01*
X117221000Y-50835000D02*
X117221000Y-53160000D01*
X117181000Y-55240000D02*
X117181000Y-57592000D01*
X117181000Y-50808000D02*
X117181000Y-53160000D01*
X117141000Y-55240000D02*
X117141000Y-57618000D01*
X117141000Y-50782000D02*
X117141000Y-53160000D01*
X117101000Y-55240000D02*
X117101000Y-57644000D01*
X117101000Y-50756000D02*
X117101000Y-53160000D01*
X117061000Y-55240000D02*
X117061000Y-57669000D01*
X117061000Y-50731000D02*
X117061000Y-53160000D01*
X117021000Y-55240000D02*
X117021000Y-57693000D01*
X117021000Y-50707000D02*
X117021000Y-53160000D01*
X116981000Y-55240000D02*
X116981000Y-57717000D01*
X116981000Y-50683000D02*
X116981000Y-53160000D01*
X116941000Y-55240000D02*
X116941000Y-57740000D01*
X116941000Y-50660000D02*
X116941000Y-53160000D01*
X116901000Y-55240000D02*
X116901000Y-57762000D01*
X116901000Y-50638000D02*
X116901000Y-53160000D01*
X116861000Y-55240000D02*
X116861000Y-57784000D01*
X116861000Y-50616000D02*
X116861000Y-53160000D01*
X116821000Y-55240000D02*
X116821000Y-57806000D01*
X116821000Y-50594000D02*
X116821000Y-53160000D01*
X116781000Y-55240000D02*
X116781000Y-57827000D01*
X116781000Y-50573000D02*
X116781000Y-53160000D01*
X116741000Y-55240000D02*
X116741000Y-57847000D01*
X116741000Y-50553000D02*
X116741000Y-53160000D01*
X116701000Y-55240000D02*
X116701000Y-57866000D01*
X116701000Y-50534000D02*
X116701000Y-53160000D01*
X116661000Y-55240000D02*
X116661000Y-57886000D01*
X116661000Y-50514000D02*
X116661000Y-53160000D01*
X116621000Y-55240000D02*
X116621000Y-57904000D01*
X116621000Y-50496000D02*
X116621000Y-53160000D01*
X116581000Y-55240000D02*
X116581000Y-57922000D01*
X116581000Y-50478000D02*
X116581000Y-53160000D01*
X116541000Y-55240000D02*
X116541000Y-57940000D01*
X116541000Y-50460000D02*
X116541000Y-53160000D01*
X116501000Y-55240000D02*
X116501000Y-57957000D01*
X116501000Y-50443000D02*
X116501000Y-53160000D01*
X116461000Y-55240000D02*
X116461000Y-57974000D01*
X116461000Y-50426000D02*
X116461000Y-53160000D01*
X116421000Y-55240000D02*
X116421000Y-57990000D01*
X116421000Y-50410000D02*
X116421000Y-53160000D01*
X116381000Y-55240000D02*
X116381000Y-58005000D01*
X116381000Y-50395000D02*
X116381000Y-53160000D01*
X116341000Y-50379000D02*
X116341000Y-58021000D01*
X116301000Y-50365000D02*
X116301000Y-58035000D01*
X116261000Y-50350000D02*
X116261000Y-58050000D01*
X116221000Y-50337000D02*
X116221000Y-58063000D01*
X116181000Y-50323000D02*
X116181000Y-58077000D01*
X116141000Y-50311000D02*
X116141000Y-58089000D01*
X116101000Y-50298000D02*
X116101000Y-58102000D01*
X116061000Y-50286000D02*
X116061000Y-58114000D01*
X116021000Y-50275000D02*
X116021000Y-58125000D01*
X115981000Y-50264000D02*
X115981000Y-58136000D01*
X115941000Y-50253000D02*
X115941000Y-58147000D01*
X115901000Y-50243000D02*
X115901000Y-58157000D01*
X115861000Y-50233000D02*
X115861000Y-58167000D01*
X115821000Y-50224000D02*
X115821000Y-58176000D01*
X115781000Y-50215000D02*
X115781000Y-58185000D01*
X115741000Y-50206000D02*
X115741000Y-58194000D01*
X115701000Y-50198000D02*
X115701000Y-58202000D01*
X115661000Y-50190000D02*
X115661000Y-58210000D01*
X115621000Y-50183000D02*
X115621000Y-58217000D01*
X115580000Y-50176000D02*
X115580000Y-58224000D01*
X115540000Y-50170000D02*
X115540000Y-58230000D01*
X115500000Y-50163000D02*
X115500000Y-58237000D01*
X115460000Y-50158000D02*
X115460000Y-58242000D01*
X115420000Y-50152000D02*
X115420000Y-58248000D01*
X115380000Y-50148000D02*
X115380000Y-58252000D01*
X115340000Y-50143000D02*
X115340000Y-58257000D01*
X115300000Y-50139000D02*
X115300000Y-58261000D01*
X115260000Y-50135000D02*
X115260000Y-58265000D01*
X115220000Y-50132000D02*
X115220000Y-58268000D01*
X115180000Y-50129000D02*
X115180000Y-58271000D01*
X115140000Y-50126000D02*
X115140000Y-58274000D01*
X115100000Y-50124000D02*
X115100000Y-58276000D01*
X115060000Y-50123000D02*
X115060000Y-58277000D01*
X115020000Y-50121000D02*
X115020000Y-58279000D01*
X114980000Y-50120000D02*
X114980000Y-58280000D01*
X114940000Y-50120000D02*
X114940000Y-58280000D01*
X114900000Y-50120000D02*
X114900000Y-58280000D01*
X119020000Y-54200000D02*
G75*
G03X119020000Y-54200000I-4120000J0D01*
G01*
X119410000Y-34900000D02*
X119410000Y-40910000D01*
X112590000Y-37150000D02*
X112590000Y-40910000D01*
X119410000Y-40910000D02*
X118150000Y-40910000D01*
X112590000Y-40910000D02*
X113850000Y-40910000D01*
X113327000Y-102810000D02*
X113327000Y-103826000D01*
X111422000Y-103826000D02*
X113327000Y-103826000D01*
X111422000Y-102810000D02*
X111422000Y-103826000D01*
X113327000Y-102810000D02*
X111422000Y-102810000D01*
X113962000Y-103318000D02*
X113327000Y-103318000D01*
X113962000Y-102683000D02*
X113962000Y-103318000D01*
X110762000Y-103318000D02*
X111422000Y-103318000D01*
X110762000Y-102683000D02*
X110762000Y-103318000D01*
X112946000Y-102810000D02*
X112311000Y-103826000D01*
X108600000Y-97700000D02*
X116400000Y-97700000D01*
X116400000Y-97700000D02*
X116400000Y-110400000D01*
X116400000Y-110400000D02*
X108600000Y-110400000D01*
X108600000Y-110400000D02*
X108600000Y-97700000D01*
X108400000Y-99600000D02*
X108400000Y-97500000D01*
X108400000Y-97500000D02*
X110600000Y-97500000D01*
X104327000Y-102810000D02*
X104327000Y-103826000D01*
X102422000Y-103826000D02*
X104327000Y-103826000D01*
X102422000Y-102810000D02*
X102422000Y-103826000D01*
X104327000Y-102810000D02*
X102422000Y-102810000D01*
X104962000Y-103318000D02*
X104327000Y-103318000D01*
X104962000Y-102683000D02*
X104962000Y-103318000D01*
X101762000Y-103318000D02*
X102422000Y-103318000D01*
X101762000Y-102683000D02*
X101762000Y-103318000D01*
X103946000Y-102810000D02*
X103311000Y-103826000D01*
X99600000Y-97700000D02*
X107400000Y-97700000D01*
X107400000Y-97700000D02*
X107400000Y-110400000D01*
X107400000Y-110400000D02*
X99600000Y-110400000D01*
X99600000Y-110400000D02*
X99600000Y-97700000D01*
X99400000Y-99600000D02*
X99400000Y-97500000D01*
X99400000Y-97500000D02*
X101600000Y-97500000D01*
X118670000Y-99130000D02*
X120000000Y-99130000D01*
X118670000Y-100460000D02*
X118670000Y-99130000D01*
X118670000Y-101730000D02*
X121330000Y-101730000D01*
X121330000Y-101730000D02*
X121330000Y-109410000D01*
X118670000Y-101730000D02*
X118670000Y-109410000D01*
X118670000Y-109410000D02*
X121330000Y-109410000D01*
X88760000Y-106580000D02*
X87300000Y-106580000D01*
X88760000Y-103420000D02*
X86600000Y-103420000D01*
X88760000Y-103420000D02*
X88760000Y-104350000D01*
X88760000Y-106580000D02*
X88760000Y-105650000D01*
X95760000Y-106580000D02*
X94300000Y-106580000D01*
X95760000Y-103420000D02*
X93600000Y-103420000D01*
X95760000Y-103420000D02*
X95760000Y-104350000D01*
X95760000Y-106580000D02*
X95760000Y-105650000D01*
X92800000Y-108000000D02*
X96650000Y-108000000D01*
X92800000Y-110000000D02*
X96650000Y-110000000D01*
X92800000Y-108000000D02*
X92800000Y-110000000D01*
X85800000Y-108000000D02*
X89650000Y-108000000D01*
X85800000Y-110000000D02*
X89650000Y-110000000D01*
X85800000Y-108000000D02*
X85800000Y-110000000D01*
X60530000Y-110345000D02*
X55460000Y-110345000D01*
X60530000Y-100575000D02*
X55460000Y-100575000D01*
X55460000Y-100575000D02*
X55460000Y-110345000D01*
X60530000Y-100575000D02*
X60530000Y-110345000D01*
X47670000Y-101670000D02*
X49000000Y-101670000D01*
X47670000Y-103000000D02*
X47670000Y-101670000D01*
X47670000Y-104270000D02*
X50330000Y-104270000D01*
X50330000Y-104270000D02*
X50330000Y-109410000D01*
X47670000Y-104270000D02*
X47670000Y-109410000D01*
X47670000Y-109410000D02*
X50330000Y-109410000D01*
X49670000Y-69670000D02*
X51000000Y-69670000D01*
X49670000Y-71000000D02*
X49670000Y-69670000D01*
X49670000Y-72270000D02*
X52330000Y-72270000D01*
X52330000Y-72270000D02*
X52330000Y-85030000D01*
X49670000Y-72270000D02*
X49670000Y-85030000D01*
X49670000Y-85030000D02*
X52330000Y-85030000D01*
X38300000Y-104000000D02*
X39700000Y-104000000D01*
X40400000Y-104700000D02*
X40400000Y-105300000D01*
X39700000Y-106000000D02*
X38300000Y-106000000D01*
X37600000Y-105300000D02*
X37600000Y-104700000D01*
X37600000Y-104700000D02*
G75*
G02X38300000Y-104000000I700000J0D01*
G01*
X38300000Y-106000000D02*
G75*
G02X37600000Y-105300000I0J700000D01*
G01*
X40400000Y-105300000D02*
G75*
G02X39700000Y-106000000I-700000J0D01*
G01*
X39700000Y-104000000D02*
G75*
G02X40400000Y-104700000I0J-700000D01*
G01*
X38300000Y-107000000D02*
X39700000Y-107000000D01*
X40400000Y-107700000D02*
X40400000Y-108300000D01*
X39700000Y-109000000D02*
X38300000Y-109000000D01*
X37600000Y-108300000D02*
X37600000Y-107700000D01*
X37600000Y-107700000D02*
G75*
G02X38300000Y-107000000I700000J0D01*
G01*
X38300000Y-109000000D02*
G75*
G02X37600000Y-108300000I0J700000D01*
G01*
X40400000Y-108300000D02*
G75*
G02X39700000Y-109000000I-700000J0D01*
G01*
X39700000Y-107000000D02*
G75*
G02X40400000Y-107700000I0J-700000D01*
G01*
X32300000Y-104000000D02*
X33700000Y-104000000D01*
X34400000Y-104700000D02*
X34400000Y-105300000D01*
X33700000Y-106000000D02*
X32300000Y-106000000D01*
X31600000Y-105300000D02*
X31600000Y-104700000D01*
X31600000Y-104700000D02*
G75*
G02X32300000Y-104000000I700000J0D01*
G01*
X32300000Y-106000000D02*
G75*
G02X31600000Y-105300000I0J700000D01*
G01*
X34400000Y-105300000D02*
G75*
G02X33700000Y-106000000I-700000J0D01*
G01*
X33700000Y-104000000D02*
G75*
G02X34400000Y-104700000I0J-700000D01*
G01*
X32300000Y-107000000D02*
X33700000Y-107000000D01*
X34400000Y-107700000D02*
X34400000Y-108300000D01*
X33700000Y-109000000D02*
X32300000Y-109000000D01*
X31600000Y-108300000D02*
X31600000Y-107700000D01*
X31600000Y-107700000D02*
G75*
G02X32300000Y-107000000I700000J0D01*
G01*
X32300000Y-109000000D02*
G75*
G02X31600000Y-108300000I0J700000D01*
G01*
X34400000Y-108300000D02*
G75*
G02X33700000Y-109000000I-700000J0D01*
G01*
X33700000Y-107000000D02*
G75*
G02X34400000Y-107700000I0J-700000D01*
G01*
X51350000Y-107400000D02*
X51350000Y-102000000D01*
X54650000Y-107400000D02*
X54650000Y-102000000D01*
X51350000Y-107400000D02*
X54650000Y-107400000D01*
D11*
X38190000Y-87726000D02*
X36666000Y-87726000D01*
X36666000Y-87726000D02*
X36666000Y-90774000D01*
X36666000Y-90774000D02*
X38190000Y-90774000D01*
X39460000Y-87980000D02*
X47080000Y-87980000D01*
X47080000Y-87980000D02*
X47080000Y-90520000D01*
X47080000Y-90520000D02*
X39460000Y-90520000D01*
X39460000Y-90520000D02*
X39460000Y-87980000D01*
D10*
X82330000Y-82670000D02*
X82330000Y-84000000D01*
X81000000Y-82670000D02*
X82330000Y-82670000D01*
X82330000Y-85270000D02*
X82330000Y-87870000D01*
X79730000Y-85270000D02*
X82330000Y-85270000D01*
X79730000Y-82670000D02*
X79730000Y-85270000D01*
X82330000Y-87870000D02*
X64430000Y-87870000D01*
X79730000Y-82670000D02*
X64430000Y-82670000D01*
X64430000Y-82670000D02*
X64430000Y-87870000D01*
X110670000Y-84000000D02*
X110670000Y-82670000D01*
X110670000Y-82670000D02*
X112000000Y-82670000D01*
X110670000Y-85270000D02*
X113270000Y-85270000D01*
X113270000Y-85270000D02*
X113270000Y-82670000D01*
X113270000Y-82670000D02*
X120950000Y-82670000D01*
X120950000Y-87870000D02*
X120950000Y-82670000D01*
X110670000Y-87870000D02*
X120950000Y-87870000D01*
X110670000Y-87870000D02*
X110670000Y-85270000D01*
X109200000Y-31350000D02*
X110600000Y-31350000D01*
X111300000Y-32050000D02*
X111300000Y-32650000D01*
X110600000Y-33350000D02*
X109200000Y-33350000D01*
X108500000Y-32650000D02*
X108500000Y-32050000D01*
X108500000Y-32050000D02*
G75*
G02X109200000Y-31350000I700000J0D01*
G01*
X109200000Y-33350000D02*
G75*
G02X108500000Y-32650000I0J700000D01*
G01*
X111300000Y-32650000D02*
G75*
G02X110600000Y-33350000I-700000J0D01*
G01*
X110600000Y-31350000D02*
G75*
G02X111300000Y-32050000I0J-700000D01*
G01*
X109900000Y-24350000D02*
X109900000Y-25750000D01*
X109200000Y-26450000D02*
X108600000Y-26450000D01*
X107900000Y-25750000D02*
X107900000Y-24350000D01*
X108600000Y-23650000D02*
X109200000Y-23650000D01*
X109200000Y-23650000D02*
G75*
G02X109900000Y-24350000I0J-700000D01*
G01*
X107900000Y-24350000D02*
G75*
G02X108600000Y-23650000I700000J0D01*
G01*
X108600000Y-26450000D02*
G75*
G02X107900000Y-25750000I0J700000D01*
G01*
X109900000Y-25750000D02*
G75*
G02X109200000Y-26450000I-700000J0D01*
G01*
X120490000Y-38837221D02*
X120490000Y-39162779D01*
X121510000Y-38837221D02*
X121510000Y-39162779D01*
X43710000Y-70575279D02*
X43710000Y-70249721D01*
X42690000Y-70575279D02*
X42690000Y-70249721D01*
X111330000Y-34990000D02*
X111330000Y-36450000D01*
X108170000Y-34990000D02*
X108170000Y-37150000D01*
X108170000Y-34990000D02*
X109100000Y-34990000D01*
X111330000Y-34990000D02*
X110400000Y-34990000D01*
X112800000Y-31500000D02*
X116650000Y-31500000D01*
X112800000Y-33500000D02*
X116650000Y-33500000D01*
X112800000Y-31500000D02*
X112800000Y-33500000D01*
X120400000Y-26650000D02*
X115000000Y-26650000D01*
X120400000Y-23350000D02*
X115000000Y-23350000D01*
X120400000Y-26650000D02*
X120400000Y-23350000D01*
X42200000Y-76400000D02*
X42200000Y-72550000D01*
X44200000Y-76400000D02*
X44200000Y-72550000D01*
X42200000Y-76400000D02*
X44200000Y-76400000D01*
X115624721Y-29510000D02*
X115950279Y-29510000D01*
X115624721Y-28490000D02*
X115950279Y-28490000D01*
X97670000Y-76670000D02*
X99000000Y-76670000D01*
X97670000Y-78000000D02*
X97670000Y-76670000D01*
X100270000Y-76670000D02*
X102870000Y-76670000D01*
X100270000Y-79270000D02*
X100270000Y-76670000D01*
X97670000Y-79270000D02*
X100270000Y-79270000D01*
X102870000Y-76670000D02*
X102870000Y-84410000D01*
X97670000Y-79270000D02*
X97670000Y-84410000D01*
X97670000Y-84410000D02*
X102870000Y-84410000D01*
D11*
X70100000Y-78625000D02*
X70100000Y-80050000D01*
X69875000Y-71375000D02*
X69875000Y-71700000D01*
X77125000Y-71375000D02*
X77125000Y-71700000D01*
X77125000Y-78625000D02*
X77125000Y-78300000D01*
X69875000Y-78625000D02*
X69875000Y-78300000D01*
X77125000Y-78625000D02*
X76800000Y-78625000D01*
X77125000Y-71375000D02*
X76800000Y-71375000D01*
X69875000Y-71375000D02*
X70200000Y-71375000D01*
X69875000Y-78625000D02*
X70100000Y-78625000D01*
D10*
X32250000Y-69290000D02*
X38260000Y-69290000D01*
X34500000Y-76110000D02*
X38260000Y-76110000D01*
X38260000Y-69290000D02*
X38260000Y-70550000D01*
X38260000Y-76110000D02*
X38260000Y-74850000D01*
X65150000Y-78000000D02*
X65150000Y-75450000D01*
X66850000Y-78000000D02*
X66850000Y-75450000D01*
X65150000Y-78000000D02*
X66850000Y-78000000D01*
X74375279Y-67490000D02*
X74049721Y-67490000D01*
X74375279Y-68510000D02*
X74049721Y-68510000D01*
X107490000Y-85049721D02*
X107490000Y-85375279D01*
X108510000Y-85049721D02*
X108510000Y-85375279D01*
X30710000Y-72650279D02*
X30710000Y-72324721D01*
X29690000Y-72650279D02*
X29690000Y-72324721D01*
X106000000Y-43050000D02*
X28000000Y-43050000D01*
X28000000Y-43050000D02*
X28000000Y-22950000D01*
X28000000Y-22950000D02*
X106000000Y-22950000D01*
X106000000Y-22950000D02*
X106000000Y-43050000D01*
D12*
X46623600Y-89402400D02*
X46623600Y-89097600D01*
X44996400Y-89402400D02*
X44996400Y-89097600D01*
X46623600Y-89097600D02*
G75*
G03X44996400Y-89097600I-813600J0D01*
G01*
X44996400Y-89402400D02*
G75*
G03X46623600Y-89402400I813600J0D01*
G01*
X44083600Y-89402400D02*
X44083600Y-89097600D01*
X42456400Y-89402400D02*
X42456400Y-89097600D01*
X44083600Y-89097600D02*
G75*
G03X42456400Y-89097600I-813600J0D01*
G01*
X42456400Y-89402400D02*
G75*
G03X44083600Y-89402400I813600J0D01*
G01*
X41543600Y-89402400D02*
X41543600Y-89097600D01*
X39916400Y-89402400D02*
X39916400Y-89097600D01*
X41543600Y-89097600D02*
G75*
G03X39916400Y-89097600I-813600J0D01*
G01*
X39916400Y-89402400D02*
G75*
G03X41543600Y-89402400I813600J0D01*
G01*
X37376400Y-88284000D02*
X37376400Y-90216000D01*
X39003600Y-90216000D01*
X39003600Y-88284000D01*
X37376400Y-88284000D01*
D11*
X52620833Y-107427142D02*
X52573214Y-107474761D01*
X52430357Y-107522380D01*
X52335119Y-107522380D01*
X52192261Y-107474761D01*
X52097023Y-107379523D01*
X52049404Y-107284285D01*
X52001785Y-107093809D01*
X52001785Y-106950952D01*
X52049404Y-106760476D01*
X52097023Y-106665238D01*
X52192261Y-106570000D01*
X52335119Y-106522380D01*
X52430357Y-106522380D01*
X52573214Y-106570000D01*
X52620833Y-106617619D01*
X53097023Y-107522380D02*
X53287500Y-107522380D01*
X53382738Y-107474761D01*
X53430357Y-107427142D01*
X53525595Y-107284285D01*
X53573214Y-107093809D01*
X53573214Y-106712857D01*
X53525595Y-106617619D01*
X53477976Y-106570000D01*
X53382738Y-106522380D01*
X53192261Y-106522380D01*
X53097023Y-106570000D01*
X53049404Y-106617619D01*
X53001785Y-106712857D01*
X53001785Y-106950952D01*
X53049404Y-107046190D01*
X53097023Y-107093809D01*
X53192261Y-107141428D01*
X53382738Y-107141428D01*
X53477976Y-107093809D01*
X53525595Y-107046190D01*
X53573214Y-106950952D01*
X33396666Y-101119047D02*
X33396666Y-100642857D01*
X33682380Y-101214285D02*
X32682380Y-100880952D01*
X33682380Y-100547619D01*
X33682380Y-100214285D02*
X32682380Y-100214285D01*
X32682380Y-99976190D01*
X32730000Y-99833333D01*
X32825238Y-99738095D01*
X32920476Y-99690476D01*
X33110952Y-99642857D01*
X33253809Y-99642857D01*
X33444285Y-99690476D01*
X33539523Y-99738095D01*
X33634761Y-99833333D01*
X33682380Y-99976190D01*
X33682380Y-100214285D01*
X33634761Y-99261904D02*
X33682380Y-99119047D01*
X33682380Y-98880952D01*
X33634761Y-98785714D01*
X33587142Y-98738095D01*
X33491904Y-98690476D01*
X33396666Y-98690476D01*
X33301428Y-98738095D01*
X33253809Y-98785714D01*
X33206190Y-98880952D01*
X33158571Y-99071428D01*
X33110952Y-99166666D01*
X33063333Y-99214285D01*
X32968095Y-99261904D01*
X32872857Y-99261904D01*
X32777619Y-99214285D01*
X32730000Y-99166666D01*
X32682380Y-99071428D01*
X32682380Y-98833333D01*
X32730000Y-98690476D01*
X33682380Y-97738095D02*
X33682380Y-98309523D01*
X33682380Y-98023809D02*
X32682380Y-98023809D01*
X32825238Y-98119047D01*
X32920476Y-98214285D01*
X32968095Y-98309523D01*
X33682380Y-96785714D02*
X33682380Y-97357142D01*
X33682380Y-97071428D02*
X32682380Y-97071428D01*
X32825238Y-97166666D01*
X32920476Y-97261904D01*
X32968095Y-97357142D01*
X33682380Y-95833333D02*
X33682380Y-96404761D01*
X33682380Y-96119047D02*
X32682380Y-96119047D01*
X32825238Y-96214285D01*
X32920476Y-96309523D01*
X32968095Y-96404761D01*
X32682380Y-94928571D02*
X32682380Y-95404761D01*
X33158571Y-95452380D01*
X33110952Y-95404761D01*
X33063333Y-95309523D01*
X33063333Y-95071428D01*
X33110952Y-94976190D01*
X33158571Y-94928571D01*
X33253809Y-94880952D01*
X33491904Y-94880952D01*
X33587142Y-94928571D01*
X33634761Y-94976190D01*
X33682380Y-95071428D01*
X33682380Y-95309523D01*
X33634761Y-95404761D01*
X33587142Y-95452380D01*
X68318333Y-67282380D02*
X67985000Y-66806190D01*
X67746904Y-67282380D02*
X67746904Y-66282380D01*
X68127857Y-66282380D01*
X68223095Y-66330000D01*
X68270714Y-66377619D01*
X68318333Y-66472857D01*
X68318333Y-66615714D01*
X68270714Y-66710952D01*
X68223095Y-66758571D01*
X68127857Y-66806190D01*
X67746904Y-66806190D01*
X68651666Y-66282380D02*
X69318333Y-66282380D01*
X68889761Y-67282380D01*
X64049404Y-69952380D02*
X64049404Y-68952380D01*
X64287500Y-68952380D01*
X64430357Y-69000000D01*
X64525595Y-69095238D01*
X64573214Y-69190476D01*
X64620833Y-69380952D01*
X64620833Y-69523809D01*
X64573214Y-69714285D01*
X64525595Y-69809523D01*
X64430357Y-69904761D01*
X64287500Y-69952380D01*
X64049404Y-69952380D01*
X65477976Y-69285714D02*
X65477976Y-69952380D01*
X65239880Y-68904761D02*
X65001785Y-69619047D01*
X65620833Y-69619047D01*
X84792380Y-85516190D02*
X84792380Y-84944761D01*
X85792380Y-85230476D02*
X84792380Y-85230476D01*
X85792380Y-84611428D02*
X85125714Y-84611428D01*
X85316190Y-84611428D02*
X85220952Y-84563809D01*
X85173333Y-84516190D01*
X85125714Y-84420952D01*
X85125714Y-84325714D01*
X85792380Y-83992380D02*
X85125714Y-83992380D01*
X84792380Y-83992380D02*
X84840000Y-84040000D01*
X84887619Y-83992380D01*
X84840000Y-83944761D01*
X84792380Y-83992380D01*
X84887619Y-83992380D01*
X85792380Y-83516190D02*
X85125714Y-83516190D01*
X85220952Y-83516190D02*
X85173333Y-83468571D01*
X85125714Y-83373333D01*
X85125714Y-83230476D01*
X85173333Y-83135238D01*
X85268571Y-83087619D01*
X85792380Y-83087619D01*
X85268571Y-83087619D02*
X85173333Y-83040000D01*
X85125714Y-82944761D01*
X85125714Y-82801904D01*
X85173333Y-82706666D01*
X85268571Y-82659047D01*
X85792380Y-82659047D01*
X85792380Y-81659047D02*
X85792380Y-82230476D01*
X85792380Y-81944761D02*
X84792380Y-81944761D01*
X84935238Y-82040000D01*
X85030476Y-82135238D01*
X85078095Y-82230476D01*
X55023809Y-92734761D02*
X55166666Y-92782380D01*
X55404761Y-92782380D01*
X55500000Y-92734761D01*
X55547619Y-92687142D01*
X55595238Y-92591904D01*
X55595238Y-92496666D01*
X55547619Y-92401428D01*
X55500000Y-92353809D01*
X55404761Y-92306190D01*
X55214285Y-92258571D01*
X55119047Y-92210952D01*
X55071428Y-92163333D01*
X55023809Y-92068095D01*
X55023809Y-91972857D01*
X55071428Y-91877619D01*
X55119047Y-91830000D01*
X55214285Y-91782380D01*
X55452380Y-91782380D01*
X55595238Y-91830000D01*
X56404761Y-92734761D02*
X56309523Y-92782380D01*
X56119047Y-92782380D01*
X56023809Y-92734761D01*
X55976190Y-92639523D01*
X55976190Y-92258571D01*
X56023809Y-92163333D01*
X56119047Y-92115714D01*
X56309523Y-92115714D01*
X56404761Y-92163333D01*
X56452380Y-92258571D01*
X56452380Y-92353809D01*
X55976190Y-92449047D01*
X56880952Y-92782380D02*
X56880952Y-92115714D01*
X56880952Y-92306190D02*
X56928571Y-92210952D01*
X56976190Y-92163333D01*
X57071428Y-92115714D01*
X57166666Y-92115714D01*
X57404761Y-92115714D02*
X57642857Y-92782380D01*
X57880952Y-92115714D01*
X58261904Y-92782380D02*
X58261904Y-92115714D01*
X58261904Y-91782380D02*
X58214285Y-91830000D01*
X58261904Y-91877619D01*
X58309523Y-91830000D01*
X58261904Y-91782380D01*
X58261904Y-91877619D01*
X59166666Y-92734761D02*
X59071428Y-92782380D01*
X58880952Y-92782380D01*
X58785714Y-92734761D01*
X58738095Y-92687142D01*
X58690476Y-92591904D01*
X58690476Y-92306190D01*
X58738095Y-92210952D01*
X58785714Y-92163333D01*
X58880952Y-92115714D01*
X59071428Y-92115714D01*
X59166666Y-92163333D01*
X59976190Y-92734761D02*
X59880952Y-92782380D01*
X59690476Y-92782380D01*
X59595238Y-92734761D01*
X59547619Y-92639523D01*
X59547619Y-92258571D01*
X59595238Y-92163333D01*
X59690476Y-92115714D01*
X59880952Y-92115714D01*
X59976190Y-92163333D01*
X60023809Y-92258571D01*
X60023809Y-92353809D01*
X59547619Y-92449047D01*
X60976190Y-92782380D02*
X60404761Y-92782380D01*
X60690476Y-92782380D02*
X60690476Y-91782380D01*
X60595238Y-91925238D01*
X60500000Y-92020476D01*
X60404761Y-92068095D01*
X44607142Y-103702380D02*
X44273809Y-103226190D01*
X44035714Y-103702380D02*
X44035714Y-102702380D01*
X44416666Y-102702380D01*
X44511904Y-102750000D01*
X44559523Y-102797619D01*
X44607142Y-102892857D01*
X44607142Y-103035714D01*
X44559523Y-103130952D01*
X44511904Y-103178571D01*
X44416666Y-103226190D01*
X44035714Y-103226190D01*
X45559523Y-103702380D02*
X44988095Y-103702380D01*
X45273809Y-103702380D02*
X45273809Y-102702380D01*
X45178571Y-102845238D01*
X45083333Y-102940476D01*
X44988095Y-102988095D01*
X46178571Y-102702380D02*
X46273809Y-102702380D01*
X46369047Y-102750000D01*
X46416666Y-102797619D01*
X46464285Y-102892857D01*
X46511904Y-103083333D01*
X46511904Y-103321428D01*
X46464285Y-103511904D01*
X46416666Y-103607142D01*
X46369047Y-103654761D01*
X46273809Y-103702380D01*
X46178571Y-103702380D01*
X46083333Y-103654761D01*
X46035714Y-103607142D01*
X45988095Y-103511904D01*
X45940476Y-103321428D01*
X45940476Y-103083333D01*
X45988095Y-102892857D01*
X46035714Y-102797619D01*
X46083333Y-102750000D01*
X46178571Y-102702380D01*
X38583333Y-102452380D02*
X38250000Y-101976190D01*
X38011904Y-102452380D02*
X38011904Y-101452380D01*
X38392857Y-101452380D01*
X38488095Y-101500000D01*
X38535714Y-101547619D01*
X38583333Y-101642857D01*
X38583333Y-101785714D01*
X38535714Y-101880952D01*
X38488095Y-101928571D01*
X38392857Y-101976190D01*
X38011904Y-101976190D01*
X39059523Y-102452380D02*
X39250000Y-102452380D01*
X39345238Y-102404761D01*
X39392857Y-102357142D01*
X39488095Y-102214285D01*
X39535714Y-102023809D01*
X39535714Y-101642857D01*
X39488095Y-101547619D01*
X39440476Y-101500000D01*
X39345238Y-101452380D01*
X39154761Y-101452380D01*
X39059523Y-101500000D01*
X39011904Y-101547619D01*
X38964285Y-101642857D01*
X38964285Y-101880952D01*
X39011904Y-101976190D01*
X39059523Y-102023809D01*
X39154761Y-102071428D01*
X39345238Y-102071428D01*
X39440476Y-102023809D01*
X39488095Y-101976190D01*
X39535714Y-101880952D01*
X113579523Y-81222380D02*
X113579523Y-80222380D01*
X114150952Y-81222380D01*
X114150952Y-80222380D01*
X115198571Y-81222380D02*
X114865238Y-80746190D01*
X114627142Y-81222380D02*
X114627142Y-80222380D01*
X115008095Y-80222380D01*
X115103333Y-80270000D01*
X115150952Y-80317619D01*
X115198571Y-80412857D01*
X115198571Y-80555714D01*
X115150952Y-80650952D01*
X115103333Y-80698571D01*
X115008095Y-80746190D01*
X114627142Y-80746190D01*
X115960476Y-80698571D02*
X115627142Y-80698571D01*
X115627142Y-81222380D02*
X115627142Y-80222380D01*
X116103333Y-80222380D01*
X116436666Y-80317619D02*
X116484285Y-80270000D01*
X116579523Y-80222380D01*
X116817619Y-80222380D01*
X116912857Y-80270000D01*
X116960476Y-80317619D01*
X117008095Y-80412857D01*
X117008095Y-80508095D01*
X116960476Y-80650952D01*
X116389047Y-81222380D01*
X117008095Y-81222380D01*
X66214285Y-54928571D02*
X66357142Y-54976190D01*
X66404761Y-55023809D01*
X66452380Y-55119047D01*
X66452380Y-55261904D01*
X66404761Y-55357142D01*
X66357142Y-55404761D01*
X66261904Y-55452380D01*
X65880952Y-55452380D01*
X65880952Y-54452380D01*
X66214285Y-54452380D01*
X66309523Y-54500000D01*
X66357142Y-54547619D01*
X66404761Y-54642857D01*
X66404761Y-54738095D01*
X66357142Y-54833333D01*
X66309523Y-54880952D01*
X66214285Y-54928571D01*
X65880952Y-54928571D01*
X66738095Y-54452380D02*
X67309523Y-54452380D01*
X67023809Y-55452380D02*
X67023809Y-54452380D01*
X67595238Y-54547619D02*
X67642857Y-54500000D01*
X67738095Y-54452380D01*
X67976190Y-54452380D01*
X68071428Y-54500000D01*
X68119047Y-54547619D01*
X68166666Y-54642857D01*
X68166666Y-54738095D01*
X68119047Y-54880952D01*
X67547619Y-55452380D01*
X68166666Y-55452380D01*
X110916666Y-22202380D02*
X110916666Y-22916666D01*
X110869047Y-23059523D01*
X110773809Y-23154761D01*
X110630952Y-23202380D01*
X110535714Y-23202380D01*
X111392857Y-23202380D02*
X111392857Y-22202380D01*
X111773809Y-22202380D01*
X111869047Y-22250000D01*
X111916666Y-22297619D01*
X111964285Y-22392857D01*
X111964285Y-22535714D01*
X111916666Y-22630952D01*
X111869047Y-22678571D01*
X111773809Y-22726190D01*
X111392857Y-22726190D01*
X112916666Y-23202380D02*
X112345238Y-23202380D01*
X112630952Y-23202380D02*
X112630952Y-22202380D01*
X112535714Y-22345238D01*
X112440476Y-22440476D01*
X112345238Y-22488095D01*
X122952380Y-32321428D02*
X121952380Y-32321428D01*
X121952380Y-31940476D01*
X122000000Y-31845238D01*
X122047619Y-31797619D01*
X122142857Y-31750000D01*
X122285714Y-31750000D01*
X122380952Y-31797619D01*
X122428571Y-31845238D01*
X122476190Y-31940476D01*
X122476190Y-32321428D01*
X122285714Y-31416666D02*
X122952380Y-31226190D01*
X122476190Y-31035714D01*
X122952380Y-30845238D01*
X122285714Y-30654761D01*
X122952380Y-30273809D02*
X122285714Y-30273809D01*
X122476190Y-30273809D02*
X122380952Y-30226190D01*
X122333333Y-30178571D01*
X122285714Y-30083333D01*
X122285714Y-29988095D01*
X122952380Y-29130952D02*
X122952380Y-29702380D01*
X122952380Y-29416666D02*
X121952380Y-29416666D01*
X122095238Y-29511904D01*
X122190476Y-29607142D01*
X122238095Y-29702380D01*
X114733333Y-49307142D02*
X114685714Y-49354761D01*
X114542857Y-49402380D01*
X114447619Y-49402380D01*
X114304761Y-49354761D01*
X114209523Y-49259523D01*
X114161904Y-49164285D01*
X114114285Y-48973809D01*
X114114285Y-48830952D01*
X114161904Y-48640476D01*
X114209523Y-48545238D01*
X114304761Y-48450000D01*
X114447619Y-48402380D01*
X114542857Y-48402380D01*
X114685714Y-48450000D01*
X114733333Y-48497619D01*
X115685714Y-49402380D02*
X115114285Y-49402380D01*
X115400000Y-49402380D02*
X115400000Y-48402380D01*
X115304761Y-48545238D01*
X115209523Y-48640476D01*
X115114285Y-48688095D01*
X115488095Y-43702380D02*
X115488095Y-44511904D01*
X115535714Y-44607142D01*
X115583333Y-44654761D01*
X115678571Y-44702380D01*
X115869047Y-44702380D01*
X115964285Y-44654761D01*
X116011904Y-44607142D01*
X116059523Y-44511904D01*
X116059523Y-43702380D01*
X116488095Y-43797619D02*
X116535714Y-43750000D01*
X116630952Y-43702380D01*
X116869047Y-43702380D01*
X116964285Y-43750000D01*
X117011904Y-43797619D01*
X117059523Y-43892857D01*
X117059523Y-43988095D01*
X117011904Y-44130952D01*
X116440476Y-44702380D01*
X117059523Y-44702380D01*
X111761904Y-97252380D02*
X111761904Y-96252380D01*
X112333333Y-97252380D02*
X111904761Y-96680952D01*
X112333333Y-96252380D02*
X111761904Y-96823809D01*
X112714285Y-96347619D02*
X112761904Y-96300000D01*
X112857142Y-96252380D01*
X113095238Y-96252380D01*
X113190476Y-96300000D01*
X113238095Y-96347619D01*
X113285714Y-96442857D01*
X113285714Y-96538095D01*
X113238095Y-96680952D01*
X112666666Y-97252380D01*
X113285714Y-97252380D01*
X102761904Y-97252380D02*
X102761904Y-96252380D01*
X103333333Y-97252380D02*
X102904761Y-96680952D01*
X103333333Y-96252380D02*
X102761904Y-96823809D01*
X104285714Y-97252380D02*
X103714285Y-97252380D01*
X104000000Y-97252380D02*
X104000000Y-96252380D01*
X103904761Y-96395238D01*
X103809523Y-96490476D01*
X103714285Y-96538095D01*
X117571428Y-98582380D02*
X117238095Y-98106190D01*
X117000000Y-98582380D02*
X117000000Y-97582380D01*
X117380952Y-97582380D01*
X117476190Y-97630000D01*
X117523809Y-97677619D01*
X117571428Y-97772857D01*
X117571428Y-97915714D01*
X117523809Y-98010952D01*
X117476190Y-98058571D01*
X117380952Y-98106190D01*
X117000000Y-98106190D01*
X118380952Y-98534761D02*
X118285714Y-98582380D01*
X118095238Y-98582380D01*
X118000000Y-98534761D01*
X117952380Y-98439523D01*
X117952380Y-98058571D01*
X118000000Y-97963333D01*
X118095238Y-97915714D01*
X118285714Y-97915714D01*
X118380952Y-97963333D01*
X118428571Y-98058571D01*
X118428571Y-98153809D01*
X117952380Y-98249047D01*
X118857142Y-98582380D02*
X118857142Y-97915714D01*
X118857142Y-98010952D02*
X118904761Y-97963333D01*
X119000000Y-97915714D01*
X119142857Y-97915714D01*
X119238095Y-97963333D01*
X119285714Y-98058571D01*
X119285714Y-98582380D01*
X119285714Y-98058571D02*
X119333333Y-97963333D01*
X119428571Y-97915714D01*
X119571428Y-97915714D01*
X119666666Y-97963333D01*
X119714285Y-98058571D01*
X119714285Y-98582380D01*
X120333333Y-98582380D02*
X120238095Y-98534761D01*
X120190476Y-98487142D01*
X120142857Y-98391904D01*
X120142857Y-98106190D01*
X120190476Y-98010952D01*
X120238095Y-97963333D01*
X120333333Y-97915714D01*
X120476190Y-97915714D01*
X120571428Y-97963333D01*
X120619047Y-98010952D01*
X120666666Y-98106190D01*
X120666666Y-98391904D01*
X120619047Y-98487142D01*
X120571428Y-98534761D01*
X120476190Y-98582380D01*
X120333333Y-98582380D01*
X120952380Y-97915714D02*
X121333333Y-97915714D01*
X121095238Y-97582380D02*
X121095238Y-98439523D01*
X121142857Y-98534761D01*
X121238095Y-98582380D01*
X121333333Y-98582380D01*
X122047619Y-98534761D02*
X121952380Y-98582380D01*
X121761904Y-98582380D01*
X121666666Y-98534761D01*
X121619047Y-98439523D01*
X121619047Y-98058571D01*
X121666666Y-97963333D01*
X121761904Y-97915714D01*
X121952380Y-97915714D01*
X122047619Y-97963333D01*
X122095238Y-98058571D01*
X122095238Y-98153809D01*
X121619047Y-98249047D01*
X123047619Y-98582380D02*
X122476190Y-98582380D01*
X122761904Y-98582380D02*
X122761904Y-97582380D01*
X122666666Y-97725238D01*
X122571428Y-97820476D01*
X122476190Y-97868095D01*
X86622380Y-105642857D02*
X86146190Y-105976190D01*
X86622380Y-106214285D02*
X85622380Y-106214285D01*
X85622380Y-105833333D01*
X85670000Y-105738095D01*
X85717619Y-105690476D01*
X85812857Y-105642857D01*
X85955714Y-105642857D01*
X86050952Y-105690476D01*
X86098571Y-105738095D01*
X86146190Y-105833333D01*
X86146190Y-106214285D01*
X86622380Y-104690476D02*
X86622380Y-105261904D01*
X86622380Y-104976190D02*
X85622380Y-104976190D01*
X85765238Y-105071428D01*
X85860476Y-105166666D01*
X85908095Y-105261904D01*
X85955714Y-103833333D02*
X86622380Y-103833333D01*
X85574761Y-104071428D02*
X86289047Y-104309523D01*
X86289047Y-103690476D01*
X93622380Y-105642857D02*
X93146190Y-105976190D01*
X93622380Y-106214285D02*
X92622380Y-106214285D01*
X92622380Y-105833333D01*
X92670000Y-105738095D01*
X92717619Y-105690476D01*
X92812857Y-105642857D01*
X92955714Y-105642857D01*
X93050952Y-105690476D01*
X93098571Y-105738095D01*
X93146190Y-105833333D01*
X93146190Y-106214285D01*
X93622380Y-104690476D02*
X93622380Y-105261904D01*
X93622380Y-104976190D02*
X92622380Y-104976190D01*
X92765238Y-105071428D01*
X92860476Y-105166666D01*
X92908095Y-105261904D01*
X92622380Y-104357142D02*
X92622380Y-103738095D01*
X93003333Y-104071428D01*
X93003333Y-103928571D01*
X93050952Y-103833333D01*
X93098571Y-103785714D01*
X93193809Y-103738095D01*
X93431904Y-103738095D01*
X93527142Y-103785714D01*
X93574761Y-103833333D01*
X93622380Y-103928571D01*
X93622380Y-104214285D01*
X93574761Y-104309523D01*
X93527142Y-104357142D01*
X88622380Y-101642857D02*
X88146190Y-101976190D01*
X88622380Y-102214285D02*
X87622380Y-102214285D01*
X87622380Y-101833333D01*
X87670000Y-101738095D01*
X87717619Y-101690476D01*
X87812857Y-101642857D01*
X87955714Y-101642857D01*
X88050952Y-101690476D01*
X88098571Y-101738095D01*
X88146190Y-101833333D01*
X88146190Y-102214285D01*
X88622380Y-100690476D02*
X88622380Y-101261904D01*
X88622380Y-100976190D02*
X87622380Y-100976190D01*
X87765238Y-101071428D01*
X87860476Y-101166666D01*
X87908095Y-101261904D01*
X87717619Y-100309523D02*
X87670000Y-100261904D01*
X87622380Y-100166666D01*
X87622380Y-99928571D01*
X87670000Y-99833333D01*
X87717619Y-99785714D01*
X87812857Y-99738095D01*
X87908095Y-99738095D01*
X88050952Y-99785714D01*
X88622380Y-100357142D01*
X88622380Y-99738095D01*
X95622380Y-101157857D02*
X95146190Y-101491190D01*
X95622380Y-101729285D02*
X94622380Y-101729285D01*
X94622380Y-101348333D01*
X94670000Y-101253095D01*
X94717619Y-101205476D01*
X94812857Y-101157857D01*
X94955714Y-101157857D01*
X95050952Y-101205476D01*
X95098571Y-101253095D01*
X95146190Y-101348333D01*
X95146190Y-101729285D01*
X95622380Y-100205476D02*
X95622380Y-100776904D01*
X95622380Y-100491190D02*
X94622380Y-100491190D01*
X94765238Y-100586428D01*
X94860476Y-100681666D01*
X94908095Y-100776904D01*
X95622380Y-99253095D02*
X95622380Y-99824523D01*
X95622380Y-99538809D02*
X94622380Y-99538809D01*
X94765238Y-99634047D01*
X94860476Y-99729285D01*
X94908095Y-99824523D01*
X87904761Y-103047619D02*
X87809523Y-103000000D01*
X87714285Y-102904761D01*
X87571428Y-102761904D01*
X87476190Y-102714285D01*
X87380952Y-102714285D01*
X87428571Y-102952380D02*
X87333333Y-102904761D01*
X87238095Y-102809523D01*
X87190476Y-102619047D01*
X87190476Y-102285714D01*
X87238095Y-102095238D01*
X87333333Y-102000000D01*
X87428571Y-101952380D01*
X87619047Y-101952380D01*
X87714285Y-102000000D01*
X87809523Y-102095238D01*
X87857142Y-102285714D01*
X87857142Y-102619047D01*
X87809523Y-102809523D01*
X87714285Y-102904761D01*
X87619047Y-102952380D01*
X87428571Y-102952380D01*
X88190476Y-101952380D02*
X88809523Y-101952380D01*
X88476190Y-102333333D01*
X88619047Y-102333333D01*
X88714285Y-102380952D01*
X88761904Y-102428571D01*
X88809523Y-102523809D01*
X88809523Y-102761904D01*
X88761904Y-102857142D01*
X88714285Y-102904761D01*
X88619047Y-102952380D01*
X88333333Y-102952380D01*
X88238095Y-102904761D01*
X88190476Y-102857142D01*
X94904761Y-103047619D02*
X94809523Y-103000000D01*
X94714285Y-102904761D01*
X94571428Y-102761904D01*
X94476190Y-102714285D01*
X94380952Y-102714285D01*
X94428571Y-102952380D02*
X94333333Y-102904761D01*
X94238095Y-102809523D01*
X94190476Y-102619047D01*
X94190476Y-102285714D01*
X94238095Y-102095238D01*
X94333333Y-102000000D01*
X94428571Y-101952380D01*
X94619047Y-101952380D01*
X94714285Y-102000000D01*
X94809523Y-102095238D01*
X94857142Y-102285714D01*
X94857142Y-102619047D01*
X94809523Y-102809523D01*
X94714285Y-102904761D01*
X94619047Y-102952380D01*
X94428571Y-102952380D01*
X95238095Y-102047619D02*
X95285714Y-102000000D01*
X95380952Y-101952380D01*
X95619047Y-101952380D01*
X95714285Y-102000000D01*
X95761904Y-102047619D01*
X95809523Y-102142857D01*
X95809523Y-102238095D01*
X95761904Y-102380952D01*
X95190476Y-102952380D01*
X95809523Y-102952380D01*
X94134904Y-107547380D02*
X94134904Y-106547380D01*
X94373000Y-106547380D01*
X94515857Y-106595000D01*
X94611095Y-106690238D01*
X94658714Y-106785476D01*
X94706333Y-106975952D01*
X94706333Y-107118809D01*
X94658714Y-107309285D01*
X94611095Y-107404523D01*
X94515857Y-107499761D01*
X94373000Y-107547380D01*
X94134904Y-107547380D01*
X95277761Y-106975952D02*
X95182523Y-106928333D01*
X95134904Y-106880714D01*
X95087285Y-106785476D01*
X95087285Y-106737857D01*
X95134904Y-106642619D01*
X95182523Y-106595000D01*
X95277761Y-106547380D01*
X95468238Y-106547380D01*
X95563476Y-106595000D01*
X95611095Y-106642619D01*
X95658714Y-106737857D01*
X95658714Y-106785476D01*
X95611095Y-106880714D01*
X95563476Y-106928333D01*
X95468238Y-106975952D01*
X95277761Y-106975952D01*
X95182523Y-107023571D01*
X95134904Y-107071190D01*
X95087285Y-107166428D01*
X95087285Y-107356904D01*
X95134904Y-107452142D01*
X95182523Y-107499761D01*
X95277761Y-107547380D01*
X95468238Y-107547380D01*
X95563476Y-107499761D01*
X95611095Y-107452142D01*
X95658714Y-107356904D01*
X95658714Y-107166428D01*
X95611095Y-107071190D01*
X95563476Y-107023571D01*
X95468238Y-106975952D01*
X87134904Y-107547380D02*
X87134904Y-106547380D01*
X87373000Y-106547380D01*
X87515857Y-106595000D01*
X87611095Y-106690238D01*
X87658714Y-106785476D01*
X87706333Y-106975952D01*
X87706333Y-107118809D01*
X87658714Y-107309285D01*
X87611095Y-107404523D01*
X87515857Y-107499761D01*
X87373000Y-107547380D01*
X87134904Y-107547380D01*
X88039666Y-106547380D02*
X88706333Y-106547380D01*
X88277761Y-107547380D01*
X61112380Y-107436190D02*
X61112380Y-106864761D01*
X62112380Y-107150476D02*
X61112380Y-107150476D01*
X62112380Y-106531428D02*
X61445714Y-106531428D01*
X61636190Y-106531428D02*
X61540952Y-106483809D01*
X61493333Y-106436190D01*
X61445714Y-106340952D01*
X61445714Y-106245714D01*
X62112380Y-105912380D02*
X61445714Y-105912380D01*
X61112380Y-105912380D02*
X61160000Y-105960000D01*
X61207619Y-105912380D01*
X61160000Y-105864761D01*
X61112380Y-105912380D01*
X61207619Y-105912380D01*
X62112380Y-105436190D02*
X61445714Y-105436190D01*
X61540952Y-105436190D02*
X61493333Y-105388571D01*
X61445714Y-105293333D01*
X61445714Y-105150476D01*
X61493333Y-105055238D01*
X61588571Y-105007619D01*
X62112380Y-105007619D01*
X61588571Y-105007619D02*
X61493333Y-104960000D01*
X61445714Y-104864761D01*
X61445714Y-104721904D01*
X61493333Y-104626666D01*
X61588571Y-104579047D01*
X62112380Y-104579047D01*
X61207619Y-104150476D02*
X61160000Y-104102857D01*
X61112380Y-104007619D01*
X61112380Y-103769523D01*
X61160000Y-103674285D01*
X61207619Y-103626666D01*
X61302857Y-103579047D01*
X61398095Y-103579047D01*
X61540952Y-103626666D01*
X62112380Y-104198095D01*
X62112380Y-103579047D01*
X45107142Y-110654761D02*
X45250000Y-110702380D01*
X45488095Y-110702380D01*
X45583333Y-110654761D01*
X45630952Y-110607142D01*
X45678571Y-110511904D01*
X45678571Y-110416666D01*
X45630952Y-110321428D01*
X45583333Y-110273809D01*
X45488095Y-110226190D01*
X45297619Y-110178571D01*
X45202380Y-110130952D01*
X45154761Y-110083333D01*
X45107142Y-109988095D01*
X45107142Y-109892857D01*
X45154761Y-109797619D01*
X45202380Y-109750000D01*
X45297619Y-109702380D01*
X45535714Y-109702380D01*
X45678571Y-109750000D01*
X46250000Y-110702380D02*
X46154761Y-110654761D01*
X46107142Y-110607142D01*
X46059523Y-110511904D01*
X46059523Y-110226190D01*
X46107142Y-110130952D01*
X46154761Y-110083333D01*
X46250000Y-110035714D01*
X46392857Y-110035714D01*
X46488095Y-110083333D01*
X46535714Y-110130952D01*
X46583333Y-110226190D01*
X46583333Y-110511904D01*
X46535714Y-110607142D01*
X46488095Y-110654761D01*
X46392857Y-110702380D01*
X46250000Y-110702380D01*
X47011904Y-110035714D02*
X47011904Y-110702380D01*
X47011904Y-110130952D02*
X47059523Y-110083333D01*
X47154761Y-110035714D01*
X47297619Y-110035714D01*
X47392857Y-110083333D01*
X47440476Y-110178571D01*
X47440476Y-110702380D01*
X48345238Y-110702380D02*
X48345238Y-109702380D01*
X48345238Y-110654761D02*
X48250000Y-110702380D01*
X48059523Y-110702380D01*
X47964285Y-110654761D01*
X47916666Y-110607142D01*
X47869047Y-110511904D01*
X47869047Y-110226190D01*
X47916666Y-110130952D01*
X47964285Y-110083333D01*
X48059523Y-110035714D01*
X48250000Y-110035714D01*
X48345238Y-110083333D01*
X49250000Y-110702380D02*
X49250000Y-110178571D01*
X49202380Y-110083333D01*
X49107142Y-110035714D01*
X48916666Y-110035714D01*
X48821428Y-110083333D01*
X49250000Y-110654761D02*
X49154761Y-110702380D01*
X48916666Y-110702380D01*
X48821428Y-110654761D01*
X48773809Y-110559523D01*
X48773809Y-110464285D01*
X48821428Y-110369047D01*
X48916666Y-110321428D01*
X49154761Y-110321428D01*
X49250000Y-110273809D01*
X50297619Y-110607142D02*
X50250000Y-110654761D01*
X50107142Y-110702380D01*
X50011904Y-110702380D01*
X49869047Y-110654761D01*
X49773809Y-110559523D01*
X49726190Y-110464285D01*
X49678571Y-110273809D01*
X49678571Y-110130952D01*
X49726190Y-109940476D01*
X49773809Y-109845238D01*
X49869047Y-109750000D01*
X50011904Y-109702380D01*
X50107142Y-109702380D01*
X50250000Y-109750000D01*
X50297619Y-109797619D01*
X50869047Y-110702380D02*
X50773809Y-110654761D01*
X50726190Y-110607142D01*
X50678571Y-110511904D01*
X50678571Y-110226190D01*
X50726190Y-110130952D01*
X50773809Y-110083333D01*
X50869047Y-110035714D01*
X51011904Y-110035714D01*
X51107142Y-110083333D01*
X51154761Y-110130952D01*
X51202380Y-110226190D01*
X51202380Y-110511904D01*
X51154761Y-110607142D01*
X51107142Y-110654761D01*
X51011904Y-110702380D01*
X50869047Y-110702380D01*
X51630952Y-110702380D02*
X51630952Y-110035714D01*
X51630952Y-110226190D02*
X51678571Y-110130952D01*
X51726190Y-110083333D01*
X51821428Y-110035714D01*
X51916666Y-110035714D01*
X52250000Y-110702380D02*
X52250000Y-110035714D01*
X52250000Y-110226190D02*
X52297619Y-110130952D01*
X52345238Y-110083333D01*
X52440476Y-110035714D01*
X52535714Y-110035714D01*
X53392857Y-110702380D02*
X52821428Y-110702380D01*
X53107142Y-110702380D02*
X53107142Y-109702380D01*
X53011904Y-109845238D01*
X52916666Y-109940476D01*
X52821428Y-109988095D01*
X48547619Y-69074761D02*
X48690476Y-69122380D01*
X48928571Y-69122380D01*
X49023809Y-69074761D01*
X49071428Y-69027142D01*
X49119047Y-68931904D01*
X49119047Y-68836666D01*
X49071428Y-68741428D01*
X49023809Y-68693809D01*
X48928571Y-68646190D01*
X48738095Y-68598571D01*
X48642857Y-68550952D01*
X48595238Y-68503333D01*
X48547619Y-68408095D01*
X48547619Y-68312857D01*
X48595238Y-68217619D01*
X48642857Y-68170000D01*
X48738095Y-68122380D01*
X48976190Y-68122380D01*
X49119047Y-68170000D01*
X49928571Y-69074761D02*
X49833333Y-69122380D01*
X49642857Y-69122380D01*
X49547619Y-69074761D01*
X49500000Y-68979523D01*
X49500000Y-68598571D01*
X49547619Y-68503333D01*
X49642857Y-68455714D01*
X49833333Y-68455714D01*
X49928571Y-68503333D01*
X49976190Y-68598571D01*
X49976190Y-68693809D01*
X49500000Y-68789047D01*
X50404761Y-69122380D02*
X50404761Y-68455714D01*
X50404761Y-68646190D02*
X50452380Y-68550952D01*
X50500000Y-68503333D01*
X50595238Y-68455714D01*
X50690476Y-68455714D01*
X51023809Y-69122380D02*
X51023809Y-68455714D01*
X51023809Y-68122380D02*
X50976190Y-68170000D01*
X51023809Y-68217619D01*
X51071428Y-68170000D01*
X51023809Y-68122380D01*
X51023809Y-68217619D01*
X51928571Y-69122380D02*
X51928571Y-68598571D01*
X51880952Y-68503333D01*
X51785714Y-68455714D01*
X51595238Y-68455714D01*
X51500000Y-68503333D01*
X51928571Y-69074761D02*
X51833333Y-69122380D01*
X51595238Y-69122380D01*
X51500000Y-69074761D01*
X51452380Y-68979523D01*
X51452380Y-68884285D01*
X51500000Y-68789047D01*
X51595238Y-68741428D01*
X51833333Y-68741428D01*
X51928571Y-68693809D01*
X52547619Y-69122380D02*
X52452380Y-69074761D01*
X52404761Y-68979523D01*
X52404761Y-68122380D01*
X53452380Y-69122380D02*
X52880952Y-69122380D01*
X53166666Y-69122380D02*
X53166666Y-68122380D01*
X53071428Y-68265238D01*
X52976190Y-68360476D01*
X52880952Y-68408095D01*
X41166666Y-104452380D02*
X41166666Y-105166666D01*
X41119047Y-105309523D01*
X41023809Y-105404761D01*
X40880952Y-105452380D01*
X40785714Y-105452380D01*
X41642857Y-105452380D02*
X41642857Y-104452380D01*
X42023809Y-104452380D01*
X42119047Y-104500000D01*
X42166666Y-104547619D01*
X42214285Y-104642857D01*
X42214285Y-104785714D01*
X42166666Y-104880952D01*
X42119047Y-104928571D01*
X42023809Y-104976190D01*
X41642857Y-104976190D01*
X42547619Y-104452380D02*
X43214285Y-104452380D01*
X42785714Y-105452380D01*
X41166666Y-107452380D02*
X41166666Y-108166666D01*
X41119047Y-108309523D01*
X41023809Y-108404761D01*
X40880952Y-108452380D01*
X40785714Y-108452380D01*
X41642857Y-108452380D02*
X41642857Y-107452380D01*
X42023809Y-107452380D01*
X42119047Y-107500000D01*
X42166666Y-107547619D01*
X42214285Y-107642857D01*
X42214285Y-107785714D01*
X42166666Y-107880952D01*
X42119047Y-107928571D01*
X42023809Y-107976190D01*
X41642857Y-107976190D01*
X43071428Y-107452380D02*
X42880952Y-107452380D01*
X42785714Y-107500000D01*
X42738095Y-107547619D01*
X42642857Y-107690476D01*
X42595238Y-107880952D01*
X42595238Y-108261904D01*
X42642857Y-108357142D01*
X42690476Y-108404761D01*
X42785714Y-108452380D01*
X42976190Y-108452380D01*
X43071428Y-108404761D01*
X43119047Y-108357142D01*
X43166666Y-108261904D01*
X43166666Y-108023809D01*
X43119047Y-107928571D01*
X43071428Y-107880952D01*
X42976190Y-107833333D01*
X42785714Y-107833333D01*
X42690476Y-107880952D01*
X42642857Y-107928571D01*
X42595238Y-108023809D01*
X28916666Y-104202380D02*
X28916666Y-104916666D01*
X28869047Y-105059523D01*
X28773809Y-105154761D01*
X28630952Y-105202380D01*
X28535714Y-105202380D01*
X29392857Y-105202380D02*
X29392857Y-104202380D01*
X29773809Y-104202380D01*
X29869047Y-104250000D01*
X29916666Y-104297619D01*
X29964285Y-104392857D01*
X29964285Y-104535714D01*
X29916666Y-104630952D01*
X29869047Y-104678571D01*
X29773809Y-104726190D01*
X29392857Y-104726190D01*
X30869047Y-104202380D02*
X30392857Y-104202380D01*
X30345238Y-104678571D01*
X30392857Y-104630952D01*
X30488095Y-104583333D01*
X30726190Y-104583333D01*
X30821428Y-104630952D01*
X30869047Y-104678571D01*
X30916666Y-104773809D01*
X30916666Y-105011904D01*
X30869047Y-105107142D01*
X30821428Y-105154761D01*
X30726190Y-105202380D01*
X30488095Y-105202380D01*
X30392857Y-105154761D01*
X30345238Y-105107142D01*
X28916666Y-107452380D02*
X28916666Y-108166666D01*
X28869047Y-108309523D01*
X28773809Y-108404761D01*
X28630952Y-108452380D01*
X28535714Y-108452380D01*
X29392857Y-108452380D02*
X29392857Y-107452380D01*
X29773809Y-107452380D01*
X29869047Y-107500000D01*
X29916666Y-107547619D01*
X29964285Y-107642857D01*
X29964285Y-107785714D01*
X29916666Y-107880952D01*
X29869047Y-107928571D01*
X29773809Y-107976190D01*
X29392857Y-107976190D01*
X30821428Y-107785714D02*
X30821428Y-108452380D01*
X30583333Y-107404761D02*
X30345238Y-108119047D01*
X30964285Y-108119047D01*
X49511904Y-100952380D02*
X49511904Y-99952380D01*
X49750000Y-99952380D01*
X49892857Y-100000000D01*
X49988095Y-100095238D01*
X50035714Y-100190476D01*
X50083333Y-100380952D01*
X50083333Y-100523809D01*
X50035714Y-100714285D01*
X49988095Y-100809523D01*
X49892857Y-100904761D01*
X49750000Y-100952380D01*
X49511904Y-100952380D01*
X50940476Y-99952380D02*
X50750000Y-99952380D01*
X50654761Y-100000000D01*
X50607142Y-100047619D01*
X50511904Y-100190476D01*
X50464285Y-100380952D01*
X50464285Y-100761904D01*
X50511904Y-100857142D01*
X50559523Y-100904761D01*
X50654761Y-100952380D01*
X50845238Y-100952380D01*
X50940476Y-100904761D01*
X50988095Y-100857142D01*
X51035714Y-100761904D01*
X51035714Y-100523809D01*
X50988095Y-100428571D01*
X50940476Y-100380952D01*
X50845238Y-100333333D01*
X50654761Y-100333333D01*
X50559523Y-100380952D01*
X50511904Y-100428571D01*
X50464285Y-100523809D01*
X40714285Y-84452380D02*
X41285714Y-84452380D01*
X41000000Y-85452380D02*
X41000000Y-84452380D01*
X41619047Y-85452380D02*
X41619047Y-84452380D01*
X41619047Y-84928571D02*
X42190476Y-84928571D01*
X42190476Y-85452380D02*
X42190476Y-84452380D01*
X43190476Y-85452380D02*
X42619047Y-85452380D01*
X42904761Y-85452380D02*
X42904761Y-84452380D01*
X42809523Y-84595238D01*
X42714285Y-84690476D01*
X42619047Y-84738095D01*
X70821428Y-89702380D02*
X70821428Y-88702380D01*
X71059523Y-88702380D01*
X71202380Y-88750000D01*
X71297619Y-88845238D01*
X71345238Y-88940476D01*
X71392857Y-89130952D01*
X71392857Y-89273809D01*
X71345238Y-89464285D01*
X71297619Y-89559523D01*
X71202380Y-89654761D01*
X71059523Y-89702380D01*
X70821428Y-89702380D01*
X71821428Y-89702380D02*
X71821428Y-89035714D01*
X71821428Y-88702380D02*
X71773809Y-88750000D01*
X71821428Y-88797619D01*
X71869047Y-88750000D01*
X71821428Y-88702380D01*
X71821428Y-88797619D01*
X72250000Y-89654761D02*
X72345238Y-89702380D01*
X72535714Y-89702380D01*
X72630952Y-89654761D01*
X72678571Y-89559523D01*
X72678571Y-89511904D01*
X72630952Y-89416666D01*
X72535714Y-89369047D01*
X72392857Y-89369047D01*
X72297619Y-89321428D01*
X72250000Y-89226190D01*
X72250000Y-89178571D01*
X72297619Y-89083333D01*
X72392857Y-89035714D01*
X72535714Y-89035714D01*
X72630952Y-89083333D01*
X73107142Y-89035714D02*
X73107142Y-90035714D01*
X73107142Y-89083333D02*
X73202380Y-89035714D01*
X73392857Y-89035714D01*
X73488095Y-89083333D01*
X73535714Y-89130952D01*
X73583333Y-89226190D01*
X73583333Y-89511904D01*
X73535714Y-89607142D01*
X73488095Y-89654761D01*
X73392857Y-89702380D01*
X73202380Y-89702380D01*
X73107142Y-89654761D01*
X74154761Y-89702380D02*
X74059523Y-89654761D01*
X74011904Y-89559523D01*
X74011904Y-88702380D01*
X74964285Y-89702380D02*
X74964285Y-89178571D01*
X74916666Y-89083333D01*
X74821428Y-89035714D01*
X74630952Y-89035714D01*
X74535714Y-89083333D01*
X74964285Y-89654761D02*
X74869047Y-89702380D01*
X74630952Y-89702380D01*
X74535714Y-89654761D01*
X74488095Y-89559523D01*
X74488095Y-89464285D01*
X74535714Y-89369047D01*
X74630952Y-89321428D01*
X74869047Y-89321428D01*
X74964285Y-89273809D01*
X75345238Y-89035714D02*
X75583333Y-89702380D01*
X75821428Y-89035714D02*
X75583333Y-89702380D01*
X75488095Y-89940476D01*
X75440476Y-89988095D01*
X75345238Y-90035714D01*
X76726190Y-89702380D02*
X76154761Y-89702380D01*
X76440476Y-89702380D02*
X76440476Y-88702380D01*
X76345238Y-88845238D01*
X76250000Y-88940476D01*
X76154761Y-88988095D01*
X114309523Y-89702380D02*
X114309523Y-88702380D01*
X114880952Y-89702380D01*
X114880952Y-88702380D01*
X115928571Y-89702380D02*
X115595238Y-89226190D01*
X115357142Y-89702380D02*
X115357142Y-88702380D01*
X115738095Y-88702380D01*
X115833333Y-88750000D01*
X115880952Y-88797619D01*
X115928571Y-88892857D01*
X115928571Y-89035714D01*
X115880952Y-89130952D01*
X115833333Y-89178571D01*
X115738095Y-89226190D01*
X115357142Y-89226190D01*
X116690476Y-89178571D02*
X116357142Y-89178571D01*
X116357142Y-89702380D02*
X116357142Y-88702380D01*
X116833333Y-88702380D01*
X117738095Y-89702380D02*
X117166666Y-89702380D01*
X117452380Y-89702380D02*
X117452380Y-88702380D01*
X117357142Y-88845238D01*
X117261904Y-88940476D01*
X117166666Y-88988095D01*
X107202380Y-33083333D02*
X107916666Y-33083333D01*
X108059523Y-33130952D01*
X108154761Y-33226190D01*
X108202380Y-33369047D01*
X108202380Y-33464285D01*
X108202380Y-32607142D02*
X107202380Y-32607142D01*
X107202380Y-32226190D01*
X107250000Y-32130952D01*
X107297619Y-32083333D01*
X107392857Y-32035714D01*
X107535714Y-32035714D01*
X107630952Y-32083333D01*
X107678571Y-32130952D01*
X107726190Y-32226190D01*
X107726190Y-32607142D01*
X107202380Y-31702380D02*
X107202380Y-31083333D01*
X107583333Y-31416666D01*
X107583333Y-31273809D01*
X107630952Y-31178571D01*
X107678571Y-31130952D01*
X107773809Y-31083333D01*
X108011904Y-31083333D01*
X108107142Y-31130952D01*
X108154761Y-31178571D01*
X108202380Y-31273809D01*
X108202380Y-31559523D01*
X108154761Y-31654761D01*
X108107142Y-31702380D01*
X107916666Y-22202380D02*
X107916666Y-22916666D01*
X107869047Y-23059523D01*
X107773809Y-23154761D01*
X107630952Y-23202380D01*
X107535714Y-23202380D01*
X108392857Y-23202380D02*
X108392857Y-22202380D01*
X108773809Y-22202380D01*
X108869047Y-22250000D01*
X108916666Y-22297619D01*
X108964285Y-22392857D01*
X108964285Y-22535714D01*
X108916666Y-22630952D01*
X108869047Y-22678571D01*
X108773809Y-22726190D01*
X108392857Y-22726190D01*
X109345238Y-22297619D02*
X109392857Y-22250000D01*
X109488095Y-22202380D01*
X109726190Y-22202380D01*
X109821428Y-22250000D01*
X109869047Y-22297619D01*
X109916666Y-22392857D01*
X109916666Y-22488095D01*
X109869047Y-22630952D01*
X109297619Y-23202380D01*
X109916666Y-23202380D01*
X120833333Y-41607142D02*
X120785714Y-41654761D01*
X120642857Y-41702380D01*
X120547619Y-41702380D01*
X120404761Y-41654761D01*
X120309523Y-41559523D01*
X120261904Y-41464285D01*
X120214285Y-41273809D01*
X120214285Y-41130952D01*
X120261904Y-40940476D01*
X120309523Y-40845238D01*
X120404761Y-40750000D01*
X120547619Y-40702380D01*
X120642857Y-40702380D01*
X120785714Y-40750000D01*
X120833333Y-40797619D01*
X121166666Y-40702380D02*
X121833333Y-40702380D01*
X121404761Y-41702380D01*
X43083333Y-68607142D02*
X43035714Y-68654761D01*
X42892857Y-68702380D01*
X42797619Y-68702380D01*
X42654761Y-68654761D01*
X42559523Y-68559523D01*
X42511904Y-68464285D01*
X42464285Y-68273809D01*
X42464285Y-68130952D01*
X42511904Y-67940476D01*
X42559523Y-67845238D01*
X42654761Y-67750000D01*
X42797619Y-67702380D01*
X42892857Y-67702380D01*
X43035714Y-67750000D01*
X43083333Y-67797619D01*
X43416666Y-67702380D02*
X44035714Y-67702380D01*
X43702380Y-68083333D01*
X43845238Y-68083333D01*
X43940476Y-68130952D01*
X43988095Y-68178571D01*
X44035714Y-68273809D01*
X44035714Y-68511904D01*
X43988095Y-68607142D01*
X43940476Y-68654761D01*
X43845238Y-68702380D01*
X43559523Y-68702380D01*
X43464285Y-68654761D01*
X43416666Y-68607142D01*
X63333333Y-75202380D02*
X63000000Y-74726190D01*
X62761904Y-75202380D02*
X62761904Y-74202380D01*
X63142857Y-74202380D01*
X63238095Y-74250000D01*
X63285714Y-74297619D01*
X63333333Y-74392857D01*
X63333333Y-74535714D01*
X63285714Y-74630952D01*
X63238095Y-74678571D01*
X63142857Y-74726190D01*
X62761904Y-74726190D01*
X63904761Y-74630952D02*
X63809523Y-74583333D01*
X63761904Y-74535714D01*
X63714285Y-74440476D01*
X63714285Y-74392857D01*
X63761904Y-74297619D01*
X63809523Y-74250000D01*
X63904761Y-74202380D01*
X64095238Y-74202380D01*
X64190476Y-74250000D01*
X64238095Y-74297619D01*
X64285714Y-74392857D01*
X64285714Y-74440476D01*
X64238095Y-74535714D01*
X64190476Y-74583333D01*
X64095238Y-74630952D01*
X63904761Y-74630952D01*
X63809523Y-74678571D01*
X63761904Y-74726190D01*
X63714285Y-74821428D01*
X63714285Y-75011904D01*
X63761904Y-75107142D01*
X63809523Y-75154761D01*
X63904761Y-75202380D01*
X64095238Y-75202380D01*
X64190476Y-75154761D01*
X64238095Y-75107142D01*
X64285714Y-75011904D01*
X64285714Y-74821428D01*
X64238095Y-74726190D01*
X64190476Y-74678571D01*
X64095238Y-74630952D01*
X110583333Y-41952380D02*
X110250000Y-41476190D01*
X110011904Y-41952380D02*
X110011904Y-40952380D01*
X110392857Y-40952380D01*
X110488095Y-41000000D01*
X110535714Y-41047619D01*
X110583333Y-41142857D01*
X110583333Y-41285714D01*
X110535714Y-41380952D01*
X110488095Y-41428571D01*
X110392857Y-41476190D01*
X110011904Y-41476190D01*
X111440476Y-40952380D02*
X111250000Y-40952380D01*
X111154761Y-41000000D01*
X111107142Y-41047619D01*
X111011904Y-41190476D01*
X110964285Y-41380952D01*
X110964285Y-41761904D01*
X111011904Y-41857142D01*
X111059523Y-41904761D01*
X111154761Y-41952380D01*
X111345238Y-41952380D01*
X111440476Y-41904761D01*
X111488095Y-41857142D01*
X111535714Y-41761904D01*
X111535714Y-41523809D01*
X111488095Y-41428571D01*
X111440476Y-41380952D01*
X111345238Y-41333333D01*
X111154761Y-41333333D01*
X111059523Y-41380952D01*
X111011904Y-41428571D01*
X110964285Y-41523809D01*
X108583333Y-41952380D02*
X108250000Y-41476190D01*
X108011904Y-41952380D02*
X108011904Y-40952380D01*
X108392857Y-40952380D01*
X108488095Y-41000000D01*
X108535714Y-41047619D01*
X108583333Y-41142857D01*
X108583333Y-41285714D01*
X108535714Y-41380952D01*
X108488095Y-41428571D01*
X108392857Y-41476190D01*
X108011904Y-41476190D01*
X109488095Y-40952380D02*
X109011904Y-40952380D01*
X108964285Y-41428571D01*
X109011904Y-41380952D01*
X109107142Y-41333333D01*
X109345238Y-41333333D01*
X109440476Y-41380952D01*
X109488095Y-41428571D01*
X109535714Y-41523809D01*
X109535714Y-41761904D01*
X109488095Y-41857142D01*
X109440476Y-41904761D01*
X109345238Y-41952380D01*
X109107142Y-41952380D01*
X109011904Y-41904761D01*
X108964285Y-41857142D01*
X112083333Y-30167380D02*
X111750000Y-29691190D01*
X111511904Y-30167380D02*
X111511904Y-29167380D01*
X111892857Y-29167380D01*
X111988095Y-29215000D01*
X112035714Y-29262619D01*
X112083333Y-29357857D01*
X112083333Y-29500714D01*
X112035714Y-29595952D01*
X111988095Y-29643571D01*
X111892857Y-29691190D01*
X111511904Y-29691190D01*
X112940476Y-29500714D02*
X112940476Y-30167380D01*
X112702380Y-29119761D02*
X112464285Y-29834047D01*
X113083333Y-29834047D01*
X107333333Y-30167380D02*
X107000000Y-29691190D01*
X106761904Y-30167380D02*
X106761904Y-29167380D01*
X107142857Y-29167380D01*
X107238095Y-29215000D01*
X107285714Y-29262619D01*
X107333333Y-29357857D01*
X107333333Y-29500714D01*
X107285714Y-29595952D01*
X107238095Y-29643571D01*
X107142857Y-29691190D01*
X106761904Y-29691190D01*
X107666666Y-29167380D02*
X108285714Y-29167380D01*
X107952380Y-29548333D01*
X108095238Y-29548333D01*
X108190476Y-29595952D01*
X108238095Y-29643571D01*
X108285714Y-29738809D01*
X108285714Y-29976904D01*
X108238095Y-30072142D01*
X108190476Y-30119761D01*
X108095238Y-30167380D01*
X107809523Y-30167380D01*
X107714285Y-30119761D01*
X107666666Y-30072142D01*
X107333333Y-28167380D02*
X107000000Y-27691190D01*
X106761904Y-28167380D02*
X106761904Y-27167380D01*
X107142857Y-27167380D01*
X107238095Y-27215000D01*
X107285714Y-27262619D01*
X107333333Y-27357857D01*
X107333333Y-27500714D01*
X107285714Y-27595952D01*
X107238095Y-27643571D01*
X107142857Y-27691190D01*
X106761904Y-27691190D01*
X107714285Y-27262619D02*
X107761904Y-27215000D01*
X107857142Y-27167380D01*
X108095238Y-27167380D01*
X108190476Y-27215000D01*
X108238095Y-27262619D01*
X108285714Y-27357857D01*
X108285714Y-27453095D01*
X108238095Y-27595952D01*
X107666666Y-28167380D01*
X108285714Y-28167380D01*
X112083333Y-28202380D02*
X111750000Y-27726190D01*
X111511904Y-28202380D02*
X111511904Y-27202380D01*
X111892857Y-27202380D01*
X111988095Y-27250000D01*
X112035714Y-27297619D01*
X112083333Y-27392857D01*
X112083333Y-27535714D01*
X112035714Y-27630952D01*
X111988095Y-27678571D01*
X111892857Y-27726190D01*
X111511904Y-27726190D01*
X113035714Y-28202380D02*
X112464285Y-28202380D01*
X112750000Y-28202380D02*
X112750000Y-27202380D01*
X112654761Y-27345238D01*
X112559523Y-27440476D01*
X112464285Y-27488095D01*
X107154761Y-36297619D02*
X107059523Y-36250000D01*
X106964285Y-36154761D01*
X106821428Y-36011904D01*
X106726190Y-35964285D01*
X106630952Y-35964285D01*
X106678571Y-36202380D02*
X106583333Y-36154761D01*
X106488095Y-36059523D01*
X106440476Y-35869047D01*
X106440476Y-35535714D01*
X106488095Y-35345238D01*
X106583333Y-35250000D01*
X106678571Y-35202380D01*
X106869047Y-35202380D01*
X106964285Y-35250000D01*
X107059523Y-35345238D01*
X107107142Y-35535714D01*
X107107142Y-35869047D01*
X107059523Y-36059523D01*
X106964285Y-36154761D01*
X106869047Y-36202380D01*
X106678571Y-36202380D01*
X108059523Y-36202380D02*
X107488095Y-36202380D01*
X107773809Y-36202380D02*
X107773809Y-35202380D01*
X107678571Y-35345238D01*
X107583333Y-35440476D01*
X107488095Y-35488095D01*
X114261904Y-31202380D02*
X114261904Y-30202380D01*
X114500000Y-30202380D01*
X114642857Y-30250000D01*
X114738095Y-30345238D01*
X114785714Y-30440476D01*
X114833333Y-30630952D01*
X114833333Y-30773809D01*
X114785714Y-30964285D01*
X114738095Y-31059523D01*
X114642857Y-31154761D01*
X114500000Y-31202380D01*
X114261904Y-31202380D01*
X115166666Y-30202380D02*
X115785714Y-30202380D01*
X115452380Y-30583333D01*
X115595238Y-30583333D01*
X115690476Y-30630952D01*
X115738095Y-30678571D01*
X115785714Y-30773809D01*
X115785714Y-31011904D01*
X115738095Y-31107142D01*
X115690476Y-31154761D01*
X115595238Y-31202380D01*
X115309523Y-31202380D01*
X115214285Y-31154761D01*
X115166666Y-31107142D01*
X120761904Y-24202380D02*
X120761904Y-23202380D01*
X121000000Y-23202380D01*
X121142857Y-23250000D01*
X121238095Y-23345238D01*
X121285714Y-23440476D01*
X121333333Y-23630952D01*
X121333333Y-23773809D01*
X121285714Y-23964285D01*
X121238095Y-24059523D01*
X121142857Y-24154761D01*
X121000000Y-24202380D01*
X120761904Y-24202380D01*
X121714285Y-23297619D02*
X121761904Y-23250000D01*
X121857142Y-23202380D01*
X122095238Y-23202380D01*
X122190476Y-23250000D01*
X122238095Y-23297619D01*
X122285714Y-23392857D01*
X122285714Y-23488095D01*
X122238095Y-23630952D01*
X121666666Y-24202380D01*
X122285714Y-24202380D01*
X42511904Y-77702380D02*
X42511904Y-76702380D01*
X42750000Y-76702380D01*
X42892857Y-76750000D01*
X42988095Y-76845238D01*
X43035714Y-76940476D01*
X43083333Y-77130952D01*
X43083333Y-77273809D01*
X43035714Y-77464285D01*
X42988095Y-77559523D01*
X42892857Y-77654761D01*
X42750000Y-77702380D01*
X42511904Y-77702380D01*
X44035714Y-77702380D02*
X43464285Y-77702380D01*
X43750000Y-77702380D02*
X43750000Y-76702380D01*
X43654761Y-76845238D01*
X43559523Y-76940476D01*
X43464285Y-76988095D01*
X115583333Y-27927142D02*
X115535714Y-27974761D01*
X115392857Y-28022380D01*
X115297619Y-28022380D01*
X115154761Y-27974761D01*
X115059523Y-27879523D01*
X115011904Y-27784285D01*
X114964285Y-27593809D01*
X114964285Y-27450952D01*
X115011904Y-27260476D01*
X115059523Y-27165238D01*
X115154761Y-27070000D01*
X115297619Y-27022380D01*
X115392857Y-27022380D01*
X115535714Y-27070000D01*
X115583333Y-27117619D01*
X116440476Y-27022380D02*
X116250000Y-27022380D01*
X116154761Y-27070000D01*
X116107142Y-27117619D01*
X116011904Y-27260476D01*
X115964285Y-27450952D01*
X115964285Y-27831904D01*
X116011904Y-27927142D01*
X116059523Y-27974761D01*
X116154761Y-28022380D01*
X116345238Y-28022380D01*
X116440476Y-27974761D01*
X116488095Y-27927142D01*
X116535714Y-27831904D01*
X116535714Y-27593809D01*
X116488095Y-27498571D01*
X116440476Y-27450952D01*
X116345238Y-27403333D01*
X116154761Y-27403333D01*
X116059523Y-27450952D01*
X116011904Y-27498571D01*
X115964285Y-27593809D01*
X98317619Y-76122380D02*
X98317619Y-75122380D01*
X99365238Y-76027142D02*
X99317619Y-76074761D01*
X99174761Y-76122380D01*
X99079523Y-76122380D01*
X98936666Y-76074761D01*
X98841428Y-75979523D01*
X98793809Y-75884285D01*
X98746190Y-75693809D01*
X98746190Y-75550952D01*
X98793809Y-75360476D01*
X98841428Y-75265238D01*
X98936666Y-75170000D01*
X99079523Y-75122380D01*
X99174761Y-75122380D01*
X99317619Y-75170000D01*
X99365238Y-75217619D01*
X99746190Y-76074761D02*
X99889047Y-76122380D01*
X100127142Y-76122380D01*
X100222380Y-76074761D01*
X100270000Y-76027142D01*
X100317619Y-75931904D01*
X100317619Y-75836666D01*
X100270000Y-75741428D01*
X100222380Y-75693809D01*
X100127142Y-75646190D01*
X99936666Y-75598571D01*
X99841428Y-75550952D01*
X99793809Y-75503333D01*
X99746190Y-75408095D01*
X99746190Y-75312857D01*
X99793809Y-75217619D01*
X99841428Y-75170000D01*
X99936666Y-75122380D01*
X100174761Y-75122380D01*
X100317619Y-75170000D01*
X100746190Y-76122380D02*
X100746190Y-75122380D01*
X101127142Y-75122380D01*
X101222380Y-75170000D01*
X101270000Y-75217619D01*
X101317619Y-75312857D01*
X101317619Y-75455714D01*
X101270000Y-75550952D01*
X101222380Y-75598571D01*
X101127142Y-75646190D01*
X100746190Y-75646190D01*
X102270000Y-76122380D02*
X101698571Y-76122380D01*
X101984285Y-76122380D02*
X101984285Y-75122380D01*
X101889047Y-75265238D01*
X101793809Y-75360476D01*
X101698571Y-75408095D01*
X78988095Y-69952380D02*
X78988095Y-70761904D01*
X79035714Y-70857142D01*
X79083333Y-70904761D01*
X79178571Y-70952380D01*
X79369047Y-70952380D01*
X79464285Y-70904761D01*
X79511904Y-70857142D01*
X79559523Y-70761904D01*
X79559523Y-69952380D01*
X79940476Y-69952380D02*
X80559523Y-69952380D01*
X80226190Y-70333333D01*
X80369047Y-70333333D01*
X80464285Y-70380952D01*
X80511904Y-70428571D01*
X80559523Y-70523809D01*
X80559523Y-70761904D01*
X80511904Y-70857142D01*
X80464285Y-70904761D01*
X80369047Y-70952380D01*
X80083333Y-70952380D01*
X79988095Y-70904761D01*
X79940476Y-70857142D01*
X35588095Y-67652380D02*
X35588095Y-68461904D01*
X35635714Y-68557142D01*
X35683333Y-68604761D01*
X35778571Y-68652380D01*
X35969047Y-68652380D01*
X36064285Y-68604761D01*
X36111904Y-68557142D01*
X36159523Y-68461904D01*
X36159523Y-67652380D01*
X37159523Y-68652380D02*
X36588095Y-68652380D01*
X36873809Y-68652380D02*
X36873809Y-67652380D01*
X36778571Y-67795238D01*
X36683333Y-67890476D01*
X36588095Y-67938095D01*
X65261904Y-74702380D02*
X65261904Y-73702380D01*
X65500000Y-73702380D01*
X65642857Y-73750000D01*
X65738095Y-73845238D01*
X65785714Y-73940476D01*
X65833333Y-74130952D01*
X65833333Y-74273809D01*
X65785714Y-74464285D01*
X65738095Y-74559523D01*
X65642857Y-74654761D01*
X65500000Y-74702380D01*
X65261904Y-74702380D01*
X66738095Y-73702380D02*
X66261904Y-73702380D01*
X66214285Y-74178571D01*
X66261904Y-74130952D01*
X66357142Y-74083333D01*
X66595238Y-74083333D01*
X66690476Y-74130952D01*
X66738095Y-74178571D01*
X66785714Y-74273809D01*
X66785714Y-74511904D01*
X66738095Y-74607142D01*
X66690476Y-74654761D01*
X66595238Y-74702380D01*
X66357142Y-74702380D01*
X66261904Y-74654761D01*
X66214285Y-74607142D01*
X74045833Y-67107142D02*
X73998214Y-67154761D01*
X73855357Y-67202380D01*
X73760119Y-67202380D01*
X73617261Y-67154761D01*
X73522023Y-67059523D01*
X73474404Y-66964285D01*
X73426785Y-66773809D01*
X73426785Y-66630952D01*
X73474404Y-66440476D01*
X73522023Y-66345238D01*
X73617261Y-66250000D01*
X73760119Y-66202380D01*
X73855357Y-66202380D01*
X73998214Y-66250000D01*
X74045833Y-66297619D01*
X74617261Y-66630952D02*
X74522023Y-66583333D01*
X74474404Y-66535714D01*
X74426785Y-66440476D01*
X74426785Y-66392857D01*
X74474404Y-66297619D01*
X74522023Y-66250000D01*
X74617261Y-66202380D01*
X74807738Y-66202380D01*
X74902976Y-66250000D01*
X74950595Y-66297619D01*
X74998214Y-66392857D01*
X74998214Y-66440476D01*
X74950595Y-66535714D01*
X74902976Y-66583333D01*
X74807738Y-66630952D01*
X74617261Y-66630952D01*
X74522023Y-66678571D01*
X74474404Y-66726190D01*
X74426785Y-66821428D01*
X74426785Y-67011904D01*
X74474404Y-67107142D01*
X74522023Y-67154761D01*
X74617261Y-67202380D01*
X74807738Y-67202380D01*
X74902976Y-67154761D01*
X74950595Y-67107142D01*
X74998214Y-67011904D01*
X74998214Y-66821428D01*
X74950595Y-66726190D01*
X74902976Y-66678571D01*
X74807738Y-66630952D01*
X107833333Y-83357142D02*
X107785714Y-83404761D01*
X107642857Y-83452380D01*
X107547619Y-83452380D01*
X107404761Y-83404761D01*
X107309523Y-83309523D01*
X107261904Y-83214285D01*
X107214285Y-83023809D01*
X107214285Y-82880952D01*
X107261904Y-82690476D01*
X107309523Y-82595238D01*
X107404761Y-82500000D01*
X107547619Y-82452380D01*
X107642857Y-82452380D01*
X107785714Y-82500000D01*
X107833333Y-82547619D01*
X108738095Y-82452380D02*
X108261904Y-82452380D01*
X108214285Y-82928571D01*
X108261904Y-82880952D01*
X108357142Y-82833333D01*
X108595238Y-82833333D01*
X108690476Y-82880952D01*
X108738095Y-82928571D01*
X108785714Y-83023809D01*
X108785714Y-83261904D01*
X108738095Y-83357142D01*
X108690476Y-83404761D01*
X108595238Y-83452380D01*
X108357142Y-83452380D01*
X108261904Y-83404761D01*
X108214285Y-83357142D01*
X29127142Y-72654166D02*
X29174761Y-72701785D01*
X29222380Y-72844642D01*
X29222380Y-72939880D01*
X29174761Y-73082738D01*
X29079523Y-73177976D01*
X28984285Y-73225595D01*
X28793809Y-73273214D01*
X28650952Y-73273214D01*
X28460476Y-73225595D01*
X28365238Y-73177976D01*
X28270000Y-73082738D01*
X28222380Y-72939880D01*
X28222380Y-72844642D01*
X28270000Y-72701785D01*
X28317619Y-72654166D01*
X28317619Y-72273214D02*
X28270000Y-72225595D01*
X28222380Y-72130357D01*
X28222380Y-71892261D01*
X28270000Y-71797023D01*
X28317619Y-71749404D01*
X28412857Y-71701785D01*
X28508095Y-71701785D01*
X28650952Y-71749404D01*
X29222380Y-72320833D01*
X29222380Y-71701785D01*
X66214285Y-31928571D02*
X66357142Y-31976190D01*
X66404761Y-32023809D01*
X66452380Y-32119047D01*
X66452380Y-32261904D01*
X66404761Y-32357142D01*
X66357142Y-32404761D01*
X66261904Y-32452380D01*
X65880952Y-32452380D01*
X65880952Y-31452380D01*
X66214285Y-31452380D01*
X66309523Y-31500000D01*
X66357142Y-31547619D01*
X66404761Y-31642857D01*
X66404761Y-31738095D01*
X66357142Y-31833333D01*
X66309523Y-31880952D01*
X66214285Y-31928571D01*
X65880952Y-31928571D01*
X66738095Y-31452380D02*
X67309523Y-31452380D01*
X67023809Y-32452380D02*
X67023809Y-31452380D01*
X68166666Y-32452380D02*
X67595238Y-32452380D01*
X67880952Y-32452380D02*
X67880952Y-31452380D01*
X67785714Y-31595238D01*
X67690476Y-31690476D01*
X67595238Y-31738095D01*
M02*
