G04 #@! TF.GenerationSoftware,KiCad,Pcbnew,5.1.5-1.fc30*
G04 #@! TF.CreationDate,2020-10-13T00:09:32+02:00*
G04 #@! TF.ProjectId,BeaconTemperature2,42656163-6f6e-4546-956d-706572617475,rev?*
G04 #@! TF.SameCoordinates,Original*
G04 #@! TF.FileFunction,Paste,Top*
G04 #@! TF.FilePolarity,Positive*
%FSLAX46Y46*%
G04 Gerber Fmt 4.6, Leading zero omitted, Abs format (unit mm)*
G04 Created by KiCad (PCBNEW 5.1.5-1.fc30) date 2020-10-13 00:09:32*
%MOMM*%
%LPD*%
G04 APERTURE LIST*
%ADD10C,0.100000*%
%ADD11R,1.500000X2.000000*%
%ADD12R,3.800000X2.000000*%
%ADD13R,0.900000X0.800000*%
%ADD14R,1.100000X1.100000*%
%ADD15R,1.800000X2.500000*%
%ADD16R,0.800000X0.900000*%
%ADD17R,2.500000X1.800000*%
%ADD18R,1.600000X0.550000*%
%ADD19R,0.550000X1.600000*%
%ADD20R,2.000000X1.500000*%
%ADD21R,2.000000X3.800000*%
%ADD22R,0.500000X0.500000*%
G04 APERTURE END LIST*
D10*
G36*
X53815191Y-108026053D02*
G01*
X53836426Y-108029203D01*
X53857250Y-108034419D01*
X53877462Y-108041651D01*
X53896868Y-108050830D01*
X53915281Y-108061866D01*
X53932524Y-108074654D01*
X53948430Y-108089070D01*
X53962846Y-108104976D01*
X53975634Y-108122219D01*
X53986670Y-108140632D01*
X53995849Y-108160038D01*
X54003081Y-108180250D01*
X54008297Y-108201074D01*
X54011447Y-108222309D01*
X54012500Y-108243750D01*
X54012500Y-108756250D01*
X54011447Y-108777691D01*
X54008297Y-108798926D01*
X54003081Y-108819750D01*
X53995849Y-108839962D01*
X53986670Y-108859368D01*
X53975634Y-108877781D01*
X53962846Y-108895024D01*
X53948430Y-108910930D01*
X53932524Y-108925346D01*
X53915281Y-108938134D01*
X53896868Y-108949170D01*
X53877462Y-108958349D01*
X53857250Y-108965581D01*
X53836426Y-108970797D01*
X53815191Y-108973947D01*
X53793750Y-108975000D01*
X53356250Y-108975000D01*
X53334809Y-108973947D01*
X53313574Y-108970797D01*
X53292750Y-108965581D01*
X53272538Y-108958349D01*
X53253132Y-108949170D01*
X53234719Y-108938134D01*
X53217476Y-108925346D01*
X53201570Y-108910930D01*
X53187154Y-108895024D01*
X53174366Y-108877781D01*
X53163330Y-108859368D01*
X53154151Y-108839962D01*
X53146919Y-108819750D01*
X53141703Y-108798926D01*
X53138553Y-108777691D01*
X53137500Y-108756250D01*
X53137500Y-108243750D01*
X53138553Y-108222309D01*
X53141703Y-108201074D01*
X53146919Y-108180250D01*
X53154151Y-108160038D01*
X53163330Y-108140632D01*
X53174366Y-108122219D01*
X53187154Y-108104976D01*
X53201570Y-108089070D01*
X53217476Y-108074654D01*
X53234719Y-108061866D01*
X53253132Y-108050830D01*
X53272538Y-108041651D01*
X53292750Y-108034419D01*
X53313574Y-108029203D01*
X53334809Y-108026053D01*
X53356250Y-108025000D01*
X53793750Y-108025000D01*
X53815191Y-108026053D01*
G37*
G36*
X52240191Y-108026053D02*
G01*
X52261426Y-108029203D01*
X52282250Y-108034419D01*
X52302462Y-108041651D01*
X52321868Y-108050830D01*
X52340281Y-108061866D01*
X52357524Y-108074654D01*
X52373430Y-108089070D01*
X52387846Y-108104976D01*
X52400634Y-108122219D01*
X52411670Y-108140632D01*
X52420849Y-108160038D01*
X52428081Y-108180250D01*
X52433297Y-108201074D01*
X52436447Y-108222309D01*
X52437500Y-108243750D01*
X52437500Y-108756250D01*
X52436447Y-108777691D01*
X52433297Y-108798926D01*
X52428081Y-108819750D01*
X52420849Y-108839962D01*
X52411670Y-108859368D01*
X52400634Y-108877781D01*
X52387846Y-108895024D01*
X52373430Y-108910930D01*
X52357524Y-108925346D01*
X52340281Y-108938134D01*
X52321868Y-108949170D01*
X52302462Y-108958349D01*
X52282250Y-108965581D01*
X52261426Y-108970797D01*
X52240191Y-108973947D01*
X52218750Y-108975000D01*
X51781250Y-108975000D01*
X51759809Y-108973947D01*
X51738574Y-108970797D01*
X51717750Y-108965581D01*
X51697538Y-108958349D01*
X51678132Y-108949170D01*
X51659719Y-108938134D01*
X51642476Y-108925346D01*
X51626570Y-108910930D01*
X51612154Y-108895024D01*
X51599366Y-108877781D01*
X51588330Y-108859368D01*
X51579151Y-108839962D01*
X51571919Y-108819750D01*
X51566703Y-108798926D01*
X51563553Y-108777691D01*
X51562500Y-108756250D01*
X51562500Y-108243750D01*
X51563553Y-108222309D01*
X51566703Y-108201074D01*
X51571919Y-108180250D01*
X51579151Y-108160038D01*
X51588330Y-108140632D01*
X51599366Y-108122219D01*
X51612154Y-108104976D01*
X51626570Y-108089070D01*
X51642476Y-108074654D01*
X51659719Y-108061866D01*
X51678132Y-108050830D01*
X51697538Y-108041651D01*
X51717750Y-108034419D01*
X51738574Y-108029203D01*
X51759809Y-108026053D01*
X51781250Y-108025000D01*
X52218750Y-108025000D01*
X52240191Y-108026053D01*
G37*
G36*
X69131958Y-67680710D02*
G01*
X69146276Y-67682834D01*
X69160317Y-67686351D01*
X69173946Y-67691228D01*
X69187031Y-67697417D01*
X69199447Y-67704858D01*
X69211073Y-67713481D01*
X69221798Y-67723202D01*
X69231519Y-67733927D01*
X69240142Y-67745553D01*
X69247583Y-67757969D01*
X69253772Y-67771054D01*
X69258649Y-67784683D01*
X69262166Y-67798724D01*
X69264290Y-67813042D01*
X69265000Y-67827500D01*
X69265000Y-68172500D01*
X69264290Y-68186958D01*
X69262166Y-68201276D01*
X69258649Y-68215317D01*
X69253772Y-68228946D01*
X69247583Y-68242031D01*
X69240142Y-68254447D01*
X69231519Y-68266073D01*
X69221798Y-68276798D01*
X69211073Y-68286519D01*
X69199447Y-68295142D01*
X69187031Y-68302583D01*
X69173946Y-68308772D01*
X69160317Y-68313649D01*
X69146276Y-68317166D01*
X69131958Y-68319290D01*
X69117500Y-68320000D01*
X68822500Y-68320000D01*
X68808042Y-68319290D01*
X68793724Y-68317166D01*
X68779683Y-68313649D01*
X68766054Y-68308772D01*
X68752969Y-68302583D01*
X68740553Y-68295142D01*
X68728927Y-68286519D01*
X68718202Y-68276798D01*
X68708481Y-68266073D01*
X68699858Y-68254447D01*
X68692417Y-68242031D01*
X68686228Y-68228946D01*
X68681351Y-68215317D01*
X68677834Y-68201276D01*
X68675710Y-68186958D01*
X68675000Y-68172500D01*
X68675000Y-67827500D01*
X68675710Y-67813042D01*
X68677834Y-67798724D01*
X68681351Y-67784683D01*
X68686228Y-67771054D01*
X68692417Y-67757969D01*
X68699858Y-67745553D01*
X68708481Y-67733927D01*
X68718202Y-67723202D01*
X68728927Y-67713481D01*
X68740553Y-67704858D01*
X68752969Y-67697417D01*
X68766054Y-67691228D01*
X68779683Y-67686351D01*
X68793724Y-67682834D01*
X68808042Y-67680710D01*
X68822500Y-67680000D01*
X69117500Y-67680000D01*
X69131958Y-67680710D01*
G37*
G36*
X68161958Y-67680710D02*
G01*
X68176276Y-67682834D01*
X68190317Y-67686351D01*
X68203946Y-67691228D01*
X68217031Y-67697417D01*
X68229447Y-67704858D01*
X68241073Y-67713481D01*
X68251798Y-67723202D01*
X68261519Y-67733927D01*
X68270142Y-67745553D01*
X68277583Y-67757969D01*
X68283772Y-67771054D01*
X68288649Y-67784683D01*
X68292166Y-67798724D01*
X68294290Y-67813042D01*
X68295000Y-67827500D01*
X68295000Y-68172500D01*
X68294290Y-68186958D01*
X68292166Y-68201276D01*
X68288649Y-68215317D01*
X68283772Y-68228946D01*
X68277583Y-68242031D01*
X68270142Y-68254447D01*
X68261519Y-68266073D01*
X68251798Y-68276798D01*
X68241073Y-68286519D01*
X68229447Y-68295142D01*
X68217031Y-68302583D01*
X68203946Y-68308772D01*
X68190317Y-68313649D01*
X68176276Y-68317166D01*
X68161958Y-68319290D01*
X68147500Y-68320000D01*
X67852500Y-68320000D01*
X67838042Y-68319290D01*
X67823724Y-68317166D01*
X67809683Y-68313649D01*
X67796054Y-68308772D01*
X67782969Y-68302583D01*
X67770553Y-68295142D01*
X67758927Y-68286519D01*
X67748202Y-68276798D01*
X67738481Y-68266073D01*
X67729858Y-68254447D01*
X67722417Y-68242031D01*
X67716228Y-68228946D01*
X67711351Y-68215317D01*
X67707834Y-68201276D01*
X67705710Y-68186958D01*
X67705000Y-68172500D01*
X67705000Y-67827500D01*
X67705710Y-67813042D01*
X67707834Y-67798724D01*
X67711351Y-67784683D01*
X67716228Y-67771054D01*
X67722417Y-67757969D01*
X67729858Y-67745553D01*
X67738481Y-67733927D01*
X67748202Y-67723202D01*
X67758927Y-67713481D01*
X67770553Y-67704858D01*
X67782969Y-67697417D01*
X67796054Y-67691228D01*
X67809683Y-67686351D01*
X67823724Y-67682834D01*
X67838042Y-67680710D01*
X67852500Y-67680000D01*
X68147500Y-67680000D01*
X68161958Y-67680710D01*
G37*
G36*
X65815191Y-67526053D02*
G01*
X65836426Y-67529203D01*
X65857250Y-67534419D01*
X65877462Y-67541651D01*
X65896868Y-67550830D01*
X65915281Y-67561866D01*
X65932524Y-67574654D01*
X65948430Y-67589070D01*
X65962846Y-67604976D01*
X65975634Y-67622219D01*
X65986670Y-67640632D01*
X65995849Y-67660038D01*
X66003081Y-67680250D01*
X66008297Y-67701074D01*
X66011447Y-67722309D01*
X66012500Y-67743750D01*
X66012500Y-68256250D01*
X66011447Y-68277691D01*
X66008297Y-68298926D01*
X66003081Y-68319750D01*
X65995849Y-68339962D01*
X65986670Y-68359368D01*
X65975634Y-68377781D01*
X65962846Y-68395024D01*
X65948430Y-68410930D01*
X65932524Y-68425346D01*
X65915281Y-68438134D01*
X65896868Y-68449170D01*
X65877462Y-68458349D01*
X65857250Y-68465581D01*
X65836426Y-68470797D01*
X65815191Y-68473947D01*
X65793750Y-68475000D01*
X65356250Y-68475000D01*
X65334809Y-68473947D01*
X65313574Y-68470797D01*
X65292750Y-68465581D01*
X65272538Y-68458349D01*
X65253132Y-68449170D01*
X65234719Y-68438134D01*
X65217476Y-68425346D01*
X65201570Y-68410930D01*
X65187154Y-68395024D01*
X65174366Y-68377781D01*
X65163330Y-68359368D01*
X65154151Y-68339962D01*
X65146919Y-68319750D01*
X65141703Y-68298926D01*
X65138553Y-68277691D01*
X65137500Y-68256250D01*
X65137500Y-67743750D01*
X65138553Y-67722309D01*
X65141703Y-67701074D01*
X65146919Y-67680250D01*
X65154151Y-67660038D01*
X65163330Y-67640632D01*
X65174366Y-67622219D01*
X65187154Y-67604976D01*
X65201570Y-67589070D01*
X65217476Y-67574654D01*
X65234719Y-67561866D01*
X65253132Y-67550830D01*
X65272538Y-67541651D01*
X65292750Y-67534419D01*
X65313574Y-67529203D01*
X65334809Y-67526053D01*
X65356250Y-67525000D01*
X65793750Y-67525000D01*
X65815191Y-67526053D01*
G37*
G36*
X64240191Y-67526053D02*
G01*
X64261426Y-67529203D01*
X64282250Y-67534419D01*
X64302462Y-67541651D01*
X64321868Y-67550830D01*
X64340281Y-67561866D01*
X64357524Y-67574654D01*
X64373430Y-67589070D01*
X64387846Y-67604976D01*
X64400634Y-67622219D01*
X64411670Y-67640632D01*
X64420849Y-67660038D01*
X64428081Y-67680250D01*
X64433297Y-67701074D01*
X64436447Y-67722309D01*
X64437500Y-67743750D01*
X64437500Y-68256250D01*
X64436447Y-68277691D01*
X64433297Y-68298926D01*
X64428081Y-68319750D01*
X64420849Y-68339962D01*
X64411670Y-68359368D01*
X64400634Y-68377781D01*
X64387846Y-68395024D01*
X64373430Y-68410930D01*
X64357524Y-68425346D01*
X64340281Y-68438134D01*
X64321868Y-68449170D01*
X64302462Y-68458349D01*
X64282250Y-68465581D01*
X64261426Y-68470797D01*
X64240191Y-68473947D01*
X64218750Y-68475000D01*
X63781250Y-68475000D01*
X63759809Y-68473947D01*
X63738574Y-68470797D01*
X63717750Y-68465581D01*
X63697538Y-68458349D01*
X63678132Y-68449170D01*
X63659719Y-68438134D01*
X63642476Y-68425346D01*
X63626570Y-68410930D01*
X63612154Y-68395024D01*
X63599366Y-68377781D01*
X63588330Y-68359368D01*
X63579151Y-68339962D01*
X63571919Y-68319750D01*
X63566703Y-68298926D01*
X63563553Y-68277691D01*
X63562500Y-68256250D01*
X63562500Y-67743750D01*
X63563553Y-67722309D01*
X63566703Y-67701074D01*
X63571919Y-67680250D01*
X63579151Y-67660038D01*
X63588330Y-67640632D01*
X63599366Y-67622219D01*
X63612154Y-67604976D01*
X63626570Y-67589070D01*
X63642476Y-67574654D01*
X63659719Y-67561866D01*
X63678132Y-67550830D01*
X63697538Y-67541651D01*
X63717750Y-67534419D01*
X63738574Y-67529203D01*
X63759809Y-67526053D01*
X63781250Y-67525000D01*
X64218750Y-67525000D01*
X64240191Y-67526053D01*
G37*
G36*
X45646958Y-101680710D02*
G01*
X45661276Y-101682834D01*
X45675317Y-101686351D01*
X45688946Y-101691228D01*
X45702031Y-101697417D01*
X45714447Y-101704858D01*
X45726073Y-101713481D01*
X45736798Y-101723202D01*
X45746519Y-101733927D01*
X45755142Y-101745553D01*
X45762583Y-101757969D01*
X45768772Y-101771054D01*
X45773649Y-101784683D01*
X45777166Y-101798724D01*
X45779290Y-101813042D01*
X45780000Y-101827500D01*
X45780000Y-102172500D01*
X45779290Y-102186958D01*
X45777166Y-102201276D01*
X45773649Y-102215317D01*
X45768772Y-102228946D01*
X45762583Y-102242031D01*
X45755142Y-102254447D01*
X45746519Y-102266073D01*
X45736798Y-102276798D01*
X45726073Y-102286519D01*
X45714447Y-102295142D01*
X45702031Y-102302583D01*
X45688946Y-102308772D01*
X45675317Y-102313649D01*
X45661276Y-102317166D01*
X45646958Y-102319290D01*
X45632500Y-102320000D01*
X45337500Y-102320000D01*
X45323042Y-102319290D01*
X45308724Y-102317166D01*
X45294683Y-102313649D01*
X45281054Y-102308772D01*
X45267969Y-102302583D01*
X45255553Y-102295142D01*
X45243927Y-102286519D01*
X45233202Y-102276798D01*
X45223481Y-102266073D01*
X45214858Y-102254447D01*
X45207417Y-102242031D01*
X45201228Y-102228946D01*
X45196351Y-102215317D01*
X45192834Y-102201276D01*
X45190710Y-102186958D01*
X45190000Y-102172500D01*
X45190000Y-101827500D01*
X45190710Y-101813042D01*
X45192834Y-101798724D01*
X45196351Y-101784683D01*
X45201228Y-101771054D01*
X45207417Y-101757969D01*
X45214858Y-101745553D01*
X45223481Y-101733927D01*
X45233202Y-101723202D01*
X45243927Y-101713481D01*
X45255553Y-101704858D01*
X45267969Y-101697417D01*
X45281054Y-101691228D01*
X45294683Y-101686351D01*
X45308724Y-101682834D01*
X45323042Y-101680710D01*
X45337500Y-101680000D01*
X45632500Y-101680000D01*
X45646958Y-101680710D01*
G37*
G36*
X44676958Y-101680710D02*
G01*
X44691276Y-101682834D01*
X44705317Y-101686351D01*
X44718946Y-101691228D01*
X44732031Y-101697417D01*
X44744447Y-101704858D01*
X44756073Y-101713481D01*
X44766798Y-101723202D01*
X44776519Y-101733927D01*
X44785142Y-101745553D01*
X44792583Y-101757969D01*
X44798772Y-101771054D01*
X44803649Y-101784683D01*
X44807166Y-101798724D01*
X44809290Y-101813042D01*
X44810000Y-101827500D01*
X44810000Y-102172500D01*
X44809290Y-102186958D01*
X44807166Y-102201276D01*
X44803649Y-102215317D01*
X44798772Y-102228946D01*
X44792583Y-102242031D01*
X44785142Y-102254447D01*
X44776519Y-102266073D01*
X44766798Y-102276798D01*
X44756073Y-102286519D01*
X44744447Y-102295142D01*
X44732031Y-102302583D01*
X44718946Y-102308772D01*
X44705317Y-102313649D01*
X44691276Y-102317166D01*
X44676958Y-102319290D01*
X44662500Y-102320000D01*
X44367500Y-102320000D01*
X44353042Y-102319290D01*
X44338724Y-102317166D01*
X44324683Y-102313649D01*
X44311054Y-102308772D01*
X44297969Y-102302583D01*
X44285553Y-102295142D01*
X44273927Y-102286519D01*
X44263202Y-102276798D01*
X44253481Y-102266073D01*
X44244858Y-102254447D01*
X44237417Y-102242031D01*
X44231228Y-102228946D01*
X44226351Y-102215317D01*
X44222834Y-102201276D01*
X44220710Y-102186958D01*
X44220000Y-102172500D01*
X44220000Y-101827500D01*
X44220710Y-101813042D01*
X44222834Y-101798724D01*
X44226351Y-101784683D01*
X44231228Y-101771054D01*
X44237417Y-101757969D01*
X44244858Y-101745553D01*
X44253481Y-101733927D01*
X44263202Y-101723202D01*
X44273927Y-101713481D01*
X44285553Y-101704858D01*
X44297969Y-101697417D01*
X44311054Y-101691228D01*
X44324683Y-101686351D01*
X44338724Y-101682834D01*
X44353042Y-101680710D01*
X44367500Y-101680000D01*
X44662500Y-101680000D01*
X44676958Y-101680710D01*
G37*
G36*
X41646958Y-101680710D02*
G01*
X41661276Y-101682834D01*
X41675317Y-101686351D01*
X41688946Y-101691228D01*
X41702031Y-101697417D01*
X41714447Y-101704858D01*
X41726073Y-101713481D01*
X41736798Y-101723202D01*
X41746519Y-101733927D01*
X41755142Y-101745553D01*
X41762583Y-101757969D01*
X41768772Y-101771054D01*
X41773649Y-101784683D01*
X41777166Y-101798724D01*
X41779290Y-101813042D01*
X41780000Y-101827500D01*
X41780000Y-102172500D01*
X41779290Y-102186958D01*
X41777166Y-102201276D01*
X41773649Y-102215317D01*
X41768772Y-102228946D01*
X41762583Y-102242031D01*
X41755142Y-102254447D01*
X41746519Y-102266073D01*
X41736798Y-102276798D01*
X41726073Y-102286519D01*
X41714447Y-102295142D01*
X41702031Y-102302583D01*
X41688946Y-102308772D01*
X41675317Y-102313649D01*
X41661276Y-102317166D01*
X41646958Y-102319290D01*
X41632500Y-102320000D01*
X41337500Y-102320000D01*
X41323042Y-102319290D01*
X41308724Y-102317166D01*
X41294683Y-102313649D01*
X41281054Y-102308772D01*
X41267969Y-102302583D01*
X41255553Y-102295142D01*
X41243927Y-102286519D01*
X41233202Y-102276798D01*
X41223481Y-102266073D01*
X41214858Y-102254447D01*
X41207417Y-102242031D01*
X41201228Y-102228946D01*
X41196351Y-102215317D01*
X41192834Y-102201276D01*
X41190710Y-102186958D01*
X41190000Y-102172500D01*
X41190000Y-101827500D01*
X41190710Y-101813042D01*
X41192834Y-101798724D01*
X41196351Y-101784683D01*
X41201228Y-101771054D01*
X41207417Y-101757969D01*
X41214858Y-101745553D01*
X41223481Y-101733927D01*
X41233202Y-101723202D01*
X41243927Y-101713481D01*
X41255553Y-101704858D01*
X41267969Y-101697417D01*
X41281054Y-101691228D01*
X41294683Y-101686351D01*
X41308724Y-101682834D01*
X41323042Y-101680710D01*
X41337500Y-101680000D01*
X41632500Y-101680000D01*
X41646958Y-101680710D01*
G37*
G36*
X40676958Y-101680710D02*
G01*
X40691276Y-101682834D01*
X40705317Y-101686351D01*
X40718946Y-101691228D01*
X40732031Y-101697417D01*
X40744447Y-101704858D01*
X40756073Y-101713481D01*
X40766798Y-101723202D01*
X40776519Y-101733927D01*
X40785142Y-101745553D01*
X40792583Y-101757969D01*
X40798772Y-101771054D01*
X40803649Y-101784683D01*
X40807166Y-101798724D01*
X40809290Y-101813042D01*
X40810000Y-101827500D01*
X40810000Y-102172500D01*
X40809290Y-102186958D01*
X40807166Y-102201276D01*
X40803649Y-102215317D01*
X40798772Y-102228946D01*
X40792583Y-102242031D01*
X40785142Y-102254447D01*
X40776519Y-102266073D01*
X40766798Y-102276798D01*
X40756073Y-102286519D01*
X40744447Y-102295142D01*
X40732031Y-102302583D01*
X40718946Y-102308772D01*
X40705317Y-102313649D01*
X40691276Y-102317166D01*
X40676958Y-102319290D01*
X40662500Y-102320000D01*
X40367500Y-102320000D01*
X40353042Y-102319290D01*
X40338724Y-102317166D01*
X40324683Y-102313649D01*
X40311054Y-102308772D01*
X40297969Y-102302583D01*
X40285553Y-102295142D01*
X40273927Y-102286519D01*
X40263202Y-102276798D01*
X40253481Y-102266073D01*
X40244858Y-102254447D01*
X40237417Y-102242031D01*
X40231228Y-102228946D01*
X40226351Y-102215317D01*
X40222834Y-102201276D01*
X40220710Y-102186958D01*
X40220000Y-102172500D01*
X40220000Y-101827500D01*
X40220710Y-101813042D01*
X40222834Y-101798724D01*
X40226351Y-101784683D01*
X40231228Y-101771054D01*
X40237417Y-101757969D01*
X40244858Y-101745553D01*
X40253481Y-101733927D01*
X40263202Y-101723202D01*
X40273927Y-101713481D01*
X40285553Y-101704858D01*
X40297969Y-101697417D01*
X40311054Y-101691228D01*
X40324683Y-101686351D01*
X40338724Y-101682834D01*
X40353042Y-101680710D01*
X40367500Y-101680000D01*
X40662500Y-101680000D01*
X40676958Y-101680710D01*
G37*
D11*
X118300000Y-35850000D03*
X113700000Y-35850000D03*
X116000000Y-35850000D03*
D12*
X116000000Y-42150000D03*
D10*
G36*
X85186958Y-105190710D02*
G01*
X85201276Y-105192834D01*
X85215317Y-105196351D01*
X85228946Y-105201228D01*
X85242031Y-105207417D01*
X85254447Y-105214858D01*
X85266073Y-105223481D01*
X85276798Y-105233202D01*
X85286519Y-105243927D01*
X85295142Y-105255553D01*
X85302583Y-105267969D01*
X85308772Y-105281054D01*
X85313649Y-105294683D01*
X85317166Y-105308724D01*
X85319290Y-105323042D01*
X85320000Y-105337500D01*
X85320000Y-105632500D01*
X85319290Y-105646958D01*
X85317166Y-105661276D01*
X85313649Y-105675317D01*
X85308772Y-105688946D01*
X85302583Y-105702031D01*
X85295142Y-105714447D01*
X85286519Y-105726073D01*
X85276798Y-105736798D01*
X85266073Y-105746519D01*
X85254447Y-105755142D01*
X85242031Y-105762583D01*
X85228946Y-105768772D01*
X85215317Y-105773649D01*
X85201276Y-105777166D01*
X85186958Y-105779290D01*
X85172500Y-105780000D01*
X84827500Y-105780000D01*
X84813042Y-105779290D01*
X84798724Y-105777166D01*
X84784683Y-105773649D01*
X84771054Y-105768772D01*
X84757969Y-105762583D01*
X84745553Y-105755142D01*
X84733927Y-105746519D01*
X84723202Y-105736798D01*
X84713481Y-105726073D01*
X84704858Y-105714447D01*
X84697417Y-105702031D01*
X84691228Y-105688946D01*
X84686351Y-105675317D01*
X84682834Y-105661276D01*
X84680710Y-105646958D01*
X84680000Y-105632500D01*
X84680000Y-105337500D01*
X84680710Y-105323042D01*
X84682834Y-105308724D01*
X84686351Y-105294683D01*
X84691228Y-105281054D01*
X84697417Y-105267969D01*
X84704858Y-105255553D01*
X84713481Y-105243927D01*
X84723202Y-105233202D01*
X84733927Y-105223481D01*
X84745553Y-105214858D01*
X84757969Y-105207417D01*
X84771054Y-105201228D01*
X84784683Y-105196351D01*
X84798724Y-105192834D01*
X84813042Y-105190710D01*
X84827500Y-105190000D01*
X85172500Y-105190000D01*
X85186958Y-105190710D01*
G37*
G36*
X85186958Y-104220710D02*
G01*
X85201276Y-104222834D01*
X85215317Y-104226351D01*
X85228946Y-104231228D01*
X85242031Y-104237417D01*
X85254447Y-104244858D01*
X85266073Y-104253481D01*
X85276798Y-104263202D01*
X85286519Y-104273927D01*
X85295142Y-104285553D01*
X85302583Y-104297969D01*
X85308772Y-104311054D01*
X85313649Y-104324683D01*
X85317166Y-104338724D01*
X85319290Y-104353042D01*
X85320000Y-104367500D01*
X85320000Y-104662500D01*
X85319290Y-104676958D01*
X85317166Y-104691276D01*
X85313649Y-104705317D01*
X85308772Y-104718946D01*
X85302583Y-104732031D01*
X85295142Y-104744447D01*
X85286519Y-104756073D01*
X85276798Y-104766798D01*
X85266073Y-104776519D01*
X85254447Y-104785142D01*
X85242031Y-104792583D01*
X85228946Y-104798772D01*
X85215317Y-104803649D01*
X85201276Y-104807166D01*
X85186958Y-104809290D01*
X85172500Y-104810000D01*
X84827500Y-104810000D01*
X84813042Y-104809290D01*
X84798724Y-104807166D01*
X84784683Y-104803649D01*
X84771054Y-104798772D01*
X84757969Y-104792583D01*
X84745553Y-104785142D01*
X84733927Y-104776519D01*
X84723202Y-104766798D01*
X84713481Y-104756073D01*
X84704858Y-104744447D01*
X84697417Y-104732031D01*
X84691228Y-104718946D01*
X84686351Y-104705317D01*
X84682834Y-104691276D01*
X84680710Y-104676958D01*
X84680000Y-104662500D01*
X84680000Y-104367500D01*
X84680710Y-104353042D01*
X84682834Y-104338724D01*
X84686351Y-104324683D01*
X84691228Y-104311054D01*
X84697417Y-104297969D01*
X84704858Y-104285553D01*
X84713481Y-104273927D01*
X84723202Y-104263202D01*
X84733927Y-104253481D01*
X84745553Y-104244858D01*
X84757969Y-104237417D01*
X84771054Y-104231228D01*
X84784683Y-104226351D01*
X84798724Y-104222834D01*
X84813042Y-104220710D01*
X84827500Y-104220000D01*
X85172500Y-104220000D01*
X85186958Y-104220710D01*
G37*
G36*
X92186958Y-105190710D02*
G01*
X92201276Y-105192834D01*
X92215317Y-105196351D01*
X92228946Y-105201228D01*
X92242031Y-105207417D01*
X92254447Y-105214858D01*
X92266073Y-105223481D01*
X92276798Y-105233202D01*
X92286519Y-105243927D01*
X92295142Y-105255553D01*
X92302583Y-105267969D01*
X92308772Y-105281054D01*
X92313649Y-105294683D01*
X92317166Y-105308724D01*
X92319290Y-105323042D01*
X92320000Y-105337500D01*
X92320000Y-105632500D01*
X92319290Y-105646958D01*
X92317166Y-105661276D01*
X92313649Y-105675317D01*
X92308772Y-105688946D01*
X92302583Y-105702031D01*
X92295142Y-105714447D01*
X92286519Y-105726073D01*
X92276798Y-105736798D01*
X92266073Y-105746519D01*
X92254447Y-105755142D01*
X92242031Y-105762583D01*
X92228946Y-105768772D01*
X92215317Y-105773649D01*
X92201276Y-105777166D01*
X92186958Y-105779290D01*
X92172500Y-105780000D01*
X91827500Y-105780000D01*
X91813042Y-105779290D01*
X91798724Y-105777166D01*
X91784683Y-105773649D01*
X91771054Y-105768772D01*
X91757969Y-105762583D01*
X91745553Y-105755142D01*
X91733927Y-105746519D01*
X91723202Y-105736798D01*
X91713481Y-105726073D01*
X91704858Y-105714447D01*
X91697417Y-105702031D01*
X91691228Y-105688946D01*
X91686351Y-105675317D01*
X91682834Y-105661276D01*
X91680710Y-105646958D01*
X91680000Y-105632500D01*
X91680000Y-105337500D01*
X91680710Y-105323042D01*
X91682834Y-105308724D01*
X91686351Y-105294683D01*
X91691228Y-105281054D01*
X91697417Y-105267969D01*
X91704858Y-105255553D01*
X91713481Y-105243927D01*
X91723202Y-105233202D01*
X91733927Y-105223481D01*
X91745553Y-105214858D01*
X91757969Y-105207417D01*
X91771054Y-105201228D01*
X91784683Y-105196351D01*
X91798724Y-105192834D01*
X91813042Y-105190710D01*
X91827500Y-105190000D01*
X92172500Y-105190000D01*
X92186958Y-105190710D01*
G37*
G36*
X92186958Y-104220710D02*
G01*
X92201276Y-104222834D01*
X92215317Y-104226351D01*
X92228946Y-104231228D01*
X92242031Y-104237417D01*
X92254447Y-104244858D01*
X92266073Y-104253481D01*
X92276798Y-104263202D01*
X92286519Y-104273927D01*
X92295142Y-104285553D01*
X92302583Y-104297969D01*
X92308772Y-104311054D01*
X92313649Y-104324683D01*
X92317166Y-104338724D01*
X92319290Y-104353042D01*
X92320000Y-104367500D01*
X92320000Y-104662500D01*
X92319290Y-104676958D01*
X92317166Y-104691276D01*
X92313649Y-104705317D01*
X92308772Y-104718946D01*
X92302583Y-104732031D01*
X92295142Y-104744447D01*
X92286519Y-104756073D01*
X92276798Y-104766798D01*
X92266073Y-104776519D01*
X92254447Y-104785142D01*
X92242031Y-104792583D01*
X92228946Y-104798772D01*
X92215317Y-104803649D01*
X92201276Y-104807166D01*
X92186958Y-104809290D01*
X92172500Y-104810000D01*
X91827500Y-104810000D01*
X91813042Y-104809290D01*
X91798724Y-104807166D01*
X91784683Y-104803649D01*
X91771054Y-104798772D01*
X91757969Y-104792583D01*
X91745553Y-104785142D01*
X91733927Y-104776519D01*
X91723202Y-104766798D01*
X91713481Y-104756073D01*
X91704858Y-104744447D01*
X91697417Y-104732031D01*
X91691228Y-104718946D01*
X91686351Y-104705317D01*
X91682834Y-104691276D01*
X91680710Y-104676958D01*
X91680000Y-104662500D01*
X91680000Y-104367500D01*
X91680710Y-104353042D01*
X91682834Y-104338724D01*
X91686351Y-104324683D01*
X91691228Y-104311054D01*
X91697417Y-104297969D01*
X91704858Y-104285553D01*
X91713481Y-104273927D01*
X91723202Y-104263202D01*
X91733927Y-104253481D01*
X91745553Y-104244858D01*
X91757969Y-104237417D01*
X91771054Y-104231228D01*
X91784683Y-104226351D01*
X91798724Y-104222834D01*
X91813042Y-104220710D01*
X91827500Y-104220000D01*
X92172500Y-104220000D01*
X92186958Y-104220710D01*
G37*
G36*
X87186958Y-101190710D02*
G01*
X87201276Y-101192834D01*
X87215317Y-101196351D01*
X87228946Y-101201228D01*
X87242031Y-101207417D01*
X87254447Y-101214858D01*
X87266073Y-101223481D01*
X87276798Y-101233202D01*
X87286519Y-101243927D01*
X87295142Y-101255553D01*
X87302583Y-101267969D01*
X87308772Y-101281054D01*
X87313649Y-101294683D01*
X87317166Y-101308724D01*
X87319290Y-101323042D01*
X87320000Y-101337500D01*
X87320000Y-101632500D01*
X87319290Y-101646958D01*
X87317166Y-101661276D01*
X87313649Y-101675317D01*
X87308772Y-101688946D01*
X87302583Y-101702031D01*
X87295142Y-101714447D01*
X87286519Y-101726073D01*
X87276798Y-101736798D01*
X87266073Y-101746519D01*
X87254447Y-101755142D01*
X87242031Y-101762583D01*
X87228946Y-101768772D01*
X87215317Y-101773649D01*
X87201276Y-101777166D01*
X87186958Y-101779290D01*
X87172500Y-101780000D01*
X86827500Y-101780000D01*
X86813042Y-101779290D01*
X86798724Y-101777166D01*
X86784683Y-101773649D01*
X86771054Y-101768772D01*
X86757969Y-101762583D01*
X86745553Y-101755142D01*
X86733927Y-101746519D01*
X86723202Y-101736798D01*
X86713481Y-101726073D01*
X86704858Y-101714447D01*
X86697417Y-101702031D01*
X86691228Y-101688946D01*
X86686351Y-101675317D01*
X86682834Y-101661276D01*
X86680710Y-101646958D01*
X86680000Y-101632500D01*
X86680000Y-101337500D01*
X86680710Y-101323042D01*
X86682834Y-101308724D01*
X86686351Y-101294683D01*
X86691228Y-101281054D01*
X86697417Y-101267969D01*
X86704858Y-101255553D01*
X86713481Y-101243927D01*
X86723202Y-101233202D01*
X86733927Y-101223481D01*
X86745553Y-101214858D01*
X86757969Y-101207417D01*
X86771054Y-101201228D01*
X86784683Y-101196351D01*
X86798724Y-101192834D01*
X86813042Y-101190710D01*
X86827500Y-101190000D01*
X87172500Y-101190000D01*
X87186958Y-101190710D01*
G37*
G36*
X87186958Y-100220710D02*
G01*
X87201276Y-100222834D01*
X87215317Y-100226351D01*
X87228946Y-100231228D01*
X87242031Y-100237417D01*
X87254447Y-100244858D01*
X87266073Y-100253481D01*
X87276798Y-100263202D01*
X87286519Y-100273927D01*
X87295142Y-100285553D01*
X87302583Y-100297969D01*
X87308772Y-100311054D01*
X87313649Y-100324683D01*
X87317166Y-100338724D01*
X87319290Y-100353042D01*
X87320000Y-100367500D01*
X87320000Y-100662500D01*
X87319290Y-100676958D01*
X87317166Y-100691276D01*
X87313649Y-100705317D01*
X87308772Y-100718946D01*
X87302583Y-100732031D01*
X87295142Y-100744447D01*
X87286519Y-100756073D01*
X87276798Y-100766798D01*
X87266073Y-100776519D01*
X87254447Y-100785142D01*
X87242031Y-100792583D01*
X87228946Y-100798772D01*
X87215317Y-100803649D01*
X87201276Y-100807166D01*
X87186958Y-100809290D01*
X87172500Y-100810000D01*
X86827500Y-100810000D01*
X86813042Y-100809290D01*
X86798724Y-100807166D01*
X86784683Y-100803649D01*
X86771054Y-100798772D01*
X86757969Y-100792583D01*
X86745553Y-100785142D01*
X86733927Y-100776519D01*
X86723202Y-100766798D01*
X86713481Y-100756073D01*
X86704858Y-100744447D01*
X86697417Y-100732031D01*
X86691228Y-100718946D01*
X86686351Y-100705317D01*
X86682834Y-100691276D01*
X86680710Y-100676958D01*
X86680000Y-100662500D01*
X86680000Y-100367500D01*
X86680710Y-100353042D01*
X86682834Y-100338724D01*
X86686351Y-100324683D01*
X86691228Y-100311054D01*
X86697417Y-100297969D01*
X86704858Y-100285553D01*
X86713481Y-100273927D01*
X86723202Y-100263202D01*
X86733927Y-100253481D01*
X86745553Y-100244858D01*
X86757969Y-100237417D01*
X86771054Y-100231228D01*
X86784683Y-100226351D01*
X86798724Y-100222834D01*
X86813042Y-100220710D01*
X86827500Y-100220000D01*
X87172500Y-100220000D01*
X87186958Y-100220710D01*
G37*
G36*
X94186958Y-100705710D02*
G01*
X94201276Y-100707834D01*
X94215317Y-100711351D01*
X94228946Y-100716228D01*
X94242031Y-100722417D01*
X94254447Y-100729858D01*
X94266073Y-100738481D01*
X94276798Y-100748202D01*
X94286519Y-100758927D01*
X94295142Y-100770553D01*
X94302583Y-100782969D01*
X94308772Y-100796054D01*
X94313649Y-100809683D01*
X94317166Y-100823724D01*
X94319290Y-100838042D01*
X94320000Y-100852500D01*
X94320000Y-101147500D01*
X94319290Y-101161958D01*
X94317166Y-101176276D01*
X94313649Y-101190317D01*
X94308772Y-101203946D01*
X94302583Y-101217031D01*
X94295142Y-101229447D01*
X94286519Y-101241073D01*
X94276798Y-101251798D01*
X94266073Y-101261519D01*
X94254447Y-101270142D01*
X94242031Y-101277583D01*
X94228946Y-101283772D01*
X94215317Y-101288649D01*
X94201276Y-101292166D01*
X94186958Y-101294290D01*
X94172500Y-101295000D01*
X93827500Y-101295000D01*
X93813042Y-101294290D01*
X93798724Y-101292166D01*
X93784683Y-101288649D01*
X93771054Y-101283772D01*
X93757969Y-101277583D01*
X93745553Y-101270142D01*
X93733927Y-101261519D01*
X93723202Y-101251798D01*
X93713481Y-101241073D01*
X93704858Y-101229447D01*
X93697417Y-101217031D01*
X93691228Y-101203946D01*
X93686351Y-101190317D01*
X93682834Y-101176276D01*
X93680710Y-101161958D01*
X93680000Y-101147500D01*
X93680000Y-100852500D01*
X93680710Y-100838042D01*
X93682834Y-100823724D01*
X93686351Y-100809683D01*
X93691228Y-100796054D01*
X93697417Y-100782969D01*
X93704858Y-100770553D01*
X93713481Y-100758927D01*
X93723202Y-100748202D01*
X93733927Y-100738481D01*
X93745553Y-100729858D01*
X93757969Y-100722417D01*
X93771054Y-100716228D01*
X93784683Y-100711351D01*
X93798724Y-100707834D01*
X93813042Y-100705710D01*
X93827500Y-100705000D01*
X94172500Y-100705000D01*
X94186958Y-100705710D01*
G37*
G36*
X94186958Y-99735710D02*
G01*
X94201276Y-99737834D01*
X94215317Y-99741351D01*
X94228946Y-99746228D01*
X94242031Y-99752417D01*
X94254447Y-99759858D01*
X94266073Y-99768481D01*
X94276798Y-99778202D01*
X94286519Y-99788927D01*
X94295142Y-99800553D01*
X94302583Y-99812969D01*
X94308772Y-99826054D01*
X94313649Y-99839683D01*
X94317166Y-99853724D01*
X94319290Y-99868042D01*
X94320000Y-99882500D01*
X94320000Y-100177500D01*
X94319290Y-100191958D01*
X94317166Y-100206276D01*
X94313649Y-100220317D01*
X94308772Y-100233946D01*
X94302583Y-100247031D01*
X94295142Y-100259447D01*
X94286519Y-100271073D01*
X94276798Y-100281798D01*
X94266073Y-100291519D01*
X94254447Y-100300142D01*
X94242031Y-100307583D01*
X94228946Y-100313772D01*
X94215317Y-100318649D01*
X94201276Y-100322166D01*
X94186958Y-100324290D01*
X94172500Y-100325000D01*
X93827500Y-100325000D01*
X93813042Y-100324290D01*
X93798724Y-100322166D01*
X93784683Y-100318649D01*
X93771054Y-100313772D01*
X93757969Y-100307583D01*
X93745553Y-100300142D01*
X93733927Y-100291519D01*
X93723202Y-100281798D01*
X93713481Y-100271073D01*
X93704858Y-100259447D01*
X93697417Y-100247031D01*
X93691228Y-100233946D01*
X93686351Y-100220317D01*
X93682834Y-100206276D01*
X93680710Y-100191958D01*
X93680000Y-100177500D01*
X93680000Y-99882500D01*
X93680710Y-99868042D01*
X93682834Y-99853724D01*
X93686351Y-99839683D01*
X93691228Y-99826054D01*
X93697417Y-99812969D01*
X93704858Y-99800553D01*
X93713481Y-99788927D01*
X93723202Y-99778202D01*
X93733927Y-99768481D01*
X93745553Y-99759858D01*
X93757969Y-99752417D01*
X93771054Y-99746228D01*
X93784683Y-99741351D01*
X93798724Y-99737834D01*
X93813042Y-99735710D01*
X93827500Y-99735000D01*
X94172500Y-99735000D01*
X94186958Y-99735710D01*
G37*
D13*
X89000000Y-105000000D03*
X87000000Y-105950000D03*
X87000000Y-104050000D03*
X96000000Y-105000000D03*
X94000000Y-105950000D03*
X94000000Y-104050000D03*
D14*
X96400000Y-109000000D03*
X93600000Y-109000000D03*
X89400000Y-109000000D03*
X86600000Y-109000000D03*
D15*
X53000000Y-102000000D03*
X53000000Y-106000000D03*
D10*
G36*
X121277691Y-39351053D02*
G01*
X121298926Y-39354203D01*
X121319750Y-39359419D01*
X121339962Y-39366651D01*
X121359368Y-39375830D01*
X121377781Y-39386866D01*
X121395024Y-39399654D01*
X121410930Y-39414070D01*
X121425346Y-39429976D01*
X121438134Y-39447219D01*
X121449170Y-39465632D01*
X121458349Y-39485038D01*
X121465581Y-39505250D01*
X121470797Y-39526074D01*
X121473947Y-39547309D01*
X121475000Y-39568750D01*
X121475000Y-40006250D01*
X121473947Y-40027691D01*
X121470797Y-40048926D01*
X121465581Y-40069750D01*
X121458349Y-40089962D01*
X121449170Y-40109368D01*
X121438134Y-40127781D01*
X121425346Y-40145024D01*
X121410930Y-40160930D01*
X121395024Y-40175346D01*
X121377781Y-40188134D01*
X121359368Y-40199170D01*
X121339962Y-40208349D01*
X121319750Y-40215581D01*
X121298926Y-40220797D01*
X121277691Y-40223947D01*
X121256250Y-40225000D01*
X120743750Y-40225000D01*
X120722309Y-40223947D01*
X120701074Y-40220797D01*
X120680250Y-40215581D01*
X120660038Y-40208349D01*
X120640632Y-40199170D01*
X120622219Y-40188134D01*
X120604976Y-40175346D01*
X120589070Y-40160930D01*
X120574654Y-40145024D01*
X120561866Y-40127781D01*
X120550830Y-40109368D01*
X120541651Y-40089962D01*
X120534419Y-40069750D01*
X120529203Y-40048926D01*
X120526053Y-40027691D01*
X120525000Y-40006250D01*
X120525000Y-39568750D01*
X120526053Y-39547309D01*
X120529203Y-39526074D01*
X120534419Y-39505250D01*
X120541651Y-39485038D01*
X120550830Y-39465632D01*
X120561866Y-39447219D01*
X120574654Y-39429976D01*
X120589070Y-39414070D01*
X120604976Y-39399654D01*
X120622219Y-39386866D01*
X120640632Y-39375830D01*
X120660038Y-39366651D01*
X120680250Y-39359419D01*
X120701074Y-39354203D01*
X120722309Y-39351053D01*
X120743750Y-39350000D01*
X121256250Y-39350000D01*
X121277691Y-39351053D01*
G37*
G36*
X121277691Y-37776053D02*
G01*
X121298926Y-37779203D01*
X121319750Y-37784419D01*
X121339962Y-37791651D01*
X121359368Y-37800830D01*
X121377781Y-37811866D01*
X121395024Y-37824654D01*
X121410930Y-37839070D01*
X121425346Y-37854976D01*
X121438134Y-37872219D01*
X121449170Y-37890632D01*
X121458349Y-37910038D01*
X121465581Y-37930250D01*
X121470797Y-37951074D01*
X121473947Y-37972309D01*
X121475000Y-37993750D01*
X121475000Y-38431250D01*
X121473947Y-38452691D01*
X121470797Y-38473926D01*
X121465581Y-38494750D01*
X121458349Y-38514962D01*
X121449170Y-38534368D01*
X121438134Y-38552781D01*
X121425346Y-38570024D01*
X121410930Y-38585930D01*
X121395024Y-38600346D01*
X121377781Y-38613134D01*
X121359368Y-38624170D01*
X121339962Y-38633349D01*
X121319750Y-38640581D01*
X121298926Y-38645797D01*
X121277691Y-38648947D01*
X121256250Y-38650000D01*
X120743750Y-38650000D01*
X120722309Y-38648947D01*
X120701074Y-38645797D01*
X120680250Y-38640581D01*
X120660038Y-38633349D01*
X120640632Y-38624170D01*
X120622219Y-38613134D01*
X120604976Y-38600346D01*
X120589070Y-38585930D01*
X120574654Y-38570024D01*
X120561866Y-38552781D01*
X120550830Y-38534368D01*
X120541651Y-38514962D01*
X120534419Y-38494750D01*
X120529203Y-38473926D01*
X120526053Y-38452691D01*
X120525000Y-38431250D01*
X120525000Y-37993750D01*
X120526053Y-37972309D01*
X120529203Y-37951074D01*
X120534419Y-37930250D01*
X120541651Y-37910038D01*
X120550830Y-37890632D01*
X120561866Y-37872219D01*
X120574654Y-37854976D01*
X120589070Y-37839070D01*
X120604976Y-37824654D01*
X120622219Y-37811866D01*
X120640632Y-37800830D01*
X120660038Y-37791651D01*
X120680250Y-37784419D01*
X120701074Y-37779203D01*
X120722309Y-37776053D01*
X120743750Y-37775000D01*
X121256250Y-37775000D01*
X121277691Y-37776053D01*
G37*
G36*
X43477691Y-69188553D02*
G01*
X43498926Y-69191703D01*
X43519750Y-69196919D01*
X43539962Y-69204151D01*
X43559368Y-69213330D01*
X43577781Y-69224366D01*
X43595024Y-69237154D01*
X43610930Y-69251570D01*
X43625346Y-69267476D01*
X43638134Y-69284719D01*
X43649170Y-69303132D01*
X43658349Y-69322538D01*
X43665581Y-69342750D01*
X43670797Y-69363574D01*
X43673947Y-69384809D01*
X43675000Y-69406250D01*
X43675000Y-69843750D01*
X43673947Y-69865191D01*
X43670797Y-69886426D01*
X43665581Y-69907250D01*
X43658349Y-69927462D01*
X43649170Y-69946868D01*
X43638134Y-69965281D01*
X43625346Y-69982524D01*
X43610930Y-69998430D01*
X43595024Y-70012846D01*
X43577781Y-70025634D01*
X43559368Y-70036670D01*
X43539962Y-70045849D01*
X43519750Y-70053081D01*
X43498926Y-70058297D01*
X43477691Y-70061447D01*
X43456250Y-70062500D01*
X42943750Y-70062500D01*
X42922309Y-70061447D01*
X42901074Y-70058297D01*
X42880250Y-70053081D01*
X42860038Y-70045849D01*
X42840632Y-70036670D01*
X42822219Y-70025634D01*
X42804976Y-70012846D01*
X42789070Y-69998430D01*
X42774654Y-69982524D01*
X42761866Y-69965281D01*
X42750830Y-69946868D01*
X42741651Y-69927462D01*
X42734419Y-69907250D01*
X42729203Y-69886426D01*
X42726053Y-69865191D01*
X42725000Y-69843750D01*
X42725000Y-69406250D01*
X42726053Y-69384809D01*
X42729203Y-69363574D01*
X42734419Y-69342750D01*
X42741651Y-69322538D01*
X42750830Y-69303132D01*
X42761866Y-69284719D01*
X42774654Y-69267476D01*
X42789070Y-69251570D01*
X42804976Y-69237154D01*
X42822219Y-69224366D01*
X42840632Y-69213330D01*
X42860038Y-69204151D01*
X42880250Y-69196919D01*
X42901074Y-69191703D01*
X42922309Y-69188553D01*
X42943750Y-69187500D01*
X43456250Y-69187500D01*
X43477691Y-69188553D01*
G37*
G36*
X43477691Y-70763553D02*
G01*
X43498926Y-70766703D01*
X43519750Y-70771919D01*
X43539962Y-70779151D01*
X43559368Y-70788330D01*
X43577781Y-70799366D01*
X43595024Y-70812154D01*
X43610930Y-70826570D01*
X43625346Y-70842476D01*
X43638134Y-70859719D01*
X43649170Y-70878132D01*
X43658349Y-70897538D01*
X43665581Y-70917750D01*
X43670797Y-70938574D01*
X43673947Y-70959809D01*
X43675000Y-70981250D01*
X43675000Y-71418750D01*
X43673947Y-71440191D01*
X43670797Y-71461426D01*
X43665581Y-71482250D01*
X43658349Y-71502462D01*
X43649170Y-71521868D01*
X43638134Y-71540281D01*
X43625346Y-71557524D01*
X43610930Y-71573430D01*
X43595024Y-71587846D01*
X43577781Y-71600634D01*
X43559368Y-71611670D01*
X43539962Y-71620849D01*
X43519750Y-71628081D01*
X43498926Y-71633297D01*
X43477691Y-71636447D01*
X43456250Y-71637500D01*
X42943750Y-71637500D01*
X42922309Y-71636447D01*
X42901074Y-71633297D01*
X42880250Y-71628081D01*
X42860038Y-71620849D01*
X42840632Y-71611670D01*
X42822219Y-71600634D01*
X42804976Y-71587846D01*
X42789070Y-71573430D01*
X42774654Y-71557524D01*
X42761866Y-71540281D01*
X42750830Y-71521868D01*
X42741651Y-71502462D01*
X42734419Y-71482250D01*
X42729203Y-71461426D01*
X42726053Y-71440191D01*
X42725000Y-71418750D01*
X42725000Y-70981250D01*
X42726053Y-70959809D01*
X42729203Y-70938574D01*
X42734419Y-70917750D01*
X42741651Y-70897538D01*
X42750830Y-70878132D01*
X42761866Y-70859719D01*
X42774654Y-70842476D01*
X42789070Y-70826570D01*
X42804976Y-70812154D01*
X42822219Y-70799366D01*
X42840632Y-70788330D01*
X42860038Y-70779151D01*
X42880250Y-70771919D01*
X42901074Y-70766703D01*
X42922309Y-70763553D01*
X42943750Y-70762500D01*
X43456250Y-70762500D01*
X43477691Y-70763553D01*
G37*
G36*
X64186958Y-76675710D02*
G01*
X64201276Y-76677834D01*
X64215317Y-76681351D01*
X64228946Y-76686228D01*
X64242031Y-76692417D01*
X64254447Y-76699858D01*
X64266073Y-76708481D01*
X64276798Y-76718202D01*
X64286519Y-76728927D01*
X64295142Y-76740553D01*
X64302583Y-76752969D01*
X64308772Y-76766054D01*
X64313649Y-76779683D01*
X64317166Y-76793724D01*
X64319290Y-76808042D01*
X64320000Y-76822500D01*
X64320000Y-77117500D01*
X64319290Y-77131958D01*
X64317166Y-77146276D01*
X64313649Y-77160317D01*
X64308772Y-77173946D01*
X64302583Y-77187031D01*
X64295142Y-77199447D01*
X64286519Y-77211073D01*
X64276798Y-77221798D01*
X64266073Y-77231519D01*
X64254447Y-77240142D01*
X64242031Y-77247583D01*
X64228946Y-77253772D01*
X64215317Y-77258649D01*
X64201276Y-77262166D01*
X64186958Y-77264290D01*
X64172500Y-77265000D01*
X63827500Y-77265000D01*
X63813042Y-77264290D01*
X63798724Y-77262166D01*
X63784683Y-77258649D01*
X63771054Y-77253772D01*
X63757969Y-77247583D01*
X63745553Y-77240142D01*
X63733927Y-77231519D01*
X63723202Y-77221798D01*
X63713481Y-77211073D01*
X63704858Y-77199447D01*
X63697417Y-77187031D01*
X63691228Y-77173946D01*
X63686351Y-77160317D01*
X63682834Y-77146276D01*
X63680710Y-77131958D01*
X63680000Y-77117500D01*
X63680000Y-76822500D01*
X63680710Y-76808042D01*
X63682834Y-76793724D01*
X63686351Y-76779683D01*
X63691228Y-76766054D01*
X63697417Y-76752969D01*
X63704858Y-76740553D01*
X63713481Y-76728927D01*
X63723202Y-76718202D01*
X63733927Y-76708481D01*
X63745553Y-76699858D01*
X63757969Y-76692417D01*
X63771054Y-76686228D01*
X63784683Y-76681351D01*
X63798724Y-76677834D01*
X63813042Y-76675710D01*
X63827500Y-76675000D01*
X64172500Y-76675000D01*
X64186958Y-76675710D01*
G37*
G36*
X64186958Y-75705710D02*
G01*
X64201276Y-75707834D01*
X64215317Y-75711351D01*
X64228946Y-75716228D01*
X64242031Y-75722417D01*
X64254447Y-75729858D01*
X64266073Y-75738481D01*
X64276798Y-75748202D01*
X64286519Y-75758927D01*
X64295142Y-75770553D01*
X64302583Y-75782969D01*
X64308772Y-75796054D01*
X64313649Y-75809683D01*
X64317166Y-75823724D01*
X64319290Y-75838042D01*
X64320000Y-75852500D01*
X64320000Y-76147500D01*
X64319290Y-76161958D01*
X64317166Y-76176276D01*
X64313649Y-76190317D01*
X64308772Y-76203946D01*
X64302583Y-76217031D01*
X64295142Y-76229447D01*
X64286519Y-76241073D01*
X64276798Y-76251798D01*
X64266073Y-76261519D01*
X64254447Y-76270142D01*
X64242031Y-76277583D01*
X64228946Y-76283772D01*
X64215317Y-76288649D01*
X64201276Y-76292166D01*
X64186958Y-76294290D01*
X64172500Y-76295000D01*
X63827500Y-76295000D01*
X63813042Y-76294290D01*
X63798724Y-76292166D01*
X63784683Y-76288649D01*
X63771054Y-76283772D01*
X63757969Y-76277583D01*
X63745553Y-76270142D01*
X63733927Y-76261519D01*
X63723202Y-76251798D01*
X63713481Y-76241073D01*
X63704858Y-76229447D01*
X63697417Y-76217031D01*
X63691228Y-76203946D01*
X63686351Y-76190317D01*
X63682834Y-76176276D01*
X63680710Y-76161958D01*
X63680000Y-76147500D01*
X63680000Y-75852500D01*
X63680710Y-75838042D01*
X63682834Y-75823724D01*
X63686351Y-75809683D01*
X63691228Y-75796054D01*
X63697417Y-75782969D01*
X63704858Y-75770553D01*
X63713481Y-75758927D01*
X63723202Y-75748202D01*
X63733927Y-75738481D01*
X63745553Y-75729858D01*
X63757969Y-75722417D01*
X63771054Y-75716228D01*
X63784683Y-75711351D01*
X63798724Y-75707834D01*
X63813042Y-75705710D01*
X63827500Y-75705000D01*
X64172500Y-75705000D01*
X64186958Y-75705710D01*
G37*
G36*
X110586958Y-39890710D02*
G01*
X110601276Y-39892834D01*
X110615317Y-39896351D01*
X110628946Y-39901228D01*
X110642031Y-39907417D01*
X110654447Y-39914858D01*
X110666073Y-39923481D01*
X110676798Y-39933202D01*
X110686519Y-39943927D01*
X110695142Y-39955553D01*
X110702583Y-39967969D01*
X110708772Y-39981054D01*
X110713649Y-39994683D01*
X110717166Y-40008724D01*
X110719290Y-40023042D01*
X110720000Y-40037500D01*
X110720000Y-40332500D01*
X110719290Y-40346958D01*
X110717166Y-40361276D01*
X110713649Y-40375317D01*
X110708772Y-40388946D01*
X110702583Y-40402031D01*
X110695142Y-40414447D01*
X110686519Y-40426073D01*
X110676798Y-40436798D01*
X110666073Y-40446519D01*
X110654447Y-40455142D01*
X110642031Y-40462583D01*
X110628946Y-40468772D01*
X110615317Y-40473649D01*
X110601276Y-40477166D01*
X110586958Y-40479290D01*
X110572500Y-40480000D01*
X110227500Y-40480000D01*
X110213042Y-40479290D01*
X110198724Y-40477166D01*
X110184683Y-40473649D01*
X110171054Y-40468772D01*
X110157969Y-40462583D01*
X110145553Y-40455142D01*
X110133927Y-40446519D01*
X110123202Y-40436798D01*
X110113481Y-40426073D01*
X110104858Y-40414447D01*
X110097417Y-40402031D01*
X110091228Y-40388946D01*
X110086351Y-40375317D01*
X110082834Y-40361276D01*
X110080710Y-40346958D01*
X110080000Y-40332500D01*
X110080000Y-40037500D01*
X110080710Y-40023042D01*
X110082834Y-40008724D01*
X110086351Y-39994683D01*
X110091228Y-39981054D01*
X110097417Y-39967969D01*
X110104858Y-39955553D01*
X110113481Y-39943927D01*
X110123202Y-39933202D01*
X110133927Y-39923481D01*
X110145553Y-39914858D01*
X110157969Y-39907417D01*
X110171054Y-39901228D01*
X110184683Y-39896351D01*
X110198724Y-39892834D01*
X110213042Y-39890710D01*
X110227500Y-39890000D01*
X110572500Y-39890000D01*
X110586958Y-39890710D01*
G37*
G36*
X110586958Y-38920710D02*
G01*
X110601276Y-38922834D01*
X110615317Y-38926351D01*
X110628946Y-38931228D01*
X110642031Y-38937417D01*
X110654447Y-38944858D01*
X110666073Y-38953481D01*
X110676798Y-38963202D01*
X110686519Y-38973927D01*
X110695142Y-38985553D01*
X110702583Y-38997969D01*
X110708772Y-39011054D01*
X110713649Y-39024683D01*
X110717166Y-39038724D01*
X110719290Y-39053042D01*
X110720000Y-39067500D01*
X110720000Y-39362500D01*
X110719290Y-39376958D01*
X110717166Y-39391276D01*
X110713649Y-39405317D01*
X110708772Y-39418946D01*
X110702583Y-39432031D01*
X110695142Y-39444447D01*
X110686519Y-39456073D01*
X110676798Y-39466798D01*
X110666073Y-39476519D01*
X110654447Y-39485142D01*
X110642031Y-39492583D01*
X110628946Y-39498772D01*
X110615317Y-39503649D01*
X110601276Y-39507166D01*
X110586958Y-39509290D01*
X110572500Y-39510000D01*
X110227500Y-39510000D01*
X110213042Y-39509290D01*
X110198724Y-39507166D01*
X110184683Y-39503649D01*
X110171054Y-39498772D01*
X110157969Y-39492583D01*
X110145553Y-39485142D01*
X110133927Y-39476519D01*
X110123202Y-39466798D01*
X110113481Y-39456073D01*
X110104858Y-39444447D01*
X110097417Y-39432031D01*
X110091228Y-39418946D01*
X110086351Y-39405317D01*
X110082834Y-39391276D01*
X110080710Y-39376958D01*
X110080000Y-39362500D01*
X110080000Y-39067500D01*
X110080710Y-39053042D01*
X110082834Y-39038724D01*
X110086351Y-39024683D01*
X110091228Y-39011054D01*
X110097417Y-38997969D01*
X110104858Y-38985553D01*
X110113481Y-38973927D01*
X110123202Y-38963202D01*
X110133927Y-38953481D01*
X110145553Y-38944858D01*
X110157969Y-38937417D01*
X110171054Y-38931228D01*
X110184683Y-38926351D01*
X110198724Y-38922834D01*
X110213042Y-38920710D01*
X110227500Y-38920000D01*
X110572500Y-38920000D01*
X110586958Y-38920710D01*
G37*
G36*
X109086958Y-39890710D02*
G01*
X109101276Y-39892834D01*
X109115317Y-39896351D01*
X109128946Y-39901228D01*
X109142031Y-39907417D01*
X109154447Y-39914858D01*
X109166073Y-39923481D01*
X109176798Y-39933202D01*
X109186519Y-39943927D01*
X109195142Y-39955553D01*
X109202583Y-39967969D01*
X109208772Y-39981054D01*
X109213649Y-39994683D01*
X109217166Y-40008724D01*
X109219290Y-40023042D01*
X109220000Y-40037500D01*
X109220000Y-40332500D01*
X109219290Y-40346958D01*
X109217166Y-40361276D01*
X109213649Y-40375317D01*
X109208772Y-40388946D01*
X109202583Y-40402031D01*
X109195142Y-40414447D01*
X109186519Y-40426073D01*
X109176798Y-40436798D01*
X109166073Y-40446519D01*
X109154447Y-40455142D01*
X109142031Y-40462583D01*
X109128946Y-40468772D01*
X109115317Y-40473649D01*
X109101276Y-40477166D01*
X109086958Y-40479290D01*
X109072500Y-40480000D01*
X108727500Y-40480000D01*
X108713042Y-40479290D01*
X108698724Y-40477166D01*
X108684683Y-40473649D01*
X108671054Y-40468772D01*
X108657969Y-40462583D01*
X108645553Y-40455142D01*
X108633927Y-40446519D01*
X108623202Y-40436798D01*
X108613481Y-40426073D01*
X108604858Y-40414447D01*
X108597417Y-40402031D01*
X108591228Y-40388946D01*
X108586351Y-40375317D01*
X108582834Y-40361276D01*
X108580710Y-40346958D01*
X108580000Y-40332500D01*
X108580000Y-40037500D01*
X108580710Y-40023042D01*
X108582834Y-40008724D01*
X108586351Y-39994683D01*
X108591228Y-39981054D01*
X108597417Y-39967969D01*
X108604858Y-39955553D01*
X108613481Y-39943927D01*
X108623202Y-39933202D01*
X108633927Y-39923481D01*
X108645553Y-39914858D01*
X108657969Y-39907417D01*
X108671054Y-39901228D01*
X108684683Y-39896351D01*
X108698724Y-39892834D01*
X108713042Y-39890710D01*
X108727500Y-39890000D01*
X109072500Y-39890000D01*
X109086958Y-39890710D01*
G37*
G36*
X109086958Y-38920710D02*
G01*
X109101276Y-38922834D01*
X109115317Y-38926351D01*
X109128946Y-38931228D01*
X109142031Y-38937417D01*
X109154447Y-38944858D01*
X109166073Y-38953481D01*
X109176798Y-38963202D01*
X109186519Y-38973927D01*
X109195142Y-38985553D01*
X109202583Y-38997969D01*
X109208772Y-39011054D01*
X109213649Y-39024683D01*
X109217166Y-39038724D01*
X109219290Y-39053042D01*
X109220000Y-39067500D01*
X109220000Y-39362500D01*
X109219290Y-39376958D01*
X109217166Y-39391276D01*
X109213649Y-39405317D01*
X109208772Y-39418946D01*
X109202583Y-39432031D01*
X109195142Y-39444447D01*
X109186519Y-39456073D01*
X109176798Y-39466798D01*
X109166073Y-39476519D01*
X109154447Y-39485142D01*
X109142031Y-39492583D01*
X109128946Y-39498772D01*
X109115317Y-39503649D01*
X109101276Y-39507166D01*
X109086958Y-39509290D01*
X109072500Y-39510000D01*
X108727500Y-39510000D01*
X108713042Y-39509290D01*
X108698724Y-39507166D01*
X108684683Y-39503649D01*
X108671054Y-39498772D01*
X108657969Y-39492583D01*
X108645553Y-39485142D01*
X108633927Y-39476519D01*
X108623202Y-39466798D01*
X108613481Y-39456073D01*
X108604858Y-39444447D01*
X108597417Y-39432031D01*
X108591228Y-39418946D01*
X108586351Y-39405317D01*
X108582834Y-39391276D01*
X108580710Y-39376958D01*
X108580000Y-39362500D01*
X108580000Y-39067500D01*
X108580710Y-39053042D01*
X108582834Y-39038724D01*
X108586351Y-39024683D01*
X108591228Y-39011054D01*
X108597417Y-38997969D01*
X108604858Y-38985553D01*
X108613481Y-38973927D01*
X108623202Y-38963202D01*
X108633927Y-38953481D01*
X108645553Y-38944858D01*
X108657969Y-38937417D01*
X108671054Y-38931228D01*
X108684683Y-38926351D01*
X108698724Y-38922834D01*
X108713042Y-38920710D01*
X108727500Y-38920000D01*
X109072500Y-38920000D01*
X109086958Y-38920710D01*
G37*
G36*
X111086958Y-29905710D02*
G01*
X111101276Y-29907834D01*
X111115317Y-29911351D01*
X111128946Y-29916228D01*
X111142031Y-29922417D01*
X111154447Y-29929858D01*
X111166073Y-29938481D01*
X111176798Y-29948202D01*
X111186519Y-29958927D01*
X111195142Y-29970553D01*
X111202583Y-29982969D01*
X111208772Y-29996054D01*
X111213649Y-30009683D01*
X111217166Y-30023724D01*
X111219290Y-30038042D01*
X111220000Y-30052500D01*
X111220000Y-30347500D01*
X111219290Y-30361958D01*
X111217166Y-30376276D01*
X111213649Y-30390317D01*
X111208772Y-30403946D01*
X111202583Y-30417031D01*
X111195142Y-30429447D01*
X111186519Y-30441073D01*
X111176798Y-30451798D01*
X111166073Y-30461519D01*
X111154447Y-30470142D01*
X111142031Y-30477583D01*
X111128946Y-30483772D01*
X111115317Y-30488649D01*
X111101276Y-30492166D01*
X111086958Y-30494290D01*
X111072500Y-30495000D01*
X110727500Y-30495000D01*
X110713042Y-30494290D01*
X110698724Y-30492166D01*
X110684683Y-30488649D01*
X110671054Y-30483772D01*
X110657969Y-30477583D01*
X110645553Y-30470142D01*
X110633927Y-30461519D01*
X110623202Y-30451798D01*
X110613481Y-30441073D01*
X110604858Y-30429447D01*
X110597417Y-30417031D01*
X110591228Y-30403946D01*
X110586351Y-30390317D01*
X110582834Y-30376276D01*
X110580710Y-30361958D01*
X110580000Y-30347500D01*
X110580000Y-30052500D01*
X110580710Y-30038042D01*
X110582834Y-30023724D01*
X110586351Y-30009683D01*
X110591228Y-29996054D01*
X110597417Y-29982969D01*
X110604858Y-29970553D01*
X110613481Y-29958927D01*
X110623202Y-29948202D01*
X110633927Y-29938481D01*
X110645553Y-29929858D01*
X110657969Y-29922417D01*
X110671054Y-29916228D01*
X110684683Y-29911351D01*
X110698724Y-29907834D01*
X110713042Y-29905710D01*
X110727500Y-29905000D01*
X111072500Y-29905000D01*
X111086958Y-29905710D01*
G37*
G36*
X111086958Y-28935710D02*
G01*
X111101276Y-28937834D01*
X111115317Y-28941351D01*
X111128946Y-28946228D01*
X111142031Y-28952417D01*
X111154447Y-28959858D01*
X111166073Y-28968481D01*
X111176798Y-28978202D01*
X111186519Y-28988927D01*
X111195142Y-29000553D01*
X111202583Y-29012969D01*
X111208772Y-29026054D01*
X111213649Y-29039683D01*
X111217166Y-29053724D01*
X111219290Y-29068042D01*
X111220000Y-29082500D01*
X111220000Y-29377500D01*
X111219290Y-29391958D01*
X111217166Y-29406276D01*
X111213649Y-29420317D01*
X111208772Y-29433946D01*
X111202583Y-29447031D01*
X111195142Y-29459447D01*
X111186519Y-29471073D01*
X111176798Y-29481798D01*
X111166073Y-29491519D01*
X111154447Y-29500142D01*
X111142031Y-29507583D01*
X111128946Y-29513772D01*
X111115317Y-29518649D01*
X111101276Y-29522166D01*
X111086958Y-29524290D01*
X111072500Y-29525000D01*
X110727500Y-29525000D01*
X110713042Y-29524290D01*
X110698724Y-29522166D01*
X110684683Y-29518649D01*
X110671054Y-29513772D01*
X110657969Y-29507583D01*
X110645553Y-29500142D01*
X110633927Y-29491519D01*
X110623202Y-29481798D01*
X110613481Y-29471073D01*
X110604858Y-29459447D01*
X110597417Y-29447031D01*
X110591228Y-29433946D01*
X110586351Y-29420317D01*
X110582834Y-29406276D01*
X110580710Y-29391958D01*
X110580000Y-29377500D01*
X110580000Y-29082500D01*
X110580710Y-29068042D01*
X110582834Y-29053724D01*
X110586351Y-29039683D01*
X110591228Y-29026054D01*
X110597417Y-29012969D01*
X110604858Y-29000553D01*
X110613481Y-28988927D01*
X110623202Y-28978202D01*
X110633927Y-28968481D01*
X110645553Y-28959858D01*
X110657969Y-28952417D01*
X110671054Y-28946228D01*
X110684683Y-28941351D01*
X110698724Y-28937834D01*
X110713042Y-28935710D01*
X110727500Y-28935000D01*
X111072500Y-28935000D01*
X111086958Y-28935710D01*
G37*
G36*
X109086958Y-29905710D02*
G01*
X109101276Y-29907834D01*
X109115317Y-29911351D01*
X109128946Y-29916228D01*
X109142031Y-29922417D01*
X109154447Y-29929858D01*
X109166073Y-29938481D01*
X109176798Y-29948202D01*
X109186519Y-29958927D01*
X109195142Y-29970553D01*
X109202583Y-29982969D01*
X109208772Y-29996054D01*
X109213649Y-30009683D01*
X109217166Y-30023724D01*
X109219290Y-30038042D01*
X109220000Y-30052500D01*
X109220000Y-30347500D01*
X109219290Y-30361958D01*
X109217166Y-30376276D01*
X109213649Y-30390317D01*
X109208772Y-30403946D01*
X109202583Y-30417031D01*
X109195142Y-30429447D01*
X109186519Y-30441073D01*
X109176798Y-30451798D01*
X109166073Y-30461519D01*
X109154447Y-30470142D01*
X109142031Y-30477583D01*
X109128946Y-30483772D01*
X109115317Y-30488649D01*
X109101276Y-30492166D01*
X109086958Y-30494290D01*
X109072500Y-30495000D01*
X108727500Y-30495000D01*
X108713042Y-30494290D01*
X108698724Y-30492166D01*
X108684683Y-30488649D01*
X108671054Y-30483772D01*
X108657969Y-30477583D01*
X108645553Y-30470142D01*
X108633927Y-30461519D01*
X108623202Y-30451798D01*
X108613481Y-30441073D01*
X108604858Y-30429447D01*
X108597417Y-30417031D01*
X108591228Y-30403946D01*
X108586351Y-30390317D01*
X108582834Y-30376276D01*
X108580710Y-30361958D01*
X108580000Y-30347500D01*
X108580000Y-30052500D01*
X108580710Y-30038042D01*
X108582834Y-30023724D01*
X108586351Y-30009683D01*
X108591228Y-29996054D01*
X108597417Y-29982969D01*
X108604858Y-29970553D01*
X108613481Y-29958927D01*
X108623202Y-29948202D01*
X108633927Y-29938481D01*
X108645553Y-29929858D01*
X108657969Y-29922417D01*
X108671054Y-29916228D01*
X108684683Y-29911351D01*
X108698724Y-29907834D01*
X108713042Y-29905710D01*
X108727500Y-29905000D01*
X109072500Y-29905000D01*
X109086958Y-29905710D01*
G37*
G36*
X109086958Y-28935710D02*
G01*
X109101276Y-28937834D01*
X109115317Y-28941351D01*
X109128946Y-28946228D01*
X109142031Y-28952417D01*
X109154447Y-28959858D01*
X109166073Y-28968481D01*
X109176798Y-28978202D01*
X109186519Y-28988927D01*
X109195142Y-29000553D01*
X109202583Y-29012969D01*
X109208772Y-29026054D01*
X109213649Y-29039683D01*
X109217166Y-29053724D01*
X109219290Y-29068042D01*
X109220000Y-29082500D01*
X109220000Y-29377500D01*
X109219290Y-29391958D01*
X109217166Y-29406276D01*
X109213649Y-29420317D01*
X109208772Y-29433946D01*
X109202583Y-29447031D01*
X109195142Y-29459447D01*
X109186519Y-29471073D01*
X109176798Y-29481798D01*
X109166073Y-29491519D01*
X109154447Y-29500142D01*
X109142031Y-29507583D01*
X109128946Y-29513772D01*
X109115317Y-29518649D01*
X109101276Y-29522166D01*
X109086958Y-29524290D01*
X109072500Y-29525000D01*
X108727500Y-29525000D01*
X108713042Y-29524290D01*
X108698724Y-29522166D01*
X108684683Y-29518649D01*
X108671054Y-29513772D01*
X108657969Y-29507583D01*
X108645553Y-29500142D01*
X108633927Y-29491519D01*
X108623202Y-29481798D01*
X108613481Y-29471073D01*
X108604858Y-29459447D01*
X108597417Y-29447031D01*
X108591228Y-29433946D01*
X108586351Y-29420317D01*
X108582834Y-29406276D01*
X108580710Y-29391958D01*
X108580000Y-29377500D01*
X108580000Y-29082500D01*
X108580710Y-29068042D01*
X108582834Y-29053724D01*
X108586351Y-29039683D01*
X108591228Y-29026054D01*
X108597417Y-29012969D01*
X108604858Y-29000553D01*
X108613481Y-28988927D01*
X108623202Y-28978202D01*
X108633927Y-28968481D01*
X108645553Y-28959858D01*
X108657969Y-28952417D01*
X108671054Y-28946228D01*
X108684683Y-28941351D01*
X108698724Y-28937834D01*
X108713042Y-28935710D01*
X108727500Y-28935000D01*
X109072500Y-28935000D01*
X109086958Y-28935710D01*
G37*
G36*
X109086958Y-27905710D02*
G01*
X109101276Y-27907834D01*
X109115317Y-27911351D01*
X109128946Y-27916228D01*
X109142031Y-27922417D01*
X109154447Y-27929858D01*
X109166073Y-27938481D01*
X109176798Y-27948202D01*
X109186519Y-27958927D01*
X109195142Y-27970553D01*
X109202583Y-27982969D01*
X109208772Y-27996054D01*
X109213649Y-28009683D01*
X109217166Y-28023724D01*
X109219290Y-28038042D01*
X109220000Y-28052500D01*
X109220000Y-28347500D01*
X109219290Y-28361958D01*
X109217166Y-28376276D01*
X109213649Y-28390317D01*
X109208772Y-28403946D01*
X109202583Y-28417031D01*
X109195142Y-28429447D01*
X109186519Y-28441073D01*
X109176798Y-28451798D01*
X109166073Y-28461519D01*
X109154447Y-28470142D01*
X109142031Y-28477583D01*
X109128946Y-28483772D01*
X109115317Y-28488649D01*
X109101276Y-28492166D01*
X109086958Y-28494290D01*
X109072500Y-28495000D01*
X108727500Y-28495000D01*
X108713042Y-28494290D01*
X108698724Y-28492166D01*
X108684683Y-28488649D01*
X108671054Y-28483772D01*
X108657969Y-28477583D01*
X108645553Y-28470142D01*
X108633927Y-28461519D01*
X108623202Y-28451798D01*
X108613481Y-28441073D01*
X108604858Y-28429447D01*
X108597417Y-28417031D01*
X108591228Y-28403946D01*
X108586351Y-28390317D01*
X108582834Y-28376276D01*
X108580710Y-28361958D01*
X108580000Y-28347500D01*
X108580000Y-28052500D01*
X108580710Y-28038042D01*
X108582834Y-28023724D01*
X108586351Y-28009683D01*
X108591228Y-27996054D01*
X108597417Y-27982969D01*
X108604858Y-27970553D01*
X108613481Y-27958927D01*
X108623202Y-27948202D01*
X108633927Y-27938481D01*
X108645553Y-27929858D01*
X108657969Y-27922417D01*
X108671054Y-27916228D01*
X108684683Y-27911351D01*
X108698724Y-27907834D01*
X108713042Y-27905710D01*
X108727500Y-27905000D01*
X109072500Y-27905000D01*
X109086958Y-27905710D01*
G37*
G36*
X109086958Y-26935710D02*
G01*
X109101276Y-26937834D01*
X109115317Y-26941351D01*
X109128946Y-26946228D01*
X109142031Y-26952417D01*
X109154447Y-26959858D01*
X109166073Y-26968481D01*
X109176798Y-26978202D01*
X109186519Y-26988927D01*
X109195142Y-27000553D01*
X109202583Y-27012969D01*
X109208772Y-27026054D01*
X109213649Y-27039683D01*
X109217166Y-27053724D01*
X109219290Y-27068042D01*
X109220000Y-27082500D01*
X109220000Y-27377500D01*
X109219290Y-27391958D01*
X109217166Y-27406276D01*
X109213649Y-27420317D01*
X109208772Y-27433946D01*
X109202583Y-27447031D01*
X109195142Y-27459447D01*
X109186519Y-27471073D01*
X109176798Y-27481798D01*
X109166073Y-27491519D01*
X109154447Y-27500142D01*
X109142031Y-27507583D01*
X109128946Y-27513772D01*
X109115317Y-27518649D01*
X109101276Y-27522166D01*
X109086958Y-27524290D01*
X109072500Y-27525000D01*
X108727500Y-27525000D01*
X108713042Y-27524290D01*
X108698724Y-27522166D01*
X108684683Y-27518649D01*
X108671054Y-27513772D01*
X108657969Y-27507583D01*
X108645553Y-27500142D01*
X108633927Y-27491519D01*
X108623202Y-27481798D01*
X108613481Y-27471073D01*
X108604858Y-27459447D01*
X108597417Y-27447031D01*
X108591228Y-27433946D01*
X108586351Y-27420317D01*
X108582834Y-27406276D01*
X108580710Y-27391958D01*
X108580000Y-27377500D01*
X108580000Y-27082500D01*
X108580710Y-27068042D01*
X108582834Y-27053724D01*
X108586351Y-27039683D01*
X108591228Y-27026054D01*
X108597417Y-27012969D01*
X108604858Y-27000553D01*
X108613481Y-26988927D01*
X108623202Y-26978202D01*
X108633927Y-26968481D01*
X108645553Y-26959858D01*
X108657969Y-26952417D01*
X108671054Y-26946228D01*
X108684683Y-26941351D01*
X108698724Y-26937834D01*
X108713042Y-26935710D01*
X108727500Y-26935000D01*
X109072500Y-26935000D01*
X109086958Y-26935710D01*
G37*
G36*
X111086958Y-27905710D02*
G01*
X111101276Y-27907834D01*
X111115317Y-27911351D01*
X111128946Y-27916228D01*
X111142031Y-27922417D01*
X111154447Y-27929858D01*
X111166073Y-27938481D01*
X111176798Y-27948202D01*
X111186519Y-27958927D01*
X111195142Y-27970553D01*
X111202583Y-27982969D01*
X111208772Y-27996054D01*
X111213649Y-28009683D01*
X111217166Y-28023724D01*
X111219290Y-28038042D01*
X111220000Y-28052500D01*
X111220000Y-28347500D01*
X111219290Y-28361958D01*
X111217166Y-28376276D01*
X111213649Y-28390317D01*
X111208772Y-28403946D01*
X111202583Y-28417031D01*
X111195142Y-28429447D01*
X111186519Y-28441073D01*
X111176798Y-28451798D01*
X111166073Y-28461519D01*
X111154447Y-28470142D01*
X111142031Y-28477583D01*
X111128946Y-28483772D01*
X111115317Y-28488649D01*
X111101276Y-28492166D01*
X111086958Y-28494290D01*
X111072500Y-28495000D01*
X110727500Y-28495000D01*
X110713042Y-28494290D01*
X110698724Y-28492166D01*
X110684683Y-28488649D01*
X110671054Y-28483772D01*
X110657969Y-28477583D01*
X110645553Y-28470142D01*
X110633927Y-28461519D01*
X110623202Y-28451798D01*
X110613481Y-28441073D01*
X110604858Y-28429447D01*
X110597417Y-28417031D01*
X110591228Y-28403946D01*
X110586351Y-28390317D01*
X110582834Y-28376276D01*
X110580710Y-28361958D01*
X110580000Y-28347500D01*
X110580000Y-28052500D01*
X110580710Y-28038042D01*
X110582834Y-28023724D01*
X110586351Y-28009683D01*
X110591228Y-27996054D01*
X110597417Y-27982969D01*
X110604858Y-27970553D01*
X110613481Y-27958927D01*
X110623202Y-27948202D01*
X110633927Y-27938481D01*
X110645553Y-27929858D01*
X110657969Y-27922417D01*
X110671054Y-27916228D01*
X110684683Y-27911351D01*
X110698724Y-27907834D01*
X110713042Y-27905710D01*
X110727500Y-27905000D01*
X111072500Y-27905000D01*
X111086958Y-27905710D01*
G37*
G36*
X111086958Y-26935710D02*
G01*
X111101276Y-26937834D01*
X111115317Y-26941351D01*
X111128946Y-26946228D01*
X111142031Y-26952417D01*
X111154447Y-26959858D01*
X111166073Y-26968481D01*
X111176798Y-26978202D01*
X111186519Y-26988927D01*
X111195142Y-27000553D01*
X111202583Y-27012969D01*
X111208772Y-27026054D01*
X111213649Y-27039683D01*
X111217166Y-27053724D01*
X111219290Y-27068042D01*
X111220000Y-27082500D01*
X111220000Y-27377500D01*
X111219290Y-27391958D01*
X111217166Y-27406276D01*
X111213649Y-27420317D01*
X111208772Y-27433946D01*
X111202583Y-27447031D01*
X111195142Y-27459447D01*
X111186519Y-27471073D01*
X111176798Y-27481798D01*
X111166073Y-27491519D01*
X111154447Y-27500142D01*
X111142031Y-27507583D01*
X111128946Y-27513772D01*
X111115317Y-27518649D01*
X111101276Y-27522166D01*
X111086958Y-27524290D01*
X111072500Y-27525000D01*
X110727500Y-27525000D01*
X110713042Y-27524290D01*
X110698724Y-27522166D01*
X110684683Y-27518649D01*
X110671054Y-27513772D01*
X110657969Y-27507583D01*
X110645553Y-27500142D01*
X110633927Y-27491519D01*
X110623202Y-27481798D01*
X110613481Y-27471073D01*
X110604858Y-27459447D01*
X110597417Y-27447031D01*
X110591228Y-27433946D01*
X110586351Y-27420317D01*
X110582834Y-27406276D01*
X110580710Y-27391958D01*
X110580000Y-27377500D01*
X110580000Y-27082500D01*
X110580710Y-27068042D01*
X110582834Y-27053724D01*
X110586351Y-27039683D01*
X110591228Y-27026054D01*
X110597417Y-27012969D01*
X110604858Y-27000553D01*
X110613481Y-26988927D01*
X110623202Y-26978202D01*
X110633927Y-26968481D01*
X110645553Y-26959858D01*
X110657969Y-26952417D01*
X110671054Y-26946228D01*
X110684683Y-26941351D01*
X110698724Y-26937834D01*
X110713042Y-26935710D01*
X110727500Y-26935000D01*
X111072500Y-26935000D01*
X111086958Y-26935710D01*
G37*
D16*
X109750000Y-34750000D03*
X110700000Y-36750000D03*
X108800000Y-36750000D03*
D14*
X116400000Y-32500000D03*
X113600000Y-32500000D03*
D17*
X115000000Y-25000000D03*
X119000000Y-25000000D03*
D14*
X43200000Y-72800000D03*
X43200000Y-75600000D03*
D10*
G36*
X116815191Y-28526053D02*
G01*
X116836426Y-28529203D01*
X116857250Y-28534419D01*
X116877462Y-28541651D01*
X116896868Y-28550830D01*
X116915281Y-28561866D01*
X116932524Y-28574654D01*
X116948430Y-28589070D01*
X116962846Y-28604976D01*
X116975634Y-28622219D01*
X116986670Y-28640632D01*
X116995849Y-28660038D01*
X117003081Y-28680250D01*
X117008297Y-28701074D01*
X117011447Y-28722309D01*
X117012500Y-28743750D01*
X117012500Y-29256250D01*
X117011447Y-29277691D01*
X117008297Y-29298926D01*
X117003081Y-29319750D01*
X116995849Y-29339962D01*
X116986670Y-29359368D01*
X116975634Y-29377781D01*
X116962846Y-29395024D01*
X116948430Y-29410930D01*
X116932524Y-29425346D01*
X116915281Y-29438134D01*
X116896868Y-29449170D01*
X116877462Y-29458349D01*
X116857250Y-29465581D01*
X116836426Y-29470797D01*
X116815191Y-29473947D01*
X116793750Y-29475000D01*
X116356250Y-29475000D01*
X116334809Y-29473947D01*
X116313574Y-29470797D01*
X116292750Y-29465581D01*
X116272538Y-29458349D01*
X116253132Y-29449170D01*
X116234719Y-29438134D01*
X116217476Y-29425346D01*
X116201570Y-29410930D01*
X116187154Y-29395024D01*
X116174366Y-29377781D01*
X116163330Y-29359368D01*
X116154151Y-29339962D01*
X116146919Y-29319750D01*
X116141703Y-29298926D01*
X116138553Y-29277691D01*
X116137500Y-29256250D01*
X116137500Y-28743750D01*
X116138553Y-28722309D01*
X116141703Y-28701074D01*
X116146919Y-28680250D01*
X116154151Y-28660038D01*
X116163330Y-28640632D01*
X116174366Y-28622219D01*
X116187154Y-28604976D01*
X116201570Y-28589070D01*
X116217476Y-28574654D01*
X116234719Y-28561866D01*
X116253132Y-28550830D01*
X116272538Y-28541651D01*
X116292750Y-28534419D01*
X116313574Y-28529203D01*
X116334809Y-28526053D01*
X116356250Y-28525000D01*
X116793750Y-28525000D01*
X116815191Y-28526053D01*
G37*
G36*
X115240191Y-28526053D02*
G01*
X115261426Y-28529203D01*
X115282250Y-28534419D01*
X115302462Y-28541651D01*
X115321868Y-28550830D01*
X115340281Y-28561866D01*
X115357524Y-28574654D01*
X115373430Y-28589070D01*
X115387846Y-28604976D01*
X115400634Y-28622219D01*
X115411670Y-28640632D01*
X115420849Y-28660038D01*
X115428081Y-28680250D01*
X115433297Y-28701074D01*
X115436447Y-28722309D01*
X115437500Y-28743750D01*
X115437500Y-29256250D01*
X115436447Y-29277691D01*
X115433297Y-29298926D01*
X115428081Y-29319750D01*
X115420849Y-29339962D01*
X115411670Y-29359368D01*
X115400634Y-29377781D01*
X115387846Y-29395024D01*
X115373430Y-29410930D01*
X115357524Y-29425346D01*
X115340281Y-29438134D01*
X115321868Y-29449170D01*
X115302462Y-29458349D01*
X115282250Y-29465581D01*
X115261426Y-29470797D01*
X115240191Y-29473947D01*
X115218750Y-29475000D01*
X114781250Y-29475000D01*
X114759809Y-29473947D01*
X114738574Y-29470797D01*
X114717750Y-29465581D01*
X114697538Y-29458349D01*
X114678132Y-29449170D01*
X114659719Y-29438134D01*
X114642476Y-29425346D01*
X114626570Y-29410930D01*
X114612154Y-29395024D01*
X114599366Y-29377781D01*
X114588330Y-29359368D01*
X114579151Y-29339962D01*
X114571919Y-29319750D01*
X114566703Y-29298926D01*
X114563553Y-29277691D01*
X114562500Y-29256250D01*
X114562500Y-28743750D01*
X114563553Y-28722309D01*
X114566703Y-28701074D01*
X114571919Y-28680250D01*
X114579151Y-28660038D01*
X114588330Y-28640632D01*
X114599366Y-28622219D01*
X114612154Y-28604976D01*
X114626570Y-28589070D01*
X114642476Y-28574654D01*
X114659719Y-28561866D01*
X114678132Y-28550830D01*
X114697538Y-28541651D01*
X114717750Y-28534419D01*
X114738574Y-28529203D01*
X114759809Y-28526053D01*
X114781250Y-28525000D01*
X115218750Y-28525000D01*
X115240191Y-28526053D01*
G37*
D18*
X69250000Y-77800000D03*
X69250000Y-77000000D03*
X69250000Y-76200000D03*
X69250000Y-75400000D03*
X69250000Y-74600000D03*
X69250000Y-73800000D03*
X69250000Y-73000000D03*
X69250000Y-72200000D03*
D19*
X70700000Y-70750000D03*
X71500000Y-70750000D03*
X72300000Y-70750000D03*
X73100000Y-70750000D03*
X73900000Y-70750000D03*
X74700000Y-70750000D03*
X75500000Y-70750000D03*
X76300000Y-70750000D03*
D18*
X77750000Y-72200000D03*
X77750000Y-73000000D03*
X77750000Y-73800000D03*
X77750000Y-74600000D03*
X77750000Y-75400000D03*
X77750000Y-76200000D03*
X77750000Y-77000000D03*
X77750000Y-77800000D03*
D19*
X76300000Y-79250000D03*
X75500000Y-79250000D03*
X74700000Y-79250000D03*
X73900000Y-79250000D03*
X73100000Y-79250000D03*
X72300000Y-79250000D03*
X71500000Y-79250000D03*
X70700000Y-79250000D03*
D20*
X33200000Y-70400000D03*
X33200000Y-75000000D03*
X33200000Y-72700000D03*
D21*
X39500000Y-72700000D03*
D22*
X66000000Y-75400000D03*
X66000000Y-77600000D03*
D10*
G36*
X73665191Y-67526053D02*
G01*
X73686426Y-67529203D01*
X73707250Y-67534419D01*
X73727462Y-67541651D01*
X73746868Y-67550830D01*
X73765281Y-67561866D01*
X73782524Y-67574654D01*
X73798430Y-67589070D01*
X73812846Y-67604976D01*
X73825634Y-67622219D01*
X73836670Y-67640632D01*
X73845849Y-67660038D01*
X73853081Y-67680250D01*
X73858297Y-67701074D01*
X73861447Y-67722309D01*
X73862500Y-67743750D01*
X73862500Y-68256250D01*
X73861447Y-68277691D01*
X73858297Y-68298926D01*
X73853081Y-68319750D01*
X73845849Y-68339962D01*
X73836670Y-68359368D01*
X73825634Y-68377781D01*
X73812846Y-68395024D01*
X73798430Y-68410930D01*
X73782524Y-68425346D01*
X73765281Y-68438134D01*
X73746868Y-68449170D01*
X73727462Y-68458349D01*
X73707250Y-68465581D01*
X73686426Y-68470797D01*
X73665191Y-68473947D01*
X73643750Y-68475000D01*
X73206250Y-68475000D01*
X73184809Y-68473947D01*
X73163574Y-68470797D01*
X73142750Y-68465581D01*
X73122538Y-68458349D01*
X73103132Y-68449170D01*
X73084719Y-68438134D01*
X73067476Y-68425346D01*
X73051570Y-68410930D01*
X73037154Y-68395024D01*
X73024366Y-68377781D01*
X73013330Y-68359368D01*
X73004151Y-68339962D01*
X72996919Y-68319750D01*
X72991703Y-68298926D01*
X72988553Y-68277691D01*
X72987500Y-68256250D01*
X72987500Y-67743750D01*
X72988553Y-67722309D01*
X72991703Y-67701074D01*
X72996919Y-67680250D01*
X73004151Y-67660038D01*
X73013330Y-67640632D01*
X73024366Y-67622219D01*
X73037154Y-67604976D01*
X73051570Y-67589070D01*
X73067476Y-67574654D01*
X73084719Y-67561866D01*
X73103132Y-67550830D01*
X73122538Y-67541651D01*
X73142750Y-67534419D01*
X73163574Y-67529203D01*
X73184809Y-67526053D01*
X73206250Y-67525000D01*
X73643750Y-67525000D01*
X73665191Y-67526053D01*
G37*
G36*
X75240191Y-67526053D02*
G01*
X75261426Y-67529203D01*
X75282250Y-67534419D01*
X75302462Y-67541651D01*
X75321868Y-67550830D01*
X75340281Y-67561866D01*
X75357524Y-67574654D01*
X75373430Y-67589070D01*
X75387846Y-67604976D01*
X75400634Y-67622219D01*
X75411670Y-67640632D01*
X75420849Y-67660038D01*
X75428081Y-67680250D01*
X75433297Y-67701074D01*
X75436447Y-67722309D01*
X75437500Y-67743750D01*
X75437500Y-68256250D01*
X75436447Y-68277691D01*
X75433297Y-68298926D01*
X75428081Y-68319750D01*
X75420849Y-68339962D01*
X75411670Y-68359368D01*
X75400634Y-68377781D01*
X75387846Y-68395024D01*
X75373430Y-68410930D01*
X75357524Y-68425346D01*
X75340281Y-68438134D01*
X75321868Y-68449170D01*
X75302462Y-68458349D01*
X75282250Y-68465581D01*
X75261426Y-68470797D01*
X75240191Y-68473947D01*
X75218750Y-68475000D01*
X74781250Y-68475000D01*
X74759809Y-68473947D01*
X74738574Y-68470797D01*
X74717750Y-68465581D01*
X74697538Y-68458349D01*
X74678132Y-68449170D01*
X74659719Y-68438134D01*
X74642476Y-68425346D01*
X74626570Y-68410930D01*
X74612154Y-68395024D01*
X74599366Y-68377781D01*
X74588330Y-68359368D01*
X74579151Y-68339962D01*
X74571919Y-68319750D01*
X74566703Y-68298926D01*
X74563553Y-68277691D01*
X74562500Y-68256250D01*
X74562500Y-67743750D01*
X74563553Y-67722309D01*
X74566703Y-67701074D01*
X74571919Y-67680250D01*
X74579151Y-67660038D01*
X74588330Y-67640632D01*
X74599366Y-67622219D01*
X74612154Y-67604976D01*
X74626570Y-67589070D01*
X74642476Y-67574654D01*
X74659719Y-67561866D01*
X74678132Y-67550830D01*
X74697538Y-67541651D01*
X74717750Y-67534419D01*
X74738574Y-67529203D01*
X74759809Y-67526053D01*
X74781250Y-67525000D01*
X75218750Y-67525000D01*
X75240191Y-67526053D01*
G37*
G36*
X108277691Y-85563553D02*
G01*
X108298926Y-85566703D01*
X108319750Y-85571919D01*
X108339962Y-85579151D01*
X108359368Y-85588330D01*
X108377781Y-85599366D01*
X108395024Y-85612154D01*
X108410930Y-85626570D01*
X108425346Y-85642476D01*
X108438134Y-85659719D01*
X108449170Y-85678132D01*
X108458349Y-85697538D01*
X108465581Y-85717750D01*
X108470797Y-85738574D01*
X108473947Y-85759809D01*
X108475000Y-85781250D01*
X108475000Y-86218750D01*
X108473947Y-86240191D01*
X108470797Y-86261426D01*
X108465581Y-86282250D01*
X108458349Y-86302462D01*
X108449170Y-86321868D01*
X108438134Y-86340281D01*
X108425346Y-86357524D01*
X108410930Y-86373430D01*
X108395024Y-86387846D01*
X108377781Y-86400634D01*
X108359368Y-86411670D01*
X108339962Y-86420849D01*
X108319750Y-86428081D01*
X108298926Y-86433297D01*
X108277691Y-86436447D01*
X108256250Y-86437500D01*
X107743750Y-86437500D01*
X107722309Y-86436447D01*
X107701074Y-86433297D01*
X107680250Y-86428081D01*
X107660038Y-86420849D01*
X107640632Y-86411670D01*
X107622219Y-86400634D01*
X107604976Y-86387846D01*
X107589070Y-86373430D01*
X107574654Y-86357524D01*
X107561866Y-86340281D01*
X107550830Y-86321868D01*
X107541651Y-86302462D01*
X107534419Y-86282250D01*
X107529203Y-86261426D01*
X107526053Y-86240191D01*
X107525000Y-86218750D01*
X107525000Y-85781250D01*
X107526053Y-85759809D01*
X107529203Y-85738574D01*
X107534419Y-85717750D01*
X107541651Y-85697538D01*
X107550830Y-85678132D01*
X107561866Y-85659719D01*
X107574654Y-85642476D01*
X107589070Y-85626570D01*
X107604976Y-85612154D01*
X107622219Y-85599366D01*
X107640632Y-85588330D01*
X107660038Y-85579151D01*
X107680250Y-85571919D01*
X107701074Y-85566703D01*
X107722309Y-85563553D01*
X107743750Y-85562500D01*
X108256250Y-85562500D01*
X108277691Y-85563553D01*
G37*
G36*
X108277691Y-83988553D02*
G01*
X108298926Y-83991703D01*
X108319750Y-83996919D01*
X108339962Y-84004151D01*
X108359368Y-84013330D01*
X108377781Y-84024366D01*
X108395024Y-84037154D01*
X108410930Y-84051570D01*
X108425346Y-84067476D01*
X108438134Y-84084719D01*
X108449170Y-84103132D01*
X108458349Y-84122538D01*
X108465581Y-84142750D01*
X108470797Y-84163574D01*
X108473947Y-84184809D01*
X108475000Y-84206250D01*
X108475000Y-84643750D01*
X108473947Y-84665191D01*
X108470797Y-84686426D01*
X108465581Y-84707250D01*
X108458349Y-84727462D01*
X108449170Y-84746868D01*
X108438134Y-84765281D01*
X108425346Y-84782524D01*
X108410930Y-84798430D01*
X108395024Y-84812846D01*
X108377781Y-84825634D01*
X108359368Y-84836670D01*
X108339962Y-84845849D01*
X108319750Y-84853081D01*
X108298926Y-84858297D01*
X108277691Y-84861447D01*
X108256250Y-84862500D01*
X107743750Y-84862500D01*
X107722309Y-84861447D01*
X107701074Y-84858297D01*
X107680250Y-84853081D01*
X107660038Y-84845849D01*
X107640632Y-84836670D01*
X107622219Y-84825634D01*
X107604976Y-84812846D01*
X107589070Y-84798430D01*
X107574654Y-84782524D01*
X107561866Y-84765281D01*
X107550830Y-84746868D01*
X107541651Y-84727462D01*
X107534419Y-84707250D01*
X107529203Y-84686426D01*
X107526053Y-84665191D01*
X107525000Y-84643750D01*
X107525000Y-84206250D01*
X107526053Y-84184809D01*
X107529203Y-84163574D01*
X107534419Y-84142750D01*
X107541651Y-84122538D01*
X107550830Y-84103132D01*
X107561866Y-84084719D01*
X107574654Y-84067476D01*
X107589070Y-84051570D01*
X107604976Y-84037154D01*
X107622219Y-84024366D01*
X107640632Y-84013330D01*
X107660038Y-84004151D01*
X107680250Y-83996919D01*
X107701074Y-83991703D01*
X107722309Y-83988553D01*
X107743750Y-83987500D01*
X108256250Y-83987500D01*
X108277691Y-83988553D01*
G37*
G36*
X30477691Y-71263553D02*
G01*
X30498926Y-71266703D01*
X30519750Y-71271919D01*
X30539962Y-71279151D01*
X30559368Y-71288330D01*
X30577781Y-71299366D01*
X30595024Y-71312154D01*
X30610930Y-71326570D01*
X30625346Y-71342476D01*
X30638134Y-71359719D01*
X30649170Y-71378132D01*
X30658349Y-71397538D01*
X30665581Y-71417750D01*
X30670797Y-71438574D01*
X30673947Y-71459809D01*
X30675000Y-71481250D01*
X30675000Y-71918750D01*
X30673947Y-71940191D01*
X30670797Y-71961426D01*
X30665581Y-71982250D01*
X30658349Y-72002462D01*
X30649170Y-72021868D01*
X30638134Y-72040281D01*
X30625346Y-72057524D01*
X30610930Y-72073430D01*
X30595024Y-72087846D01*
X30577781Y-72100634D01*
X30559368Y-72111670D01*
X30539962Y-72120849D01*
X30519750Y-72128081D01*
X30498926Y-72133297D01*
X30477691Y-72136447D01*
X30456250Y-72137500D01*
X29943750Y-72137500D01*
X29922309Y-72136447D01*
X29901074Y-72133297D01*
X29880250Y-72128081D01*
X29860038Y-72120849D01*
X29840632Y-72111670D01*
X29822219Y-72100634D01*
X29804976Y-72087846D01*
X29789070Y-72073430D01*
X29774654Y-72057524D01*
X29761866Y-72040281D01*
X29750830Y-72021868D01*
X29741651Y-72002462D01*
X29734419Y-71982250D01*
X29729203Y-71961426D01*
X29726053Y-71940191D01*
X29725000Y-71918750D01*
X29725000Y-71481250D01*
X29726053Y-71459809D01*
X29729203Y-71438574D01*
X29734419Y-71417750D01*
X29741651Y-71397538D01*
X29750830Y-71378132D01*
X29761866Y-71359719D01*
X29774654Y-71342476D01*
X29789070Y-71326570D01*
X29804976Y-71312154D01*
X29822219Y-71299366D01*
X29840632Y-71288330D01*
X29860038Y-71279151D01*
X29880250Y-71271919D01*
X29901074Y-71266703D01*
X29922309Y-71263553D01*
X29943750Y-71262500D01*
X30456250Y-71262500D01*
X30477691Y-71263553D01*
G37*
G36*
X30477691Y-72838553D02*
G01*
X30498926Y-72841703D01*
X30519750Y-72846919D01*
X30539962Y-72854151D01*
X30559368Y-72863330D01*
X30577781Y-72874366D01*
X30595024Y-72887154D01*
X30610930Y-72901570D01*
X30625346Y-72917476D01*
X30638134Y-72934719D01*
X30649170Y-72953132D01*
X30658349Y-72972538D01*
X30665581Y-72992750D01*
X30670797Y-73013574D01*
X30673947Y-73034809D01*
X30675000Y-73056250D01*
X30675000Y-73493750D01*
X30673947Y-73515191D01*
X30670797Y-73536426D01*
X30665581Y-73557250D01*
X30658349Y-73577462D01*
X30649170Y-73596868D01*
X30638134Y-73615281D01*
X30625346Y-73632524D01*
X30610930Y-73648430D01*
X30595024Y-73662846D01*
X30577781Y-73675634D01*
X30559368Y-73686670D01*
X30539962Y-73695849D01*
X30519750Y-73703081D01*
X30498926Y-73708297D01*
X30477691Y-73711447D01*
X30456250Y-73712500D01*
X29943750Y-73712500D01*
X29922309Y-73711447D01*
X29901074Y-73708297D01*
X29880250Y-73703081D01*
X29860038Y-73695849D01*
X29840632Y-73686670D01*
X29822219Y-73675634D01*
X29804976Y-73662846D01*
X29789070Y-73648430D01*
X29774654Y-73632524D01*
X29761866Y-73615281D01*
X29750830Y-73596868D01*
X29741651Y-73577462D01*
X29734419Y-73557250D01*
X29729203Y-73536426D01*
X29726053Y-73515191D01*
X29725000Y-73493750D01*
X29725000Y-73056250D01*
X29726053Y-73034809D01*
X29729203Y-73013574D01*
X29734419Y-72992750D01*
X29741651Y-72972538D01*
X29750830Y-72953132D01*
X29761866Y-72934719D01*
X29774654Y-72917476D01*
X29789070Y-72901570D01*
X29804976Y-72887154D01*
X29822219Y-72874366D01*
X29840632Y-72863330D01*
X29860038Y-72854151D01*
X29880250Y-72846919D01*
X29901074Y-72841703D01*
X29922309Y-72838553D01*
X29943750Y-72837500D01*
X30456250Y-72837500D01*
X30477691Y-72838553D01*
G37*
M02*
