G04 #@! TF.GenerationSoftware,KiCad,Pcbnew,5.1.5-1.fc30*
G04 #@! TF.CreationDate,2020-10-13T00:09:33+02:00*
G04 #@! TF.ProjectId,BeaconTemperature2,42656163-6f6e-4546-956d-706572617475,rev?*
G04 #@! TF.SameCoordinates,Original*
G04 #@! TF.FileFunction,Profile,NP*
%FSLAX46Y46*%
G04 Gerber Fmt 4.6, Leading zero omitted, Abs format (unit mm)*
G04 Created by KiCad (PCBNEW 5.1.5-1.fc30) date 2020-10-13 00:09:33*
%MOMM*%
%LPD*%
G04 APERTURE LIST*
%ADD10C,0.050000*%
G04 APERTURE END LIST*
D10*
X32000000Y-86000000D02*
G75*
G03X32000000Y-86000000I-1000000J0D01*
G01*
X32000000Y-79000000D02*
G75*
G03X32000000Y-79000000I-1000000J0D01*
G01*
X27000000Y-74500000D02*
X27000000Y-22000000D01*
X27000000Y-90250000D02*
X27000000Y-91000000D01*
X27000000Y-87250000D02*
X27000000Y-90250000D01*
X27000000Y-77750000D02*
X27000000Y-87250000D01*
X27000000Y-74500000D02*
X27000000Y-77750000D01*
X119000000Y-94000000D02*
X97000000Y-94000000D01*
X119000000Y-95000000D02*
X119000000Y-94000000D01*
X97000000Y-95000000D02*
X119000000Y-95000000D01*
X97000000Y-94000000D02*
X97000000Y-95000000D01*
X92000000Y-94000000D02*
X59000000Y-94000000D01*
X92000000Y-95000000D02*
X92000000Y-94000000D01*
X59000000Y-95000000D02*
X92000000Y-95000000D01*
X59000000Y-94000000D02*
X59000000Y-95000000D01*
X53000000Y-95000000D02*
X53000000Y-94000000D01*
X31000000Y-95000000D02*
X53000000Y-95000000D01*
X31000000Y-94000000D02*
X31000000Y-95000000D01*
X53000000Y-94000000D02*
X31000000Y-94000000D01*
X27000000Y-111000000D02*
X58000000Y-111000000D01*
X123000000Y-111000000D02*
X123000000Y-91000000D01*
X101000000Y-111000000D02*
X123000000Y-111000000D01*
X58000000Y-111000000D02*
X101000000Y-111000000D01*
X27000000Y-91000000D02*
X27000000Y-111000000D01*
X97000000Y-66000000D02*
X97000000Y-65000000D01*
X119000000Y-66000000D02*
X97000000Y-66000000D01*
X119000000Y-65000000D02*
X119000000Y-66000000D01*
X97000000Y-65000000D02*
X119000000Y-65000000D01*
X59000000Y-66000000D02*
X59000000Y-65000000D01*
X92000000Y-66000000D02*
X59000000Y-66000000D01*
X92000000Y-65000000D02*
X92000000Y-66000000D01*
X59000000Y-65000000D02*
X92000000Y-65000000D01*
X31000000Y-65000000D02*
X31000000Y-66000000D01*
X54000000Y-65000000D02*
X31000000Y-65000000D01*
X54000000Y-66000000D02*
X54000000Y-65000000D01*
X31000000Y-66000000D02*
X54000000Y-66000000D01*
X123000000Y-22000000D02*
X123000000Y-91000000D01*
X27000000Y-22000000D02*
X123000000Y-22000000D01*
M02*
