G04 #@! TF.GenerationSoftware,KiCad,Pcbnew,5.1.5-1.fc30*
G04 #@! TF.CreationDate,2020-10-13T00:09:33+02:00*
G04 #@! TF.ProjectId,BeaconTemperature2,42656163-6f6e-4546-956d-706572617475,rev?*
G04 #@! TF.SameCoordinates,Original*
G04 #@! TF.FileFunction,Soldermask,Bot*
G04 #@! TF.FilePolarity,Negative*
%FSLAX46Y46*%
G04 Gerber Fmt 4.6, Leading zero omitted, Abs format (unit mm)*
G04 Created by KiCad (PCBNEW 5.1.5-1.fc30) date 2020-10-13 00:09:33*
%MOMM*%
%LPD*%
G04 APERTURE LIST*
%ADD10C,0.100000*%
G04 APERTURE END LIST*
D10*
G36*
X115386564Y-108149389D02*
G01*
X115568842Y-108224891D01*
X115577835Y-108228616D01*
X115748740Y-108342811D01*
X115749973Y-108343635D01*
X115896365Y-108490027D01*
X116011385Y-108662167D01*
X116090611Y-108853436D01*
X116131000Y-109056484D01*
X116131000Y-109263516D01*
X116090611Y-109466564D01*
X116011385Y-109657833D01*
X116011384Y-109657835D01*
X115896365Y-109829973D01*
X115749973Y-109976365D01*
X115577835Y-110091384D01*
X115577834Y-110091385D01*
X115577833Y-110091385D01*
X115386564Y-110170611D01*
X115183516Y-110211000D01*
X114976484Y-110211000D01*
X114773436Y-110170611D01*
X114582167Y-110091385D01*
X114582166Y-110091385D01*
X114582165Y-110091384D01*
X114410027Y-109976365D01*
X114263635Y-109829973D01*
X114148616Y-109657835D01*
X114148615Y-109657833D01*
X114069389Y-109466564D01*
X114029000Y-109263516D01*
X114029000Y-109056484D01*
X114069389Y-108853436D01*
X114148615Y-108662167D01*
X114263635Y-108490027D01*
X114410027Y-108343635D01*
X114411260Y-108342811D01*
X114582165Y-108228616D01*
X114591158Y-108224891D01*
X114773436Y-108149389D01*
X114976484Y-108109000D01*
X115183516Y-108109000D01*
X115386564Y-108149389D01*
G37*
G36*
X101306564Y-108149389D02*
G01*
X101488842Y-108224891D01*
X101497835Y-108228616D01*
X101668740Y-108342811D01*
X101669973Y-108343635D01*
X101816365Y-108490027D01*
X101931385Y-108662167D01*
X102010611Y-108853436D01*
X102051000Y-109056484D01*
X102051000Y-109263516D01*
X102010611Y-109466564D01*
X101931385Y-109657833D01*
X101931384Y-109657835D01*
X101816365Y-109829973D01*
X101669973Y-109976365D01*
X101497835Y-110091384D01*
X101497834Y-110091385D01*
X101497833Y-110091385D01*
X101306564Y-110170611D01*
X101103516Y-110211000D01*
X100896484Y-110211000D01*
X100693436Y-110170611D01*
X100502167Y-110091385D01*
X100502166Y-110091385D01*
X100502165Y-110091384D01*
X100330027Y-109976365D01*
X100183635Y-109829973D01*
X100068616Y-109657835D01*
X100068615Y-109657833D01*
X99989389Y-109466564D01*
X99949000Y-109263516D01*
X99949000Y-109056484D01*
X99989389Y-108853436D01*
X100068615Y-108662167D01*
X100183635Y-108490027D01*
X100330027Y-108343635D01*
X100331260Y-108342811D01*
X100502165Y-108228616D01*
X100511158Y-108224891D01*
X100693436Y-108149389D01*
X100896484Y-108109000D01*
X101103516Y-108109000D01*
X101306564Y-108149389D01*
G37*
G36*
X106386564Y-108149389D02*
G01*
X106568842Y-108224891D01*
X106577835Y-108228616D01*
X106748740Y-108342811D01*
X106749973Y-108343635D01*
X106896365Y-108490027D01*
X107011385Y-108662167D01*
X107090611Y-108853436D01*
X107131000Y-109056484D01*
X107131000Y-109263516D01*
X107090611Y-109466564D01*
X107011385Y-109657833D01*
X107011384Y-109657835D01*
X106896365Y-109829973D01*
X106749973Y-109976365D01*
X106577835Y-110091384D01*
X106577834Y-110091385D01*
X106577833Y-110091385D01*
X106386564Y-110170611D01*
X106183516Y-110211000D01*
X105976484Y-110211000D01*
X105773436Y-110170611D01*
X105582167Y-110091385D01*
X105582166Y-110091385D01*
X105582165Y-110091384D01*
X105410027Y-109976365D01*
X105263635Y-109829973D01*
X105148616Y-109657835D01*
X105148615Y-109657833D01*
X105069389Y-109466564D01*
X105029000Y-109263516D01*
X105029000Y-109056484D01*
X105069389Y-108853436D01*
X105148615Y-108662167D01*
X105263635Y-108490027D01*
X105410027Y-108343635D01*
X105411260Y-108342811D01*
X105582165Y-108228616D01*
X105591158Y-108224891D01*
X105773436Y-108149389D01*
X105976484Y-108109000D01*
X106183516Y-108109000D01*
X106386564Y-108149389D01*
G37*
G36*
X110306564Y-108149389D02*
G01*
X110488842Y-108224891D01*
X110497835Y-108228616D01*
X110668740Y-108342811D01*
X110669973Y-108343635D01*
X110816365Y-108490027D01*
X110931385Y-108662167D01*
X111010611Y-108853436D01*
X111051000Y-109056484D01*
X111051000Y-109263516D01*
X111010611Y-109466564D01*
X110931385Y-109657833D01*
X110931384Y-109657835D01*
X110816365Y-109829973D01*
X110669973Y-109976365D01*
X110497835Y-110091384D01*
X110497834Y-110091385D01*
X110497833Y-110091385D01*
X110306564Y-110170611D01*
X110103516Y-110211000D01*
X109896484Y-110211000D01*
X109693436Y-110170611D01*
X109502167Y-110091385D01*
X109502166Y-110091385D01*
X109502165Y-110091384D01*
X109330027Y-109976365D01*
X109183635Y-109829973D01*
X109068616Y-109657835D01*
X109068615Y-109657833D01*
X108989389Y-109466564D01*
X108949000Y-109263516D01*
X108949000Y-109056484D01*
X108989389Y-108853436D01*
X109068615Y-108662167D01*
X109183635Y-108490027D01*
X109330027Y-108343635D01*
X109331260Y-108342811D01*
X109502165Y-108228616D01*
X109511158Y-108224891D01*
X109693436Y-108149389D01*
X109896484Y-108109000D01*
X110103516Y-108109000D01*
X110306564Y-108149389D01*
G37*
G36*
X120113512Y-107183927D02*
G01*
X120262812Y-107213624D01*
X120426784Y-107281544D01*
X120574354Y-107380147D01*
X120699853Y-107505646D01*
X120798456Y-107653216D01*
X120866376Y-107817188D01*
X120901000Y-107991259D01*
X120901000Y-108168741D01*
X120866376Y-108342812D01*
X120798456Y-108506784D01*
X120699853Y-108654354D01*
X120574354Y-108779853D01*
X120426784Y-108878456D01*
X120262812Y-108946376D01*
X120113512Y-108976073D01*
X120088742Y-108981000D01*
X119911258Y-108981000D01*
X119886488Y-108976073D01*
X119737188Y-108946376D01*
X119573216Y-108878456D01*
X119425646Y-108779853D01*
X119300147Y-108654354D01*
X119201544Y-108506784D01*
X119133624Y-108342812D01*
X119099000Y-108168741D01*
X119099000Y-107991259D01*
X119133624Y-107817188D01*
X119201544Y-107653216D01*
X119300147Y-107505646D01*
X119425646Y-107380147D01*
X119573216Y-107281544D01*
X119737188Y-107213624D01*
X119886488Y-107183927D01*
X119911258Y-107179000D01*
X120088742Y-107179000D01*
X120113512Y-107183927D01*
G37*
G36*
X49113512Y-107183927D02*
G01*
X49262812Y-107213624D01*
X49426784Y-107281544D01*
X49574354Y-107380147D01*
X49699853Y-107505646D01*
X49798456Y-107653216D01*
X49866376Y-107817188D01*
X49901000Y-107991259D01*
X49901000Y-108168741D01*
X49866376Y-108342812D01*
X49798456Y-108506784D01*
X49699853Y-108654354D01*
X49574354Y-108779853D01*
X49426784Y-108878456D01*
X49262812Y-108946376D01*
X49113512Y-108976073D01*
X49088742Y-108981000D01*
X48911258Y-108981000D01*
X48886488Y-108976073D01*
X48737188Y-108946376D01*
X48573216Y-108878456D01*
X48425646Y-108779853D01*
X48300147Y-108654354D01*
X48201544Y-108506784D01*
X48133624Y-108342812D01*
X48099000Y-108168741D01*
X48099000Y-107991259D01*
X48133624Y-107817188D01*
X48201544Y-107653216D01*
X48300147Y-107505646D01*
X48425646Y-107380147D01*
X48573216Y-107281544D01*
X48737188Y-107213624D01*
X48886488Y-107183927D01*
X48911258Y-107179000D01*
X49088742Y-107179000D01*
X49113512Y-107183927D01*
G37*
G36*
X58125589Y-107238876D02*
G01*
X58224893Y-107258629D01*
X58365206Y-107316748D01*
X58491484Y-107401125D01*
X58598875Y-107508516D01*
X58683252Y-107634794D01*
X58741371Y-107775107D01*
X58771000Y-107924063D01*
X58771000Y-108075937D01*
X58741371Y-108224893D01*
X58683252Y-108365206D01*
X58598875Y-108491484D01*
X58491484Y-108598875D01*
X58365206Y-108683252D01*
X58224893Y-108741371D01*
X58125589Y-108761124D01*
X58075938Y-108771000D01*
X57924062Y-108771000D01*
X57874411Y-108761124D01*
X57775107Y-108741371D01*
X57634794Y-108683252D01*
X57508516Y-108598875D01*
X57401125Y-108491484D01*
X57316748Y-108365206D01*
X57258629Y-108224893D01*
X57229000Y-108075937D01*
X57229000Y-107924063D01*
X57258629Y-107775107D01*
X57316748Y-107634794D01*
X57401125Y-107508516D01*
X57508516Y-107401125D01*
X57634794Y-107316748D01*
X57775107Y-107258629D01*
X57874411Y-107238876D01*
X57924062Y-107229000D01*
X58075938Y-107229000D01*
X58125589Y-107238876D01*
G37*
G36*
X120113512Y-104643927D02*
G01*
X120262812Y-104673624D01*
X120426784Y-104741544D01*
X120574354Y-104840147D01*
X120699853Y-104965646D01*
X120798456Y-105113216D01*
X120866376Y-105277188D01*
X120901000Y-105451259D01*
X120901000Y-105628741D01*
X120866376Y-105802812D01*
X120798456Y-105966784D01*
X120699853Y-106114354D01*
X120574354Y-106239853D01*
X120426784Y-106338456D01*
X120262812Y-106406376D01*
X120113512Y-106436073D01*
X120088742Y-106441000D01*
X119911258Y-106441000D01*
X119886488Y-106436073D01*
X119737188Y-106406376D01*
X119573216Y-106338456D01*
X119425646Y-106239853D01*
X119300147Y-106114354D01*
X119201544Y-105966784D01*
X119133624Y-105802812D01*
X119099000Y-105628741D01*
X119099000Y-105451259D01*
X119133624Y-105277188D01*
X119201544Y-105113216D01*
X119300147Y-104965646D01*
X119425646Y-104840147D01*
X119573216Y-104741544D01*
X119737188Y-104673624D01*
X119886488Y-104643927D01*
X119911258Y-104639000D01*
X120088742Y-104639000D01*
X120113512Y-104643927D01*
G37*
G36*
X49113512Y-104643927D02*
G01*
X49262812Y-104673624D01*
X49426784Y-104741544D01*
X49574354Y-104840147D01*
X49699853Y-104965646D01*
X49798456Y-105113216D01*
X49866376Y-105277188D01*
X49901000Y-105451259D01*
X49901000Y-105628741D01*
X49866376Y-105802812D01*
X49798456Y-105966784D01*
X49699853Y-106114354D01*
X49574354Y-106239853D01*
X49426784Y-106338456D01*
X49262812Y-106406376D01*
X49113512Y-106436073D01*
X49088742Y-106441000D01*
X48911258Y-106441000D01*
X48886488Y-106436073D01*
X48737188Y-106406376D01*
X48573216Y-106338456D01*
X48425646Y-106239853D01*
X48300147Y-106114354D01*
X48201544Y-105966784D01*
X48133624Y-105802812D01*
X48099000Y-105628741D01*
X48099000Y-105451259D01*
X48133624Y-105277188D01*
X48201544Y-105113216D01*
X48300147Y-104965646D01*
X48425646Y-104840147D01*
X48573216Y-104741544D01*
X48737188Y-104673624D01*
X48886488Y-104643927D01*
X48911258Y-104639000D01*
X49088742Y-104639000D01*
X49113512Y-104643927D01*
G37*
G36*
X58125589Y-104698876D02*
G01*
X58224893Y-104718629D01*
X58365206Y-104776748D01*
X58491484Y-104861125D01*
X58598875Y-104968516D01*
X58683252Y-105094794D01*
X58741371Y-105235107D01*
X58771000Y-105384063D01*
X58771000Y-105535937D01*
X58741371Y-105684893D01*
X58683252Y-105825206D01*
X58598875Y-105951484D01*
X58491484Y-106058875D01*
X58365206Y-106143252D01*
X58224893Y-106201371D01*
X58125589Y-106221124D01*
X58075938Y-106231000D01*
X57924062Y-106231000D01*
X57874411Y-106221124D01*
X57775107Y-106201371D01*
X57634794Y-106143252D01*
X57508516Y-106058875D01*
X57401125Y-105951484D01*
X57316748Y-105825206D01*
X57258629Y-105684893D01*
X57229000Y-105535937D01*
X57229000Y-105384063D01*
X57258629Y-105235107D01*
X57316748Y-105094794D01*
X57401125Y-104968516D01*
X57508516Y-104861125D01*
X57634794Y-104776748D01*
X57775107Y-104718629D01*
X57874411Y-104698876D01*
X57924062Y-104689000D01*
X58075938Y-104689000D01*
X58125589Y-104698876D01*
G37*
G36*
X120113512Y-102103927D02*
G01*
X120262812Y-102133624D01*
X120426784Y-102201544D01*
X120574354Y-102300147D01*
X120699853Y-102425646D01*
X120798456Y-102573216D01*
X120866376Y-102737188D01*
X120901000Y-102911259D01*
X120901000Y-103088741D01*
X120866376Y-103262812D01*
X120798456Y-103426784D01*
X120699853Y-103574354D01*
X120574354Y-103699853D01*
X120426784Y-103798456D01*
X120262812Y-103866376D01*
X120113512Y-103896073D01*
X120088742Y-103901000D01*
X119911258Y-103901000D01*
X119886488Y-103896073D01*
X119737188Y-103866376D01*
X119573216Y-103798456D01*
X119425646Y-103699853D01*
X119300147Y-103574354D01*
X119201544Y-103426784D01*
X119133624Y-103262812D01*
X119099000Y-103088741D01*
X119099000Y-102911259D01*
X119133624Y-102737188D01*
X119201544Y-102573216D01*
X119300147Y-102425646D01*
X119425646Y-102300147D01*
X119573216Y-102201544D01*
X119737188Y-102133624D01*
X119886488Y-102103927D01*
X119911258Y-102099000D01*
X120088742Y-102099000D01*
X120113512Y-102103927D01*
G37*
G36*
X49901000Y-103901000D02*
G01*
X48099000Y-103901000D01*
X48099000Y-102099000D01*
X49901000Y-102099000D01*
X49901000Y-103901000D01*
G37*
G36*
X58125589Y-102158876D02*
G01*
X58224893Y-102178629D01*
X58365206Y-102236748D01*
X58491484Y-102321125D01*
X58598875Y-102428516D01*
X58683252Y-102554794D01*
X58741371Y-102695107D01*
X58771000Y-102844063D01*
X58771000Y-102995937D01*
X58741371Y-103144893D01*
X58683252Y-103285206D01*
X58598875Y-103411484D01*
X58491484Y-103518875D01*
X58365206Y-103603252D01*
X58224893Y-103661371D01*
X58125589Y-103681124D01*
X58075938Y-103691000D01*
X57924062Y-103691000D01*
X57874411Y-103681124D01*
X57775107Y-103661371D01*
X57634794Y-103603252D01*
X57508516Y-103518875D01*
X57401125Y-103411484D01*
X57316748Y-103285206D01*
X57258629Y-103144893D01*
X57229000Y-102995937D01*
X57229000Y-102844063D01*
X57258629Y-102695107D01*
X57316748Y-102554794D01*
X57401125Y-102428516D01*
X57508516Y-102321125D01*
X57634794Y-102236748D01*
X57775107Y-102178629D01*
X57874411Y-102158876D01*
X57924062Y-102149000D01*
X58075938Y-102149000D01*
X58125589Y-102158876D01*
G37*
G36*
X110306564Y-100529389D02*
G01*
X110497833Y-100608615D01*
X110497835Y-100608616D01*
X110669973Y-100723635D01*
X110816365Y-100870027D01*
X110931385Y-101042167D01*
X111010611Y-101233436D01*
X111051000Y-101436484D01*
X111051000Y-101643516D01*
X111010611Y-101846564D01*
X110931385Y-102037833D01*
X110931384Y-102037835D01*
X110816365Y-102209973D01*
X110669973Y-102356365D01*
X110497835Y-102471384D01*
X110497834Y-102471385D01*
X110497833Y-102471385D01*
X110306564Y-102550611D01*
X110103516Y-102591000D01*
X109896484Y-102591000D01*
X109693436Y-102550611D01*
X109502167Y-102471385D01*
X109502166Y-102471385D01*
X109502165Y-102471384D01*
X109330027Y-102356365D01*
X109183635Y-102209973D01*
X109068616Y-102037835D01*
X109068615Y-102037833D01*
X108989389Y-101846564D01*
X108949000Y-101643516D01*
X108949000Y-101436484D01*
X108989389Y-101233436D01*
X109068615Y-101042167D01*
X109183635Y-100870027D01*
X109330027Y-100723635D01*
X109502165Y-100608616D01*
X109502167Y-100608615D01*
X109693436Y-100529389D01*
X109896484Y-100489000D01*
X110103516Y-100489000D01*
X110306564Y-100529389D01*
G37*
G36*
X101306564Y-100529389D02*
G01*
X101497833Y-100608615D01*
X101497835Y-100608616D01*
X101669973Y-100723635D01*
X101816365Y-100870027D01*
X101931385Y-101042167D01*
X102010611Y-101233436D01*
X102051000Y-101436484D01*
X102051000Y-101643516D01*
X102010611Y-101846564D01*
X101931385Y-102037833D01*
X101931384Y-102037835D01*
X101816365Y-102209973D01*
X101669973Y-102356365D01*
X101497835Y-102471384D01*
X101497834Y-102471385D01*
X101497833Y-102471385D01*
X101306564Y-102550611D01*
X101103516Y-102591000D01*
X100896484Y-102591000D01*
X100693436Y-102550611D01*
X100502167Y-102471385D01*
X100502166Y-102471385D01*
X100502165Y-102471384D01*
X100330027Y-102356365D01*
X100183635Y-102209973D01*
X100068616Y-102037835D01*
X100068615Y-102037833D01*
X99989389Y-101846564D01*
X99949000Y-101643516D01*
X99949000Y-101436484D01*
X99989389Y-101233436D01*
X100068615Y-101042167D01*
X100183635Y-100870027D01*
X100330027Y-100723635D01*
X100502165Y-100608616D01*
X100502167Y-100608615D01*
X100693436Y-100529389D01*
X100896484Y-100489000D01*
X101103516Y-100489000D01*
X101306564Y-100529389D01*
G37*
G36*
X115386564Y-100529389D02*
G01*
X115577833Y-100608615D01*
X115577835Y-100608616D01*
X115749973Y-100723635D01*
X115896365Y-100870027D01*
X116011385Y-101042167D01*
X116090611Y-101233436D01*
X116131000Y-101436484D01*
X116131000Y-101643516D01*
X116090611Y-101846564D01*
X116011385Y-102037833D01*
X116011384Y-102037835D01*
X115896365Y-102209973D01*
X115749973Y-102356365D01*
X115577835Y-102471384D01*
X115577834Y-102471385D01*
X115577833Y-102471385D01*
X115386564Y-102550611D01*
X115183516Y-102591000D01*
X114976484Y-102591000D01*
X114773436Y-102550611D01*
X114582167Y-102471385D01*
X114582166Y-102471385D01*
X114582165Y-102471384D01*
X114410027Y-102356365D01*
X114263635Y-102209973D01*
X114148616Y-102037835D01*
X114148615Y-102037833D01*
X114069389Y-101846564D01*
X114029000Y-101643516D01*
X114029000Y-101436484D01*
X114069389Y-101233436D01*
X114148615Y-101042167D01*
X114263635Y-100870027D01*
X114410027Y-100723635D01*
X114582165Y-100608616D01*
X114582167Y-100608615D01*
X114773436Y-100529389D01*
X114976484Y-100489000D01*
X115183516Y-100489000D01*
X115386564Y-100529389D01*
G37*
G36*
X106386564Y-100529389D02*
G01*
X106577833Y-100608615D01*
X106577835Y-100608616D01*
X106749973Y-100723635D01*
X106896365Y-100870027D01*
X107011385Y-101042167D01*
X107090611Y-101233436D01*
X107131000Y-101436484D01*
X107131000Y-101643516D01*
X107090611Y-101846564D01*
X107011385Y-102037833D01*
X107011384Y-102037835D01*
X106896365Y-102209973D01*
X106749973Y-102356365D01*
X106577835Y-102471384D01*
X106577834Y-102471385D01*
X106577833Y-102471385D01*
X106386564Y-102550611D01*
X106183516Y-102591000D01*
X105976484Y-102591000D01*
X105773436Y-102550611D01*
X105582167Y-102471385D01*
X105582166Y-102471385D01*
X105582165Y-102471384D01*
X105410027Y-102356365D01*
X105263635Y-102209973D01*
X105148616Y-102037835D01*
X105148615Y-102037833D01*
X105069389Y-101846564D01*
X105029000Y-101643516D01*
X105029000Y-101436484D01*
X105069389Y-101233436D01*
X105148615Y-101042167D01*
X105263635Y-100870027D01*
X105410027Y-100723635D01*
X105582165Y-100608616D01*
X105582167Y-100608615D01*
X105773436Y-100529389D01*
X105976484Y-100489000D01*
X106183516Y-100489000D01*
X106386564Y-100529389D01*
G37*
G36*
X120901000Y-101361000D02*
G01*
X119099000Y-101361000D01*
X119099000Y-99559000D01*
X120901000Y-99559000D01*
X120901000Y-101361000D01*
G37*
G36*
X115386564Y-97989389D02*
G01*
X115577833Y-98068615D01*
X115577835Y-98068616D01*
X115749973Y-98183635D01*
X115896365Y-98330027D01*
X115961015Y-98426782D01*
X116011385Y-98502167D01*
X116090611Y-98693436D01*
X116131000Y-98896484D01*
X116131000Y-99103516D01*
X116090611Y-99306564D01*
X116011385Y-99497833D01*
X116011384Y-99497835D01*
X115896365Y-99669973D01*
X115749973Y-99816365D01*
X115577835Y-99931384D01*
X115577834Y-99931385D01*
X115577833Y-99931385D01*
X115386564Y-100010611D01*
X115183516Y-100051000D01*
X114976484Y-100051000D01*
X114773436Y-100010611D01*
X114582167Y-99931385D01*
X114582166Y-99931385D01*
X114582165Y-99931384D01*
X114410027Y-99816365D01*
X114263635Y-99669973D01*
X114148616Y-99497835D01*
X114148615Y-99497833D01*
X114069389Y-99306564D01*
X114029000Y-99103516D01*
X114029000Y-98896484D01*
X114069389Y-98693436D01*
X114148615Y-98502167D01*
X114198986Y-98426782D01*
X114263635Y-98330027D01*
X114410027Y-98183635D01*
X114582165Y-98068616D01*
X114582167Y-98068615D01*
X114773436Y-97989389D01*
X114976484Y-97949000D01*
X115183516Y-97949000D01*
X115386564Y-97989389D01*
G37*
G36*
X111051000Y-100051000D02*
G01*
X108949000Y-100051000D01*
X108949000Y-97949000D01*
X111051000Y-97949000D01*
X111051000Y-100051000D01*
G37*
G36*
X102051000Y-100051000D02*
G01*
X99949000Y-100051000D01*
X99949000Y-97949000D01*
X102051000Y-97949000D01*
X102051000Y-100051000D01*
G37*
G36*
X106386564Y-97989389D02*
G01*
X106577833Y-98068615D01*
X106577835Y-98068616D01*
X106749973Y-98183635D01*
X106896365Y-98330027D01*
X106961015Y-98426782D01*
X107011385Y-98502167D01*
X107090611Y-98693436D01*
X107131000Y-98896484D01*
X107131000Y-99103516D01*
X107090611Y-99306564D01*
X107011385Y-99497833D01*
X107011384Y-99497835D01*
X106896365Y-99669973D01*
X106749973Y-99816365D01*
X106577835Y-99931384D01*
X106577834Y-99931385D01*
X106577833Y-99931385D01*
X106386564Y-100010611D01*
X106183516Y-100051000D01*
X105976484Y-100051000D01*
X105773436Y-100010611D01*
X105582167Y-99931385D01*
X105582166Y-99931385D01*
X105582165Y-99931384D01*
X105410027Y-99816365D01*
X105263635Y-99669973D01*
X105148616Y-99497835D01*
X105148615Y-99497833D01*
X105069389Y-99306564D01*
X105029000Y-99103516D01*
X105029000Y-98896484D01*
X105069389Y-98693436D01*
X105148615Y-98502167D01*
X105198986Y-98426782D01*
X105263635Y-98330027D01*
X105410027Y-98183635D01*
X105582165Y-98068616D01*
X105582167Y-98068615D01*
X105773436Y-97989389D01*
X105976484Y-97949000D01*
X106183516Y-97949000D01*
X106386564Y-97989389D01*
G37*
G36*
X51353512Y-97103927D02*
G01*
X51502812Y-97133624D01*
X51666784Y-97201544D01*
X51814354Y-97300147D01*
X51939853Y-97425646D01*
X52038456Y-97573216D01*
X52106376Y-97737188D01*
X52141000Y-97911259D01*
X52141000Y-98088741D01*
X52106376Y-98262812D01*
X52038456Y-98426784D01*
X51939853Y-98574354D01*
X51814354Y-98699853D01*
X51666784Y-98798456D01*
X51502812Y-98866376D01*
X51353512Y-98896073D01*
X51328742Y-98901000D01*
X51151258Y-98901000D01*
X51126488Y-98896073D01*
X50977188Y-98866376D01*
X50813216Y-98798456D01*
X50665646Y-98699853D01*
X50540147Y-98574354D01*
X50441544Y-98426784D01*
X50373624Y-98262812D01*
X50339000Y-98088741D01*
X50339000Y-97911259D01*
X50373624Y-97737188D01*
X50441544Y-97573216D01*
X50540147Y-97425646D01*
X50665646Y-97300147D01*
X50813216Y-97201544D01*
X50977188Y-97133624D01*
X51126488Y-97103927D01*
X51151258Y-97099000D01*
X51328742Y-97099000D01*
X51353512Y-97103927D01*
G37*
G36*
X58973512Y-97103927D02*
G01*
X59122812Y-97133624D01*
X59286784Y-97201544D01*
X59434354Y-97300147D01*
X59559853Y-97425646D01*
X59658456Y-97573216D01*
X59726376Y-97737188D01*
X59761000Y-97911259D01*
X59761000Y-98088741D01*
X59726376Y-98262812D01*
X59658456Y-98426784D01*
X59559853Y-98574354D01*
X59434354Y-98699853D01*
X59286784Y-98798456D01*
X59122812Y-98866376D01*
X58973512Y-98896073D01*
X58948742Y-98901000D01*
X58771258Y-98901000D01*
X58746488Y-98896073D01*
X58597188Y-98866376D01*
X58433216Y-98798456D01*
X58285646Y-98699853D01*
X58160147Y-98574354D01*
X58061544Y-98426784D01*
X57993624Y-98262812D01*
X57959000Y-98088741D01*
X57959000Y-97911259D01*
X57993624Y-97737188D01*
X58061544Y-97573216D01*
X58160147Y-97425646D01*
X58285646Y-97300147D01*
X58433216Y-97201544D01*
X58597188Y-97133624D01*
X58746488Y-97103927D01*
X58771258Y-97099000D01*
X58948742Y-97099000D01*
X58973512Y-97103927D01*
G37*
G36*
X56433512Y-97103927D02*
G01*
X56582812Y-97133624D01*
X56746784Y-97201544D01*
X56894354Y-97300147D01*
X57019853Y-97425646D01*
X57118456Y-97573216D01*
X57186376Y-97737188D01*
X57221000Y-97911259D01*
X57221000Y-98088741D01*
X57186376Y-98262812D01*
X57118456Y-98426784D01*
X57019853Y-98574354D01*
X56894354Y-98699853D01*
X56746784Y-98798456D01*
X56582812Y-98866376D01*
X56433512Y-98896073D01*
X56408742Y-98901000D01*
X56231258Y-98901000D01*
X56206488Y-98896073D01*
X56057188Y-98866376D01*
X55893216Y-98798456D01*
X55745646Y-98699853D01*
X55620147Y-98574354D01*
X55521544Y-98426784D01*
X55453624Y-98262812D01*
X55419000Y-98088741D01*
X55419000Y-97911259D01*
X55453624Y-97737188D01*
X55521544Y-97573216D01*
X55620147Y-97425646D01*
X55745646Y-97300147D01*
X55893216Y-97201544D01*
X56057188Y-97133624D01*
X56206488Y-97103927D01*
X56231258Y-97099000D01*
X56408742Y-97099000D01*
X56433512Y-97103927D01*
G37*
G36*
X53893512Y-97103927D02*
G01*
X54042812Y-97133624D01*
X54206784Y-97201544D01*
X54354354Y-97300147D01*
X54479853Y-97425646D01*
X54578456Y-97573216D01*
X54646376Y-97737188D01*
X54681000Y-97911259D01*
X54681000Y-98088741D01*
X54646376Y-98262812D01*
X54578456Y-98426784D01*
X54479853Y-98574354D01*
X54354354Y-98699853D01*
X54206784Y-98798456D01*
X54042812Y-98866376D01*
X53893512Y-98896073D01*
X53868742Y-98901000D01*
X53691258Y-98901000D01*
X53666488Y-98896073D01*
X53517188Y-98866376D01*
X53353216Y-98798456D01*
X53205646Y-98699853D01*
X53080147Y-98574354D01*
X52981544Y-98426784D01*
X52913624Y-98262812D01*
X52879000Y-98088741D01*
X52879000Y-97911259D01*
X52913624Y-97737188D01*
X52981544Y-97573216D01*
X53080147Y-97425646D01*
X53205646Y-97300147D01*
X53353216Y-97201544D01*
X53517188Y-97133624D01*
X53666488Y-97103927D01*
X53691258Y-97099000D01*
X53868742Y-97099000D01*
X53893512Y-97103927D01*
G37*
G36*
X48813512Y-97103927D02*
G01*
X48962812Y-97133624D01*
X49126784Y-97201544D01*
X49274354Y-97300147D01*
X49399853Y-97425646D01*
X49498456Y-97573216D01*
X49566376Y-97737188D01*
X49601000Y-97911259D01*
X49601000Y-98088741D01*
X49566376Y-98262812D01*
X49498456Y-98426784D01*
X49399853Y-98574354D01*
X49274354Y-98699853D01*
X49126784Y-98798456D01*
X48962812Y-98866376D01*
X48813512Y-98896073D01*
X48788742Y-98901000D01*
X48611258Y-98901000D01*
X48586488Y-98896073D01*
X48437188Y-98866376D01*
X48273216Y-98798456D01*
X48125646Y-98699853D01*
X48000147Y-98574354D01*
X47901544Y-98426784D01*
X47833624Y-98262812D01*
X47799000Y-98088741D01*
X47799000Y-97911259D01*
X47833624Y-97737188D01*
X47901544Y-97573216D01*
X48000147Y-97425646D01*
X48125646Y-97300147D01*
X48273216Y-97201544D01*
X48437188Y-97133624D01*
X48586488Y-97103927D01*
X48611258Y-97099000D01*
X48788742Y-97099000D01*
X48813512Y-97103927D01*
G37*
G36*
X46273512Y-97103927D02*
G01*
X46422812Y-97133624D01*
X46586784Y-97201544D01*
X46734354Y-97300147D01*
X46859853Y-97425646D01*
X46958456Y-97573216D01*
X47026376Y-97737188D01*
X47061000Y-97911259D01*
X47061000Y-98088741D01*
X47026376Y-98262812D01*
X46958456Y-98426784D01*
X46859853Y-98574354D01*
X46734354Y-98699853D01*
X46586784Y-98798456D01*
X46422812Y-98866376D01*
X46273512Y-98896073D01*
X46248742Y-98901000D01*
X46071258Y-98901000D01*
X46046488Y-98896073D01*
X45897188Y-98866376D01*
X45733216Y-98798456D01*
X45585646Y-98699853D01*
X45460147Y-98574354D01*
X45361544Y-98426784D01*
X45293624Y-98262812D01*
X45259000Y-98088741D01*
X45259000Y-97911259D01*
X45293624Y-97737188D01*
X45361544Y-97573216D01*
X45460147Y-97425646D01*
X45585646Y-97300147D01*
X45733216Y-97201544D01*
X45897188Y-97133624D01*
X46046488Y-97103927D01*
X46071258Y-97099000D01*
X46248742Y-97099000D01*
X46273512Y-97103927D01*
G37*
G36*
X43733512Y-97103927D02*
G01*
X43882812Y-97133624D01*
X44046784Y-97201544D01*
X44194354Y-97300147D01*
X44319853Y-97425646D01*
X44418456Y-97573216D01*
X44486376Y-97737188D01*
X44521000Y-97911259D01*
X44521000Y-98088741D01*
X44486376Y-98262812D01*
X44418456Y-98426784D01*
X44319853Y-98574354D01*
X44194354Y-98699853D01*
X44046784Y-98798456D01*
X43882812Y-98866376D01*
X43733512Y-98896073D01*
X43708742Y-98901000D01*
X43531258Y-98901000D01*
X43506488Y-98896073D01*
X43357188Y-98866376D01*
X43193216Y-98798456D01*
X43045646Y-98699853D01*
X42920147Y-98574354D01*
X42821544Y-98426784D01*
X42753624Y-98262812D01*
X42719000Y-98088741D01*
X42719000Y-97911259D01*
X42753624Y-97737188D01*
X42821544Y-97573216D01*
X42920147Y-97425646D01*
X43045646Y-97300147D01*
X43193216Y-97201544D01*
X43357188Y-97133624D01*
X43506488Y-97103927D01*
X43531258Y-97099000D01*
X43708742Y-97099000D01*
X43733512Y-97103927D01*
G37*
G36*
X41193512Y-97103927D02*
G01*
X41342812Y-97133624D01*
X41506784Y-97201544D01*
X41654354Y-97300147D01*
X41779853Y-97425646D01*
X41878456Y-97573216D01*
X41946376Y-97737188D01*
X41981000Y-97911259D01*
X41981000Y-98088741D01*
X41946376Y-98262812D01*
X41878456Y-98426784D01*
X41779853Y-98574354D01*
X41654354Y-98699853D01*
X41506784Y-98798456D01*
X41342812Y-98866376D01*
X41193512Y-98896073D01*
X41168742Y-98901000D01*
X40991258Y-98901000D01*
X40966488Y-98896073D01*
X40817188Y-98866376D01*
X40653216Y-98798456D01*
X40505646Y-98699853D01*
X40380147Y-98574354D01*
X40281544Y-98426784D01*
X40213624Y-98262812D01*
X40179000Y-98088741D01*
X40179000Y-97911259D01*
X40213624Y-97737188D01*
X40281544Y-97573216D01*
X40380147Y-97425646D01*
X40505646Y-97300147D01*
X40653216Y-97201544D01*
X40817188Y-97133624D01*
X40966488Y-97103927D01*
X40991258Y-97099000D01*
X41168742Y-97099000D01*
X41193512Y-97103927D01*
G37*
G36*
X38653512Y-97103927D02*
G01*
X38802812Y-97133624D01*
X38966784Y-97201544D01*
X39114354Y-97300147D01*
X39239853Y-97425646D01*
X39338456Y-97573216D01*
X39406376Y-97737188D01*
X39441000Y-97911259D01*
X39441000Y-98088741D01*
X39406376Y-98262812D01*
X39338456Y-98426784D01*
X39239853Y-98574354D01*
X39114354Y-98699853D01*
X38966784Y-98798456D01*
X38802812Y-98866376D01*
X38653512Y-98896073D01*
X38628742Y-98901000D01*
X38451258Y-98901000D01*
X38426488Y-98896073D01*
X38277188Y-98866376D01*
X38113216Y-98798456D01*
X37965646Y-98699853D01*
X37840147Y-98574354D01*
X37741544Y-98426784D01*
X37673624Y-98262812D01*
X37639000Y-98088741D01*
X37639000Y-97911259D01*
X37673624Y-97737188D01*
X37741544Y-97573216D01*
X37840147Y-97425646D01*
X37965646Y-97300147D01*
X38113216Y-97201544D01*
X38277188Y-97133624D01*
X38426488Y-97103927D01*
X38451258Y-97099000D01*
X38628742Y-97099000D01*
X38653512Y-97103927D01*
G37*
G36*
X36901000Y-98901000D02*
G01*
X35099000Y-98901000D01*
X35099000Y-97099000D01*
X36901000Y-97099000D01*
X36901000Y-98901000D01*
G37*
G36*
X58901000Y-90901000D02*
G01*
X57099000Y-90901000D01*
X57099000Y-89099000D01*
X58901000Y-89099000D01*
X58901000Y-90901000D01*
G37*
G36*
X43449293Y-88196233D02*
G01*
X43621694Y-88248531D01*
X43780583Y-88333458D01*
X43919849Y-88447751D01*
X44034142Y-88587017D01*
X44119069Y-88745905D01*
X44171367Y-88918306D01*
X44184600Y-89052669D01*
X44184600Y-89447330D01*
X44171367Y-89581693D01*
X44119069Y-89754094D01*
X44034142Y-89912983D01*
X43919849Y-90052249D01*
X43780583Y-90166542D01*
X43621695Y-90251469D01*
X43449294Y-90303767D01*
X43270000Y-90321425D01*
X43090707Y-90303767D01*
X42918306Y-90251469D01*
X42759418Y-90166542D01*
X42620152Y-90052249D01*
X42505858Y-89912982D01*
X42420931Y-89754095D01*
X42368633Y-89581694D01*
X42355400Y-89447331D01*
X42355400Y-89052670D01*
X42368633Y-88918307D01*
X42420931Y-88745906D01*
X42505858Y-88587017D01*
X42620151Y-88447751D01*
X42759417Y-88333458D01*
X42918305Y-88248531D01*
X43090706Y-88196233D01*
X43270000Y-88178575D01*
X43449293Y-88196233D01*
G37*
G36*
X40909293Y-88196233D02*
G01*
X41081694Y-88248531D01*
X41240583Y-88333458D01*
X41379849Y-88447751D01*
X41494142Y-88587017D01*
X41579069Y-88745905D01*
X41631367Y-88918306D01*
X41644600Y-89052669D01*
X41644600Y-89447330D01*
X41631367Y-89581693D01*
X41579069Y-89754094D01*
X41494142Y-89912983D01*
X41379849Y-90052249D01*
X41240583Y-90166542D01*
X41081695Y-90251469D01*
X40909294Y-90303767D01*
X40730000Y-90321425D01*
X40550707Y-90303767D01*
X40378306Y-90251469D01*
X40219418Y-90166542D01*
X40080152Y-90052249D01*
X39965858Y-89912982D01*
X39880931Y-89754095D01*
X39828633Y-89581694D01*
X39815400Y-89447331D01*
X39815400Y-89052670D01*
X39828633Y-88918307D01*
X39880931Y-88745906D01*
X39965858Y-88587017D01*
X40080151Y-88447751D01*
X40219417Y-88333458D01*
X40378305Y-88248531D01*
X40550706Y-88196233D01*
X40730000Y-88178575D01*
X40909293Y-88196233D01*
G37*
G36*
X45989293Y-88196233D02*
G01*
X46161694Y-88248531D01*
X46320583Y-88333458D01*
X46459849Y-88447751D01*
X46574142Y-88587017D01*
X46659069Y-88745905D01*
X46711367Y-88918306D01*
X46724600Y-89052669D01*
X46724600Y-89447330D01*
X46711367Y-89581693D01*
X46659069Y-89754094D01*
X46574142Y-89912983D01*
X46459849Y-90052249D01*
X46320583Y-90166542D01*
X46161695Y-90251469D01*
X45989294Y-90303767D01*
X45810000Y-90321425D01*
X45630707Y-90303767D01*
X45458306Y-90251469D01*
X45299418Y-90166542D01*
X45160152Y-90052249D01*
X45045858Y-89912982D01*
X44960931Y-89754095D01*
X44908633Y-89581694D01*
X44895400Y-89447331D01*
X44895400Y-89052670D01*
X44908633Y-88918307D01*
X44960931Y-88745906D01*
X45045858Y-88587017D01*
X45160151Y-88447751D01*
X45299417Y-88333458D01*
X45458305Y-88248531D01*
X45630706Y-88196233D01*
X45810000Y-88178575D01*
X45989293Y-88196233D01*
G37*
G36*
X39104600Y-90317000D02*
G01*
X37275400Y-90317000D01*
X37275400Y-88183000D01*
X39104600Y-88183000D01*
X39104600Y-90317000D01*
G37*
G36*
X58113512Y-86563927D02*
G01*
X58262812Y-86593624D01*
X58426784Y-86661544D01*
X58574354Y-86760147D01*
X58699853Y-86885646D01*
X58798456Y-87033216D01*
X58866376Y-87197188D01*
X58901000Y-87371259D01*
X58901000Y-87548741D01*
X58866376Y-87722812D01*
X58798456Y-87886784D01*
X58699853Y-88034354D01*
X58574354Y-88159853D01*
X58426784Y-88258456D01*
X58262812Y-88326376D01*
X58113512Y-88356073D01*
X58088742Y-88361000D01*
X57911258Y-88361000D01*
X57886488Y-88356073D01*
X57737188Y-88326376D01*
X57573216Y-88258456D01*
X57425646Y-88159853D01*
X57300147Y-88034354D01*
X57201544Y-87886784D01*
X57133624Y-87722812D01*
X57099000Y-87548741D01*
X57099000Y-87371259D01*
X57133624Y-87197188D01*
X57201544Y-87033216D01*
X57300147Y-86885646D01*
X57425646Y-86760147D01*
X57573216Y-86661544D01*
X57737188Y-86593624D01*
X57886488Y-86563927D01*
X57911258Y-86559000D01*
X58088742Y-86559000D01*
X58113512Y-86563927D01*
G37*
G36*
X117193512Y-85643927D02*
G01*
X117342812Y-85673624D01*
X117506784Y-85741544D01*
X117654354Y-85840147D01*
X117779853Y-85965646D01*
X117878456Y-86113216D01*
X117946376Y-86277188D01*
X117981000Y-86451259D01*
X117981000Y-86628741D01*
X117946376Y-86802812D01*
X117878456Y-86966784D01*
X117779853Y-87114354D01*
X117654354Y-87239853D01*
X117506784Y-87338456D01*
X117342812Y-87406376D01*
X117193512Y-87436073D01*
X117168742Y-87441000D01*
X116991258Y-87441000D01*
X116966488Y-87436073D01*
X116817188Y-87406376D01*
X116653216Y-87338456D01*
X116505646Y-87239853D01*
X116380147Y-87114354D01*
X116281544Y-86966784D01*
X116213624Y-86802812D01*
X116179000Y-86628741D01*
X116179000Y-86451259D01*
X116213624Y-86277188D01*
X116281544Y-86113216D01*
X116380147Y-85965646D01*
X116505646Y-85840147D01*
X116653216Y-85741544D01*
X116817188Y-85673624D01*
X116966488Y-85643927D01*
X116991258Y-85639000D01*
X117168742Y-85639000D01*
X117193512Y-85643927D01*
G37*
G36*
X112113512Y-85643927D02*
G01*
X112262812Y-85673624D01*
X112426784Y-85741544D01*
X112574354Y-85840147D01*
X112699853Y-85965646D01*
X112798456Y-86113216D01*
X112866376Y-86277188D01*
X112901000Y-86451259D01*
X112901000Y-86628741D01*
X112866376Y-86802812D01*
X112798456Y-86966784D01*
X112699853Y-87114354D01*
X112574354Y-87239853D01*
X112426784Y-87338456D01*
X112262812Y-87406376D01*
X112113512Y-87436073D01*
X112088742Y-87441000D01*
X111911258Y-87441000D01*
X111886488Y-87436073D01*
X111737188Y-87406376D01*
X111573216Y-87338456D01*
X111425646Y-87239853D01*
X111300147Y-87114354D01*
X111201544Y-86966784D01*
X111133624Y-86802812D01*
X111099000Y-86628741D01*
X111099000Y-86451259D01*
X111133624Y-86277188D01*
X111201544Y-86113216D01*
X111300147Y-85965646D01*
X111425646Y-85840147D01*
X111573216Y-85741544D01*
X111737188Y-85673624D01*
X111886488Y-85643927D01*
X111911258Y-85639000D01*
X112088742Y-85639000D01*
X112113512Y-85643927D01*
G37*
G36*
X114653512Y-85643927D02*
G01*
X114802812Y-85673624D01*
X114966784Y-85741544D01*
X115114354Y-85840147D01*
X115239853Y-85965646D01*
X115338456Y-86113216D01*
X115406376Y-86277188D01*
X115441000Y-86451259D01*
X115441000Y-86628741D01*
X115406376Y-86802812D01*
X115338456Y-86966784D01*
X115239853Y-87114354D01*
X115114354Y-87239853D01*
X114966784Y-87338456D01*
X114802812Y-87406376D01*
X114653512Y-87436073D01*
X114628742Y-87441000D01*
X114451258Y-87441000D01*
X114426488Y-87436073D01*
X114277188Y-87406376D01*
X114113216Y-87338456D01*
X113965646Y-87239853D01*
X113840147Y-87114354D01*
X113741544Y-86966784D01*
X113673624Y-86802812D01*
X113639000Y-86628741D01*
X113639000Y-86451259D01*
X113673624Y-86277188D01*
X113741544Y-86113216D01*
X113840147Y-85965646D01*
X113965646Y-85840147D01*
X114113216Y-85741544D01*
X114277188Y-85673624D01*
X114426488Y-85643927D01*
X114451258Y-85639000D01*
X114628742Y-85639000D01*
X114653512Y-85643927D01*
G37*
G36*
X65873512Y-85643927D02*
G01*
X66022812Y-85673624D01*
X66186784Y-85741544D01*
X66334354Y-85840147D01*
X66459853Y-85965646D01*
X66558456Y-86113216D01*
X66626376Y-86277188D01*
X66661000Y-86451259D01*
X66661000Y-86628741D01*
X66626376Y-86802812D01*
X66558456Y-86966784D01*
X66459853Y-87114354D01*
X66334354Y-87239853D01*
X66186784Y-87338456D01*
X66022812Y-87406376D01*
X65873512Y-87436073D01*
X65848742Y-87441000D01*
X65671258Y-87441000D01*
X65646488Y-87436073D01*
X65497188Y-87406376D01*
X65333216Y-87338456D01*
X65185646Y-87239853D01*
X65060147Y-87114354D01*
X64961544Y-86966784D01*
X64893624Y-86802812D01*
X64859000Y-86628741D01*
X64859000Y-86451259D01*
X64893624Y-86277188D01*
X64961544Y-86113216D01*
X65060147Y-85965646D01*
X65185646Y-85840147D01*
X65333216Y-85741544D01*
X65497188Y-85673624D01*
X65646488Y-85643927D01*
X65671258Y-85639000D01*
X65848742Y-85639000D01*
X65873512Y-85643927D01*
G37*
G36*
X78573512Y-85643927D02*
G01*
X78722812Y-85673624D01*
X78886784Y-85741544D01*
X79034354Y-85840147D01*
X79159853Y-85965646D01*
X79258456Y-86113216D01*
X79326376Y-86277188D01*
X79361000Y-86451259D01*
X79361000Y-86628741D01*
X79326376Y-86802812D01*
X79258456Y-86966784D01*
X79159853Y-87114354D01*
X79034354Y-87239853D01*
X78886784Y-87338456D01*
X78722812Y-87406376D01*
X78573512Y-87436073D01*
X78548742Y-87441000D01*
X78371258Y-87441000D01*
X78346488Y-87436073D01*
X78197188Y-87406376D01*
X78033216Y-87338456D01*
X77885646Y-87239853D01*
X77760147Y-87114354D01*
X77661544Y-86966784D01*
X77593624Y-86802812D01*
X77559000Y-86628741D01*
X77559000Y-86451259D01*
X77593624Y-86277188D01*
X77661544Y-86113216D01*
X77760147Y-85965646D01*
X77885646Y-85840147D01*
X78033216Y-85741544D01*
X78197188Y-85673624D01*
X78346488Y-85643927D01*
X78371258Y-85639000D01*
X78548742Y-85639000D01*
X78573512Y-85643927D01*
G37*
G36*
X81113512Y-85643927D02*
G01*
X81262812Y-85673624D01*
X81426784Y-85741544D01*
X81574354Y-85840147D01*
X81699853Y-85965646D01*
X81798456Y-86113216D01*
X81866376Y-86277188D01*
X81901000Y-86451259D01*
X81901000Y-86628741D01*
X81866376Y-86802812D01*
X81798456Y-86966784D01*
X81699853Y-87114354D01*
X81574354Y-87239853D01*
X81426784Y-87338456D01*
X81262812Y-87406376D01*
X81113512Y-87436073D01*
X81088742Y-87441000D01*
X80911258Y-87441000D01*
X80886488Y-87436073D01*
X80737188Y-87406376D01*
X80573216Y-87338456D01*
X80425646Y-87239853D01*
X80300147Y-87114354D01*
X80201544Y-86966784D01*
X80133624Y-86802812D01*
X80099000Y-86628741D01*
X80099000Y-86451259D01*
X80133624Y-86277188D01*
X80201544Y-86113216D01*
X80300147Y-85965646D01*
X80425646Y-85840147D01*
X80573216Y-85741544D01*
X80737188Y-85673624D01*
X80886488Y-85643927D01*
X80911258Y-85639000D01*
X81088742Y-85639000D01*
X81113512Y-85643927D01*
G37*
G36*
X70953512Y-85643927D02*
G01*
X71102812Y-85673624D01*
X71266784Y-85741544D01*
X71414354Y-85840147D01*
X71539853Y-85965646D01*
X71638456Y-86113216D01*
X71706376Y-86277188D01*
X71741000Y-86451259D01*
X71741000Y-86628741D01*
X71706376Y-86802812D01*
X71638456Y-86966784D01*
X71539853Y-87114354D01*
X71414354Y-87239853D01*
X71266784Y-87338456D01*
X71102812Y-87406376D01*
X70953512Y-87436073D01*
X70928742Y-87441000D01*
X70751258Y-87441000D01*
X70726488Y-87436073D01*
X70577188Y-87406376D01*
X70413216Y-87338456D01*
X70265646Y-87239853D01*
X70140147Y-87114354D01*
X70041544Y-86966784D01*
X69973624Y-86802812D01*
X69939000Y-86628741D01*
X69939000Y-86451259D01*
X69973624Y-86277188D01*
X70041544Y-86113216D01*
X70140147Y-85965646D01*
X70265646Y-85840147D01*
X70413216Y-85741544D01*
X70577188Y-85673624D01*
X70726488Y-85643927D01*
X70751258Y-85639000D01*
X70928742Y-85639000D01*
X70953512Y-85643927D01*
G37*
G36*
X119733512Y-85643927D02*
G01*
X119882812Y-85673624D01*
X120046784Y-85741544D01*
X120194354Y-85840147D01*
X120319853Y-85965646D01*
X120418456Y-86113216D01*
X120486376Y-86277188D01*
X120521000Y-86451259D01*
X120521000Y-86628741D01*
X120486376Y-86802812D01*
X120418456Y-86966784D01*
X120319853Y-87114354D01*
X120194354Y-87239853D01*
X120046784Y-87338456D01*
X119882812Y-87406376D01*
X119733512Y-87436073D01*
X119708742Y-87441000D01*
X119531258Y-87441000D01*
X119506488Y-87436073D01*
X119357188Y-87406376D01*
X119193216Y-87338456D01*
X119045646Y-87239853D01*
X118920147Y-87114354D01*
X118821544Y-86966784D01*
X118753624Y-86802812D01*
X118719000Y-86628741D01*
X118719000Y-86451259D01*
X118753624Y-86277188D01*
X118821544Y-86113216D01*
X118920147Y-85965646D01*
X119045646Y-85840147D01*
X119193216Y-85741544D01*
X119357188Y-85673624D01*
X119506488Y-85643927D01*
X119531258Y-85639000D01*
X119708742Y-85639000D01*
X119733512Y-85643927D01*
G37*
G36*
X73493512Y-85643927D02*
G01*
X73642812Y-85673624D01*
X73806784Y-85741544D01*
X73954354Y-85840147D01*
X74079853Y-85965646D01*
X74178456Y-86113216D01*
X74246376Y-86277188D01*
X74281000Y-86451259D01*
X74281000Y-86628741D01*
X74246376Y-86802812D01*
X74178456Y-86966784D01*
X74079853Y-87114354D01*
X73954354Y-87239853D01*
X73806784Y-87338456D01*
X73642812Y-87406376D01*
X73493512Y-87436073D01*
X73468742Y-87441000D01*
X73291258Y-87441000D01*
X73266488Y-87436073D01*
X73117188Y-87406376D01*
X72953216Y-87338456D01*
X72805646Y-87239853D01*
X72680147Y-87114354D01*
X72581544Y-86966784D01*
X72513624Y-86802812D01*
X72479000Y-86628741D01*
X72479000Y-86451259D01*
X72513624Y-86277188D01*
X72581544Y-86113216D01*
X72680147Y-85965646D01*
X72805646Y-85840147D01*
X72953216Y-85741544D01*
X73117188Y-85673624D01*
X73266488Y-85643927D01*
X73291258Y-85639000D01*
X73468742Y-85639000D01*
X73493512Y-85643927D01*
G37*
G36*
X68413512Y-85643927D02*
G01*
X68562812Y-85673624D01*
X68726784Y-85741544D01*
X68874354Y-85840147D01*
X68999853Y-85965646D01*
X69098456Y-86113216D01*
X69166376Y-86277188D01*
X69201000Y-86451259D01*
X69201000Y-86628741D01*
X69166376Y-86802812D01*
X69098456Y-86966784D01*
X68999853Y-87114354D01*
X68874354Y-87239853D01*
X68726784Y-87338456D01*
X68562812Y-87406376D01*
X68413512Y-87436073D01*
X68388742Y-87441000D01*
X68211258Y-87441000D01*
X68186488Y-87436073D01*
X68037188Y-87406376D01*
X67873216Y-87338456D01*
X67725646Y-87239853D01*
X67600147Y-87114354D01*
X67501544Y-86966784D01*
X67433624Y-86802812D01*
X67399000Y-86628741D01*
X67399000Y-86451259D01*
X67433624Y-86277188D01*
X67501544Y-86113216D01*
X67600147Y-85965646D01*
X67725646Y-85840147D01*
X67873216Y-85741544D01*
X68037188Y-85673624D01*
X68186488Y-85643927D01*
X68211258Y-85639000D01*
X68388742Y-85639000D01*
X68413512Y-85643927D01*
G37*
G36*
X76033512Y-85643927D02*
G01*
X76182812Y-85673624D01*
X76346784Y-85741544D01*
X76494354Y-85840147D01*
X76619853Y-85965646D01*
X76718456Y-86113216D01*
X76786376Y-86277188D01*
X76821000Y-86451259D01*
X76821000Y-86628741D01*
X76786376Y-86802812D01*
X76718456Y-86966784D01*
X76619853Y-87114354D01*
X76494354Y-87239853D01*
X76346784Y-87338456D01*
X76182812Y-87406376D01*
X76033512Y-87436073D01*
X76008742Y-87441000D01*
X75831258Y-87441000D01*
X75806488Y-87436073D01*
X75657188Y-87406376D01*
X75493216Y-87338456D01*
X75345646Y-87239853D01*
X75220147Y-87114354D01*
X75121544Y-86966784D01*
X75053624Y-86802812D01*
X75019000Y-86628741D01*
X75019000Y-86451259D01*
X75053624Y-86277188D01*
X75121544Y-86113216D01*
X75220147Y-85965646D01*
X75345646Y-85840147D01*
X75493216Y-85741544D01*
X75657188Y-85673624D01*
X75806488Y-85643927D01*
X75831258Y-85639000D01*
X76008742Y-85639000D01*
X76033512Y-85643927D01*
G37*
G36*
X89125589Y-85318876D02*
G01*
X89224893Y-85338629D01*
X89365206Y-85396748D01*
X89491484Y-85481125D01*
X89598875Y-85588516D01*
X89683252Y-85714794D01*
X89741371Y-85855107D01*
X89771000Y-86004063D01*
X89771000Y-86155937D01*
X89741371Y-86304893D01*
X89683252Y-86445206D01*
X89598875Y-86571484D01*
X89491484Y-86678875D01*
X89365206Y-86763252D01*
X89224893Y-86821371D01*
X89125589Y-86841124D01*
X89075938Y-86851000D01*
X88924062Y-86851000D01*
X88874411Y-86841124D01*
X88775107Y-86821371D01*
X88634794Y-86763252D01*
X88508516Y-86678875D01*
X88401125Y-86571484D01*
X88316748Y-86445206D01*
X88258629Y-86304893D01*
X88229000Y-86155937D01*
X88229000Y-86004063D01*
X88258629Y-85855107D01*
X88316748Y-85714794D01*
X88401125Y-85588516D01*
X88508516Y-85481125D01*
X88634794Y-85396748D01*
X88775107Y-85338629D01*
X88874411Y-85318876D01*
X88924062Y-85309000D01*
X89075938Y-85309000D01*
X89125589Y-85318876D01*
G37*
G36*
X58113512Y-84023927D02*
G01*
X58262812Y-84053624D01*
X58426784Y-84121544D01*
X58574354Y-84220147D01*
X58699853Y-84345646D01*
X58798456Y-84493216D01*
X58866376Y-84657188D01*
X58901000Y-84831259D01*
X58901000Y-85008741D01*
X58866376Y-85182812D01*
X58798456Y-85346784D01*
X58699853Y-85494354D01*
X58574354Y-85619853D01*
X58426784Y-85718456D01*
X58262812Y-85786376D01*
X58113512Y-85816073D01*
X58088742Y-85821000D01*
X57911258Y-85821000D01*
X57886488Y-85816073D01*
X57737188Y-85786376D01*
X57573216Y-85718456D01*
X57425646Y-85619853D01*
X57300147Y-85494354D01*
X57201544Y-85346784D01*
X57133624Y-85182812D01*
X57099000Y-85008741D01*
X57099000Y-84831259D01*
X57133624Y-84657188D01*
X57201544Y-84493216D01*
X57300147Y-84345646D01*
X57425646Y-84220147D01*
X57573216Y-84121544D01*
X57737188Y-84053624D01*
X57886488Y-84023927D01*
X57911258Y-84019000D01*
X58088742Y-84019000D01*
X58113512Y-84023927D01*
G37*
G36*
X68413512Y-83103927D02*
G01*
X68562812Y-83133624D01*
X68726784Y-83201544D01*
X68874354Y-83300147D01*
X68999853Y-83425646D01*
X69098456Y-83573216D01*
X69166376Y-83737188D01*
X69201000Y-83911259D01*
X69201000Y-84088741D01*
X69166376Y-84262812D01*
X69098456Y-84426784D01*
X68999853Y-84574354D01*
X68874354Y-84699853D01*
X68726784Y-84798456D01*
X68562812Y-84866376D01*
X68413512Y-84896073D01*
X68388742Y-84901000D01*
X68211258Y-84901000D01*
X68186488Y-84896073D01*
X68037188Y-84866376D01*
X67873216Y-84798456D01*
X67725646Y-84699853D01*
X67600147Y-84574354D01*
X67501544Y-84426784D01*
X67433624Y-84262812D01*
X67399000Y-84088741D01*
X67399000Y-83911259D01*
X67433624Y-83737188D01*
X67501544Y-83573216D01*
X67600147Y-83425646D01*
X67725646Y-83300147D01*
X67873216Y-83201544D01*
X68037188Y-83133624D01*
X68186488Y-83103927D01*
X68211258Y-83099000D01*
X68388742Y-83099000D01*
X68413512Y-83103927D01*
G37*
G36*
X65873512Y-83103927D02*
G01*
X66022812Y-83133624D01*
X66186784Y-83201544D01*
X66334354Y-83300147D01*
X66459853Y-83425646D01*
X66558456Y-83573216D01*
X66626376Y-83737188D01*
X66661000Y-83911259D01*
X66661000Y-84088741D01*
X66626376Y-84262812D01*
X66558456Y-84426784D01*
X66459853Y-84574354D01*
X66334354Y-84699853D01*
X66186784Y-84798456D01*
X66022812Y-84866376D01*
X65873512Y-84896073D01*
X65848742Y-84901000D01*
X65671258Y-84901000D01*
X65646488Y-84896073D01*
X65497188Y-84866376D01*
X65333216Y-84798456D01*
X65185646Y-84699853D01*
X65060147Y-84574354D01*
X64961544Y-84426784D01*
X64893624Y-84262812D01*
X64859000Y-84088741D01*
X64859000Y-83911259D01*
X64893624Y-83737188D01*
X64961544Y-83573216D01*
X65060147Y-83425646D01*
X65185646Y-83300147D01*
X65333216Y-83201544D01*
X65497188Y-83133624D01*
X65646488Y-83103927D01*
X65671258Y-83099000D01*
X65848742Y-83099000D01*
X65873512Y-83103927D01*
G37*
G36*
X114653512Y-83103927D02*
G01*
X114802812Y-83133624D01*
X114966784Y-83201544D01*
X115114354Y-83300147D01*
X115239853Y-83425646D01*
X115338456Y-83573216D01*
X115406376Y-83737188D01*
X115441000Y-83911259D01*
X115441000Y-84088741D01*
X115406376Y-84262812D01*
X115338456Y-84426784D01*
X115239853Y-84574354D01*
X115114354Y-84699853D01*
X114966784Y-84798456D01*
X114802812Y-84866376D01*
X114653512Y-84896073D01*
X114628742Y-84901000D01*
X114451258Y-84901000D01*
X114426488Y-84896073D01*
X114277188Y-84866376D01*
X114113216Y-84798456D01*
X113965646Y-84699853D01*
X113840147Y-84574354D01*
X113741544Y-84426784D01*
X113673624Y-84262812D01*
X113639000Y-84088741D01*
X113639000Y-83911259D01*
X113673624Y-83737188D01*
X113741544Y-83573216D01*
X113840147Y-83425646D01*
X113965646Y-83300147D01*
X114113216Y-83201544D01*
X114277188Y-83133624D01*
X114426488Y-83103927D01*
X114451258Y-83099000D01*
X114628742Y-83099000D01*
X114653512Y-83103927D01*
G37*
G36*
X117193512Y-83103927D02*
G01*
X117342812Y-83133624D01*
X117506784Y-83201544D01*
X117654354Y-83300147D01*
X117779853Y-83425646D01*
X117878456Y-83573216D01*
X117946376Y-83737188D01*
X117981000Y-83911259D01*
X117981000Y-84088741D01*
X117946376Y-84262812D01*
X117878456Y-84426784D01*
X117779853Y-84574354D01*
X117654354Y-84699853D01*
X117506784Y-84798456D01*
X117342812Y-84866376D01*
X117193512Y-84896073D01*
X117168742Y-84901000D01*
X116991258Y-84901000D01*
X116966488Y-84896073D01*
X116817188Y-84866376D01*
X116653216Y-84798456D01*
X116505646Y-84699853D01*
X116380147Y-84574354D01*
X116281544Y-84426784D01*
X116213624Y-84262812D01*
X116179000Y-84088741D01*
X116179000Y-83911259D01*
X116213624Y-83737188D01*
X116281544Y-83573216D01*
X116380147Y-83425646D01*
X116505646Y-83300147D01*
X116653216Y-83201544D01*
X116817188Y-83133624D01*
X116966488Y-83103927D01*
X116991258Y-83099000D01*
X117168742Y-83099000D01*
X117193512Y-83103927D01*
G37*
G36*
X119733512Y-83103927D02*
G01*
X119882812Y-83133624D01*
X120046784Y-83201544D01*
X120194354Y-83300147D01*
X120319853Y-83425646D01*
X120418456Y-83573216D01*
X120486376Y-83737188D01*
X120521000Y-83911259D01*
X120521000Y-84088741D01*
X120486376Y-84262812D01*
X120418456Y-84426784D01*
X120319853Y-84574354D01*
X120194354Y-84699853D01*
X120046784Y-84798456D01*
X119882812Y-84866376D01*
X119733512Y-84896073D01*
X119708742Y-84901000D01*
X119531258Y-84901000D01*
X119506488Y-84896073D01*
X119357188Y-84866376D01*
X119193216Y-84798456D01*
X119045646Y-84699853D01*
X118920147Y-84574354D01*
X118821544Y-84426784D01*
X118753624Y-84262812D01*
X118719000Y-84088741D01*
X118719000Y-83911259D01*
X118753624Y-83737188D01*
X118821544Y-83573216D01*
X118920147Y-83425646D01*
X119045646Y-83300147D01*
X119193216Y-83201544D01*
X119357188Y-83133624D01*
X119506488Y-83103927D01*
X119531258Y-83099000D01*
X119708742Y-83099000D01*
X119733512Y-83103927D01*
G37*
G36*
X112901000Y-84901000D02*
G01*
X111099000Y-84901000D01*
X111099000Y-83099000D01*
X112901000Y-83099000D01*
X112901000Y-84901000D01*
G37*
G36*
X73493512Y-83103927D02*
G01*
X73642812Y-83133624D01*
X73806784Y-83201544D01*
X73954354Y-83300147D01*
X74079853Y-83425646D01*
X74178456Y-83573216D01*
X74246376Y-83737188D01*
X74281000Y-83911259D01*
X74281000Y-84088741D01*
X74246376Y-84262812D01*
X74178456Y-84426784D01*
X74079853Y-84574354D01*
X73954354Y-84699853D01*
X73806784Y-84798456D01*
X73642812Y-84866376D01*
X73493512Y-84896073D01*
X73468742Y-84901000D01*
X73291258Y-84901000D01*
X73266488Y-84896073D01*
X73117188Y-84866376D01*
X72953216Y-84798456D01*
X72805646Y-84699853D01*
X72680147Y-84574354D01*
X72581544Y-84426784D01*
X72513624Y-84262812D01*
X72479000Y-84088741D01*
X72479000Y-83911259D01*
X72513624Y-83737188D01*
X72581544Y-83573216D01*
X72680147Y-83425646D01*
X72805646Y-83300147D01*
X72953216Y-83201544D01*
X73117188Y-83133624D01*
X73266488Y-83103927D01*
X73291258Y-83099000D01*
X73468742Y-83099000D01*
X73493512Y-83103927D01*
G37*
G36*
X70953512Y-83103927D02*
G01*
X71102812Y-83133624D01*
X71266784Y-83201544D01*
X71414354Y-83300147D01*
X71539853Y-83425646D01*
X71638456Y-83573216D01*
X71706376Y-83737188D01*
X71741000Y-83911259D01*
X71741000Y-84088741D01*
X71706376Y-84262812D01*
X71638456Y-84426784D01*
X71539853Y-84574354D01*
X71414354Y-84699853D01*
X71266784Y-84798456D01*
X71102812Y-84866376D01*
X70953512Y-84896073D01*
X70928742Y-84901000D01*
X70751258Y-84901000D01*
X70726488Y-84896073D01*
X70577188Y-84866376D01*
X70413216Y-84798456D01*
X70265646Y-84699853D01*
X70140147Y-84574354D01*
X70041544Y-84426784D01*
X69973624Y-84262812D01*
X69939000Y-84088741D01*
X69939000Y-83911259D01*
X69973624Y-83737188D01*
X70041544Y-83573216D01*
X70140147Y-83425646D01*
X70265646Y-83300147D01*
X70413216Y-83201544D01*
X70577188Y-83133624D01*
X70726488Y-83103927D01*
X70751258Y-83099000D01*
X70928742Y-83099000D01*
X70953512Y-83103927D01*
G37*
G36*
X81901000Y-84901000D02*
G01*
X80099000Y-84901000D01*
X80099000Y-83099000D01*
X81901000Y-83099000D01*
X81901000Y-84901000D01*
G37*
G36*
X76033512Y-83103927D02*
G01*
X76182812Y-83133624D01*
X76346784Y-83201544D01*
X76494354Y-83300147D01*
X76619853Y-83425646D01*
X76718456Y-83573216D01*
X76786376Y-83737188D01*
X76821000Y-83911259D01*
X76821000Y-84088741D01*
X76786376Y-84262812D01*
X76718456Y-84426784D01*
X76619853Y-84574354D01*
X76494354Y-84699853D01*
X76346784Y-84798456D01*
X76182812Y-84866376D01*
X76033512Y-84896073D01*
X76008742Y-84901000D01*
X75831258Y-84901000D01*
X75806488Y-84896073D01*
X75657188Y-84866376D01*
X75493216Y-84798456D01*
X75345646Y-84699853D01*
X75220147Y-84574354D01*
X75121544Y-84426784D01*
X75053624Y-84262812D01*
X75019000Y-84088741D01*
X75019000Y-83911259D01*
X75053624Y-83737188D01*
X75121544Y-83573216D01*
X75220147Y-83425646D01*
X75345646Y-83300147D01*
X75493216Y-83201544D01*
X75657188Y-83133624D01*
X75806488Y-83103927D01*
X75831258Y-83099000D01*
X76008742Y-83099000D01*
X76033512Y-83103927D01*
G37*
G36*
X78573512Y-83103927D02*
G01*
X78722812Y-83133624D01*
X78886784Y-83201544D01*
X79034354Y-83300147D01*
X79159853Y-83425646D01*
X79258456Y-83573216D01*
X79326376Y-83737188D01*
X79361000Y-83911259D01*
X79361000Y-84088741D01*
X79326376Y-84262812D01*
X79258456Y-84426784D01*
X79159853Y-84574354D01*
X79034354Y-84699853D01*
X78886784Y-84798456D01*
X78722812Y-84866376D01*
X78573512Y-84896073D01*
X78548742Y-84901000D01*
X78371258Y-84901000D01*
X78346488Y-84896073D01*
X78197188Y-84866376D01*
X78033216Y-84798456D01*
X77885646Y-84699853D01*
X77760147Y-84574354D01*
X77661544Y-84426784D01*
X77593624Y-84262812D01*
X77559000Y-84088741D01*
X77559000Y-83911259D01*
X77593624Y-83737188D01*
X77661544Y-83573216D01*
X77760147Y-83425646D01*
X77885646Y-83300147D01*
X78033216Y-83201544D01*
X78197188Y-83133624D01*
X78346488Y-83103927D01*
X78371258Y-83099000D01*
X78548742Y-83099000D01*
X78573512Y-83103927D01*
G37*
G36*
X51113512Y-82803927D02*
G01*
X51262812Y-82833624D01*
X51426784Y-82901544D01*
X51574354Y-83000147D01*
X51699853Y-83125646D01*
X51798456Y-83273216D01*
X51866376Y-83437188D01*
X51901000Y-83611259D01*
X51901000Y-83788741D01*
X51866376Y-83962812D01*
X51798456Y-84126784D01*
X51699853Y-84274354D01*
X51574354Y-84399853D01*
X51426784Y-84498456D01*
X51262812Y-84566376D01*
X51113512Y-84596073D01*
X51088742Y-84601000D01*
X50911258Y-84601000D01*
X50886488Y-84596073D01*
X50737188Y-84566376D01*
X50573216Y-84498456D01*
X50425646Y-84399853D01*
X50300147Y-84274354D01*
X50201544Y-84126784D01*
X50133624Y-83962812D01*
X50099000Y-83788741D01*
X50099000Y-83611259D01*
X50133624Y-83437188D01*
X50201544Y-83273216D01*
X50300147Y-83125646D01*
X50425646Y-83000147D01*
X50573216Y-82901544D01*
X50737188Y-82833624D01*
X50886488Y-82803927D01*
X50911258Y-82799000D01*
X51088742Y-82799000D01*
X51113512Y-82803927D01*
G37*
G36*
X89125589Y-82778876D02*
G01*
X89224893Y-82798629D01*
X89365206Y-82856748D01*
X89491484Y-82941125D01*
X89598875Y-83048516D01*
X89683252Y-83174794D01*
X89741371Y-83315107D01*
X89746882Y-83342812D01*
X89765655Y-83437189D01*
X89771000Y-83464063D01*
X89771000Y-83615937D01*
X89741371Y-83764893D01*
X89683252Y-83905206D01*
X89598875Y-84031484D01*
X89491484Y-84138875D01*
X89365206Y-84223252D01*
X89224893Y-84281371D01*
X89125589Y-84301124D01*
X89075938Y-84311000D01*
X88924062Y-84311000D01*
X88874411Y-84301124D01*
X88775107Y-84281371D01*
X88634794Y-84223252D01*
X88508516Y-84138875D01*
X88401125Y-84031484D01*
X88316748Y-83905206D01*
X88258629Y-83764893D01*
X88229000Y-83615937D01*
X88229000Y-83464063D01*
X88234346Y-83437189D01*
X88253118Y-83342812D01*
X88258629Y-83315107D01*
X88316748Y-83174794D01*
X88401125Y-83048516D01*
X88508516Y-82941125D01*
X88634794Y-82856748D01*
X88775107Y-82798629D01*
X88874411Y-82778876D01*
X88924062Y-82769000D01*
X89075938Y-82769000D01*
X89125589Y-82778876D01*
G37*
G36*
X101653512Y-82183927D02*
G01*
X101802812Y-82213624D01*
X101966784Y-82281544D01*
X102114354Y-82380147D01*
X102239853Y-82505646D01*
X102338456Y-82653216D01*
X102406376Y-82817188D01*
X102441000Y-82991259D01*
X102441000Y-83168741D01*
X102406376Y-83342812D01*
X102338456Y-83506784D01*
X102239853Y-83654354D01*
X102114354Y-83779853D01*
X101966784Y-83878456D01*
X101802812Y-83946376D01*
X101653512Y-83976073D01*
X101628742Y-83981000D01*
X101451258Y-83981000D01*
X101426488Y-83976073D01*
X101277188Y-83946376D01*
X101113216Y-83878456D01*
X100965646Y-83779853D01*
X100840147Y-83654354D01*
X100741544Y-83506784D01*
X100673624Y-83342812D01*
X100639000Y-83168741D01*
X100639000Y-82991259D01*
X100673624Y-82817188D01*
X100741544Y-82653216D01*
X100840147Y-82505646D01*
X100965646Y-82380147D01*
X101113216Y-82281544D01*
X101277188Y-82213624D01*
X101426488Y-82183927D01*
X101451258Y-82179000D01*
X101628742Y-82179000D01*
X101653512Y-82183927D01*
G37*
G36*
X99113512Y-82183927D02*
G01*
X99262812Y-82213624D01*
X99426784Y-82281544D01*
X99574354Y-82380147D01*
X99699853Y-82505646D01*
X99798456Y-82653216D01*
X99866376Y-82817188D01*
X99901000Y-82991259D01*
X99901000Y-83168741D01*
X99866376Y-83342812D01*
X99798456Y-83506784D01*
X99699853Y-83654354D01*
X99574354Y-83779853D01*
X99426784Y-83878456D01*
X99262812Y-83946376D01*
X99113512Y-83976073D01*
X99088742Y-83981000D01*
X98911258Y-83981000D01*
X98886488Y-83976073D01*
X98737188Y-83946376D01*
X98573216Y-83878456D01*
X98425646Y-83779853D01*
X98300147Y-83654354D01*
X98201544Y-83506784D01*
X98133624Y-83342812D01*
X98099000Y-83168741D01*
X98099000Y-82991259D01*
X98133624Y-82817188D01*
X98201544Y-82653216D01*
X98300147Y-82505646D01*
X98425646Y-82380147D01*
X98573216Y-82281544D01*
X98737188Y-82213624D01*
X98886488Y-82183927D01*
X98911258Y-82179000D01*
X99088742Y-82179000D01*
X99113512Y-82183927D01*
G37*
G36*
X58113512Y-81483927D02*
G01*
X58262812Y-81513624D01*
X58426784Y-81581544D01*
X58574354Y-81680147D01*
X58699853Y-81805646D01*
X58798456Y-81953216D01*
X58866376Y-82117188D01*
X58901000Y-82291259D01*
X58901000Y-82468741D01*
X58866376Y-82642812D01*
X58798456Y-82806784D01*
X58699853Y-82954354D01*
X58574354Y-83079853D01*
X58426784Y-83178456D01*
X58262812Y-83246376D01*
X58113512Y-83276073D01*
X58088742Y-83281000D01*
X57911258Y-83281000D01*
X57886488Y-83276073D01*
X57737188Y-83246376D01*
X57573216Y-83178456D01*
X57425646Y-83079853D01*
X57300147Y-82954354D01*
X57201544Y-82806784D01*
X57133624Y-82642812D01*
X57099000Y-82468741D01*
X57099000Y-82291259D01*
X57133624Y-82117188D01*
X57201544Y-81953216D01*
X57300147Y-81805646D01*
X57425646Y-81680147D01*
X57573216Y-81581544D01*
X57737188Y-81513624D01*
X57886488Y-81483927D01*
X57911258Y-81479000D01*
X58088742Y-81479000D01*
X58113512Y-81483927D01*
G37*
G36*
X51113512Y-80263927D02*
G01*
X51262812Y-80293624D01*
X51426784Y-80361544D01*
X51574354Y-80460147D01*
X51699853Y-80585646D01*
X51798456Y-80733216D01*
X51866376Y-80897188D01*
X51901000Y-81071259D01*
X51901000Y-81248741D01*
X51866376Y-81422812D01*
X51798456Y-81586784D01*
X51699853Y-81734354D01*
X51574354Y-81859853D01*
X51426784Y-81958456D01*
X51262812Y-82026376D01*
X51113512Y-82056073D01*
X51088742Y-82061000D01*
X50911258Y-82061000D01*
X50886488Y-82056073D01*
X50737188Y-82026376D01*
X50573216Y-81958456D01*
X50425646Y-81859853D01*
X50300147Y-81734354D01*
X50201544Y-81586784D01*
X50133624Y-81422812D01*
X50099000Y-81248741D01*
X50099000Y-81071259D01*
X50133624Y-80897188D01*
X50201544Y-80733216D01*
X50300147Y-80585646D01*
X50425646Y-80460147D01*
X50573216Y-80361544D01*
X50737188Y-80293624D01*
X50886488Y-80263927D01*
X50911258Y-80259000D01*
X51088742Y-80259000D01*
X51113512Y-80263927D01*
G37*
G36*
X89125589Y-80238876D02*
G01*
X89224893Y-80258629D01*
X89365206Y-80316748D01*
X89491484Y-80401125D01*
X89598875Y-80508516D01*
X89683252Y-80634794D01*
X89741371Y-80775107D01*
X89746882Y-80802812D01*
X89765655Y-80897189D01*
X89771000Y-80924063D01*
X89771000Y-81075937D01*
X89741371Y-81224893D01*
X89683252Y-81365206D01*
X89598875Y-81491484D01*
X89491484Y-81598875D01*
X89365206Y-81683252D01*
X89224893Y-81741371D01*
X89125589Y-81761124D01*
X89075938Y-81771000D01*
X88924062Y-81771000D01*
X88874411Y-81761124D01*
X88775107Y-81741371D01*
X88634794Y-81683252D01*
X88508516Y-81598875D01*
X88401125Y-81491484D01*
X88316748Y-81365206D01*
X88258629Y-81224893D01*
X88229000Y-81075937D01*
X88229000Y-80924063D01*
X88234346Y-80897189D01*
X88253118Y-80802812D01*
X88258629Y-80775107D01*
X88316748Y-80634794D01*
X88401125Y-80508516D01*
X88508516Y-80401125D01*
X88634794Y-80316748D01*
X88775107Y-80258629D01*
X88874411Y-80238876D01*
X88924062Y-80229000D01*
X89075938Y-80229000D01*
X89125589Y-80238876D01*
G37*
G36*
X99113512Y-79643927D02*
G01*
X99262812Y-79673624D01*
X99426784Y-79741544D01*
X99574354Y-79840147D01*
X99699853Y-79965646D01*
X99798456Y-80113216D01*
X99866376Y-80277188D01*
X99901000Y-80451259D01*
X99901000Y-80628741D01*
X99866376Y-80802812D01*
X99798456Y-80966784D01*
X99699853Y-81114354D01*
X99574354Y-81239853D01*
X99426784Y-81338456D01*
X99262812Y-81406376D01*
X99113512Y-81436073D01*
X99088742Y-81441000D01*
X98911258Y-81441000D01*
X98886488Y-81436073D01*
X98737188Y-81406376D01*
X98573216Y-81338456D01*
X98425646Y-81239853D01*
X98300147Y-81114354D01*
X98201544Y-80966784D01*
X98133624Y-80802812D01*
X98099000Y-80628741D01*
X98099000Y-80451259D01*
X98133624Y-80277188D01*
X98201544Y-80113216D01*
X98300147Y-79965646D01*
X98425646Y-79840147D01*
X98573216Y-79741544D01*
X98737188Y-79673624D01*
X98886488Y-79643927D01*
X98911258Y-79639000D01*
X99088742Y-79639000D01*
X99113512Y-79643927D01*
G37*
G36*
X101653512Y-79643927D02*
G01*
X101802812Y-79673624D01*
X101966784Y-79741544D01*
X102114354Y-79840147D01*
X102239853Y-79965646D01*
X102338456Y-80113216D01*
X102406376Y-80277188D01*
X102441000Y-80451259D01*
X102441000Y-80628741D01*
X102406376Y-80802812D01*
X102338456Y-80966784D01*
X102239853Y-81114354D01*
X102114354Y-81239853D01*
X101966784Y-81338456D01*
X101802812Y-81406376D01*
X101653512Y-81436073D01*
X101628742Y-81441000D01*
X101451258Y-81441000D01*
X101426488Y-81436073D01*
X101277188Y-81406376D01*
X101113216Y-81338456D01*
X100965646Y-81239853D01*
X100840147Y-81114354D01*
X100741544Y-80966784D01*
X100673624Y-80802812D01*
X100639000Y-80628741D01*
X100639000Y-80451259D01*
X100673624Y-80277188D01*
X100741544Y-80113216D01*
X100840147Y-79965646D01*
X100965646Y-79840147D01*
X101113216Y-79741544D01*
X101277188Y-79673624D01*
X101426488Y-79643927D01*
X101451258Y-79639000D01*
X101628742Y-79639000D01*
X101653512Y-79643927D01*
G37*
G36*
X58113512Y-78943927D02*
G01*
X58262812Y-78973624D01*
X58426784Y-79041544D01*
X58574354Y-79140147D01*
X58699853Y-79265646D01*
X58798456Y-79413216D01*
X58866376Y-79577188D01*
X58901000Y-79751259D01*
X58901000Y-79928741D01*
X58866376Y-80102812D01*
X58798456Y-80266784D01*
X58699853Y-80414354D01*
X58574354Y-80539853D01*
X58426784Y-80638456D01*
X58262812Y-80706376D01*
X58113512Y-80736073D01*
X58088742Y-80741000D01*
X57911258Y-80741000D01*
X57886488Y-80736073D01*
X57737188Y-80706376D01*
X57573216Y-80638456D01*
X57425646Y-80539853D01*
X57300147Y-80414354D01*
X57201544Y-80266784D01*
X57133624Y-80102812D01*
X57099000Y-79928741D01*
X57099000Y-79751259D01*
X57133624Y-79577188D01*
X57201544Y-79413216D01*
X57300147Y-79265646D01*
X57425646Y-79140147D01*
X57573216Y-79041544D01*
X57737188Y-78973624D01*
X57886488Y-78943927D01*
X57911258Y-78939000D01*
X58088742Y-78939000D01*
X58113512Y-78943927D01*
G37*
G36*
X51113512Y-77723927D02*
G01*
X51262812Y-77753624D01*
X51426784Y-77821544D01*
X51574354Y-77920147D01*
X51699853Y-78045646D01*
X51798456Y-78193216D01*
X51866376Y-78357188D01*
X51901000Y-78531259D01*
X51901000Y-78708741D01*
X51866376Y-78882812D01*
X51798456Y-79046784D01*
X51699853Y-79194354D01*
X51574354Y-79319853D01*
X51426784Y-79418456D01*
X51262812Y-79486376D01*
X51113512Y-79516073D01*
X51088742Y-79521000D01*
X50911258Y-79521000D01*
X50886488Y-79516073D01*
X50737188Y-79486376D01*
X50573216Y-79418456D01*
X50425646Y-79319853D01*
X50300147Y-79194354D01*
X50201544Y-79046784D01*
X50133624Y-78882812D01*
X50099000Y-78708741D01*
X50099000Y-78531259D01*
X50133624Y-78357188D01*
X50201544Y-78193216D01*
X50300147Y-78045646D01*
X50425646Y-77920147D01*
X50573216Y-77821544D01*
X50737188Y-77753624D01*
X50886488Y-77723927D01*
X50911258Y-77719000D01*
X51088742Y-77719000D01*
X51113512Y-77723927D01*
G37*
G36*
X101653512Y-77103927D02*
G01*
X101802812Y-77133624D01*
X101966784Y-77201544D01*
X102114354Y-77300147D01*
X102239853Y-77425646D01*
X102338456Y-77573216D01*
X102406376Y-77737188D01*
X102441000Y-77911259D01*
X102441000Y-78088741D01*
X102406376Y-78262812D01*
X102338456Y-78426784D01*
X102239853Y-78574354D01*
X102114354Y-78699853D01*
X101966784Y-78798456D01*
X101802812Y-78866376D01*
X101653512Y-78896073D01*
X101628742Y-78901000D01*
X101451258Y-78901000D01*
X101426488Y-78896073D01*
X101277188Y-78866376D01*
X101113216Y-78798456D01*
X100965646Y-78699853D01*
X100840147Y-78574354D01*
X100741544Y-78426784D01*
X100673624Y-78262812D01*
X100639000Y-78088741D01*
X100639000Y-77911259D01*
X100673624Y-77737188D01*
X100741544Y-77573216D01*
X100840147Y-77425646D01*
X100965646Y-77300147D01*
X101113216Y-77201544D01*
X101277188Y-77133624D01*
X101426488Y-77103927D01*
X101451258Y-77099000D01*
X101628742Y-77099000D01*
X101653512Y-77103927D01*
G37*
G36*
X116653512Y-77103927D02*
G01*
X116802812Y-77133624D01*
X116966784Y-77201544D01*
X117114354Y-77300147D01*
X117239853Y-77425646D01*
X117338456Y-77573216D01*
X117406376Y-77737188D01*
X117441000Y-77911259D01*
X117441000Y-78088741D01*
X117406376Y-78262812D01*
X117338456Y-78426784D01*
X117239853Y-78574354D01*
X117114354Y-78699853D01*
X116966784Y-78798456D01*
X116802812Y-78866376D01*
X116653512Y-78896073D01*
X116628742Y-78901000D01*
X116451258Y-78901000D01*
X116426488Y-78896073D01*
X116277188Y-78866376D01*
X116113216Y-78798456D01*
X115965646Y-78699853D01*
X115840147Y-78574354D01*
X115741544Y-78426784D01*
X115673624Y-78262812D01*
X115639000Y-78088741D01*
X115639000Y-77911259D01*
X115673624Y-77737188D01*
X115741544Y-77573216D01*
X115840147Y-77425646D01*
X115965646Y-77300147D01*
X116113216Y-77201544D01*
X116277188Y-77133624D01*
X116426488Y-77103927D01*
X116451258Y-77099000D01*
X116628742Y-77099000D01*
X116653512Y-77103927D01*
G37*
G36*
X114901000Y-78901000D02*
G01*
X113099000Y-78901000D01*
X113099000Y-77099000D01*
X114901000Y-77099000D01*
X114901000Y-78901000D01*
G37*
G36*
X99901000Y-78901000D02*
G01*
X98099000Y-78901000D01*
X98099000Y-77099000D01*
X99901000Y-77099000D01*
X99901000Y-78901000D01*
G37*
G36*
X58113512Y-76403927D02*
G01*
X58262812Y-76433624D01*
X58426784Y-76501544D01*
X58574354Y-76600147D01*
X58699853Y-76725646D01*
X58798456Y-76873216D01*
X58866376Y-77037188D01*
X58901000Y-77211259D01*
X58901000Y-77388741D01*
X58866376Y-77562812D01*
X58798456Y-77726784D01*
X58699853Y-77874354D01*
X58574354Y-77999853D01*
X58426784Y-78098456D01*
X58262812Y-78166376D01*
X58113512Y-78196073D01*
X58088742Y-78201000D01*
X57911258Y-78201000D01*
X57886488Y-78196073D01*
X57737188Y-78166376D01*
X57573216Y-78098456D01*
X57425646Y-77999853D01*
X57300147Y-77874354D01*
X57201544Y-77726784D01*
X57133624Y-77562812D01*
X57099000Y-77388741D01*
X57099000Y-77211259D01*
X57133624Y-77037188D01*
X57201544Y-76873216D01*
X57300147Y-76725646D01*
X57425646Y-76600147D01*
X57573216Y-76501544D01*
X57737188Y-76433624D01*
X57886488Y-76403927D01*
X57911258Y-76399000D01*
X58088742Y-76399000D01*
X58113512Y-76403927D01*
G37*
G36*
X51113512Y-75183927D02*
G01*
X51262812Y-75213624D01*
X51426784Y-75281544D01*
X51574354Y-75380147D01*
X51699853Y-75505646D01*
X51798456Y-75653216D01*
X51866376Y-75817188D01*
X51901000Y-75991259D01*
X51901000Y-76168741D01*
X51866376Y-76342812D01*
X51798456Y-76506784D01*
X51699853Y-76654354D01*
X51574354Y-76779853D01*
X51426784Y-76878456D01*
X51262812Y-76946376D01*
X51113512Y-76976073D01*
X51088742Y-76981000D01*
X50911258Y-76981000D01*
X50886488Y-76976073D01*
X50737188Y-76946376D01*
X50573216Y-76878456D01*
X50425646Y-76779853D01*
X50300147Y-76654354D01*
X50201544Y-76506784D01*
X50133624Y-76342812D01*
X50099000Y-76168741D01*
X50099000Y-75991259D01*
X50133624Y-75817188D01*
X50201544Y-75653216D01*
X50300147Y-75505646D01*
X50425646Y-75380147D01*
X50573216Y-75281544D01*
X50737188Y-75213624D01*
X50886488Y-75183927D01*
X50911258Y-75179000D01*
X51088742Y-75179000D01*
X51113512Y-75183927D01*
G37*
G36*
X114113512Y-74563927D02*
G01*
X114262812Y-74593624D01*
X114426784Y-74661544D01*
X114574354Y-74760147D01*
X114699853Y-74885646D01*
X114798456Y-75033216D01*
X114866376Y-75197188D01*
X114901000Y-75371259D01*
X114901000Y-75548741D01*
X114866376Y-75722812D01*
X114798456Y-75886784D01*
X114699853Y-76034354D01*
X114574354Y-76159853D01*
X114426784Y-76258456D01*
X114262812Y-76326376D01*
X114113512Y-76356073D01*
X114088742Y-76361000D01*
X113911258Y-76361000D01*
X113886488Y-76356073D01*
X113737188Y-76326376D01*
X113573216Y-76258456D01*
X113425646Y-76159853D01*
X113300147Y-76034354D01*
X113201544Y-75886784D01*
X113133624Y-75722812D01*
X113099000Y-75548741D01*
X113099000Y-75371259D01*
X113133624Y-75197188D01*
X113201544Y-75033216D01*
X113300147Y-74885646D01*
X113425646Y-74760147D01*
X113573216Y-74661544D01*
X113737188Y-74593624D01*
X113886488Y-74563927D01*
X113911258Y-74559000D01*
X114088742Y-74559000D01*
X114113512Y-74563927D01*
G37*
G36*
X116653512Y-74563927D02*
G01*
X116802812Y-74593624D01*
X116966784Y-74661544D01*
X117114354Y-74760147D01*
X117239853Y-74885646D01*
X117338456Y-75033216D01*
X117406376Y-75197188D01*
X117441000Y-75371259D01*
X117441000Y-75548741D01*
X117406376Y-75722812D01*
X117338456Y-75886784D01*
X117239853Y-76034354D01*
X117114354Y-76159853D01*
X116966784Y-76258456D01*
X116802812Y-76326376D01*
X116653512Y-76356073D01*
X116628742Y-76361000D01*
X116451258Y-76361000D01*
X116426488Y-76356073D01*
X116277188Y-76326376D01*
X116113216Y-76258456D01*
X115965646Y-76159853D01*
X115840147Y-76034354D01*
X115741544Y-75886784D01*
X115673624Y-75722812D01*
X115639000Y-75548741D01*
X115639000Y-75371259D01*
X115673624Y-75197188D01*
X115741544Y-75033216D01*
X115840147Y-74885646D01*
X115965646Y-74760147D01*
X116113216Y-74661544D01*
X116277188Y-74593624D01*
X116426488Y-74563927D01*
X116451258Y-74559000D01*
X116628742Y-74559000D01*
X116653512Y-74563927D01*
G37*
G36*
X58113512Y-73863927D02*
G01*
X58262812Y-73893624D01*
X58426784Y-73961544D01*
X58574354Y-74060147D01*
X58699853Y-74185646D01*
X58798456Y-74333216D01*
X58866376Y-74497188D01*
X58901000Y-74671259D01*
X58901000Y-74848741D01*
X58866376Y-75022812D01*
X58798456Y-75186784D01*
X58699853Y-75334354D01*
X58574354Y-75459853D01*
X58426784Y-75558456D01*
X58262812Y-75626376D01*
X58113512Y-75656073D01*
X58088742Y-75661000D01*
X57911258Y-75661000D01*
X57886488Y-75656073D01*
X57737188Y-75626376D01*
X57573216Y-75558456D01*
X57425646Y-75459853D01*
X57300147Y-75334354D01*
X57201544Y-75186784D01*
X57133624Y-75022812D01*
X57099000Y-74848741D01*
X57099000Y-74671259D01*
X57133624Y-74497188D01*
X57201544Y-74333216D01*
X57300147Y-74185646D01*
X57425646Y-74060147D01*
X57573216Y-73961544D01*
X57737188Y-73893624D01*
X57886488Y-73863927D01*
X57911258Y-73859000D01*
X58088742Y-73859000D01*
X58113512Y-73863927D01*
G37*
G36*
X51113512Y-72643927D02*
G01*
X51262812Y-72673624D01*
X51426784Y-72741544D01*
X51574354Y-72840147D01*
X51699853Y-72965646D01*
X51798456Y-73113216D01*
X51866376Y-73277188D01*
X51901000Y-73451259D01*
X51901000Y-73628741D01*
X51866376Y-73802812D01*
X51798456Y-73966784D01*
X51699853Y-74114354D01*
X51574354Y-74239853D01*
X51426784Y-74338456D01*
X51262812Y-74406376D01*
X51113512Y-74436073D01*
X51088742Y-74441000D01*
X50911258Y-74441000D01*
X50886488Y-74436073D01*
X50737188Y-74406376D01*
X50573216Y-74338456D01*
X50425646Y-74239853D01*
X50300147Y-74114354D01*
X50201544Y-73966784D01*
X50133624Y-73802812D01*
X50099000Y-73628741D01*
X50099000Y-73451259D01*
X50133624Y-73277188D01*
X50201544Y-73113216D01*
X50300147Y-72965646D01*
X50425646Y-72840147D01*
X50573216Y-72741544D01*
X50737188Y-72673624D01*
X50886488Y-72643927D01*
X50911258Y-72639000D01*
X51088742Y-72639000D01*
X51113512Y-72643927D01*
G37*
G36*
X114113512Y-72023927D02*
G01*
X114262812Y-72053624D01*
X114426784Y-72121544D01*
X114574354Y-72220147D01*
X114699853Y-72345646D01*
X114798456Y-72493216D01*
X114866376Y-72657188D01*
X114901000Y-72831259D01*
X114901000Y-73008741D01*
X114866376Y-73182812D01*
X114798456Y-73346784D01*
X114699853Y-73494354D01*
X114574354Y-73619853D01*
X114426784Y-73718456D01*
X114262812Y-73786376D01*
X114113512Y-73816073D01*
X114088742Y-73821000D01*
X113911258Y-73821000D01*
X113886488Y-73816073D01*
X113737188Y-73786376D01*
X113573216Y-73718456D01*
X113425646Y-73619853D01*
X113300147Y-73494354D01*
X113201544Y-73346784D01*
X113133624Y-73182812D01*
X113099000Y-73008741D01*
X113099000Y-72831259D01*
X113133624Y-72657188D01*
X113201544Y-72493216D01*
X113300147Y-72345646D01*
X113425646Y-72220147D01*
X113573216Y-72121544D01*
X113737188Y-72053624D01*
X113886488Y-72023927D01*
X113911258Y-72019000D01*
X114088742Y-72019000D01*
X114113512Y-72023927D01*
G37*
G36*
X116653512Y-72023927D02*
G01*
X116802812Y-72053624D01*
X116966784Y-72121544D01*
X117114354Y-72220147D01*
X117239853Y-72345646D01*
X117338456Y-72493216D01*
X117406376Y-72657188D01*
X117441000Y-72831259D01*
X117441000Y-73008741D01*
X117406376Y-73182812D01*
X117338456Y-73346784D01*
X117239853Y-73494354D01*
X117114354Y-73619853D01*
X116966784Y-73718456D01*
X116802812Y-73786376D01*
X116653512Y-73816073D01*
X116628742Y-73821000D01*
X116451258Y-73821000D01*
X116426488Y-73816073D01*
X116277188Y-73786376D01*
X116113216Y-73718456D01*
X115965646Y-73619853D01*
X115840147Y-73494354D01*
X115741544Y-73346784D01*
X115673624Y-73182812D01*
X115639000Y-73008741D01*
X115639000Y-72831259D01*
X115673624Y-72657188D01*
X115741544Y-72493216D01*
X115840147Y-72345646D01*
X115965646Y-72220147D01*
X116113216Y-72121544D01*
X116277188Y-72053624D01*
X116426488Y-72023927D01*
X116451258Y-72019000D01*
X116628742Y-72019000D01*
X116653512Y-72023927D01*
G37*
G36*
X58113512Y-71323927D02*
G01*
X58262812Y-71353624D01*
X58426784Y-71421544D01*
X58574354Y-71520147D01*
X58699853Y-71645646D01*
X58798456Y-71793216D01*
X58866376Y-71957188D01*
X58901000Y-72131259D01*
X58901000Y-72308741D01*
X58866376Y-72482812D01*
X58798456Y-72646784D01*
X58699853Y-72794354D01*
X58574354Y-72919853D01*
X58426784Y-73018456D01*
X58262812Y-73086376D01*
X58113512Y-73116073D01*
X58088742Y-73121000D01*
X57911258Y-73121000D01*
X57886488Y-73116073D01*
X57737188Y-73086376D01*
X57573216Y-73018456D01*
X57425646Y-72919853D01*
X57300147Y-72794354D01*
X57201544Y-72646784D01*
X57133624Y-72482812D01*
X57099000Y-72308741D01*
X57099000Y-72131259D01*
X57133624Y-71957188D01*
X57201544Y-71793216D01*
X57300147Y-71645646D01*
X57425646Y-71520147D01*
X57573216Y-71421544D01*
X57737188Y-71353624D01*
X57886488Y-71323927D01*
X57911258Y-71319000D01*
X58088742Y-71319000D01*
X58113512Y-71323927D01*
G37*
G36*
X51901000Y-71901000D02*
G01*
X50099000Y-71901000D01*
X50099000Y-70099000D01*
X51901000Y-70099000D01*
X51901000Y-71901000D01*
G37*
G36*
X114113512Y-69483927D02*
G01*
X114262812Y-69513624D01*
X114426784Y-69581544D01*
X114574354Y-69680147D01*
X114699853Y-69805646D01*
X114798456Y-69953216D01*
X114866376Y-70117188D01*
X114901000Y-70291259D01*
X114901000Y-70468741D01*
X114866376Y-70642812D01*
X114798456Y-70806784D01*
X114699853Y-70954354D01*
X114574354Y-71079853D01*
X114426784Y-71178456D01*
X114262812Y-71246376D01*
X114113512Y-71276073D01*
X114088742Y-71281000D01*
X113911258Y-71281000D01*
X113886488Y-71276073D01*
X113737188Y-71246376D01*
X113573216Y-71178456D01*
X113425646Y-71079853D01*
X113300147Y-70954354D01*
X113201544Y-70806784D01*
X113133624Y-70642812D01*
X113099000Y-70468741D01*
X113099000Y-70291259D01*
X113133624Y-70117188D01*
X113201544Y-69953216D01*
X113300147Y-69805646D01*
X113425646Y-69680147D01*
X113573216Y-69581544D01*
X113737188Y-69513624D01*
X113886488Y-69483927D01*
X113911258Y-69479000D01*
X114088742Y-69479000D01*
X114113512Y-69483927D01*
G37*
G36*
X116653512Y-69483927D02*
G01*
X116802812Y-69513624D01*
X116966784Y-69581544D01*
X117114354Y-69680147D01*
X117239853Y-69805646D01*
X117338456Y-69953216D01*
X117406376Y-70117188D01*
X117441000Y-70291259D01*
X117441000Y-70468741D01*
X117406376Y-70642812D01*
X117338456Y-70806784D01*
X117239853Y-70954354D01*
X117114354Y-71079853D01*
X116966784Y-71178456D01*
X116802812Y-71246376D01*
X116653512Y-71276073D01*
X116628742Y-71281000D01*
X116451258Y-71281000D01*
X116426488Y-71276073D01*
X116277188Y-71246376D01*
X116113216Y-71178456D01*
X115965646Y-71079853D01*
X115840147Y-70954354D01*
X115741544Y-70806784D01*
X115673624Y-70642812D01*
X115639000Y-70468741D01*
X115639000Y-70291259D01*
X115673624Y-70117188D01*
X115741544Y-69953216D01*
X115840147Y-69805646D01*
X115965646Y-69680147D01*
X116113216Y-69581544D01*
X116277188Y-69513624D01*
X116426488Y-69483927D01*
X116451258Y-69479000D01*
X116628742Y-69479000D01*
X116653512Y-69483927D01*
G37*
G36*
X58113512Y-68783927D02*
G01*
X58262812Y-68813624D01*
X58426784Y-68881544D01*
X58574354Y-68980147D01*
X58699853Y-69105646D01*
X58798456Y-69253216D01*
X58866376Y-69417188D01*
X58901000Y-69591259D01*
X58901000Y-69768741D01*
X58866376Y-69942812D01*
X58798456Y-70106784D01*
X58699853Y-70254354D01*
X58574354Y-70379853D01*
X58426784Y-70478456D01*
X58262812Y-70546376D01*
X58113512Y-70576073D01*
X58088742Y-70581000D01*
X57911258Y-70581000D01*
X57886488Y-70576073D01*
X57737188Y-70546376D01*
X57573216Y-70478456D01*
X57425646Y-70379853D01*
X57300147Y-70254354D01*
X57201544Y-70106784D01*
X57133624Y-69942812D01*
X57099000Y-69768741D01*
X57099000Y-69591259D01*
X57133624Y-69417188D01*
X57201544Y-69253216D01*
X57300147Y-69105646D01*
X57425646Y-68980147D01*
X57573216Y-68881544D01*
X57737188Y-68813624D01*
X57886488Y-68783927D01*
X57911258Y-68779000D01*
X58088742Y-68779000D01*
X58113512Y-68783927D01*
G37*
G36*
X103525331Y-52268211D02*
G01*
X103853092Y-52403974D01*
X104148070Y-52601072D01*
X104398928Y-52851930D01*
X104596026Y-53146908D01*
X104731789Y-53474669D01*
X104801000Y-53822616D01*
X104801000Y-54177384D01*
X104731789Y-54525331D01*
X104596026Y-54853092D01*
X104398928Y-55148070D01*
X104148070Y-55398928D01*
X103853092Y-55596026D01*
X103525331Y-55731789D01*
X103177384Y-55801000D01*
X102822616Y-55801000D01*
X102474669Y-55731789D01*
X102146908Y-55596026D01*
X101851930Y-55398928D01*
X101601072Y-55148070D01*
X101403974Y-54853092D01*
X101268211Y-54525331D01*
X101199000Y-54177384D01*
X101199000Y-53822616D01*
X101268211Y-53474669D01*
X101403974Y-53146908D01*
X101601072Y-52851930D01*
X101851930Y-52601072D01*
X102146908Y-52403974D01*
X102474669Y-52268211D01*
X102822616Y-52199000D01*
X103177384Y-52199000D01*
X103525331Y-52268211D01*
G37*
G36*
X32801000Y-55801000D02*
G01*
X29199000Y-55801000D01*
X29199000Y-52199000D01*
X32801000Y-52199000D01*
X32801000Y-55801000D01*
G37*
G36*
X95630256Y-52391298D02*
G01*
X95736579Y-52412447D01*
X96037042Y-52536903D01*
X96307451Y-52717585D01*
X96537415Y-52947549D01*
X96718097Y-53217958D01*
X96718098Y-53217960D01*
X96842553Y-53518422D01*
X96906000Y-53837389D01*
X96906000Y-54162611D01*
X96863702Y-54375256D01*
X96842553Y-54481579D01*
X96718097Y-54782042D01*
X96537415Y-55052451D01*
X96307451Y-55282415D01*
X96037042Y-55463097D01*
X95736579Y-55587553D01*
X95693987Y-55596025D01*
X95417611Y-55651000D01*
X95092389Y-55651000D01*
X94816013Y-55596025D01*
X94773421Y-55587553D01*
X94472958Y-55463097D01*
X94202549Y-55282415D01*
X93972585Y-55052451D01*
X93791903Y-54782042D01*
X93667447Y-54481579D01*
X93646298Y-54375256D01*
X93604000Y-54162611D01*
X93604000Y-53837389D01*
X93667447Y-53518422D01*
X93791902Y-53217960D01*
X93791903Y-53217958D01*
X93972585Y-52947549D01*
X94202549Y-52717585D01*
X94472958Y-52536903D01*
X94773421Y-52412447D01*
X94879744Y-52391298D01*
X95092389Y-52349000D01*
X95417611Y-52349000D01*
X95630256Y-52391298D01*
G37*
G36*
X40020256Y-52391298D02*
G01*
X40126579Y-52412447D01*
X40427042Y-52536903D01*
X40697451Y-52717585D01*
X40927415Y-52947549D01*
X41108097Y-53217958D01*
X41108098Y-53217960D01*
X41232553Y-53518422D01*
X41296000Y-53837389D01*
X41296000Y-54162611D01*
X41253702Y-54375256D01*
X41232553Y-54481579D01*
X41108097Y-54782042D01*
X40927415Y-55052451D01*
X40697451Y-55282415D01*
X40427042Y-55463097D01*
X40126579Y-55587553D01*
X40083987Y-55596025D01*
X39807611Y-55651000D01*
X39482389Y-55651000D01*
X39206013Y-55596025D01*
X39163421Y-55587553D01*
X38862958Y-55463097D01*
X38592549Y-55282415D01*
X38362585Y-55052451D01*
X38181903Y-54782042D01*
X38057447Y-54481579D01*
X38036298Y-54375256D01*
X37994000Y-54162611D01*
X37994000Y-53837389D01*
X38057447Y-53518422D01*
X38181902Y-53217960D01*
X38181903Y-53217958D01*
X38362585Y-52947549D01*
X38592549Y-52717585D01*
X38862958Y-52536903D01*
X39163421Y-52412447D01*
X39269744Y-52391298D01*
X39482389Y-52349000D01*
X39807611Y-52349000D01*
X40020256Y-52391298D01*
G37*
G36*
X113251000Y-55051000D02*
G01*
X111549000Y-55051000D01*
X111549000Y-53349000D01*
X113251000Y-53349000D01*
X113251000Y-55051000D01*
G37*
G36*
X117648228Y-53381703D02*
G01*
X117803100Y-53445853D01*
X117942481Y-53538985D01*
X118061015Y-53657519D01*
X118154147Y-53796900D01*
X118218297Y-53951772D01*
X118251000Y-54116184D01*
X118251000Y-54283816D01*
X118218297Y-54448228D01*
X118154147Y-54603100D01*
X118061015Y-54742481D01*
X117942481Y-54861015D01*
X117803100Y-54954147D01*
X117648228Y-55018297D01*
X117483816Y-55051000D01*
X117316184Y-55051000D01*
X117151772Y-55018297D01*
X116996900Y-54954147D01*
X116857519Y-54861015D01*
X116738985Y-54742481D01*
X116645853Y-54603100D01*
X116581703Y-54448228D01*
X116549000Y-54283816D01*
X116549000Y-54116184D01*
X116581703Y-53951772D01*
X116645853Y-53796900D01*
X116738985Y-53657519D01*
X116857519Y-53538985D01*
X116996900Y-53445853D01*
X117151772Y-53381703D01*
X117316184Y-53349000D01*
X117483816Y-53349000D01*
X117648228Y-53381703D01*
G37*
G36*
X31525331Y-31268211D02*
G01*
X31853092Y-31403974D01*
X32148070Y-31601072D01*
X32398928Y-31851930D01*
X32596026Y-32146908D01*
X32731789Y-32474669D01*
X32801000Y-32822616D01*
X32801000Y-33177384D01*
X32731789Y-33525331D01*
X32596026Y-33853092D01*
X32398928Y-34148070D01*
X32148070Y-34398928D01*
X31853092Y-34596026D01*
X31525331Y-34731789D01*
X31177384Y-34801000D01*
X30822616Y-34801000D01*
X30474669Y-34731789D01*
X30146908Y-34596026D01*
X29851930Y-34398928D01*
X29601072Y-34148070D01*
X29403974Y-33853092D01*
X29268211Y-33525331D01*
X29199000Y-33177384D01*
X29199000Y-32822616D01*
X29268211Y-32474669D01*
X29403974Y-32146908D01*
X29601072Y-31851930D01*
X29851930Y-31601072D01*
X30146908Y-31403974D01*
X30474669Y-31268211D01*
X30822616Y-31199000D01*
X31177384Y-31199000D01*
X31525331Y-31268211D01*
G37*
G36*
X104801000Y-34801000D02*
G01*
X101199000Y-34801000D01*
X101199000Y-31199000D01*
X104801000Y-31199000D01*
X104801000Y-34801000D01*
G37*
G36*
X94730256Y-31391298D02*
G01*
X94836579Y-31412447D01*
X95137042Y-31536903D01*
X95407451Y-31717585D01*
X95637415Y-31947549D01*
X95818097Y-32217958D01*
X95942553Y-32518421D01*
X95953679Y-32574354D01*
X96006000Y-32837389D01*
X96006000Y-33162611D01*
X96003061Y-33177384D01*
X95942553Y-33481579D01*
X95818097Y-33782042D01*
X95637415Y-34052451D01*
X95407451Y-34282415D01*
X95137042Y-34463097D01*
X94836579Y-34587553D01*
X94793987Y-34596025D01*
X94517611Y-34651000D01*
X94192389Y-34651000D01*
X93916013Y-34596025D01*
X93873421Y-34587553D01*
X93572958Y-34463097D01*
X93302549Y-34282415D01*
X93072585Y-34052451D01*
X92891903Y-33782042D01*
X92767447Y-33481579D01*
X92706939Y-33177384D01*
X92704000Y-33162611D01*
X92704000Y-32837389D01*
X92756321Y-32574354D01*
X92767447Y-32518421D01*
X92891903Y-32217958D01*
X93072585Y-31947549D01*
X93302549Y-31717585D01*
X93572958Y-31536903D01*
X93873421Y-31412447D01*
X93979744Y-31391298D01*
X94192389Y-31349000D01*
X94517611Y-31349000D01*
X94730256Y-31391298D01*
G37*
G36*
X39120256Y-31391298D02*
G01*
X39226579Y-31412447D01*
X39527042Y-31536903D01*
X39797451Y-31717585D01*
X40027415Y-31947549D01*
X40208097Y-32217958D01*
X40332553Y-32518421D01*
X40343679Y-32574354D01*
X40396000Y-32837389D01*
X40396000Y-33162611D01*
X40393061Y-33177384D01*
X40332553Y-33481579D01*
X40208097Y-33782042D01*
X40027415Y-34052451D01*
X39797451Y-34282415D01*
X39527042Y-34463097D01*
X39226579Y-34587553D01*
X39183987Y-34596025D01*
X38907611Y-34651000D01*
X38582389Y-34651000D01*
X38306013Y-34596025D01*
X38263421Y-34587553D01*
X37962958Y-34463097D01*
X37692549Y-34282415D01*
X37462585Y-34052451D01*
X37281903Y-33782042D01*
X37157447Y-33481579D01*
X37096939Y-33177384D01*
X37094000Y-33162611D01*
X37094000Y-32837389D01*
X37146321Y-32574354D01*
X37157447Y-32518421D01*
X37281903Y-32217958D01*
X37462585Y-31947549D01*
X37692549Y-31717585D01*
X37962958Y-31536903D01*
X38263421Y-31412447D01*
X38369744Y-31391298D01*
X38582389Y-31349000D01*
X38907611Y-31349000D01*
X39120256Y-31391298D01*
G37*
G36*
X120113512Y-31103927D02*
G01*
X120262812Y-31133624D01*
X120426784Y-31201544D01*
X120574354Y-31300147D01*
X120699853Y-31425646D01*
X120798456Y-31573216D01*
X120866376Y-31737188D01*
X120901000Y-31911259D01*
X120901000Y-32088741D01*
X120866376Y-32262812D01*
X120798456Y-32426784D01*
X120699853Y-32574354D01*
X120574354Y-32699853D01*
X120426784Y-32798456D01*
X120262812Y-32866376D01*
X120113512Y-32896073D01*
X120088742Y-32901000D01*
X119911258Y-32901000D01*
X119886488Y-32896073D01*
X119737188Y-32866376D01*
X119573216Y-32798456D01*
X119425646Y-32699853D01*
X119300147Y-32574354D01*
X119201544Y-32426784D01*
X119133624Y-32262812D01*
X119099000Y-32088741D01*
X119099000Y-31911259D01*
X119133624Y-31737188D01*
X119201544Y-31573216D01*
X119300147Y-31425646D01*
X119425646Y-31300147D01*
X119573216Y-31201544D01*
X119737188Y-31133624D01*
X119886488Y-31103927D01*
X119911258Y-31099000D01*
X120088742Y-31099000D01*
X120113512Y-31103927D01*
G37*
G36*
X120901000Y-30361000D02*
G01*
X119099000Y-30361000D01*
X119099000Y-28559000D01*
X120901000Y-28559000D01*
X120901000Y-30361000D01*
G37*
M02*
