G04 #@! TF.GenerationSoftware,KiCad,Pcbnew,5.1.5-1.fc30*
G04 #@! TF.CreationDate,2020-10-13T00:09:32+02:00*
G04 #@! TF.ProjectId,BeaconTemperature2,42656163-6f6e-4546-956d-706572617475,rev?*
G04 #@! TF.SameCoordinates,Original*
G04 #@! TF.FileFunction,Copper,L1,Top*
G04 #@! TF.FilePolarity,Positive*
%FSLAX46Y46*%
G04 Gerber Fmt 4.6, Leading zero omitted, Abs format (unit mm)*
G04 Created by KiCad (PCBNEW 5.1.5-1.fc30) date 2020-10-13 00:09:32*
%MOMM*%
%LPD*%
G04 APERTURE LIST*
%ADD10C,0.100000*%
%ADD11O,1.700000X1.700000*%
%ADD12R,1.700000X1.700000*%
%ADD13C,1.440000*%
%ADD14R,3.500000X3.500000*%
%ADD15C,3.500000*%
%ADD16C,1.600000*%
%ADD17R,1.600000X1.600000*%
%ADD18R,1.500000X2.000000*%
%ADD19R,3.800000X2.000000*%
%ADD20C,2.000000*%
%ADD21R,2.000000X2.000000*%
%ADD22R,0.900000X0.800000*%
%ADD23R,1.100000X1.100000*%
%ADD24R,1.800000X2.500000*%
%ADD25O,1.727200X2.032000*%
%ADD26R,1.727200X2.032000*%
%ADD27R,0.800000X0.900000*%
%ADD28R,2.500000X1.800000*%
%ADD29R,1.600000X0.550000*%
%ADD30R,0.550000X1.600000*%
%ADD31R,2.000000X1.500000*%
%ADD32R,2.000000X3.800000*%
%ADD33R,0.500000X0.500000*%
%ADD34C,0.800000*%
%ADD35C,1.000000*%
%ADD36C,0.250000*%
%ADD37C,0.500000*%
%ADD38C,0.254000*%
G04 APERTURE END LIST*
D10*
G36*
X112000000Y-25250000D02*
G01*
X112000000Y-24750000D01*
X111400000Y-24750000D01*
X111400000Y-25250000D01*
X112000000Y-25250000D01*
G37*
G04 #@! TA.AperFunction,SMDPad,CuDef*
G36*
X53815191Y-108026053D02*
G01*
X53836426Y-108029203D01*
X53857250Y-108034419D01*
X53877462Y-108041651D01*
X53896868Y-108050830D01*
X53915281Y-108061866D01*
X53932524Y-108074654D01*
X53948430Y-108089070D01*
X53962846Y-108104976D01*
X53975634Y-108122219D01*
X53986670Y-108140632D01*
X53995849Y-108160038D01*
X54003081Y-108180250D01*
X54008297Y-108201074D01*
X54011447Y-108222309D01*
X54012500Y-108243750D01*
X54012500Y-108756250D01*
X54011447Y-108777691D01*
X54008297Y-108798926D01*
X54003081Y-108819750D01*
X53995849Y-108839962D01*
X53986670Y-108859368D01*
X53975634Y-108877781D01*
X53962846Y-108895024D01*
X53948430Y-108910930D01*
X53932524Y-108925346D01*
X53915281Y-108938134D01*
X53896868Y-108949170D01*
X53877462Y-108958349D01*
X53857250Y-108965581D01*
X53836426Y-108970797D01*
X53815191Y-108973947D01*
X53793750Y-108975000D01*
X53356250Y-108975000D01*
X53334809Y-108973947D01*
X53313574Y-108970797D01*
X53292750Y-108965581D01*
X53272538Y-108958349D01*
X53253132Y-108949170D01*
X53234719Y-108938134D01*
X53217476Y-108925346D01*
X53201570Y-108910930D01*
X53187154Y-108895024D01*
X53174366Y-108877781D01*
X53163330Y-108859368D01*
X53154151Y-108839962D01*
X53146919Y-108819750D01*
X53141703Y-108798926D01*
X53138553Y-108777691D01*
X53137500Y-108756250D01*
X53137500Y-108243750D01*
X53138553Y-108222309D01*
X53141703Y-108201074D01*
X53146919Y-108180250D01*
X53154151Y-108160038D01*
X53163330Y-108140632D01*
X53174366Y-108122219D01*
X53187154Y-108104976D01*
X53201570Y-108089070D01*
X53217476Y-108074654D01*
X53234719Y-108061866D01*
X53253132Y-108050830D01*
X53272538Y-108041651D01*
X53292750Y-108034419D01*
X53313574Y-108029203D01*
X53334809Y-108026053D01*
X53356250Y-108025000D01*
X53793750Y-108025000D01*
X53815191Y-108026053D01*
G37*
G04 #@! TD.AperFunction*
G04 #@! TA.AperFunction,SMDPad,CuDef*
G36*
X52240191Y-108026053D02*
G01*
X52261426Y-108029203D01*
X52282250Y-108034419D01*
X52302462Y-108041651D01*
X52321868Y-108050830D01*
X52340281Y-108061866D01*
X52357524Y-108074654D01*
X52373430Y-108089070D01*
X52387846Y-108104976D01*
X52400634Y-108122219D01*
X52411670Y-108140632D01*
X52420849Y-108160038D01*
X52428081Y-108180250D01*
X52433297Y-108201074D01*
X52436447Y-108222309D01*
X52437500Y-108243750D01*
X52437500Y-108756250D01*
X52436447Y-108777691D01*
X52433297Y-108798926D01*
X52428081Y-108819750D01*
X52420849Y-108839962D01*
X52411670Y-108859368D01*
X52400634Y-108877781D01*
X52387846Y-108895024D01*
X52373430Y-108910930D01*
X52357524Y-108925346D01*
X52340281Y-108938134D01*
X52321868Y-108949170D01*
X52302462Y-108958349D01*
X52282250Y-108965581D01*
X52261426Y-108970797D01*
X52240191Y-108973947D01*
X52218750Y-108975000D01*
X51781250Y-108975000D01*
X51759809Y-108973947D01*
X51738574Y-108970797D01*
X51717750Y-108965581D01*
X51697538Y-108958349D01*
X51678132Y-108949170D01*
X51659719Y-108938134D01*
X51642476Y-108925346D01*
X51626570Y-108910930D01*
X51612154Y-108895024D01*
X51599366Y-108877781D01*
X51588330Y-108859368D01*
X51579151Y-108839962D01*
X51571919Y-108819750D01*
X51566703Y-108798926D01*
X51563553Y-108777691D01*
X51562500Y-108756250D01*
X51562500Y-108243750D01*
X51563553Y-108222309D01*
X51566703Y-108201074D01*
X51571919Y-108180250D01*
X51579151Y-108160038D01*
X51588330Y-108140632D01*
X51599366Y-108122219D01*
X51612154Y-108104976D01*
X51626570Y-108089070D01*
X51642476Y-108074654D01*
X51659719Y-108061866D01*
X51678132Y-108050830D01*
X51697538Y-108041651D01*
X51717750Y-108034419D01*
X51738574Y-108029203D01*
X51759809Y-108026053D01*
X51781250Y-108025000D01*
X52218750Y-108025000D01*
X52240191Y-108026053D01*
G37*
G04 #@! TD.AperFunction*
D11*
X58860000Y-98000000D03*
X56320000Y-98000000D03*
X53780000Y-98000000D03*
X51240000Y-98000000D03*
X48700000Y-98000000D03*
X46160000Y-98000000D03*
X43620000Y-98000000D03*
X41080000Y-98000000D03*
X38540000Y-98000000D03*
D12*
X36000000Y-98000000D03*
G04 #@! TA.AperFunction,SMDPad,CuDef*
D10*
G36*
X69131958Y-67680710D02*
G01*
X69146276Y-67682834D01*
X69160317Y-67686351D01*
X69173946Y-67691228D01*
X69187031Y-67697417D01*
X69199447Y-67704858D01*
X69211073Y-67713481D01*
X69221798Y-67723202D01*
X69231519Y-67733927D01*
X69240142Y-67745553D01*
X69247583Y-67757969D01*
X69253772Y-67771054D01*
X69258649Y-67784683D01*
X69262166Y-67798724D01*
X69264290Y-67813042D01*
X69265000Y-67827500D01*
X69265000Y-68172500D01*
X69264290Y-68186958D01*
X69262166Y-68201276D01*
X69258649Y-68215317D01*
X69253772Y-68228946D01*
X69247583Y-68242031D01*
X69240142Y-68254447D01*
X69231519Y-68266073D01*
X69221798Y-68276798D01*
X69211073Y-68286519D01*
X69199447Y-68295142D01*
X69187031Y-68302583D01*
X69173946Y-68308772D01*
X69160317Y-68313649D01*
X69146276Y-68317166D01*
X69131958Y-68319290D01*
X69117500Y-68320000D01*
X68822500Y-68320000D01*
X68808042Y-68319290D01*
X68793724Y-68317166D01*
X68779683Y-68313649D01*
X68766054Y-68308772D01*
X68752969Y-68302583D01*
X68740553Y-68295142D01*
X68728927Y-68286519D01*
X68718202Y-68276798D01*
X68708481Y-68266073D01*
X68699858Y-68254447D01*
X68692417Y-68242031D01*
X68686228Y-68228946D01*
X68681351Y-68215317D01*
X68677834Y-68201276D01*
X68675710Y-68186958D01*
X68675000Y-68172500D01*
X68675000Y-67827500D01*
X68675710Y-67813042D01*
X68677834Y-67798724D01*
X68681351Y-67784683D01*
X68686228Y-67771054D01*
X68692417Y-67757969D01*
X68699858Y-67745553D01*
X68708481Y-67733927D01*
X68718202Y-67723202D01*
X68728927Y-67713481D01*
X68740553Y-67704858D01*
X68752969Y-67697417D01*
X68766054Y-67691228D01*
X68779683Y-67686351D01*
X68793724Y-67682834D01*
X68808042Y-67680710D01*
X68822500Y-67680000D01*
X69117500Y-67680000D01*
X69131958Y-67680710D01*
G37*
G04 #@! TD.AperFunction*
G04 #@! TA.AperFunction,SMDPad,CuDef*
G36*
X68161958Y-67680710D02*
G01*
X68176276Y-67682834D01*
X68190317Y-67686351D01*
X68203946Y-67691228D01*
X68217031Y-67697417D01*
X68229447Y-67704858D01*
X68241073Y-67713481D01*
X68251798Y-67723202D01*
X68261519Y-67733927D01*
X68270142Y-67745553D01*
X68277583Y-67757969D01*
X68283772Y-67771054D01*
X68288649Y-67784683D01*
X68292166Y-67798724D01*
X68294290Y-67813042D01*
X68295000Y-67827500D01*
X68295000Y-68172500D01*
X68294290Y-68186958D01*
X68292166Y-68201276D01*
X68288649Y-68215317D01*
X68283772Y-68228946D01*
X68277583Y-68242031D01*
X68270142Y-68254447D01*
X68261519Y-68266073D01*
X68251798Y-68276798D01*
X68241073Y-68286519D01*
X68229447Y-68295142D01*
X68217031Y-68302583D01*
X68203946Y-68308772D01*
X68190317Y-68313649D01*
X68176276Y-68317166D01*
X68161958Y-68319290D01*
X68147500Y-68320000D01*
X67852500Y-68320000D01*
X67838042Y-68319290D01*
X67823724Y-68317166D01*
X67809683Y-68313649D01*
X67796054Y-68308772D01*
X67782969Y-68302583D01*
X67770553Y-68295142D01*
X67758927Y-68286519D01*
X67748202Y-68276798D01*
X67738481Y-68266073D01*
X67729858Y-68254447D01*
X67722417Y-68242031D01*
X67716228Y-68228946D01*
X67711351Y-68215317D01*
X67707834Y-68201276D01*
X67705710Y-68186958D01*
X67705000Y-68172500D01*
X67705000Y-67827500D01*
X67705710Y-67813042D01*
X67707834Y-67798724D01*
X67711351Y-67784683D01*
X67716228Y-67771054D01*
X67722417Y-67757969D01*
X67729858Y-67745553D01*
X67738481Y-67733927D01*
X67748202Y-67723202D01*
X67758927Y-67713481D01*
X67770553Y-67704858D01*
X67782969Y-67697417D01*
X67796054Y-67691228D01*
X67809683Y-67686351D01*
X67823724Y-67682834D01*
X67838042Y-67680710D01*
X67852500Y-67680000D01*
X68147500Y-67680000D01*
X68161958Y-67680710D01*
G37*
G04 #@! TD.AperFunction*
G04 #@! TA.AperFunction,SMDPad,CuDef*
G36*
X65815191Y-67526053D02*
G01*
X65836426Y-67529203D01*
X65857250Y-67534419D01*
X65877462Y-67541651D01*
X65896868Y-67550830D01*
X65915281Y-67561866D01*
X65932524Y-67574654D01*
X65948430Y-67589070D01*
X65962846Y-67604976D01*
X65975634Y-67622219D01*
X65986670Y-67640632D01*
X65995849Y-67660038D01*
X66003081Y-67680250D01*
X66008297Y-67701074D01*
X66011447Y-67722309D01*
X66012500Y-67743750D01*
X66012500Y-68256250D01*
X66011447Y-68277691D01*
X66008297Y-68298926D01*
X66003081Y-68319750D01*
X65995849Y-68339962D01*
X65986670Y-68359368D01*
X65975634Y-68377781D01*
X65962846Y-68395024D01*
X65948430Y-68410930D01*
X65932524Y-68425346D01*
X65915281Y-68438134D01*
X65896868Y-68449170D01*
X65877462Y-68458349D01*
X65857250Y-68465581D01*
X65836426Y-68470797D01*
X65815191Y-68473947D01*
X65793750Y-68475000D01*
X65356250Y-68475000D01*
X65334809Y-68473947D01*
X65313574Y-68470797D01*
X65292750Y-68465581D01*
X65272538Y-68458349D01*
X65253132Y-68449170D01*
X65234719Y-68438134D01*
X65217476Y-68425346D01*
X65201570Y-68410930D01*
X65187154Y-68395024D01*
X65174366Y-68377781D01*
X65163330Y-68359368D01*
X65154151Y-68339962D01*
X65146919Y-68319750D01*
X65141703Y-68298926D01*
X65138553Y-68277691D01*
X65137500Y-68256250D01*
X65137500Y-67743750D01*
X65138553Y-67722309D01*
X65141703Y-67701074D01*
X65146919Y-67680250D01*
X65154151Y-67660038D01*
X65163330Y-67640632D01*
X65174366Y-67622219D01*
X65187154Y-67604976D01*
X65201570Y-67589070D01*
X65217476Y-67574654D01*
X65234719Y-67561866D01*
X65253132Y-67550830D01*
X65272538Y-67541651D01*
X65292750Y-67534419D01*
X65313574Y-67529203D01*
X65334809Y-67526053D01*
X65356250Y-67525000D01*
X65793750Y-67525000D01*
X65815191Y-67526053D01*
G37*
G04 #@! TD.AperFunction*
G04 #@! TA.AperFunction,SMDPad,CuDef*
G36*
X64240191Y-67526053D02*
G01*
X64261426Y-67529203D01*
X64282250Y-67534419D01*
X64302462Y-67541651D01*
X64321868Y-67550830D01*
X64340281Y-67561866D01*
X64357524Y-67574654D01*
X64373430Y-67589070D01*
X64387846Y-67604976D01*
X64400634Y-67622219D01*
X64411670Y-67640632D01*
X64420849Y-67660038D01*
X64428081Y-67680250D01*
X64433297Y-67701074D01*
X64436447Y-67722309D01*
X64437500Y-67743750D01*
X64437500Y-68256250D01*
X64436447Y-68277691D01*
X64433297Y-68298926D01*
X64428081Y-68319750D01*
X64420849Y-68339962D01*
X64411670Y-68359368D01*
X64400634Y-68377781D01*
X64387846Y-68395024D01*
X64373430Y-68410930D01*
X64357524Y-68425346D01*
X64340281Y-68438134D01*
X64321868Y-68449170D01*
X64302462Y-68458349D01*
X64282250Y-68465581D01*
X64261426Y-68470797D01*
X64240191Y-68473947D01*
X64218750Y-68475000D01*
X63781250Y-68475000D01*
X63759809Y-68473947D01*
X63738574Y-68470797D01*
X63717750Y-68465581D01*
X63697538Y-68458349D01*
X63678132Y-68449170D01*
X63659719Y-68438134D01*
X63642476Y-68425346D01*
X63626570Y-68410930D01*
X63612154Y-68395024D01*
X63599366Y-68377781D01*
X63588330Y-68359368D01*
X63579151Y-68339962D01*
X63571919Y-68319750D01*
X63566703Y-68298926D01*
X63563553Y-68277691D01*
X63562500Y-68256250D01*
X63562500Y-67743750D01*
X63563553Y-67722309D01*
X63566703Y-67701074D01*
X63571919Y-67680250D01*
X63579151Y-67660038D01*
X63588330Y-67640632D01*
X63599366Y-67622219D01*
X63612154Y-67604976D01*
X63626570Y-67589070D01*
X63642476Y-67574654D01*
X63659719Y-67561866D01*
X63678132Y-67550830D01*
X63697538Y-67541651D01*
X63717750Y-67534419D01*
X63738574Y-67529203D01*
X63759809Y-67526053D01*
X63781250Y-67525000D01*
X64218750Y-67525000D01*
X64240191Y-67526053D01*
G37*
G04 #@! TD.AperFunction*
D13*
X89000000Y-86080000D03*
X89000000Y-83540000D03*
X89000000Y-81000000D03*
D11*
X58000000Y-69680000D03*
X58000000Y-72220000D03*
X58000000Y-74760000D03*
X58000000Y-77300000D03*
X58000000Y-79840000D03*
X58000000Y-82380000D03*
X58000000Y-84920000D03*
X58000000Y-87460000D03*
D12*
X58000000Y-90000000D03*
G04 #@! TA.AperFunction,SMDPad,CuDef*
D10*
G36*
X45646958Y-101680710D02*
G01*
X45661276Y-101682834D01*
X45675317Y-101686351D01*
X45688946Y-101691228D01*
X45702031Y-101697417D01*
X45714447Y-101704858D01*
X45726073Y-101713481D01*
X45736798Y-101723202D01*
X45746519Y-101733927D01*
X45755142Y-101745553D01*
X45762583Y-101757969D01*
X45768772Y-101771054D01*
X45773649Y-101784683D01*
X45777166Y-101798724D01*
X45779290Y-101813042D01*
X45780000Y-101827500D01*
X45780000Y-102172500D01*
X45779290Y-102186958D01*
X45777166Y-102201276D01*
X45773649Y-102215317D01*
X45768772Y-102228946D01*
X45762583Y-102242031D01*
X45755142Y-102254447D01*
X45746519Y-102266073D01*
X45736798Y-102276798D01*
X45726073Y-102286519D01*
X45714447Y-102295142D01*
X45702031Y-102302583D01*
X45688946Y-102308772D01*
X45675317Y-102313649D01*
X45661276Y-102317166D01*
X45646958Y-102319290D01*
X45632500Y-102320000D01*
X45337500Y-102320000D01*
X45323042Y-102319290D01*
X45308724Y-102317166D01*
X45294683Y-102313649D01*
X45281054Y-102308772D01*
X45267969Y-102302583D01*
X45255553Y-102295142D01*
X45243927Y-102286519D01*
X45233202Y-102276798D01*
X45223481Y-102266073D01*
X45214858Y-102254447D01*
X45207417Y-102242031D01*
X45201228Y-102228946D01*
X45196351Y-102215317D01*
X45192834Y-102201276D01*
X45190710Y-102186958D01*
X45190000Y-102172500D01*
X45190000Y-101827500D01*
X45190710Y-101813042D01*
X45192834Y-101798724D01*
X45196351Y-101784683D01*
X45201228Y-101771054D01*
X45207417Y-101757969D01*
X45214858Y-101745553D01*
X45223481Y-101733927D01*
X45233202Y-101723202D01*
X45243927Y-101713481D01*
X45255553Y-101704858D01*
X45267969Y-101697417D01*
X45281054Y-101691228D01*
X45294683Y-101686351D01*
X45308724Y-101682834D01*
X45323042Y-101680710D01*
X45337500Y-101680000D01*
X45632500Y-101680000D01*
X45646958Y-101680710D01*
G37*
G04 #@! TD.AperFunction*
G04 #@! TA.AperFunction,SMDPad,CuDef*
G36*
X44676958Y-101680710D02*
G01*
X44691276Y-101682834D01*
X44705317Y-101686351D01*
X44718946Y-101691228D01*
X44732031Y-101697417D01*
X44744447Y-101704858D01*
X44756073Y-101713481D01*
X44766798Y-101723202D01*
X44776519Y-101733927D01*
X44785142Y-101745553D01*
X44792583Y-101757969D01*
X44798772Y-101771054D01*
X44803649Y-101784683D01*
X44807166Y-101798724D01*
X44809290Y-101813042D01*
X44810000Y-101827500D01*
X44810000Y-102172500D01*
X44809290Y-102186958D01*
X44807166Y-102201276D01*
X44803649Y-102215317D01*
X44798772Y-102228946D01*
X44792583Y-102242031D01*
X44785142Y-102254447D01*
X44776519Y-102266073D01*
X44766798Y-102276798D01*
X44756073Y-102286519D01*
X44744447Y-102295142D01*
X44732031Y-102302583D01*
X44718946Y-102308772D01*
X44705317Y-102313649D01*
X44691276Y-102317166D01*
X44676958Y-102319290D01*
X44662500Y-102320000D01*
X44367500Y-102320000D01*
X44353042Y-102319290D01*
X44338724Y-102317166D01*
X44324683Y-102313649D01*
X44311054Y-102308772D01*
X44297969Y-102302583D01*
X44285553Y-102295142D01*
X44273927Y-102286519D01*
X44263202Y-102276798D01*
X44253481Y-102266073D01*
X44244858Y-102254447D01*
X44237417Y-102242031D01*
X44231228Y-102228946D01*
X44226351Y-102215317D01*
X44222834Y-102201276D01*
X44220710Y-102186958D01*
X44220000Y-102172500D01*
X44220000Y-101827500D01*
X44220710Y-101813042D01*
X44222834Y-101798724D01*
X44226351Y-101784683D01*
X44231228Y-101771054D01*
X44237417Y-101757969D01*
X44244858Y-101745553D01*
X44253481Y-101733927D01*
X44263202Y-101723202D01*
X44273927Y-101713481D01*
X44285553Y-101704858D01*
X44297969Y-101697417D01*
X44311054Y-101691228D01*
X44324683Y-101686351D01*
X44338724Y-101682834D01*
X44353042Y-101680710D01*
X44367500Y-101680000D01*
X44662500Y-101680000D01*
X44676958Y-101680710D01*
G37*
G04 #@! TD.AperFunction*
G04 #@! TA.AperFunction,SMDPad,CuDef*
G36*
X41646958Y-101680710D02*
G01*
X41661276Y-101682834D01*
X41675317Y-101686351D01*
X41688946Y-101691228D01*
X41702031Y-101697417D01*
X41714447Y-101704858D01*
X41726073Y-101713481D01*
X41736798Y-101723202D01*
X41746519Y-101733927D01*
X41755142Y-101745553D01*
X41762583Y-101757969D01*
X41768772Y-101771054D01*
X41773649Y-101784683D01*
X41777166Y-101798724D01*
X41779290Y-101813042D01*
X41780000Y-101827500D01*
X41780000Y-102172500D01*
X41779290Y-102186958D01*
X41777166Y-102201276D01*
X41773649Y-102215317D01*
X41768772Y-102228946D01*
X41762583Y-102242031D01*
X41755142Y-102254447D01*
X41746519Y-102266073D01*
X41736798Y-102276798D01*
X41726073Y-102286519D01*
X41714447Y-102295142D01*
X41702031Y-102302583D01*
X41688946Y-102308772D01*
X41675317Y-102313649D01*
X41661276Y-102317166D01*
X41646958Y-102319290D01*
X41632500Y-102320000D01*
X41337500Y-102320000D01*
X41323042Y-102319290D01*
X41308724Y-102317166D01*
X41294683Y-102313649D01*
X41281054Y-102308772D01*
X41267969Y-102302583D01*
X41255553Y-102295142D01*
X41243927Y-102286519D01*
X41233202Y-102276798D01*
X41223481Y-102266073D01*
X41214858Y-102254447D01*
X41207417Y-102242031D01*
X41201228Y-102228946D01*
X41196351Y-102215317D01*
X41192834Y-102201276D01*
X41190710Y-102186958D01*
X41190000Y-102172500D01*
X41190000Y-101827500D01*
X41190710Y-101813042D01*
X41192834Y-101798724D01*
X41196351Y-101784683D01*
X41201228Y-101771054D01*
X41207417Y-101757969D01*
X41214858Y-101745553D01*
X41223481Y-101733927D01*
X41233202Y-101723202D01*
X41243927Y-101713481D01*
X41255553Y-101704858D01*
X41267969Y-101697417D01*
X41281054Y-101691228D01*
X41294683Y-101686351D01*
X41308724Y-101682834D01*
X41323042Y-101680710D01*
X41337500Y-101680000D01*
X41632500Y-101680000D01*
X41646958Y-101680710D01*
G37*
G04 #@! TD.AperFunction*
G04 #@! TA.AperFunction,SMDPad,CuDef*
G36*
X40676958Y-101680710D02*
G01*
X40691276Y-101682834D01*
X40705317Y-101686351D01*
X40718946Y-101691228D01*
X40732031Y-101697417D01*
X40744447Y-101704858D01*
X40756073Y-101713481D01*
X40766798Y-101723202D01*
X40776519Y-101733927D01*
X40785142Y-101745553D01*
X40792583Y-101757969D01*
X40798772Y-101771054D01*
X40803649Y-101784683D01*
X40807166Y-101798724D01*
X40809290Y-101813042D01*
X40810000Y-101827500D01*
X40810000Y-102172500D01*
X40809290Y-102186958D01*
X40807166Y-102201276D01*
X40803649Y-102215317D01*
X40798772Y-102228946D01*
X40792583Y-102242031D01*
X40785142Y-102254447D01*
X40776519Y-102266073D01*
X40766798Y-102276798D01*
X40756073Y-102286519D01*
X40744447Y-102295142D01*
X40732031Y-102302583D01*
X40718946Y-102308772D01*
X40705317Y-102313649D01*
X40691276Y-102317166D01*
X40676958Y-102319290D01*
X40662500Y-102320000D01*
X40367500Y-102320000D01*
X40353042Y-102319290D01*
X40338724Y-102317166D01*
X40324683Y-102313649D01*
X40311054Y-102308772D01*
X40297969Y-102302583D01*
X40285553Y-102295142D01*
X40273927Y-102286519D01*
X40263202Y-102276798D01*
X40253481Y-102266073D01*
X40244858Y-102254447D01*
X40237417Y-102242031D01*
X40231228Y-102228946D01*
X40226351Y-102215317D01*
X40222834Y-102201276D01*
X40220710Y-102186958D01*
X40220000Y-102172500D01*
X40220000Y-101827500D01*
X40220710Y-101813042D01*
X40222834Y-101798724D01*
X40226351Y-101784683D01*
X40231228Y-101771054D01*
X40237417Y-101757969D01*
X40244858Y-101745553D01*
X40253481Y-101733927D01*
X40263202Y-101723202D01*
X40273927Y-101713481D01*
X40285553Y-101704858D01*
X40297969Y-101697417D01*
X40311054Y-101691228D01*
X40324683Y-101686351D01*
X40338724Y-101682834D01*
X40353042Y-101680710D01*
X40367500Y-101680000D01*
X40662500Y-101680000D01*
X40676958Y-101680710D01*
G37*
G04 #@! TD.AperFunction*
D11*
X116540000Y-70380000D03*
X114000000Y-70380000D03*
X116540000Y-72920000D03*
X114000000Y-72920000D03*
X116540000Y-75460000D03*
X114000000Y-75460000D03*
X116540000Y-78000000D03*
D12*
X114000000Y-78000000D03*
D14*
X31000000Y-54000000D03*
D15*
X103000000Y-54000000D03*
G04 #@! TA.AperFunction,SMDPad,CuDef*
D10*
G36*
X110950000Y-24850000D02*
G01*
X110950000Y-24350000D01*
X110950602Y-24350000D01*
X110950602Y-24325466D01*
X110955412Y-24276635D01*
X110964984Y-24228510D01*
X110979228Y-24181555D01*
X110998005Y-24136222D01*
X111021136Y-24092949D01*
X111048396Y-24052150D01*
X111079524Y-24014221D01*
X111114221Y-23979524D01*
X111152150Y-23948396D01*
X111192949Y-23921136D01*
X111236222Y-23898005D01*
X111281555Y-23879228D01*
X111328510Y-23864984D01*
X111376635Y-23855412D01*
X111425466Y-23850602D01*
X111450000Y-23850602D01*
X111450000Y-23850000D01*
X111950000Y-23850000D01*
X111950000Y-23850602D01*
X111974534Y-23850602D01*
X112023365Y-23855412D01*
X112071490Y-23864984D01*
X112118445Y-23879228D01*
X112163778Y-23898005D01*
X112207051Y-23921136D01*
X112247850Y-23948396D01*
X112285779Y-23979524D01*
X112320476Y-24014221D01*
X112351604Y-24052150D01*
X112378864Y-24092949D01*
X112401995Y-24136222D01*
X112420772Y-24181555D01*
X112435016Y-24228510D01*
X112444588Y-24276635D01*
X112449398Y-24325466D01*
X112449398Y-24350000D01*
X112450000Y-24350000D01*
X112450000Y-24850000D01*
X110950000Y-24850000D01*
G37*
G04 #@! TD.AperFunction*
G04 #@! TA.AperFunction,SMDPad,CuDef*
G36*
X112449398Y-25650000D02*
G01*
X112449398Y-25674534D01*
X112444588Y-25723365D01*
X112435016Y-25771490D01*
X112420772Y-25818445D01*
X112401995Y-25863778D01*
X112378864Y-25907051D01*
X112351604Y-25947850D01*
X112320476Y-25985779D01*
X112285779Y-26020476D01*
X112247850Y-26051604D01*
X112207051Y-26078864D01*
X112163778Y-26101995D01*
X112118445Y-26120772D01*
X112071490Y-26135016D01*
X112023365Y-26144588D01*
X111974534Y-26149398D01*
X111950000Y-26149398D01*
X111950000Y-26150000D01*
X111450000Y-26150000D01*
X111450000Y-26149398D01*
X111425466Y-26149398D01*
X111376635Y-26144588D01*
X111328510Y-26135016D01*
X111281555Y-26120772D01*
X111236222Y-26101995D01*
X111192949Y-26078864D01*
X111152150Y-26051604D01*
X111114221Y-26020476D01*
X111079524Y-25985779D01*
X111048396Y-25947850D01*
X111021136Y-25907051D01*
X110998005Y-25863778D01*
X110979228Y-25818445D01*
X110964984Y-25771490D01*
X110955412Y-25723365D01*
X110950602Y-25674534D01*
X110950602Y-25650000D01*
X110950000Y-25650000D01*
X110950000Y-25150000D01*
X112450000Y-25150000D01*
X112450000Y-25650000D01*
X112449398Y-25650000D01*
G37*
G04 #@! TD.AperFunction*
D11*
X120000000Y-32000000D03*
D12*
X120000000Y-29460000D03*
D16*
X117400000Y-54200000D03*
D17*
X112400000Y-54200000D03*
D18*
X118300000Y-35850000D03*
X113700000Y-35850000D03*
X116000000Y-35850000D03*
D19*
X116000000Y-42150000D03*
D20*
X110000000Y-109160000D03*
X115080000Y-109160000D03*
X110000000Y-101540000D03*
D21*
X110000000Y-99000000D03*
D20*
X115080000Y-101540000D03*
X115080000Y-99000000D03*
X101000000Y-109160000D03*
X106080000Y-109160000D03*
X101000000Y-101540000D03*
D21*
X101000000Y-99000000D03*
D20*
X106080000Y-101540000D03*
X106080000Y-99000000D03*
D11*
X120000000Y-108080000D03*
X120000000Y-105540000D03*
X120000000Y-103000000D03*
D12*
X120000000Y-100460000D03*
G04 #@! TA.AperFunction,SMDPad,CuDef*
D10*
G36*
X85186958Y-105190710D02*
G01*
X85201276Y-105192834D01*
X85215317Y-105196351D01*
X85228946Y-105201228D01*
X85242031Y-105207417D01*
X85254447Y-105214858D01*
X85266073Y-105223481D01*
X85276798Y-105233202D01*
X85286519Y-105243927D01*
X85295142Y-105255553D01*
X85302583Y-105267969D01*
X85308772Y-105281054D01*
X85313649Y-105294683D01*
X85317166Y-105308724D01*
X85319290Y-105323042D01*
X85320000Y-105337500D01*
X85320000Y-105632500D01*
X85319290Y-105646958D01*
X85317166Y-105661276D01*
X85313649Y-105675317D01*
X85308772Y-105688946D01*
X85302583Y-105702031D01*
X85295142Y-105714447D01*
X85286519Y-105726073D01*
X85276798Y-105736798D01*
X85266073Y-105746519D01*
X85254447Y-105755142D01*
X85242031Y-105762583D01*
X85228946Y-105768772D01*
X85215317Y-105773649D01*
X85201276Y-105777166D01*
X85186958Y-105779290D01*
X85172500Y-105780000D01*
X84827500Y-105780000D01*
X84813042Y-105779290D01*
X84798724Y-105777166D01*
X84784683Y-105773649D01*
X84771054Y-105768772D01*
X84757969Y-105762583D01*
X84745553Y-105755142D01*
X84733927Y-105746519D01*
X84723202Y-105736798D01*
X84713481Y-105726073D01*
X84704858Y-105714447D01*
X84697417Y-105702031D01*
X84691228Y-105688946D01*
X84686351Y-105675317D01*
X84682834Y-105661276D01*
X84680710Y-105646958D01*
X84680000Y-105632500D01*
X84680000Y-105337500D01*
X84680710Y-105323042D01*
X84682834Y-105308724D01*
X84686351Y-105294683D01*
X84691228Y-105281054D01*
X84697417Y-105267969D01*
X84704858Y-105255553D01*
X84713481Y-105243927D01*
X84723202Y-105233202D01*
X84733927Y-105223481D01*
X84745553Y-105214858D01*
X84757969Y-105207417D01*
X84771054Y-105201228D01*
X84784683Y-105196351D01*
X84798724Y-105192834D01*
X84813042Y-105190710D01*
X84827500Y-105190000D01*
X85172500Y-105190000D01*
X85186958Y-105190710D01*
G37*
G04 #@! TD.AperFunction*
G04 #@! TA.AperFunction,SMDPad,CuDef*
G36*
X85186958Y-104220710D02*
G01*
X85201276Y-104222834D01*
X85215317Y-104226351D01*
X85228946Y-104231228D01*
X85242031Y-104237417D01*
X85254447Y-104244858D01*
X85266073Y-104253481D01*
X85276798Y-104263202D01*
X85286519Y-104273927D01*
X85295142Y-104285553D01*
X85302583Y-104297969D01*
X85308772Y-104311054D01*
X85313649Y-104324683D01*
X85317166Y-104338724D01*
X85319290Y-104353042D01*
X85320000Y-104367500D01*
X85320000Y-104662500D01*
X85319290Y-104676958D01*
X85317166Y-104691276D01*
X85313649Y-104705317D01*
X85308772Y-104718946D01*
X85302583Y-104732031D01*
X85295142Y-104744447D01*
X85286519Y-104756073D01*
X85276798Y-104766798D01*
X85266073Y-104776519D01*
X85254447Y-104785142D01*
X85242031Y-104792583D01*
X85228946Y-104798772D01*
X85215317Y-104803649D01*
X85201276Y-104807166D01*
X85186958Y-104809290D01*
X85172500Y-104810000D01*
X84827500Y-104810000D01*
X84813042Y-104809290D01*
X84798724Y-104807166D01*
X84784683Y-104803649D01*
X84771054Y-104798772D01*
X84757969Y-104792583D01*
X84745553Y-104785142D01*
X84733927Y-104776519D01*
X84723202Y-104766798D01*
X84713481Y-104756073D01*
X84704858Y-104744447D01*
X84697417Y-104732031D01*
X84691228Y-104718946D01*
X84686351Y-104705317D01*
X84682834Y-104691276D01*
X84680710Y-104676958D01*
X84680000Y-104662500D01*
X84680000Y-104367500D01*
X84680710Y-104353042D01*
X84682834Y-104338724D01*
X84686351Y-104324683D01*
X84691228Y-104311054D01*
X84697417Y-104297969D01*
X84704858Y-104285553D01*
X84713481Y-104273927D01*
X84723202Y-104263202D01*
X84733927Y-104253481D01*
X84745553Y-104244858D01*
X84757969Y-104237417D01*
X84771054Y-104231228D01*
X84784683Y-104226351D01*
X84798724Y-104222834D01*
X84813042Y-104220710D01*
X84827500Y-104220000D01*
X85172500Y-104220000D01*
X85186958Y-104220710D01*
G37*
G04 #@! TD.AperFunction*
G04 #@! TA.AperFunction,SMDPad,CuDef*
G36*
X92186958Y-105190710D02*
G01*
X92201276Y-105192834D01*
X92215317Y-105196351D01*
X92228946Y-105201228D01*
X92242031Y-105207417D01*
X92254447Y-105214858D01*
X92266073Y-105223481D01*
X92276798Y-105233202D01*
X92286519Y-105243927D01*
X92295142Y-105255553D01*
X92302583Y-105267969D01*
X92308772Y-105281054D01*
X92313649Y-105294683D01*
X92317166Y-105308724D01*
X92319290Y-105323042D01*
X92320000Y-105337500D01*
X92320000Y-105632500D01*
X92319290Y-105646958D01*
X92317166Y-105661276D01*
X92313649Y-105675317D01*
X92308772Y-105688946D01*
X92302583Y-105702031D01*
X92295142Y-105714447D01*
X92286519Y-105726073D01*
X92276798Y-105736798D01*
X92266073Y-105746519D01*
X92254447Y-105755142D01*
X92242031Y-105762583D01*
X92228946Y-105768772D01*
X92215317Y-105773649D01*
X92201276Y-105777166D01*
X92186958Y-105779290D01*
X92172500Y-105780000D01*
X91827500Y-105780000D01*
X91813042Y-105779290D01*
X91798724Y-105777166D01*
X91784683Y-105773649D01*
X91771054Y-105768772D01*
X91757969Y-105762583D01*
X91745553Y-105755142D01*
X91733927Y-105746519D01*
X91723202Y-105736798D01*
X91713481Y-105726073D01*
X91704858Y-105714447D01*
X91697417Y-105702031D01*
X91691228Y-105688946D01*
X91686351Y-105675317D01*
X91682834Y-105661276D01*
X91680710Y-105646958D01*
X91680000Y-105632500D01*
X91680000Y-105337500D01*
X91680710Y-105323042D01*
X91682834Y-105308724D01*
X91686351Y-105294683D01*
X91691228Y-105281054D01*
X91697417Y-105267969D01*
X91704858Y-105255553D01*
X91713481Y-105243927D01*
X91723202Y-105233202D01*
X91733927Y-105223481D01*
X91745553Y-105214858D01*
X91757969Y-105207417D01*
X91771054Y-105201228D01*
X91784683Y-105196351D01*
X91798724Y-105192834D01*
X91813042Y-105190710D01*
X91827500Y-105190000D01*
X92172500Y-105190000D01*
X92186958Y-105190710D01*
G37*
G04 #@! TD.AperFunction*
G04 #@! TA.AperFunction,SMDPad,CuDef*
G36*
X92186958Y-104220710D02*
G01*
X92201276Y-104222834D01*
X92215317Y-104226351D01*
X92228946Y-104231228D01*
X92242031Y-104237417D01*
X92254447Y-104244858D01*
X92266073Y-104253481D01*
X92276798Y-104263202D01*
X92286519Y-104273927D01*
X92295142Y-104285553D01*
X92302583Y-104297969D01*
X92308772Y-104311054D01*
X92313649Y-104324683D01*
X92317166Y-104338724D01*
X92319290Y-104353042D01*
X92320000Y-104367500D01*
X92320000Y-104662500D01*
X92319290Y-104676958D01*
X92317166Y-104691276D01*
X92313649Y-104705317D01*
X92308772Y-104718946D01*
X92302583Y-104732031D01*
X92295142Y-104744447D01*
X92286519Y-104756073D01*
X92276798Y-104766798D01*
X92266073Y-104776519D01*
X92254447Y-104785142D01*
X92242031Y-104792583D01*
X92228946Y-104798772D01*
X92215317Y-104803649D01*
X92201276Y-104807166D01*
X92186958Y-104809290D01*
X92172500Y-104810000D01*
X91827500Y-104810000D01*
X91813042Y-104809290D01*
X91798724Y-104807166D01*
X91784683Y-104803649D01*
X91771054Y-104798772D01*
X91757969Y-104792583D01*
X91745553Y-104785142D01*
X91733927Y-104776519D01*
X91723202Y-104766798D01*
X91713481Y-104756073D01*
X91704858Y-104744447D01*
X91697417Y-104732031D01*
X91691228Y-104718946D01*
X91686351Y-104705317D01*
X91682834Y-104691276D01*
X91680710Y-104676958D01*
X91680000Y-104662500D01*
X91680000Y-104367500D01*
X91680710Y-104353042D01*
X91682834Y-104338724D01*
X91686351Y-104324683D01*
X91691228Y-104311054D01*
X91697417Y-104297969D01*
X91704858Y-104285553D01*
X91713481Y-104273927D01*
X91723202Y-104263202D01*
X91733927Y-104253481D01*
X91745553Y-104244858D01*
X91757969Y-104237417D01*
X91771054Y-104231228D01*
X91784683Y-104226351D01*
X91798724Y-104222834D01*
X91813042Y-104220710D01*
X91827500Y-104220000D01*
X92172500Y-104220000D01*
X92186958Y-104220710D01*
G37*
G04 #@! TD.AperFunction*
G04 #@! TA.AperFunction,SMDPad,CuDef*
G36*
X87186958Y-101190710D02*
G01*
X87201276Y-101192834D01*
X87215317Y-101196351D01*
X87228946Y-101201228D01*
X87242031Y-101207417D01*
X87254447Y-101214858D01*
X87266073Y-101223481D01*
X87276798Y-101233202D01*
X87286519Y-101243927D01*
X87295142Y-101255553D01*
X87302583Y-101267969D01*
X87308772Y-101281054D01*
X87313649Y-101294683D01*
X87317166Y-101308724D01*
X87319290Y-101323042D01*
X87320000Y-101337500D01*
X87320000Y-101632500D01*
X87319290Y-101646958D01*
X87317166Y-101661276D01*
X87313649Y-101675317D01*
X87308772Y-101688946D01*
X87302583Y-101702031D01*
X87295142Y-101714447D01*
X87286519Y-101726073D01*
X87276798Y-101736798D01*
X87266073Y-101746519D01*
X87254447Y-101755142D01*
X87242031Y-101762583D01*
X87228946Y-101768772D01*
X87215317Y-101773649D01*
X87201276Y-101777166D01*
X87186958Y-101779290D01*
X87172500Y-101780000D01*
X86827500Y-101780000D01*
X86813042Y-101779290D01*
X86798724Y-101777166D01*
X86784683Y-101773649D01*
X86771054Y-101768772D01*
X86757969Y-101762583D01*
X86745553Y-101755142D01*
X86733927Y-101746519D01*
X86723202Y-101736798D01*
X86713481Y-101726073D01*
X86704858Y-101714447D01*
X86697417Y-101702031D01*
X86691228Y-101688946D01*
X86686351Y-101675317D01*
X86682834Y-101661276D01*
X86680710Y-101646958D01*
X86680000Y-101632500D01*
X86680000Y-101337500D01*
X86680710Y-101323042D01*
X86682834Y-101308724D01*
X86686351Y-101294683D01*
X86691228Y-101281054D01*
X86697417Y-101267969D01*
X86704858Y-101255553D01*
X86713481Y-101243927D01*
X86723202Y-101233202D01*
X86733927Y-101223481D01*
X86745553Y-101214858D01*
X86757969Y-101207417D01*
X86771054Y-101201228D01*
X86784683Y-101196351D01*
X86798724Y-101192834D01*
X86813042Y-101190710D01*
X86827500Y-101190000D01*
X87172500Y-101190000D01*
X87186958Y-101190710D01*
G37*
G04 #@! TD.AperFunction*
G04 #@! TA.AperFunction,SMDPad,CuDef*
G36*
X87186958Y-100220710D02*
G01*
X87201276Y-100222834D01*
X87215317Y-100226351D01*
X87228946Y-100231228D01*
X87242031Y-100237417D01*
X87254447Y-100244858D01*
X87266073Y-100253481D01*
X87276798Y-100263202D01*
X87286519Y-100273927D01*
X87295142Y-100285553D01*
X87302583Y-100297969D01*
X87308772Y-100311054D01*
X87313649Y-100324683D01*
X87317166Y-100338724D01*
X87319290Y-100353042D01*
X87320000Y-100367500D01*
X87320000Y-100662500D01*
X87319290Y-100676958D01*
X87317166Y-100691276D01*
X87313649Y-100705317D01*
X87308772Y-100718946D01*
X87302583Y-100732031D01*
X87295142Y-100744447D01*
X87286519Y-100756073D01*
X87276798Y-100766798D01*
X87266073Y-100776519D01*
X87254447Y-100785142D01*
X87242031Y-100792583D01*
X87228946Y-100798772D01*
X87215317Y-100803649D01*
X87201276Y-100807166D01*
X87186958Y-100809290D01*
X87172500Y-100810000D01*
X86827500Y-100810000D01*
X86813042Y-100809290D01*
X86798724Y-100807166D01*
X86784683Y-100803649D01*
X86771054Y-100798772D01*
X86757969Y-100792583D01*
X86745553Y-100785142D01*
X86733927Y-100776519D01*
X86723202Y-100766798D01*
X86713481Y-100756073D01*
X86704858Y-100744447D01*
X86697417Y-100732031D01*
X86691228Y-100718946D01*
X86686351Y-100705317D01*
X86682834Y-100691276D01*
X86680710Y-100676958D01*
X86680000Y-100662500D01*
X86680000Y-100367500D01*
X86680710Y-100353042D01*
X86682834Y-100338724D01*
X86686351Y-100324683D01*
X86691228Y-100311054D01*
X86697417Y-100297969D01*
X86704858Y-100285553D01*
X86713481Y-100273927D01*
X86723202Y-100263202D01*
X86733927Y-100253481D01*
X86745553Y-100244858D01*
X86757969Y-100237417D01*
X86771054Y-100231228D01*
X86784683Y-100226351D01*
X86798724Y-100222834D01*
X86813042Y-100220710D01*
X86827500Y-100220000D01*
X87172500Y-100220000D01*
X87186958Y-100220710D01*
G37*
G04 #@! TD.AperFunction*
G04 #@! TA.AperFunction,SMDPad,CuDef*
G36*
X94186958Y-100705710D02*
G01*
X94201276Y-100707834D01*
X94215317Y-100711351D01*
X94228946Y-100716228D01*
X94242031Y-100722417D01*
X94254447Y-100729858D01*
X94266073Y-100738481D01*
X94276798Y-100748202D01*
X94286519Y-100758927D01*
X94295142Y-100770553D01*
X94302583Y-100782969D01*
X94308772Y-100796054D01*
X94313649Y-100809683D01*
X94317166Y-100823724D01*
X94319290Y-100838042D01*
X94320000Y-100852500D01*
X94320000Y-101147500D01*
X94319290Y-101161958D01*
X94317166Y-101176276D01*
X94313649Y-101190317D01*
X94308772Y-101203946D01*
X94302583Y-101217031D01*
X94295142Y-101229447D01*
X94286519Y-101241073D01*
X94276798Y-101251798D01*
X94266073Y-101261519D01*
X94254447Y-101270142D01*
X94242031Y-101277583D01*
X94228946Y-101283772D01*
X94215317Y-101288649D01*
X94201276Y-101292166D01*
X94186958Y-101294290D01*
X94172500Y-101295000D01*
X93827500Y-101295000D01*
X93813042Y-101294290D01*
X93798724Y-101292166D01*
X93784683Y-101288649D01*
X93771054Y-101283772D01*
X93757969Y-101277583D01*
X93745553Y-101270142D01*
X93733927Y-101261519D01*
X93723202Y-101251798D01*
X93713481Y-101241073D01*
X93704858Y-101229447D01*
X93697417Y-101217031D01*
X93691228Y-101203946D01*
X93686351Y-101190317D01*
X93682834Y-101176276D01*
X93680710Y-101161958D01*
X93680000Y-101147500D01*
X93680000Y-100852500D01*
X93680710Y-100838042D01*
X93682834Y-100823724D01*
X93686351Y-100809683D01*
X93691228Y-100796054D01*
X93697417Y-100782969D01*
X93704858Y-100770553D01*
X93713481Y-100758927D01*
X93723202Y-100748202D01*
X93733927Y-100738481D01*
X93745553Y-100729858D01*
X93757969Y-100722417D01*
X93771054Y-100716228D01*
X93784683Y-100711351D01*
X93798724Y-100707834D01*
X93813042Y-100705710D01*
X93827500Y-100705000D01*
X94172500Y-100705000D01*
X94186958Y-100705710D01*
G37*
G04 #@! TD.AperFunction*
G04 #@! TA.AperFunction,SMDPad,CuDef*
G36*
X94186958Y-99735710D02*
G01*
X94201276Y-99737834D01*
X94215317Y-99741351D01*
X94228946Y-99746228D01*
X94242031Y-99752417D01*
X94254447Y-99759858D01*
X94266073Y-99768481D01*
X94276798Y-99778202D01*
X94286519Y-99788927D01*
X94295142Y-99800553D01*
X94302583Y-99812969D01*
X94308772Y-99826054D01*
X94313649Y-99839683D01*
X94317166Y-99853724D01*
X94319290Y-99868042D01*
X94320000Y-99882500D01*
X94320000Y-100177500D01*
X94319290Y-100191958D01*
X94317166Y-100206276D01*
X94313649Y-100220317D01*
X94308772Y-100233946D01*
X94302583Y-100247031D01*
X94295142Y-100259447D01*
X94286519Y-100271073D01*
X94276798Y-100281798D01*
X94266073Y-100291519D01*
X94254447Y-100300142D01*
X94242031Y-100307583D01*
X94228946Y-100313772D01*
X94215317Y-100318649D01*
X94201276Y-100322166D01*
X94186958Y-100324290D01*
X94172500Y-100325000D01*
X93827500Y-100325000D01*
X93813042Y-100324290D01*
X93798724Y-100322166D01*
X93784683Y-100318649D01*
X93771054Y-100313772D01*
X93757969Y-100307583D01*
X93745553Y-100300142D01*
X93733927Y-100291519D01*
X93723202Y-100281798D01*
X93713481Y-100271073D01*
X93704858Y-100259447D01*
X93697417Y-100247031D01*
X93691228Y-100233946D01*
X93686351Y-100220317D01*
X93682834Y-100206276D01*
X93680710Y-100191958D01*
X93680000Y-100177500D01*
X93680000Y-99882500D01*
X93680710Y-99868042D01*
X93682834Y-99853724D01*
X93686351Y-99839683D01*
X93691228Y-99826054D01*
X93697417Y-99812969D01*
X93704858Y-99800553D01*
X93713481Y-99788927D01*
X93723202Y-99778202D01*
X93733927Y-99768481D01*
X93745553Y-99759858D01*
X93757969Y-99752417D01*
X93771054Y-99746228D01*
X93784683Y-99741351D01*
X93798724Y-99737834D01*
X93813042Y-99735710D01*
X93827500Y-99735000D01*
X94172500Y-99735000D01*
X94186958Y-99735710D01*
G37*
G04 #@! TD.AperFunction*
D22*
X89000000Y-105000000D03*
X87000000Y-105950000D03*
X87000000Y-104050000D03*
X96000000Y-105000000D03*
X94000000Y-105950000D03*
X94000000Y-104050000D03*
D23*
X96400000Y-109000000D03*
X93600000Y-109000000D03*
X89400000Y-109000000D03*
X86600000Y-109000000D03*
D13*
X58000000Y-102920000D03*
X58000000Y-105460000D03*
X58000000Y-108000000D03*
D11*
X49000000Y-108080000D03*
X49000000Y-105540000D03*
D12*
X49000000Y-103000000D03*
D11*
X51000000Y-83700000D03*
X51000000Y-81160000D03*
X51000000Y-78620000D03*
X51000000Y-76080000D03*
X51000000Y-73540000D03*
D12*
X51000000Y-71000000D03*
G04 #@! TA.AperFunction,SMDPad,CuDef*
D10*
G36*
X39650000Y-104250602D02*
G01*
X39674534Y-104250602D01*
X39723365Y-104255412D01*
X39771490Y-104264984D01*
X39818445Y-104279228D01*
X39863778Y-104298005D01*
X39907051Y-104321136D01*
X39947850Y-104348396D01*
X39985779Y-104379524D01*
X40020476Y-104414221D01*
X40051604Y-104452150D01*
X40078864Y-104492949D01*
X40101995Y-104536222D01*
X40120772Y-104581555D01*
X40135016Y-104628510D01*
X40144588Y-104676635D01*
X40149398Y-104725466D01*
X40149398Y-104750000D01*
X40150000Y-104750000D01*
X40150000Y-105250000D01*
X40149398Y-105250000D01*
X40149398Y-105274534D01*
X40144588Y-105323365D01*
X40135016Y-105371490D01*
X40120772Y-105418445D01*
X40101995Y-105463778D01*
X40078864Y-105507051D01*
X40051604Y-105547850D01*
X40020476Y-105585779D01*
X39985779Y-105620476D01*
X39947850Y-105651604D01*
X39907051Y-105678864D01*
X39863778Y-105701995D01*
X39818445Y-105720772D01*
X39771490Y-105735016D01*
X39723365Y-105744588D01*
X39674534Y-105749398D01*
X39650000Y-105749398D01*
X39650000Y-105750000D01*
X39150000Y-105750000D01*
X39150000Y-104250000D01*
X39650000Y-104250000D01*
X39650000Y-104250602D01*
G37*
G04 #@! TD.AperFunction*
G04 #@! TA.AperFunction,SMDPad,CuDef*
G36*
X38850000Y-105750000D02*
G01*
X38350000Y-105750000D01*
X38350000Y-105749398D01*
X38325466Y-105749398D01*
X38276635Y-105744588D01*
X38228510Y-105735016D01*
X38181555Y-105720772D01*
X38136222Y-105701995D01*
X38092949Y-105678864D01*
X38052150Y-105651604D01*
X38014221Y-105620476D01*
X37979524Y-105585779D01*
X37948396Y-105547850D01*
X37921136Y-105507051D01*
X37898005Y-105463778D01*
X37879228Y-105418445D01*
X37864984Y-105371490D01*
X37855412Y-105323365D01*
X37850602Y-105274534D01*
X37850602Y-105250000D01*
X37850000Y-105250000D01*
X37850000Y-104750000D01*
X37850602Y-104750000D01*
X37850602Y-104725466D01*
X37855412Y-104676635D01*
X37864984Y-104628510D01*
X37879228Y-104581555D01*
X37898005Y-104536222D01*
X37921136Y-104492949D01*
X37948396Y-104452150D01*
X37979524Y-104414221D01*
X38014221Y-104379524D01*
X38052150Y-104348396D01*
X38092949Y-104321136D01*
X38136222Y-104298005D01*
X38181555Y-104279228D01*
X38228510Y-104264984D01*
X38276635Y-104255412D01*
X38325466Y-104250602D01*
X38350000Y-104250602D01*
X38350000Y-104250000D01*
X38850000Y-104250000D01*
X38850000Y-105750000D01*
G37*
G04 #@! TD.AperFunction*
G04 #@! TA.AperFunction,SMDPad,CuDef*
G36*
X39650000Y-107250602D02*
G01*
X39674534Y-107250602D01*
X39723365Y-107255412D01*
X39771490Y-107264984D01*
X39818445Y-107279228D01*
X39863778Y-107298005D01*
X39907051Y-107321136D01*
X39947850Y-107348396D01*
X39985779Y-107379524D01*
X40020476Y-107414221D01*
X40051604Y-107452150D01*
X40078864Y-107492949D01*
X40101995Y-107536222D01*
X40120772Y-107581555D01*
X40135016Y-107628510D01*
X40144588Y-107676635D01*
X40149398Y-107725466D01*
X40149398Y-107750000D01*
X40150000Y-107750000D01*
X40150000Y-108250000D01*
X40149398Y-108250000D01*
X40149398Y-108274534D01*
X40144588Y-108323365D01*
X40135016Y-108371490D01*
X40120772Y-108418445D01*
X40101995Y-108463778D01*
X40078864Y-108507051D01*
X40051604Y-108547850D01*
X40020476Y-108585779D01*
X39985779Y-108620476D01*
X39947850Y-108651604D01*
X39907051Y-108678864D01*
X39863778Y-108701995D01*
X39818445Y-108720772D01*
X39771490Y-108735016D01*
X39723365Y-108744588D01*
X39674534Y-108749398D01*
X39650000Y-108749398D01*
X39650000Y-108750000D01*
X39150000Y-108750000D01*
X39150000Y-107250000D01*
X39650000Y-107250000D01*
X39650000Y-107250602D01*
G37*
G04 #@! TD.AperFunction*
G04 #@! TA.AperFunction,SMDPad,CuDef*
G36*
X38850000Y-108750000D02*
G01*
X38350000Y-108750000D01*
X38350000Y-108749398D01*
X38325466Y-108749398D01*
X38276635Y-108744588D01*
X38228510Y-108735016D01*
X38181555Y-108720772D01*
X38136222Y-108701995D01*
X38092949Y-108678864D01*
X38052150Y-108651604D01*
X38014221Y-108620476D01*
X37979524Y-108585779D01*
X37948396Y-108547850D01*
X37921136Y-108507051D01*
X37898005Y-108463778D01*
X37879228Y-108418445D01*
X37864984Y-108371490D01*
X37855412Y-108323365D01*
X37850602Y-108274534D01*
X37850602Y-108250000D01*
X37850000Y-108250000D01*
X37850000Y-107750000D01*
X37850602Y-107750000D01*
X37850602Y-107725466D01*
X37855412Y-107676635D01*
X37864984Y-107628510D01*
X37879228Y-107581555D01*
X37898005Y-107536222D01*
X37921136Y-107492949D01*
X37948396Y-107452150D01*
X37979524Y-107414221D01*
X38014221Y-107379524D01*
X38052150Y-107348396D01*
X38092949Y-107321136D01*
X38136222Y-107298005D01*
X38181555Y-107279228D01*
X38228510Y-107264984D01*
X38276635Y-107255412D01*
X38325466Y-107250602D01*
X38350000Y-107250602D01*
X38350000Y-107250000D01*
X38850000Y-107250000D01*
X38850000Y-108750000D01*
G37*
G04 #@! TD.AperFunction*
G04 #@! TA.AperFunction,SMDPad,CuDef*
G36*
X33650000Y-104250602D02*
G01*
X33674534Y-104250602D01*
X33723365Y-104255412D01*
X33771490Y-104264984D01*
X33818445Y-104279228D01*
X33863778Y-104298005D01*
X33907051Y-104321136D01*
X33947850Y-104348396D01*
X33985779Y-104379524D01*
X34020476Y-104414221D01*
X34051604Y-104452150D01*
X34078864Y-104492949D01*
X34101995Y-104536222D01*
X34120772Y-104581555D01*
X34135016Y-104628510D01*
X34144588Y-104676635D01*
X34149398Y-104725466D01*
X34149398Y-104750000D01*
X34150000Y-104750000D01*
X34150000Y-105250000D01*
X34149398Y-105250000D01*
X34149398Y-105274534D01*
X34144588Y-105323365D01*
X34135016Y-105371490D01*
X34120772Y-105418445D01*
X34101995Y-105463778D01*
X34078864Y-105507051D01*
X34051604Y-105547850D01*
X34020476Y-105585779D01*
X33985779Y-105620476D01*
X33947850Y-105651604D01*
X33907051Y-105678864D01*
X33863778Y-105701995D01*
X33818445Y-105720772D01*
X33771490Y-105735016D01*
X33723365Y-105744588D01*
X33674534Y-105749398D01*
X33650000Y-105749398D01*
X33650000Y-105750000D01*
X33150000Y-105750000D01*
X33150000Y-104250000D01*
X33650000Y-104250000D01*
X33650000Y-104250602D01*
G37*
G04 #@! TD.AperFunction*
G04 #@! TA.AperFunction,SMDPad,CuDef*
G36*
X32850000Y-105750000D02*
G01*
X32350000Y-105750000D01*
X32350000Y-105749398D01*
X32325466Y-105749398D01*
X32276635Y-105744588D01*
X32228510Y-105735016D01*
X32181555Y-105720772D01*
X32136222Y-105701995D01*
X32092949Y-105678864D01*
X32052150Y-105651604D01*
X32014221Y-105620476D01*
X31979524Y-105585779D01*
X31948396Y-105547850D01*
X31921136Y-105507051D01*
X31898005Y-105463778D01*
X31879228Y-105418445D01*
X31864984Y-105371490D01*
X31855412Y-105323365D01*
X31850602Y-105274534D01*
X31850602Y-105250000D01*
X31850000Y-105250000D01*
X31850000Y-104750000D01*
X31850602Y-104750000D01*
X31850602Y-104725466D01*
X31855412Y-104676635D01*
X31864984Y-104628510D01*
X31879228Y-104581555D01*
X31898005Y-104536222D01*
X31921136Y-104492949D01*
X31948396Y-104452150D01*
X31979524Y-104414221D01*
X32014221Y-104379524D01*
X32052150Y-104348396D01*
X32092949Y-104321136D01*
X32136222Y-104298005D01*
X32181555Y-104279228D01*
X32228510Y-104264984D01*
X32276635Y-104255412D01*
X32325466Y-104250602D01*
X32350000Y-104250602D01*
X32350000Y-104250000D01*
X32850000Y-104250000D01*
X32850000Y-105750000D01*
G37*
G04 #@! TD.AperFunction*
G04 #@! TA.AperFunction,SMDPad,CuDef*
G36*
X33650000Y-107250602D02*
G01*
X33674534Y-107250602D01*
X33723365Y-107255412D01*
X33771490Y-107264984D01*
X33818445Y-107279228D01*
X33863778Y-107298005D01*
X33907051Y-107321136D01*
X33947850Y-107348396D01*
X33985779Y-107379524D01*
X34020476Y-107414221D01*
X34051604Y-107452150D01*
X34078864Y-107492949D01*
X34101995Y-107536222D01*
X34120772Y-107581555D01*
X34135016Y-107628510D01*
X34144588Y-107676635D01*
X34149398Y-107725466D01*
X34149398Y-107750000D01*
X34150000Y-107750000D01*
X34150000Y-108250000D01*
X34149398Y-108250000D01*
X34149398Y-108274534D01*
X34144588Y-108323365D01*
X34135016Y-108371490D01*
X34120772Y-108418445D01*
X34101995Y-108463778D01*
X34078864Y-108507051D01*
X34051604Y-108547850D01*
X34020476Y-108585779D01*
X33985779Y-108620476D01*
X33947850Y-108651604D01*
X33907051Y-108678864D01*
X33863778Y-108701995D01*
X33818445Y-108720772D01*
X33771490Y-108735016D01*
X33723365Y-108744588D01*
X33674534Y-108749398D01*
X33650000Y-108749398D01*
X33650000Y-108750000D01*
X33150000Y-108750000D01*
X33150000Y-107250000D01*
X33650000Y-107250000D01*
X33650000Y-107250602D01*
G37*
G04 #@! TD.AperFunction*
G04 #@! TA.AperFunction,SMDPad,CuDef*
G36*
X32850000Y-108750000D02*
G01*
X32350000Y-108750000D01*
X32350000Y-108749398D01*
X32325466Y-108749398D01*
X32276635Y-108744588D01*
X32228510Y-108735016D01*
X32181555Y-108720772D01*
X32136222Y-108701995D01*
X32092949Y-108678864D01*
X32052150Y-108651604D01*
X32014221Y-108620476D01*
X31979524Y-108585779D01*
X31948396Y-108547850D01*
X31921136Y-108507051D01*
X31898005Y-108463778D01*
X31879228Y-108418445D01*
X31864984Y-108371490D01*
X31855412Y-108323365D01*
X31850602Y-108274534D01*
X31850602Y-108250000D01*
X31850000Y-108250000D01*
X31850000Y-107750000D01*
X31850602Y-107750000D01*
X31850602Y-107725466D01*
X31855412Y-107676635D01*
X31864984Y-107628510D01*
X31879228Y-107581555D01*
X31898005Y-107536222D01*
X31921136Y-107492949D01*
X31948396Y-107452150D01*
X31979524Y-107414221D01*
X32014221Y-107379524D01*
X32052150Y-107348396D01*
X32092949Y-107321136D01*
X32136222Y-107298005D01*
X32181555Y-107279228D01*
X32228510Y-107264984D01*
X32276635Y-107255412D01*
X32325466Y-107250602D01*
X32350000Y-107250602D01*
X32350000Y-107250000D01*
X32850000Y-107250000D01*
X32850000Y-108750000D01*
G37*
G04 #@! TD.AperFunction*
D24*
X53000000Y-102000000D03*
X53000000Y-106000000D03*
D25*
X45810000Y-89250000D03*
X43270000Y-89250000D03*
X40730000Y-89250000D03*
D26*
X38190000Y-89250000D03*
D11*
X65760000Y-86540000D03*
X65760000Y-84000000D03*
X68300000Y-86540000D03*
X68300000Y-84000000D03*
X70840000Y-86540000D03*
X70840000Y-84000000D03*
X73380000Y-86540000D03*
X73380000Y-84000000D03*
X75920000Y-86540000D03*
X75920000Y-84000000D03*
X78460000Y-86540000D03*
X78460000Y-84000000D03*
X81000000Y-86540000D03*
D12*
X81000000Y-84000000D03*
D11*
X119620000Y-86540000D03*
X119620000Y-84000000D03*
X117080000Y-86540000D03*
X117080000Y-84000000D03*
X114540000Y-86540000D03*
X114540000Y-84000000D03*
X112000000Y-86540000D03*
D12*
X112000000Y-84000000D03*
G04 #@! TA.AperFunction,SMDPad,CuDef*
D10*
G36*
X110550000Y-31600602D02*
G01*
X110574534Y-31600602D01*
X110623365Y-31605412D01*
X110671490Y-31614984D01*
X110718445Y-31629228D01*
X110763778Y-31648005D01*
X110807051Y-31671136D01*
X110847850Y-31698396D01*
X110885779Y-31729524D01*
X110920476Y-31764221D01*
X110951604Y-31802150D01*
X110978864Y-31842949D01*
X111001995Y-31886222D01*
X111020772Y-31931555D01*
X111035016Y-31978510D01*
X111044588Y-32026635D01*
X111049398Y-32075466D01*
X111049398Y-32100000D01*
X111050000Y-32100000D01*
X111050000Y-32600000D01*
X111049398Y-32600000D01*
X111049398Y-32624534D01*
X111044588Y-32673365D01*
X111035016Y-32721490D01*
X111020772Y-32768445D01*
X111001995Y-32813778D01*
X110978864Y-32857051D01*
X110951604Y-32897850D01*
X110920476Y-32935779D01*
X110885779Y-32970476D01*
X110847850Y-33001604D01*
X110807051Y-33028864D01*
X110763778Y-33051995D01*
X110718445Y-33070772D01*
X110671490Y-33085016D01*
X110623365Y-33094588D01*
X110574534Y-33099398D01*
X110550000Y-33099398D01*
X110550000Y-33100000D01*
X110050000Y-33100000D01*
X110050000Y-31600000D01*
X110550000Y-31600000D01*
X110550000Y-31600602D01*
G37*
G04 #@! TD.AperFunction*
G04 #@! TA.AperFunction,SMDPad,CuDef*
G36*
X109750000Y-33100000D02*
G01*
X109250000Y-33100000D01*
X109250000Y-33099398D01*
X109225466Y-33099398D01*
X109176635Y-33094588D01*
X109128510Y-33085016D01*
X109081555Y-33070772D01*
X109036222Y-33051995D01*
X108992949Y-33028864D01*
X108952150Y-33001604D01*
X108914221Y-32970476D01*
X108879524Y-32935779D01*
X108848396Y-32897850D01*
X108821136Y-32857051D01*
X108798005Y-32813778D01*
X108779228Y-32768445D01*
X108764984Y-32721490D01*
X108755412Y-32673365D01*
X108750602Y-32624534D01*
X108750602Y-32600000D01*
X108750000Y-32600000D01*
X108750000Y-32100000D01*
X108750602Y-32100000D01*
X108750602Y-32075466D01*
X108755412Y-32026635D01*
X108764984Y-31978510D01*
X108779228Y-31931555D01*
X108798005Y-31886222D01*
X108821136Y-31842949D01*
X108848396Y-31802150D01*
X108879524Y-31764221D01*
X108914221Y-31729524D01*
X108952150Y-31698396D01*
X108992949Y-31671136D01*
X109036222Y-31648005D01*
X109081555Y-31629228D01*
X109128510Y-31614984D01*
X109176635Y-31605412D01*
X109225466Y-31600602D01*
X109250000Y-31600602D01*
X109250000Y-31600000D01*
X109750000Y-31600000D01*
X109750000Y-33100000D01*
G37*
G04 #@! TD.AperFunction*
G04 #@! TA.AperFunction,SMDPad,CuDef*
G36*
X109649398Y-25700000D02*
G01*
X109649398Y-25724534D01*
X109644588Y-25773365D01*
X109635016Y-25821490D01*
X109620772Y-25868445D01*
X109601995Y-25913778D01*
X109578864Y-25957051D01*
X109551604Y-25997850D01*
X109520476Y-26035779D01*
X109485779Y-26070476D01*
X109447850Y-26101604D01*
X109407051Y-26128864D01*
X109363778Y-26151995D01*
X109318445Y-26170772D01*
X109271490Y-26185016D01*
X109223365Y-26194588D01*
X109174534Y-26199398D01*
X109150000Y-26199398D01*
X109150000Y-26200000D01*
X108650000Y-26200000D01*
X108650000Y-26199398D01*
X108625466Y-26199398D01*
X108576635Y-26194588D01*
X108528510Y-26185016D01*
X108481555Y-26170772D01*
X108436222Y-26151995D01*
X108392949Y-26128864D01*
X108352150Y-26101604D01*
X108314221Y-26070476D01*
X108279524Y-26035779D01*
X108248396Y-25997850D01*
X108221136Y-25957051D01*
X108198005Y-25913778D01*
X108179228Y-25868445D01*
X108164984Y-25821490D01*
X108155412Y-25773365D01*
X108150602Y-25724534D01*
X108150602Y-25700000D01*
X108150000Y-25700000D01*
X108150000Y-25200000D01*
X109650000Y-25200000D01*
X109650000Y-25700000D01*
X109649398Y-25700000D01*
G37*
G04 #@! TD.AperFunction*
G04 #@! TA.AperFunction,SMDPad,CuDef*
G36*
X108150000Y-24900000D02*
G01*
X108150000Y-24400000D01*
X108150602Y-24400000D01*
X108150602Y-24375466D01*
X108155412Y-24326635D01*
X108164984Y-24278510D01*
X108179228Y-24231555D01*
X108198005Y-24186222D01*
X108221136Y-24142949D01*
X108248396Y-24102150D01*
X108279524Y-24064221D01*
X108314221Y-24029524D01*
X108352150Y-23998396D01*
X108392949Y-23971136D01*
X108436222Y-23948005D01*
X108481555Y-23929228D01*
X108528510Y-23914984D01*
X108576635Y-23905412D01*
X108625466Y-23900602D01*
X108650000Y-23900602D01*
X108650000Y-23900000D01*
X109150000Y-23900000D01*
X109150000Y-23900602D01*
X109174534Y-23900602D01*
X109223365Y-23905412D01*
X109271490Y-23914984D01*
X109318445Y-23929228D01*
X109363778Y-23948005D01*
X109407051Y-23971136D01*
X109447850Y-23998396D01*
X109485779Y-24029524D01*
X109520476Y-24064221D01*
X109551604Y-24102150D01*
X109578864Y-24142949D01*
X109601995Y-24186222D01*
X109620772Y-24231555D01*
X109635016Y-24278510D01*
X109644588Y-24326635D01*
X109649398Y-24375466D01*
X109649398Y-24400000D01*
X109650000Y-24400000D01*
X109650000Y-24900000D01*
X108150000Y-24900000D01*
G37*
G04 #@! TD.AperFunction*
G04 #@! TA.AperFunction,SMDPad,CuDef*
G36*
X121277691Y-39351053D02*
G01*
X121298926Y-39354203D01*
X121319750Y-39359419D01*
X121339962Y-39366651D01*
X121359368Y-39375830D01*
X121377781Y-39386866D01*
X121395024Y-39399654D01*
X121410930Y-39414070D01*
X121425346Y-39429976D01*
X121438134Y-39447219D01*
X121449170Y-39465632D01*
X121458349Y-39485038D01*
X121465581Y-39505250D01*
X121470797Y-39526074D01*
X121473947Y-39547309D01*
X121475000Y-39568750D01*
X121475000Y-40006250D01*
X121473947Y-40027691D01*
X121470797Y-40048926D01*
X121465581Y-40069750D01*
X121458349Y-40089962D01*
X121449170Y-40109368D01*
X121438134Y-40127781D01*
X121425346Y-40145024D01*
X121410930Y-40160930D01*
X121395024Y-40175346D01*
X121377781Y-40188134D01*
X121359368Y-40199170D01*
X121339962Y-40208349D01*
X121319750Y-40215581D01*
X121298926Y-40220797D01*
X121277691Y-40223947D01*
X121256250Y-40225000D01*
X120743750Y-40225000D01*
X120722309Y-40223947D01*
X120701074Y-40220797D01*
X120680250Y-40215581D01*
X120660038Y-40208349D01*
X120640632Y-40199170D01*
X120622219Y-40188134D01*
X120604976Y-40175346D01*
X120589070Y-40160930D01*
X120574654Y-40145024D01*
X120561866Y-40127781D01*
X120550830Y-40109368D01*
X120541651Y-40089962D01*
X120534419Y-40069750D01*
X120529203Y-40048926D01*
X120526053Y-40027691D01*
X120525000Y-40006250D01*
X120525000Y-39568750D01*
X120526053Y-39547309D01*
X120529203Y-39526074D01*
X120534419Y-39505250D01*
X120541651Y-39485038D01*
X120550830Y-39465632D01*
X120561866Y-39447219D01*
X120574654Y-39429976D01*
X120589070Y-39414070D01*
X120604976Y-39399654D01*
X120622219Y-39386866D01*
X120640632Y-39375830D01*
X120660038Y-39366651D01*
X120680250Y-39359419D01*
X120701074Y-39354203D01*
X120722309Y-39351053D01*
X120743750Y-39350000D01*
X121256250Y-39350000D01*
X121277691Y-39351053D01*
G37*
G04 #@! TD.AperFunction*
G04 #@! TA.AperFunction,SMDPad,CuDef*
G36*
X121277691Y-37776053D02*
G01*
X121298926Y-37779203D01*
X121319750Y-37784419D01*
X121339962Y-37791651D01*
X121359368Y-37800830D01*
X121377781Y-37811866D01*
X121395024Y-37824654D01*
X121410930Y-37839070D01*
X121425346Y-37854976D01*
X121438134Y-37872219D01*
X121449170Y-37890632D01*
X121458349Y-37910038D01*
X121465581Y-37930250D01*
X121470797Y-37951074D01*
X121473947Y-37972309D01*
X121475000Y-37993750D01*
X121475000Y-38431250D01*
X121473947Y-38452691D01*
X121470797Y-38473926D01*
X121465581Y-38494750D01*
X121458349Y-38514962D01*
X121449170Y-38534368D01*
X121438134Y-38552781D01*
X121425346Y-38570024D01*
X121410930Y-38585930D01*
X121395024Y-38600346D01*
X121377781Y-38613134D01*
X121359368Y-38624170D01*
X121339962Y-38633349D01*
X121319750Y-38640581D01*
X121298926Y-38645797D01*
X121277691Y-38648947D01*
X121256250Y-38650000D01*
X120743750Y-38650000D01*
X120722309Y-38648947D01*
X120701074Y-38645797D01*
X120680250Y-38640581D01*
X120660038Y-38633349D01*
X120640632Y-38624170D01*
X120622219Y-38613134D01*
X120604976Y-38600346D01*
X120589070Y-38585930D01*
X120574654Y-38570024D01*
X120561866Y-38552781D01*
X120550830Y-38534368D01*
X120541651Y-38514962D01*
X120534419Y-38494750D01*
X120529203Y-38473926D01*
X120526053Y-38452691D01*
X120525000Y-38431250D01*
X120525000Y-37993750D01*
X120526053Y-37972309D01*
X120529203Y-37951074D01*
X120534419Y-37930250D01*
X120541651Y-37910038D01*
X120550830Y-37890632D01*
X120561866Y-37872219D01*
X120574654Y-37854976D01*
X120589070Y-37839070D01*
X120604976Y-37824654D01*
X120622219Y-37811866D01*
X120640632Y-37800830D01*
X120660038Y-37791651D01*
X120680250Y-37784419D01*
X120701074Y-37779203D01*
X120722309Y-37776053D01*
X120743750Y-37775000D01*
X121256250Y-37775000D01*
X121277691Y-37776053D01*
G37*
G04 #@! TD.AperFunction*
G04 #@! TA.AperFunction,SMDPad,CuDef*
G36*
X43477691Y-69188553D02*
G01*
X43498926Y-69191703D01*
X43519750Y-69196919D01*
X43539962Y-69204151D01*
X43559368Y-69213330D01*
X43577781Y-69224366D01*
X43595024Y-69237154D01*
X43610930Y-69251570D01*
X43625346Y-69267476D01*
X43638134Y-69284719D01*
X43649170Y-69303132D01*
X43658349Y-69322538D01*
X43665581Y-69342750D01*
X43670797Y-69363574D01*
X43673947Y-69384809D01*
X43675000Y-69406250D01*
X43675000Y-69843750D01*
X43673947Y-69865191D01*
X43670797Y-69886426D01*
X43665581Y-69907250D01*
X43658349Y-69927462D01*
X43649170Y-69946868D01*
X43638134Y-69965281D01*
X43625346Y-69982524D01*
X43610930Y-69998430D01*
X43595024Y-70012846D01*
X43577781Y-70025634D01*
X43559368Y-70036670D01*
X43539962Y-70045849D01*
X43519750Y-70053081D01*
X43498926Y-70058297D01*
X43477691Y-70061447D01*
X43456250Y-70062500D01*
X42943750Y-70062500D01*
X42922309Y-70061447D01*
X42901074Y-70058297D01*
X42880250Y-70053081D01*
X42860038Y-70045849D01*
X42840632Y-70036670D01*
X42822219Y-70025634D01*
X42804976Y-70012846D01*
X42789070Y-69998430D01*
X42774654Y-69982524D01*
X42761866Y-69965281D01*
X42750830Y-69946868D01*
X42741651Y-69927462D01*
X42734419Y-69907250D01*
X42729203Y-69886426D01*
X42726053Y-69865191D01*
X42725000Y-69843750D01*
X42725000Y-69406250D01*
X42726053Y-69384809D01*
X42729203Y-69363574D01*
X42734419Y-69342750D01*
X42741651Y-69322538D01*
X42750830Y-69303132D01*
X42761866Y-69284719D01*
X42774654Y-69267476D01*
X42789070Y-69251570D01*
X42804976Y-69237154D01*
X42822219Y-69224366D01*
X42840632Y-69213330D01*
X42860038Y-69204151D01*
X42880250Y-69196919D01*
X42901074Y-69191703D01*
X42922309Y-69188553D01*
X42943750Y-69187500D01*
X43456250Y-69187500D01*
X43477691Y-69188553D01*
G37*
G04 #@! TD.AperFunction*
G04 #@! TA.AperFunction,SMDPad,CuDef*
G36*
X43477691Y-70763553D02*
G01*
X43498926Y-70766703D01*
X43519750Y-70771919D01*
X43539962Y-70779151D01*
X43559368Y-70788330D01*
X43577781Y-70799366D01*
X43595024Y-70812154D01*
X43610930Y-70826570D01*
X43625346Y-70842476D01*
X43638134Y-70859719D01*
X43649170Y-70878132D01*
X43658349Y-70897538D01*
X43665581Y-70917750D01*
X43670797Y-70938574D01*
X43673947Y-70959809D01*
X43675000Y-70981250D01*
X43675000Y-71418750D01*
X43673947Y-71440191D01*
X43670797Y-71461426D01*
X43665581Y-71482250D01*
X43658349Y-71502462D01*
X43649170Y-71521868D01*
X43638134Y-71540281D01*
X43625346Y-71557524D01*
X43610930Y-71573430D01*
X43595024Y-71587846D01*
X43577781Y-71600634D01*
X43559368Y-71611670D01*
X43539962Y-71620849D01*
X43519750Y-71628081D01*
X43498926Y-71633297D01*
X43477691Y-71636447D01*
X43456250Y-71637500D01*
X42943750Y-71637500D01*
X42922309Y-71636447D01*
X42901074Y-71633297D01*
X42880250Y-71628081D01*
X42860038Y-71620849D01*
X42840632Y-71611670D01*
X42822219Y-71600634D01*
X42804976Y-71587846D01*
X42789070Y-71573430D01*
X42774654Y-71557524D01*
X42761866Y-71540281D01*
X42750830Y-71521868D01*
X42741651Y-71502462D01*
X42734419Y-71482250D01*
X42729203Y-71461426D01*
X42726053Y-71440191D01*
X42725000Y-71418750D01*
X42725000Y-70981250D01*
X42726053Y-70959809D01*
X42729203Y-70938574D01*
X42734419Y-70917750D01*
X42741651Y-70897538D01*
X42750830Y-70878132D01*
X42761866Y-70859719D01*
X42774654Y-70842476D01*
X42789070Y-70826570D01*
X42804976Y-70812154D01*
X42822219Y-70799366D01*
X42840632Y-70788330D01*
X42860038Y-70779151D01*
X42880250Y-70771919D01*
X42901074Y-70766703D01*
X42922309Y-70763553D01*
X42943750Y-70762500D01*
X43456250Y-70762500D01*
X43477691Y-70763553D01*
G37*
G04 #@! TD.AperFunction*
G04 #@! TA.AperFunction,SMDPad,CuDef*
G36*
X64186958Y-76675710D02*
G01*
X64201276Y-76677834D01*
X64215317Y-76681351D01*
X64228946Y-76686228D01*
X64242031Y-76692417D01*
X64254447Y-76699858D01*
X64266073Y-76708481D01*
X64276798Y-76718202D01*
X64286519Y-76728927D01*
X64295142Y-76740553D01*
X64302583Y-76752969D01*
X64308772Y-76766054D01*
X64313649Y-76779683D01*
X64317166Y-76793724D01*
X64319290Y-76808042D01*
X64320000Y-76822500D01*
X64320000Y-77117500D01*
X64319290Y-77131958D01*
X64317166Y-77146276D01*
X64313649Y-77160317D01*
X64308772Y-77173946D01*
X64302583Y-77187031D01*
X64295142Y-77199447D01*
X64286519Y-77211073D01*
X64276798Y-77221798D01*
X64266073Y-77231519D01*
X64254447Y-77240142D01*
X64242031Y-77247583D01*
X64228946Y-77253772D01*
X64215317Y-77258649D01*
X64201276Y-77262166D01*
X64186958Y-77264290D01*
X64172500Y-77265000D01*
X63827500Y-77265000D01*
X63813042Y-77264290D01*
X63798724Y-77262166D01*
X63784683Y-77258649D01*
X63771054Y-77253772D01*
X63757969Y-77247583D01*
X63745553Y-77240142D01*
X63733927Y-77231519D01*
X63723202Y-77221798D01*
X63713481Y-77211073D01*
X63704858Y-77199447D01*
X63697417Y-77187031D01*
X63691228Y-77173946D01*
X63686351Y-77160317D01*
X63682834Y-77146276D01*
X63680710Y-77131958D01*
X63680000Y-77117500D01*
X63680000Y-76822500D01*
X63680710Y-76808042D01*
X63682834Y-76793724D01*
X63686351Y-76779683D01*
X63691228Y-76766054D01*
X63697417Y-76752969D01*
X63704858Y-76740553D01*
X63713481Y-76728927D01*
X63723202Y-76718202D01*
X63733927Y-76708481D01*
X63745553Y-76699858D01*
X63757969Y-76692417D01*
X63771054Y-76686228D01*
X63784683Y-76681351D01*
X63798724Y-76677834D01*
X63813042Y-76675710D01*
X63827500Y-76675000D01*
X64172500Y-76675000D01*
X64186958Y-76675710D01*
G37*
G04 #@! TD.AperFunction*
G04 #@! TA.AperFunction,SMDPad,CuDef*
G36*
X64186958Y-75705710D02*
G01*
X64201276Y-75707834D01*
X64215317Y-75711351D01*
X64228946Y-75716228D01*
X64242031Y-75722417D01*
X64254447Y-75729858D01*
X64266073Y-75738481D01*
X64276798Y-75748202D01*
X64286519Y-75758927D01*
X64295142Y-75770553D01*
X64302583Y-75782969D01*
X64308772Y-75796054D01*
X64313649Y-75809683D01*
X64317166Y-75823724D01*
X64319290Y-75838042D01*
X64320000Y-75852500D01*
X64320000Y-76147500D01*
X64319290Y-76161958D01*
X64317166Y-76176276D01*
X64313649Y-76190317D01*
X64308772Y-76203946D01*
X64302583Y-76217031D01*
X64295142Y-76229447D01*
X64286519Y-76241073D01*
X64276798Y-76251798D01*
X64266073Y-76261519D01*
X64254447Y-76270142D01*
X64242031Y-76277583D01*
X64228946Y-76283772D01*
X64215317Y-76288649D01*
X64201276Y-76292166D01*
X64186958Y-76294290D01*
X64172500Y-76295000D01*
X63827500Y-76295000D01*
X63813042Y-76294290D01*
X63798724Y-76292166D01*
X63784683Y-76288649D01*
X63771054Y-76283772D01*
X63757969Y-76277583D01*
X63745553Y-76270142D01*
X63733927Y-76261519D01*
X63723202Y-76251798D01*
X63713481Y-76241073D01*
X63704858Y-76229447D01*
X63697417Y-76217031D01*
X63691228Y-76203946D01*
X63686351Y-76190317D01*
X63682834Y-76176276D01*
X63680710Y-76161958D01*
X63680000Y-76147500D01*
X63680000Y-75852500D01*
X63680710Y-75838042D01*
X63682834Y-75823724D01*
X63686351Y-75809683D01*
X63691228Y-75796054D01*
X63697417Y-75782969D01*
X63704858Y-75770553D01*
X63713481Y-75758927D01*
X63723202Y-75748202D01*
X63733927Y-75738481D01*
X63745553Y-75729858D01*
X63757969Y-75722417D01*
X63771054Y-75716228D01*
X63784683Y-75711351D01*
X63798724Y-75707834D01*
X63813042Y-75705710D01*
X63827500Y-75705000D01*
X64172500Y-75705000D01*
X64186958Y-75705710D01*
G37*
G04 #@! TD.AperFunction*
G04 #@! TA.AperFunction,SMDPad,CuDef*
G36*
X110586958Y-39890710D02*
G01*
X110601276Y-39892834D01*
X110615317Y-39896351D01*
X110628946Y-39901228D01*
X110642031Y-39907417D01*
X110654447Y-39914858D01*
X110666073Y-39923481D01*
X110676798Y-39933202D01*
X110686519Y-39943927D01*
X110695142Y-39955553D01*
X110702583Y-39967969D01*
X110708772Y-39981054D01*
X110713649Y-39994683D01*
X110717166Y-40008724D01*
X110719290Y-40023042D01*
X110720000Y-40037500D01*
X110720000Y-40332500D01*
X110719290Y-40346958D01*
X110717166Y-40361276D01*
X110713649Y-40375317D01*
X110708772Y-40388946D01*
X110702583Y-40402031D01*
X110695142Y-40414447D01*
X110686519Y-40426073D01*
X110676798Y-40436798D01*
X110666073Y-40446519D01*
X110654447Y-40455142D01*
X110642031Y-40462583D01*
X110628946Y-40468772D01*
X110615317Y-40473649D01*
X110601276Y-40477166D01*
X110586958Y-40479290D01*
X110572500Y-40480000D01*
X110227500Y-40480000D01*
X110213042Y-40479290D01*
X110198724Y-40477166D01*
X110184683Y-40473649D01*
X110171054Y-40468772D01*
X110157969Y-40462583D01*
X110145553Y-40455142D01*
X110133927Y-40446519D01*
X110123202Y-40436798D01*
X110113481Y-40426073D01*
X110104858Y-40414447D01*
X110097417Y-40402031D01*
X110091228Y-40388946D01*
X110086351Y-40375317D01*
X110082834Y-40361276D01*
X110080710Y-40346958D01*
X110080000Y-40332500D01*
X110080000Y-40037500D01*
X110080710Y-40023042D01*
X110082834Y-40008724D01*
X110086351Y-39994683D01*
X110091228Y-39981054D01*
X110097417Y-39967969D01*
X110104858Y-39955553D01*
X110113481Y-39943927D01*
X110123202Y-39933202D01*
X110133927Y-39923481D01*
X110145553Y-39914858D01*
X110157969Y-39907417D01*
X110171054Y-39901228D01*
X110184683Y-39896351D01*
X110198724Y-39892834D01*
X110213042Y-39890710D01*
X110227500Y-39890000D01*
X110572500Y-39890000D01*
X110586958Y-39890710D01*
G37*
G04 #@! TD.AperFunction*
G04 #@! TA.AperFunction,SMDPad,CuDef*
G36*
X110586958Y-38920710D02*
G01*
X110601276Y-38922834D01*
X110615317Y-38926351D01*
X110628946Y-38931228D01*
X110642031Y-38937417D01*
X110654447Y-38944858D01*
X110666073Y-38953481D01*
X110676798Y-38963202D01*
X110686519Y-38973927D01*
X110695142Y-38985553D01*
X110702583Y-38997969D01*
X110708772Y-39011054D01*
X110713649Y-39024683D01*
X110717166Y-39038724D01*
X110719290Y-39053042D01*
X110720000Y-39067500D01*
X110720000Y-39362500D01*
X110719290Y-39376958D01*
X110717166Y-39391276D01*
X110713649Y-39405317D01*
X110708772Y-39418946D01*
X110702583Y-39432031D01*
X110695142Y-39444447D01*
X110686519Y-39456073D01*
X110676798Y-39466798D01*
X110666073Y-39476519D01*
X110654447Y-39485142D01*
X110642031Y-39492583D01*
X110628946Y-39498772D01*
X110615317Y-39503649D01*
X110601276Y-39507166D01*
X110586958Y-39509290D01*
X110572500Y-39510000D01*
X110227500Y-39510000D01*
X110213042Y-39509290D01*
X110198724Y-39507166D01*
X110184683Y-39503649D01*
X110171054Y-39498772D01*
X110157969Y-39492583D01*
X110145553Y-39485142D01*
X110133927Y-39476519D01*
X110123202Y-39466798D01*
X110113481Y-39456073D01*
X110104858Y-39444447D01*
X110097417Y-39432031D01*
X110091228Y-39418946D01*
X110086351Y-39405317D01*
X110082834Y-39391276D01*
X110080710Y-39376958D01*
X110080000Y-39362500D01*
X110080000Y-39067500D01*
X110080710Y-39053042D01*
X110082834Y-39038724D01*
X110086351Y-39024683D01*
X110091228Y-39011054D01*
X110097417Y-38997969D01*
X110104858Y-38985553D01*
X110113481Y-38973927D01*
X110123202Y-38963202D01*
X110133927Y-38953481D01*
X110145553Y-38944858D01*
X110157969Y-38937417D01*
X110171054Y-38931228D01*
X110184683Y-38926351D01*
X110198724Y-38922834D01*
X110213042Y-38920710D01*
X110227500Y-38920000D01*
X110572500Y-38920000D01*
X110586958Y-38920710D01*
G37*
G04 #@! TD.AperFunction*
G04 #@! TA.AperFunction,SMDPad,CuDef*
G36*
X109086958Y-39890710D02*
G01*
X109101276Y-39892834D01*
X109115317Y-39896351D01*
X109128946Y-39901228D01*
X109142031Y-39907417D01*
X109154447Y-39914858D01*
X109166073Y-39923481D01*
X109176798Y-39933202D01*
X109186519Y-39943927D01*
X109195142Y-39955553D01*
X109202583Y-39967969D01*
X109208772Y-39981054D01*
X109213649Y-39994683D01*
X109217166Y-40008724D01*
X109219290Y-40023042D01*
X109220000Y-40037500D01*
X109220000Y-40332500D01*
X109219290Y-40346958D01*
X109217166Y-40361276D01*
X109213649Y-40375317D01*
X109208772Y-40388946D01*
X109202583Y-40402031D01*
X109195142Y-40414447D01*
X109186519Y-40426073D01*
X109176798Y-40436798D01*
X109166073Y-40446519D01*
X109154447Y-40455142D01*
X109142031Y-40462583D01*
X109128946Y-40468772D01*
X109115317Y-40473649D01*
X109101276Y-40477166D01*
X109086958Y-40479290D01*
X109072500Y-40480000D01*
X108727500Y-40480000D01*
X108713042Y-40479290D01*
X108698724Y-40477166D01*
X108684683Y-40473649D01*
X108671054Y-40468772D01*
X108657969Y-40462583D01*
X108645553Y-40455142D01*
X108633927Y-40446519D01*
X108623202Y-40436798D01*
X108613481Y-40426073D01*
X108604858Y-40414447D01*
X108597417Y-40402031D01*
X108591228Y-40388946D01*
X108586351Y-40375317D01*
X108582834Y-40361276D01*
X108580710Y-40346958D01*
X108580000Y-40332500D01*
X108580000Y-40037500D01*
X108580710Y-40023042D01*
X108582834Y-40008724D01*
X108586351Y-39994683D01*
X108591228Y-39981054D01*
X108597417Y-39967969D01*
X108604858Y-39955553D01*
X108613481Y-39943927D01*
X108623202Y-39933202D01*
X108633927Y-39923481D01*
X108645553Y-39914858D01*
X108657969Y-39907417D01*
X108671054Y-39901228D01*
X108684683Y-39896351D01*
X108698724Y-39892834D01*
X108713042Y-39890710D01*
X108727500Y-39890000D01*
X109072500Y-39890000D01*
X109086958Y-39890710D01*
G37*
G04 #@! TD.AperFunction*
G04 #@! TA.AperFunction,SMDPad,CuDef*
G36*
X109086958Y-38920710D02*
G01*
X109101276Y-38922834D01*
X109115317Y-38926351D01*
X109128946Y-38931228D01*
X109142031Y-38937417D01*
X109154447Y-38944858D01*
X109166073Y-38953481D01*
X109176798Y-38963202D01*
X109186519Y-38973927D01*
X109195142Y-38985553D01*
X109202583Y-38997969D01*
X109208772Y-39011054D01*
X109213649Y-39024683D01*
X109217166Y-39038724D01*
X109219290Y-39053042D01*
X109220000Y-39067500D01*
X109220000Y-39362500D01*
X109219290Y-39376958D01*
X109217166Y-39391276D01*
X109213649Y-39405317D01*
X109208772Y-39418946D01*
X109202583Y-39432031D01*
X109195142Y-39444447D01*
X109186519Y-39456073D01*
X109176798Y-39466798D01*
X109166073Y-39476519D01*
X109154447Y-39485142D01*
X109142031Y-39492583D01*
X109128946Y-39498772D01*
X109115317Y-39503649D01*
X109101276Y-39507166D01*
X109086958Y-39509290D01*
X109072500Y-39510000D01*
X108727500Y-39510000D01*
X108713042Y-39509290D01*
X108698724Y-39507166D01*
X108684683Y-39503649D01*
X108671054Y-39498772D01*
X108657969Y-39492583D01*
X108645553Y-39485142D01*
X108633927Y-39476519D01*
X108623202Y-39466798D01*
X108613481Y-39456073D01*
X108604858Y-39444447D01*
X108597417Y-39432031D01*
X108591228Y-39418946D01*
X108586351Y-39405317D01*
X108582834Y-39391276D01*
X108580710Y-39376958D01*
X108580000Y-39362500D01*
X108580000Y-39067500D01*
X108580710Y-39053042D01*
X108582834Y-39038724D01*
X108586351Y-39024683D01*
X108591228Y-39011054D01*
X108597417Y-38997969D01*
X108604858Y-38985553D01*
X108613481Y-38973927D01*
X108623202Y-38963202D01*
X108633927Y-38953481D01*
X108645553Y-38944858D01*
X108657969Y-38937417D01*
X108671054Y-38931228D01*
X108684683Y-38926351D01*
X108698724Y-38922834D01*
X108713042Y-38920710D01*
X108727500Y-38920000D01*
X109072500Y-38920000D01*
X109086958Y-38920710D01*
G37*
G04 #@! TD.AperFunction*
G04 #@! TA.AperFunction,SMDPad,CuDef*
G36*
X111086958Y-29905710D02*
G01*
X111101276Y-29907834D01*
X111115317Y-29911351D01*
X111128946Y-29916228D01*
X111142031Y-29922417D01*
X111154447Y-29929858D01*
X111166073Y-29938481D01*
X111176798Y-29948202D01*
X111186519Y-29958927D01*
X111195142Y-29970553D01*
X111202583Y-29982969D01*
X111208772Y-29996054D01*
X111213649Y-30009683D01*
X111217166Y-30023724D01*
X111219290Y-30038042D01*
X111220000Y-30052500D01*
X111220000Y-30347500D01*
X111219290Y-30361958D01*
X111217166Y-30376276D01*
X111213649Y-30390317D01*
X111208772Y-30403946D01*
X111202583Y-30417031D01*
X111195142Y-30429447D01*
X111186519Y-30441073D01*
X111176798Y-30451798D01*
X111166073Y-30461519D01*
X111154447Y-30470142D01*
X111142031Y-30477583D01*
X111128946Y-30483772D01*
X111115317Y-30488649D01*
X111101276Y-30492166D01*
X111086958Y-30494290D01*
X111072500Y-30495000D01*
X110727500Y-30495000D01*
X110713042Y-30494290D01*
X110698724Y-30492166D01*
X110684683Y-30488649D01*
X110671054Y-30483772D01*
X110657969Y-30477583D01*
X110645553Y-30470142D01*
X110633927Y-30461519D01*
X110623202Y-30451798D01*
X110613481Y-30441073D01*
X110604858Y-30429447D01*
X110597417Y-30417031D01*
X110591228Y-30403946D01*
X110586351Y-30390317D01*
X110582834Y-30376276D01*
X110580710Y-30361958D01*
X110580000Y-30347500D01*
X110580000Y-30052500D01*
X110580710Y-30038042D01*
X110582834Y-30023724D01*
X110586351Y-30009683D01*
X110591228Y-29996054D01*
X110597417Y-29982969D01*
X110604858Y-29970553D01*
X110613481Y-29958927D01*
X110623202Y-29948202D01*
X110633927Y-29938481D01*
X110645553Y-29929858D01*
X110657969Y-29922417D01*
X110671054Y-29916228D01*
X110684683Y-29911351D01*
X110698724Y-29907834D01*
X110713042Y-29905710D01*
X110727500Y-29905000D01*
X111072500Y-29905000D01*
X111086958Y-29905710D01*
G37*
G04 #@! TD.AperFunction*
G04 #@! TA.AperFunction,SMDPad,CuDef*
G36*
X111086958Y-28935710D02*
G01*
X111101276Y-28937834D01*
X111115317Y-28941351D01*
X111128946Y-28946228D01*
X111142031Y-28952417D01*
X111154447Y-28959858D01*
X111166073Y-28968481D01*
X111176798Y-28978202D01*
X111186519Y-28988927D01*
X111195142Y-29000553D01*
X111202583Y-29012969D01*
X111208772Y-29026054D01*
X111213649Y-29039683D01*
X111217166Y-29053724D01*
X111219290Y-29068042D01*
X111220000Y-29082500D01*
X111220000Y-29377500D01*
X111219290Y-29391958D01*
X111217166Y-29406276D01*
X111213649Y-29420317D01*
X111208772Y-29433946D01*
X111202583Y-29447031D01*
X111195142Y-29459447D01*
X111186519Y-29471073D01*
X111176798Y-29481798D01*
X111166073Y-29491519D01*
X111154447Y-29500142D01*
X111142031Y-29507583D01*
X111128946Y-29513772D01*
X111115317Y-29518649D01*
X111101276Y-29522166D01*
X111086958Y-29524290D01*
X111072500Y-29525000D01*
X110727500Y-29525000D01*
X110713042Y-29524290D01*
X110698724Y-29522166D01*
X110684683Y-29518649D01*
X110671054Y-29513772D01*
X110657969Y-29507583D01*
X110645553Y-29500142D01*
X110633927Y-29491519D01*
X110623202Y-29481798D01*
X110613481Y-29471073D01*
X110604858Y-29459447D01*
X110597417Y-29447031D01*
X110591228Y-29433946D01*
X110586351Y-29420317D01*
X110582834Y-29406276D01*
X110580710Y-29391958D01*
X110580000Y-29377500D01*
X110580000Y-29082500D01*
X110580710Y-29068042D01*
X110582834Y-29053724D01*
X110586351Y-29039683D01*
X110591228Y-29026054D01*
X110597417Y-29012969D01*
X110604858Y-29000553D01*
X110613481Y-28988927D01*
X110623202Y-28978202D01*
X110633927Y-28968481D01*
X110645553Y-28959858D01*
X110657969Y-28952417D01*
X110671054Y-28946228D01*
X110684683Y-28941351D01*
X110698724Y-28937834D01*
X110713042Y-28935710D01*
X110727500Y-28935000D01*
X111072500Y-28935000D01*
X111086958Y-28935710D01*
G37*
G04 #@! TD.AperFunction*
G04 #@! TA.AperFunction,SMDPad,CuDef*
G36*
X109086958Y-29905710D02*
G01*
X109101276Y-29907834D01*
X109115317Y-29911351D01*
X109128946Y-29916228D01*
X109142031Y-29922417D01*
X109154447Y-29929858D01*
X109166073Y-29938481D01*
X109176798Y-29948202D01*
X109186519Y-29958927D01*
X109195142Y-29970553D01*
X109202583Y-29982969D01*
X109208772Y-29996054D01*
X109213649Y-30009683D01*
X109217166Y-30023724D01*
X109219290Y-30038042D01*
X109220000Y-30052500D01*
X109220000Y-30347500D01*
X109219290Y-30361958D01*
X109217166Y-30376276D01*
X109213649Y-30390317D01*
X109208772Y-30403946D01*
X109202583Y-30417031D01*
X109195142Y-30429447D01*
X109186519Y-30441073D01*
X109176798Y-30451798D01*
X109166073Y-30461519D01*
X109154447Y-30470142D01*
X109142031Y-30477583D01*
X109128946Y-30483772D01*
X109115317Y-30488649D01*
X109101276Y-30492166D01*
X109086958Y-30494290D01*
X109072500Y-30495000D01*
X108727500Y-30495000D01*
X108713042Y-30494290D01*
X108698724Y-30492166D01*
X108684683Y-30488649D01*
X108671054Y-30483772D01*
X108657969Y-30477583D01*
X108645553Y-30470142D01*
X108633927Y-30461519D01*
X108623202Y-30451798D01*
X108613481Y-30441073D01*
X108604858Y-30429447D01*
X108597417Y-30417031D01*
X108591228Y-30403946D01*
X108586351Y-30390317D01*
X108582834Y-30376276D01*
X108580710Y-30361958D01*
X108580000Y-30347500D01*
X108580000Y-30052500D01*
X108580710Y-30038042D01*
X108582834Y-30023724D01*
X108586351Y-30009683D01*
X108591228Y-29996054D01*
X108597417Y-29982969D01*
X108604858Y-29970553D01*
X108613481Y-29958927D01*
X108623202Y-29948202D01*
X108633927Y-29938481D01*
X108645553Y-29929858D01*
X108657969Y-29922417D01*
X108671054Y-29916228D01*
X108684683Y-29911351D01*
X108698724Y-29907834D01*
X108713042Y-29905710D01*
X108727500Y-29905000D01*
X109072500Y-29905000D01*
X109086958Y-29905710D01*
G37*
G04 #@! TD.AperFunction*
G04 #@! TA.AperFunction,SMDPad,CuDef*
G36*
X109086958Y-28935710D02*
G01*
X109101276Y-28937834D01*
X109115317Y-28941351D01*
X109128946Y-28946228D01*
X109142031Y-28952417D01*
X109154447Y-28959858D01*
X109166073Y-28968481D01*
X109176798Y-28978202D01*
X109186519Y-28988927D01*
X109195142Y-29000553D01*
X109202583Y-29012969D01*
X109208772Y-29026054D01*
X109213649Y-29039683D01*
X109217166Y-29053724D01*
X109219290Y-29068042D01*
X109220000Y-29082500D01*
X109220000Y-29377500D01*
X109219290Y-29391958D01*
X109217166Y-29406276D01*
X109213649Y-29420317D01*
X109208772Y-29433946D01*
X109202583Y-29447031D01*
X109195142Y-29459447D01*
X109186519Y-29471073D01*
X109176798Y-29481798D01*
X109166073Y-29491519D01*
X109154447Y-29500142D01*
X109142031Y-29507583D01*
X109128946Y-29513772D01*
X109115317Y-29518649D01*
X109101276Y-29522166D01*
X109086958Y-29524290D01*
X109072500Y-29525000D01*
X108727500Y-29525000D01*
X108713042Y-29524290D01*
X108698724Y-29522166D01*
X108684683Y-29518649D01*
X108671054Y-29513772D01*
X108657969Y-29507583D01*
X108645553Y-29500142D01*
X108633927Y-29491519D01*
X108623202Y-29481798D01*
X108613481Y-29471073D01*
X108604858Y-29459447D01*
X108597417Y-29447031D01*
X108591228Y-29433946D01*
X108586351Y-29420317D01*
X108582834Y-29406276D01*
X108580710Y-29391958D01*
X108580000Y-29377500D01*
X108580000Y-29082500D01*
X108580710Y-29068042D01*
X108582834Y-29053724D01*
X108586351Y-29039683D01*
X108591228Y-29026054D01*
X108597417Y-29012969D01*
X108604858Y-29000553D01*
X108613481Y-28988927D01*
X108623202Y-28978202D01*
X108633927Y-28968481D01*
X108645553Y-28959858D01*
X108657969Y-28952417D01*
X108671054Y-28946228D01*
X108684683Y-28941351D01*
X108698724Y-28937834D01*
X108713042Y-28935710D01*
X108727500Y-28935000D01*
X109072500Y-28935000D01*
X109086958Y-28935710D01*
G37*
G04 #@! TD.AperFunction*
G04 #@! TA.AperFunction,SMDPad,CuDef*
G36*
X109086958Y-27905710D02*
G01*
X109101276Y-27907834D01*
X109115317Y-27911351D01*
X109128946Y-27916228D01*
X109142031Y-27922417D01*
X109154447Y-27929858D01*
X109166073Y-27938481D01*
X109176798Y-27948202D01*
X109186519Y-27958927D01*
X109195142Y-27970553D01*
X109202583Y-27982969D01*
X109208772Y-27996054D01*
X109213649Y-28009683D01*
X109217166Y-28023724D01*
X109219290Y-28038042D01*
X109220000Y-28052500D01*
X109220000Y-28347500D01*
X109219290Y-28361958D01*
X109217166Y-28376276D01*
X109213649Y-28390317D01*
X109208772Y-28403946D01*
X109202583Y-28417031D01*
X109195142Y-28429447D01*
X109186519Y-28441073D01*
X109176798Y-28451798D01*
X109166073Y-28461519D01*
X109154447Y-28470142D01*
X109142031Y-28477583D01*
X109128946Y-28483772D01*
X109115317Y-28488649D01*
X109101276Y-28492166D01*
X109086958Y-28494290D01*
X109072500Y-28495000D01*
X108727500Y-28495000D01*
X108713042Y-28494290D01*
X108698724Y-28492166D01*
X108684683Y-28488649D01*
X108671054Y-28483772D01*
X108657969Y-28477583D01*
X108645553Y-28470142D01*
X108633927Y-28461519D01*
X108623202Y-28451798D01*
X108613481Y-28441073D01*
X108604858Y-28429447D01*
X108597417Y-28417031D01*
X108591228Y-28403946D01*
X108586351Y-28390317D01*
X108582834Y-28376276D01*
X108580710Y-28361958D01*
X108580000Y-28347500D01*
X108580000Y-28052500D01*
X108580710Y-28038042D01*
X108582834Y-28023724D01*
X108586351Y-28009683D01*
X108591228Y-27996054D01*
X108597417Y-27982969D01*
X108604858Y-27970553D01*
X108613481Y-27958927D01*
X108623202Y-27948202D01*
X108633927Y-27938481D01*
X108645553Y-27929858D01*
X108657969Y-27922417D01*
X108671054Y-27916228D01*
X108684683Y-27911351D01*
X108698724Y-27907834D01*
X108713042Y-27905710D01*
X108727500Y-27905000D01*
X109072500Y-27905000D01*
X109086958Y-27905710D01*
G37*
G04 #@! TD.AperFunction*
G04 #@! TA.AperFunction,SMDPad,CuDef*
G36*
X109086958Y-26935710D02*
G01*
X109101276Y-26937834D01*
X109115317Y-26941351D01*
X109128946Y-26946228D01*
X109142031Y-26952417D01*
X109154447Y-26959858D01*
X109166073Y-26968481D01*
X109176798Y-26978202D01*
X109186519Y-26988927D01*
X109195142Y-27000553D01*
X109202583Y-27012969D01*
X109208772Y-27026054D01*
X109213649Y-27039683D01*
X109217166Y-27053724D01*
X109219290Y-27068042D01*
X109220000Y-27082500D01*
X109220000Y-27377500D01*
X109219290Y-27391958D01*
X109217166Y-27406276D01*
X109213649Y-27420317D01*
X109208772Y-27433946D01*
X109202583Y-27447031D01*
X109195142Y-27459447D01*
X109186519Y-27471073D01*
X109176798Y-27481798D01*
X109166073Y-27491519D01*
X109154447Y-27500142D01*
X109142031Y-27507583D01*
X109128946Y-27513772D01*
X109115317Y-27518649D01*
X109101276Y-27522166D01*
X109086958Y-27524290D01*
X109072500Y-27525000D01*
X108727500Y-27525000D01*
X108713042Y-27524290D01*
X108698724Y-27522166D01*
X108684683Y-27518649D01*
X108671054Y-27513772D01*
X108657969Y-27507583D01*
X108645553Y-27500142D01*
X108633927Y-27491519D01*
X108623202Y-27481798D01*
X108613481Y-27471073D01*
X108604858Y-27459447D01*
X108597417Y-27447031D01*
X108591228Y-27433946D01*
X108586351Y-27420317D01*
X108582834Y-27406276D01*
X108580710Y-27391958D01*
X108580000Y-27377500D01*
X108580000Y-27082500D01*
X108580710Y-27068042D01*
X108582834Y-27053724D01*
X108586351Y-27039683D01*
X108591228Y-27026054D01*
X108597417Y-27012969D01*
X108604858Y-27000553D01*
X108613481Y-26988927D01*
X108623202Y-26978202D01*
X108633927Y-26968481D01*
X108645553Y-26959858D01*
X108657969Y-26952417D01*
X108671054Y-26946228D01*
X108684683Y-26941351D01*
X108698724Y-26937834D01*
X108713042Y-26935710D01*
X108727500Y-26935000D01*
X109072500Y-26935000D01*
X109086958Y-26935710D01*
G37*
G04 #@! TD.AperFunction*
G04 #@! TA.AperFunction,SMDPad,CuDef*
G36*
X111086958Y-27905710D02*
G01*
X111101276Y-27907834D01*
X111115317Y-27911351D01*
X111128946Y-27916228D01*
X111142031Y-27922417D01*
X111154447Y-27929858D01*
X111166073Y-27938481D01*
X111176798Y-27948202D01*
X111186519Y-27958927D01*
X111195142Y-27970553D01*
X111202583Y-27982969D01*
X111208772Y-27996054D01*
X111213649Y-28009683D01*
X111217166Y-28023724D01*
X111219290Y-28038042D01*
X111220000Y-28052500D01*
X111220000Y-28347500D01*
X111219290Y-28361958D01*
X111217166Y-28376276D01*
X111213649Y-28390317D01*
X111208772Y-28403946D01*
X111202583Y-28417031D01*
X111195142Y-28429447D01*
X111186519Y-28441073D01*
X111176798Y-28451798D01*
X111166073Y-28461519D01*
X111154447Y-28470142D01*
X111142031Y-28477583D01*
X111128946Y-28483772D01*
X111115317Y-28488649D01*
X111101276Y-28492166D01*
X111086958Y-28494290D01*
X111072500Y-28495000D01*
X110727500Y-28495000D01*
X110713042Y-28494290D01*
X110698724Y-28492166D01*
X110684683Y-28488649D01*
X110671054Y-28483772D01*
X110657969Y-28477583D01*
X110645553Y-28470142D01*
X110633927Y-28461519D01*
X110623202Y-28451798D01*
X110613481Y-28441073D01*
X110604858Y-28429447D01*
X110597417Y-28417031D01*
X110591228Y-28403946D01*
X110586351Y-28390317D01*
X110582834Y-28376276D01*
X110580710Y-28361958D01*
X110580000Y-28347500D01*
X110580000Y-28052500D01*
X110580710Y-28038042D01*
X110582834Y-28023724D01*
X110586351Y-28009683D01*
X110591228Y-27996054D01*
X110597417Y-27982969D01*
X110604858Y-27970553D01*
X110613481Y-27958927D01*
X110623202Y-27948202D01*
X110633927Y-27938481D01*
X110645553Y-27929858D01*
X110657969Y-27922417D01*
X110671054Y-27916228D01*
X110684683Y-27911351D01*
X110698724Y-27907834D01*
X110713042Y-27905710D01*
X110727500Y-27905000D01*
X111072500Y-27905000D01*
X111086958Y-27905710D01*
G37*
G04 #@! TD.AperFunction*
G04 #@! TA.AperFunction,SMDPad,CuDef*
G36*
X111086958Y-26935710D02*
G01*
X111101276Y-26937834D01*
X111115317Y-26941351D01*
X111128946Y-26946228D01*
X111142031Y-26952417D01*
X111154447Y-26959858D01*
X111166073Y-26968481D01*
X111176798Y-26978202D01*
X111186519Y-26988927D01*
X111195142Y-27000553D01*
X111202583Y-27012969D01*
X111208772Y-27026054D01*
X111213649Y-27039683D01*
X111217166Y-27053724D01*
X111219290Y-27068042D01*
X111220000Y-27082500D01*
X111220000Y-27377500D01*
X111219290Y-27391958D01*
X111217166Y-27406276D01*
X111213649Y-27420317D01*
X111208772Y-27433946D01*
X111202583Y-27447031D01*
X111195142Y-27459447D01*
X111186519Y-27471073D01*
X111176798Y-27481798D01*
X111166073Y-27491519D01*
X111154447Y-27500142D01*
X111142031Y-27507583D01*
X111128946Y-27513772D01*
X111115317Y-27518649D01*
X111101276Y-27522166D01*
X111086958Y-27524290D01*
X111072500Y-27525000D01*
X110727500Y-27525000D01*
X110713042Y-27524290D01*
X110698724Y-27522166D01*
X110684683Y-27518649D01*
X110671054Y-27513772D01*
X110657969Y-27507583D01*
X110645553Y-27500142D01*
X110633927Y-27491519D01*
X110623202Y-27481798D01*
X110613481Y-27471073D01*
X110604858Y-27459447D01*
X110597417Y-27447031D01*
X110591228Y-27433946D01*
X110586351Y-27420317D01*
X110582834Y-27406276D01*
X110580710Y-27391958D01*
X110580000Y-27377500D01*
X110580000Y-27082500D01*
X110580710Y-27068042D01*
X110582834Y-27053724D01*
X110586351Y-27039683D01*
X110591228Y-27026054D01*
X110597417Y-27012969D01*
X110604858Y-27000553D01*
X110613481Y-26988927D01*
X110623202Y-26978202D01*
X110633927Y-26968481D01*
X110645553Y-26959858D01*
X110657969Y-26952417D01*
X110671054Y-26946228D01*
X110684683Y-26941351D01*
X110698724Y-26937834D01*
X110713042Y-26935710D01*
X110727500Y-26935000D01*
X111072500Y-26935000D01*
X111086958Y-26935710D01*
G37*
G04 #@! TD.AperFunction*
D27*
X109750000Y-34750000D03*
X110700000Y-36750000D03*
X108800000Y-36750000D03*
D23*
X116400000Y-32500000D03*
X113600000Y-32500000D03*
D28*
X115000000Y-25000000D03*
X119000000Y-25000000D03*
D23*
X43200000Y-72800000D03*
X43200000Y-75600000D03*
G04 #@! TA.AperFunction,SMDPad,CuDef*
D10*
G36*
X116815191Y-28526053D02*
G01*
X116836426Y-28529203D01*
X116857250Y-28534419D01*
X116877462Y-28541651D01*
X116896868Y-28550830D01*
X116915281Y-28561866D01*
X116932524Y-28574654D01*
X116948430Y-28589070D01*
X116962846Y-28604976D01*
X116975634Y-28622219D01*
X116986670Y-28640632D01*
X116995849Y-28660038D01*
X117003081Y-28680250D01*
X117008297Y-28701074D01*
X117011447Y-28722309D01*
X117012500Y-28743750D01*
X117012500Y-29256250D01*
X117011447Y-29277691D01*
X117008297Y-29298926D01*
X117003081Y-29319750D01*
X116995849Y-29339962D01*
X116986670Y-29359368D01*
X116975634Y-29377781D01*
X116962846Y-29395024D01*
X116948430Y-29410930D01*
X116932524Y-29425346D01*
X116915281Y-29438134D01*
X116896868Y-29449170D01*
X116877462Y-29458349D01*
X116857250Y-29465581D01*
X116836426Y-29470797D01*
X116815191Y-29473947D01*
X116793750Y-29475000D01*
X116356250Y-29475000D01*
X116334809Y-29473947D01*
X116313574Y-29470797D01*
X116292750Y-29465581D01*
X116272538Y-29458349D01*
X116253132Y-29449170D01*
X116234719Y-29438134D01*
X116217476Y-29425346D01*
X116201570Y-29410930D01*
X116187154Y-29395024D01*
X116174366Y-29377781D01*
X116163330Y-29359368D01*
X116154151Y-29339962D01*
X116146919Y-29319750D01*
X116141703Y-29298926D01*
X116138553Y-29277691D01*
X116137500Y-29256250D01*
X116137500Y-28743750D01*
X116138553Y-28722309D01*
X116141703Y-28701074D01*
X116146919Y-28680250D01*
X116154151Y-28660038D01*
X116163330Y-28640632D01*
X116174366Y-28622219D01*
X116187154Y-28604976D01*
X116201570Y-28589070D01*
X116217476Y-28574654D01*
X116234719Y-28561866D01*
X116253132Y-28550830D01*
X116272538Y-28541651D01*
X116292750Y-28534419D01*
X116313574Y-28529203D01*
X116334809Y-28526053D01*
X116356250Y-28525000D01*
X116793750Y-28525000D01*
X116815191Y-28526053D01*
G37*
G04 #@! TD.AperFunction*
G04 #@! TA.AperFunction,SMDPad,CuDef*
G36*
X115240191Y-28526053D02*
G01*
X115261426Y-28529203D01*
X115282250Y-28534419D01*
X115302462Y-28541651D01*
X115321868Y-28550830D01*
X115340281Y-28561866D01*
X115357524Y-28574654D01*
X115373430Y-28589070D01*
X115387846Y-28604976D01*
X115400634Y-28622219D01*
X115411670Y-28640632D01*
X115420849Y-28660038D01*
X115428081Y-28680250D01*
X115433297Y-28701074D01*
X115436447Y-28722309D01*
X115437500Y-28743750D01*
X115437500Y-29256250D01*
X115436447Y-29277691D01*
X115433297Y-29298926D01*
X115428081Y-29319750D01*
X115420849Y-29339962D01*
X115411670Y-29359368D01*
X115400634Y-29377781D01*
X115387846Y-29395024D01*
X115373430Y-29410930D01*
X115357524Y-29425346D01*
X115340281Y-29438134D01*
X115321868Y-29449170D01*
X115302462Y-29458349D01*
X115282250Y-29465581D01*
X115261426Y-29470797D01*
X115240191Y-29473947D01*
X115218750Y-29475000D01*
X114781250Y-29475000D01*
X114759809Y-29473947D01*
X114738574Y-29470797D01*
X114717750Y-29465581D01*
X114697538Y-29458349D01*
X114678132Y-29449170D01*
X114659719Y-29438134D01*
X114642476Y-29425346D01*
X114626570Y-29410930D01*
X114612154Y-29395024D01*
X114599366Y-29377781D01*
X114588330Y-29359368D01*
X114579151Y-29339962D01*
X114571919Y-29319750D01*
X114566703Y-29298926D01*
X114563553Y-29277691D01*
X114562500Y-29256250D01*
X114562500Y-28743750D01*
X114563553Y-28722309D01*
X114566703Y-28701074D01*
X114571919Y-28680250D01*
X114579151Y-28660038D01*
X114588330Y-28640632D01*
X114599366Y-28622219D01*
X114612154Y-28604976D01*
X114626570Y-28589070D01*
X114642476Y-28574654D01*
X114659719Y-28561866D01*
X114678132Y-28550830D01*
X114697538Y-28541651D01*
X114717750Y-28534419D01*
X114738574Y-28529203D01*
X114759809Y-28526053D01*
X114781250Y-28525000D01*
X115218750Y-28525000D01*
X115240191Y-28526053D01*
G37*
G04 #@! TD.AperFunction*
D11*
X101540000Y-83080000D03*
X99000000Y-83080000D03*
X101540000Y-80540000D03*
X99000000Y-80540000D03*
X101540000Y-78000000D03*
D12*
X99000000Y-78000000D03*
D29*
X69250000Y-77800000D03*
X69250000Y-77000000D03*
X69250000Y-76200000D03*
X69250000Y-75400000D03*
X69250000Y-74600000D03*
X69250000Y-73800000D03*
X69250000Y-73000000D03*
X69250000Y-72200000D03*
D30*
X70700000Y-70750000D03*
X71500000Y-70750000D03*
X72300000Y-70750000D03*
X73100000Y-70750000D03*
X73900000Y-70750000D03*
X74700000Y-70750000D03*
X75500000Y-70750000D03*
X76300000Y-70750000D03*
D29*
X77750000Y-72200000D03*
X77750000Y-73000000D03*
X77750000Y-73800000D03*
X77750000Y-74600000D03*
X77750000Y-75400000D03*
X77750000Y-76200000D03*
X77750000Y-77000000D03*
X77750000Y-77800000D03*
D30*
X76300000Y-79250000D03*
X75500000Y-79250000D03*
X74700000Y-79250000D03*
X73900000Y-79250000D03*
X73100000Y-79250000D03*
X72300000Y-79250000D03*
X71500000Y-79250000D03*
X70700000Y-79250000D03*
D31*
X33200000Y-70400000D03*
X33200000Y-75000000D03*
X33200000Y-72700000D03*
D32*
X39500000Y-72700000D03*
D33*
X66000000Y-75400000D03*
X66000000Y-77600000D03*
G04 #@! TA.AperFunction,SMDPad,CuDef*
D10*
G36*
X73665191Y-67526053D02*
G01*
X73686426Y-67529203D01*
X73707250Y-67534419D01*
X73727462Y-67541651D01*
X73746868Y-67550830D01*
X73765281Y-67561866D01*
X73782524Y-67574654D01*
X73798430Y-67589070D01*
X73812846Y-67604976D01*
X73825634Y-67622219D01*
X73836670Y-67640632D01*
X73845849Y-67660038D01*
X73853081Y-67680250D01*
X73858297Y-67701074D01*
X73861447Y-67722309D01*
X73862500Y-67743750D01*
X73862500Y-68256250D01*
X73861447Y-68277691D01*
X73858297Y-68298926D01*
X73853081Y-68319750D01*
X73845849Y-68339962D01*
X73836670Y-68359368D01*
X73825634Y-68377781D01*
X73812846Y-68395024D01*
X73798430Y-68410930D01*
X73782524Y-68425346D01*
X73765281Y-68438134D01*
X73746868Y-68449170D01*
X73727462Y-68458349D01*
X73707250Y-68465581D01*
X73686426Y-68470797D01*
X73665191Y-68473947D01*
X73643750Y-68475000D01*
X73206250Y-68475000D01*
X73184809Y-68473947D01*
X73163574Y-68470797D01*
X73142750Y-68465581D01*
X73122538Y-68458349D01*
X73103132Y-68449170D01*
X73084719Y-68438134D01*
X73067476Y-68425346D01*
X73051570Y-68410930D01*
X73037154Y-68395024D01*
X73024366Y-68377781D01*
X73013330Y-68359368D01*
X73004151Y-68339962D01*
X72996919Y-68319750D01*
X72991703Y-68298926D01*
X72988553Y-68277691D01*
X72987500Y-68256250D01*
X72987500Y-67743750D01*
X72988553Y-67722309D01*
X72991703Y-67701074D01*
X72996919Y-67680250D01*
X73004151Y-67660038D01*
X73013330Y-67640632D01*
X73024366Y-67622219D01*
X73037154Y-67604976D01*
X73051570Y-67589070D01*
X73067476Y-67574654D01*
X73084719Y-67561866D01*
X73103132Y-67550830D01*
X73122538Y-67541651D01*
X73142750Y-67534419D01*
X73163574Y-67529203D01*
X73184809Y-67526053D01*
X73206250Y-67525000D01*
X73643750Y-67525000D01*
X73665191Y-67526053D01*
G37*
G04 #@! TD.AperFunction*
G04 #@! TA.AperFunction,SMDPad,CuDef*
G36*
X75240191Y-67526053D02*
G01*
X75261426Y-67529203D01*
X75282250Y-67534419D01*
X75302462Y-67541651D01*
X75321868Y-67550830D01*
X75340281Y-67561866D01*
X75357524Y-67574654D01*
X75373430Y-67589070D01*
X75387846Y-67604976D01*
X75400634Y-67622219D01*
X75411670Y-67640632D01*
X75420849Y-67660038D01*
X75428081Y-67680250D01*
X75433297Y-67701074D01*
X75436447Y-67722309D01*
X75437500Y-67743750D01*
X75437500Y-68256250D01*
X75436447Y-68277691D01*
X75433297Y-68298926D01*
X75428081Y-68319750D01*
X75420849Y-68339962D01*
X75411670Y-68359368D01*
X75400634Y-68377781D01*
X75387846Y-68395024D01*
X75373430Y-68410930D01*
X75357524Y-68425346D01*
X75340281Y-68438134D01*
X75321868Y-68449170D01*
X75302462Y-68458349D01*
X75282250Y-68465581D01*
X75261426Y-68470797D01*
X75240191Y-68473947D01*
X75218750Y-68475000D01*
X74781250Y-68475000D01*
X74759809Y-68473947D01*
X74738574Y-68470797D01*
X74717750Y-68465581D01*
X74697538Y-68458349D01*
X74678132Y-68449170D01*
X74659719Y-68438134D01*
X74642476Y-68425346D01*
X74626570Y-68410930D01*
X74612154Y-68395024D01*
X74599366Y-68377781D01*
X74588330Y-68359368D01*
X74579151Y-68339962D01*
X74571919Y-68319750D01*
X74566703Y-68298926D01*
X74563553Y-68277691D01*
X74562500Y-68256250D01*
X74562500Y-67743750D01*
X74563553Y-67722309D01*
X74566703Y-67701074D01*
X74571919Y-67680250D01*
X74579151Y-67660038D01*
X74588330Y-67640632D01*
X74599366Y-67622219D01*
X74612154Y-67604976D01*
X74626570Y-67589070D01*
X74642476Y-67574654D01*
X74659719Y-67561866D01*
X74678132Y-67550830D01*
X74697538Y-67541651D01*
X74717750Y-67534419D01*
X74738574Y-67529203D01*
X74759809Y-67526053D01*
X74781250Y-67525000D01*
X75218750Y-67525000D01*
X75240191Y-67526053D01*
G37*
G04 #@! TD.AperFunction*
G04 #@! TA.AperFunction,SMDPad,CuDef*
G36*
X108277691Y-85563553D02*
G01*
X108298926Y-85566703D01*
X108319750Y-85571919D01*
X108339962Y-85579151D01*
X108359368Y-85588330D01*
X108377781Y-85599366D01*
X108395024Y-85612154D01*
X108410930Y-85626570D01*
X108425346Y-85642476D01*
X108438134Y-85659719D01*
X108449170Y-85678132D01*
X108458349Y-85697538D01*
X108465581Y-85717750D01*
X108470797Y-85738574D01*
X108473947Y-85759809D01*
X108475000Y-85781250D01*
X108475000Y-86218750D01*
X108473947Y-86240191D01*
X108470797Y-86261426D01*
X108465581Y-86282250D01*
X108458349Y-86302462D01*
X108449170Y-86321868D01*
X108438134Y-86340281D01*
X108425346Y-86357524D01*
X108410930Y-86373430D01*
X108395024Y-86387846D01*
X108377781Y-86400634D01*
X108359368Y-86411670D01*
X108339962Y-86420849D01*
X108319750Y-86428081D01*
X108298926Y-86433297D01*
X108277691Y-86436447D01*
X108256250Y-86437500D01*
X107743750Y-86437500D01*
X107722309Y-86436447D01*
X107701074Y-86433297D01*
X107680250Y-86428081D01*
X107660038Y-86420849D01*
X107640632Y-86411670D01*
X107622219Y-86400634D01*
X107604976Y-86387846D01*
X107589070Y-86373430D01*
X107574654Y-86357524D01*
X107561866Y-86340281D01*
X107550830Y-86321868D01*
X107541651Y-86302462D01*
X107534419Y-86282250D01*
X107529203Y-86261426D01*
X107526053Y-86240191D01*
X107525000Y-86218750D01*
X107525000Y-85781250D01*
X107526053Y-85759809D01*
X107529203Y-85738574D01*
X107534419Y-85717750D01*
X107541651Y-85697538D01*
X107550830Y-85678132D01*
X107561866Y-85659719D01*
X107574654Y-85642476D01*
X107589070Y-85626570D01*
X107604976Y-85612154D01*
X107622219Y-85599366D01*
X107640632Y-85588330D01*
X107660038Y-85579151D01*
X107680250Y-85571919D01*
X107701074Y-85566703D01*
X107722309Y-85563553D01*
X107743750Y-85562500D01*
X108256250Y-85562500D01*
X108277691Y-85563553D01*
G37*
G04 #@! TD.AperFunction*
G04 #@! TA.AperFunction,SMDPad,CuDef*
G36*
X108277691Y-83988553D02*
G01*
X108298926Y-83991703D01*
X108319750Y-83996919D01*
X108339962Y-84004151D01*
X108359368Y-84013330D01*
X108377781Y-84024366D01*
X108395024Y-84037154D01*
X108410930Y-84051570D01*
X108425346Y-84067476D01*
X108438134Y-84084719D01*
X108449170Y-84103132D01*
X108458349Y-84122538D01*
X108465581Y-84142750D01*
X108470797Y-84163574D01*
X108473947Y-84184809D01*
X108475000Y-84206250D01*
X108475000Y-84643750D01*
X108473947Y-84665191D01*
X108470797Y-84686426D01*
X108465581Y-84707250D01*
X108458349Y-84727462D01*
X108449170Y-84746868D01*
X108438134Y-84765281D01*
X108425346Y-84782524D01*
X108410930Y-84798430D01*
X108395024Y-84812846D01*
X108377781Y-84825634D01*
X108359368Y-84836670D01*
X108339962Y-84845849D01*
X108319750Y-84853081D01*
X108298926Y-84858297D01*
X108277691Y-84861447D01*
X108256250Y-84862500D01*
X107743750Y-84862500D01*
X107722309Y-84861447D01*
X107701074Y-84858297D01*
X107680250Y-84853081D01*
X107660038Y-84845849D01*
X107640632Y-84836670D01*
X107622219Y-84825634D01*
X107604976Y-84812846D01*
X107589070Y-84798430D01*
X107574654Y-84782524D01*
X107561866Y-84765281D01*
X107550830Y-84746868D01*
X107541651Y-84727462D01*
X107534419Y-84707250D01*
X107529203Y-84686426D01*
X107526053Y-84665191D01*
X107525000Y-84643750D01*
X107525000Y-84206250D01*
X107526053Y-84184809D01*
X107529203Y-84163574D01*
X107534419Y-84142750D01*
X107541651Y-84122538D01*
X107550830Y-84103132D01*
X107561866Y-84084719D01*
X107574654Y-84067476D01*
X107589070Y-84051570D01*
X107604976Y-84037154D01*
X107622219Y-84024366D01*
X107640632Y-84013330D01*
X107660038Y-84004151D01*
X107680250Y-83996919D01*
X107701074Y-83991703D01*
X107722309Y-83988553D01*
X107743750Y-83987500D01*
X108256250Y-83987500D01*
X108277691Y-83988553D01*
G37*
G04 #@! TD.AperFunction*
G04 #@! TA.AperFunction,SMDPad,CuDef*
G36*
X30477691Y-71263553D02*
G01*
X30498926Y-71266703D01*
X30519750Y-71271919D01*
X30539962Y-71279151D01*
X30559368Y-71288330D01*
X30577781Y-71299366D01*
X30595024Y-71312154D01*
X30610930Y-71326570D01*
X30625346Y-71342476D01*
X30638134Y-71359719D01*
X30649170Y-71378132D01*
X30658349Y-71397538D01*
X30665581Y-71417750D01*
X30670797Y-71438574D01*
X30673947Y-71459809D01*
X30675000Y-71481250D01*
X30675000Y-71918750D01*
X30673947Y-71940191D01*
X30670797Y-71961426D01*
X30665581Y-71982250D01*
X30658349Y-72002462D01*
X30649170Y-72021868D01*
X30638134Y-72040281D01*
X30625346Y-72057524D01*
X30610930Y-72073430D01*
X30595024Y-72087846D01*
X30577781Y-72100634D01*
X30559368Y-72111670D01*
X30539962Y-72120849D01*
X30519750Y-72128081D01*
X30498926Y-72133297D01*
X30477691Y-72136447D01*
X30456250Y-72137500D01*
X29943750Y-72137500D01*
X29922309Y-72136447D01*
X29901074Y-72133297D01*
X29880250Y-72128081D01*
X29860038Y-72120849D01*
X29840632Y-72111670D01*
X29822219Y-72100634D01*
X29804976Y-72087846D01*
X29789070Y-72073430D01*
X29774654Y-72057524D01*
X29761866Y-72040281D01*
X29750830Y-72021868D01*
X29741651Y-72002462D01*
X29734419Y-71982250D01*
X29729203Y-71961426D01*
X29726053Y-71940191D01*
X29725000Y-71918750D01*
X29725000Y-71481250D01*
X29726053Y-71459809D01*
X29729203Y-71438574D01*
X29734419Y-71417750D01*
X29741651Y-71397538D01*
X29750830Y-71378132D01*
X29761866Y-71359719D01*
X29774654Y-71342476D01*
X29789070Y-71326570D01*
X29804976Y-71312154D01*
X29822219Y-71299366D01*
X29840632Y-71288330D01*
X29860038Y-71279151D01*
X29880250Y-71271919D01*
X29901074Y-71266703D01*
X29922309Y-71263553D01*
X29943750Y-71262500D01*
X30456250Y-71262500D01*
X30477691Y-71263553D01*
G37*
G04 #@! TD.AperFunction*
G04 #@! TA.AperFunction,SMDPad,CuDef*
G36*
X30477691Y-72838553D02*
G01*
X30498926Y-72841703D01*
X30519750Y-72846919D01*
X30539962Y-72854151D01*
X30559368Y-72863330D01*
X30577781Y-72874366D01*
X30595024Y-72887154D01*
X30610930Y-72901570D01*
X30625346Y-72917476D01*
X30638134Y-72934719D01*
X30649170Y-72953132D01*
X30658349Y-72972538D01*
X30665581Y-72992750D01*
X30670797Y-73013574D01*
X30673947Y-73034809D01*
X30675000Y-73056250D01*
X30675000Y-73493750D01*
X30673947Y-73515191D01*
X30670797Y-73536426D01*
X30665581Y-73557250D01*
X30658349Y-73577462D01*
X30649170Y-73596868D01*
X30638134Y-73615281D01*
X30625346Y-73632524D01*
X30610930Y-73648430D01*
X30595024Y-73662846D01*
X30577781Y-73675634D01*
X30559368Y-73686670D01*
X30539962Y-73695849D01*
X30519750Y-73703081D01*
X30498926Y-73708297D01*
X30477691Y-73711447D01*
X30456250Y-73712500D01*
X29943750Y-73712500D01*
X29922309Y-73711447D01*
X29901074Y-73708297D01*
X29880250Y-73703081D01*
X29860038Y-73695849D01*
X29840632Y-73686670D01*
X29822219Y-73675634D01*
X29804976Y-73662846D01*
X29789070Y-73648430D01*
X29774654Y-73632524D01*
X29761866Y-73615281D01*
X29750830Y-73596868D01*
X29741651Y-73577462D01*
X29734419Y-73557250D01*
X29729203Y-73536426D01*
X29726053Y-73515191D01*
X29725000Y-73493750D01*
X29725000Y-73056250D01*
X29726053Y-73034809D01*
X29729203Y-73013574D01*
X29734419Y-72992750D01*
X29741651Y-72972538D01*
X29750830Y-72953132D01*
X29761866Y-72934719D01*
X29774654Y-72917476D01*
X29789070Y-72901570D01*
X29804976Y-72887154D01*
X29822219Y-72874366D01*
X29840632Y-72863330D01*
X29860038Y-72854151D01*
X29880250Y-72846919D01*
X29901074Y-72841703D01*
X29922309Y-72838553D01*
X29943750Y-72837500D01*
X30456250Y-72837500D01*
X30477691Y-72838553D01*
G37*
G04 #@! TD.AperFunction*
D14*
X103000000Y-33000000D03*
D15*
X31000000Y-33000000D03*
D34*
X82900000Y-81000000D03*
X83250000Y-105500000D03*
X36200000Y-104000000D03*
X34500000Y-102300000D03*
X46500000Y-74300000D03*
X97100000Y-72700000D03*
X97200000Y-70800000D03*
X86800000Y-70500000D03*
X76800000Y-67800000D03*
X66000000Y-79400000D03*
X75800000Y-77650001D03*
X90105865Y-70805865D03*
X71000000Y-75500000D03*
X120900000Y-68200000D03*
X86400000Y-74600000D03*
X106800000Y-87440011D03*
X107000000Y-29000000D03*
X74678614Y-72160690D03*
X67500000Y-76125000D03*
X62700000Y-76800000D03*
X60800000Y-78600000D03*
X55400000Y-77800000D03*
X63600000Y-79100000D03*
X66500000Y-71100000D03*
X65000000Y-79000000D03*
X71374847Y-76900153D03*
X54000000Y-92000000D03*
X66000000Y-81800000D03*
X62400000Y-81800000D03*
X60750000Y-89000000D03*
X104250000Y-101500000D03*
X90250000Y-107250000D03*
X108000000Y-41500000D03*
X76100000Y-76200000D03*
X85600000Y-78200000D03*
X95500000Y-100000000D03*
X84000000Y-78100000D03*
X88250000Y-100500000D03*
D35*
X31000000Y-33000000D02*
X31000000Y-54000000D01*
D36*
X73824999Y-80375001D02*
X73900000Y-80300000D01*
X72375001Y-80375001D02*
X73824999Y-80375001D01*
X72300000Y-80300000D02*
X72375001Y-80375001D01*
X72300000Y-79250000D02*
X72300000Y-80300000D01*
X73100000Y-71610002D02*
X73100000Y-70750000D01*
X72300000Y-72410002D02*
X73100000Y-71610002D01*
X72300000Y-79250000D02*
X72300000Y-72410002D01*
X73100000Y-68325000D02*
X73425000Y-68000000D01*
X73100000Y-70750000D02*
X73100000Y-68325000D01*
X111575000Y-84425000D02*
X112000000Y-84000000D01*
X70840000Y-84000000D02*
X70840000Y-86540000D01*
X70840000Y-86540000D02*
X73380000Y-86540000D01*
X73380000Y-86540000D02*
X73380000Y-84000000D01*
X73380000Y-82797919D02*
X73900000Y-82277919D01*
X73900000Y-80300000D02*
X73900000Y-79250000D01*
X73900000Y-82277919D02*
X73900000Y-80300000D01*
X73380000Y-84000000D02*
X73380000Y-82797919D01*
X108425000Y-84000000D02*
X108000000Y-84425000D01*
X112000000Y-84000000D02*
X108425000Y-84000000D01*
X82900000Y-81000000D02*
X89000000Y-81000000D01*
X59680000Y-68000000D02*
X64000000Y-68000000D01*
X58000000Y-69680000D02*
X59680000Y-68000000D01*
X73425000Y-67525000D02*
X73425000Y-68000000D01*
X73099990Y-67199990D02*
X73425000Y-67525000D01*
X64325010Y-67199990D02*
X73099990Y-67199990D01*
X64000000Y-67525000D02*
X64325010Y-67199990D01*
X64000000Y-68000000D02*
X64000000Y-67525000D01*
X43255000Y-69680000D02*
X43200000Y-69625000D01*
X58000000Y-69680000D02*
X43255000Y-69680000D01*
D35*
X30200000Y-71700000D02*
X30200000Y-62100000D01*
X51000000Y-73540000D02*
X50954000Y-73540000D01*
D36*
X92465000Y-105950000D02*
X92000000Y-105485000D01*
X94000000Y-105950000D02*
X92465000Y-105950000D01*
X87700000Y-105300000D02*
X87050000Y-105950000D01*
X89710001Y-104274999D02*
X88289999Y-104274999D01*
X87050000Y-105950000D02*
X87000000Y-105950000D01*
X88289999Y-104274999D02*
X87700000Y-104864998D01*
X90920002Y-105485000D02*
X89710001Y-104274999D01*
X87700000Y-104864998D02*
X87700000Y-105300000D01*
X92000000Y-105485000D02*
X90920002Y-105485000D01*
X85465000Y-105950000D02*
X85000000Y-105485000D01*
X87000000Y-105950000D02*
X85465000Y-105950000D01*
X57500000Y-108500000D02*
X58000000Y-108000000D01*
X53575000Y-108500000D02*
X57500000Y-108500000D01*
X32950000Y-70400000D02*
X33200000Y-70400000D01*
X31950000Y-71400000D02*
X32950000Y-70400000D01*
X31950000Y-71650000D02*
X31950000Y-71400000D01*
X31900000Y-71700000D02*
X31950000Y-71650000D01*
X30200000Y-71700000D02*
X31900000Y-71700000D01*
X43200000Y-70062500D02*
X43200000Y-69625000D01*
X42862500Y-70400000D02*
X43200000Y-70062500D01*
X33200000Y-70400000D02*
X42862500Y-70400000D01*
X54140000Y-73540000D02*
X58000000Y-69680000D01*
X51000000Y-73540000D02*
X54140000Y-73540000D01*
X37040000Y-96500000D02*
X38540000Y-98000000D01*
X31000000Y-96500000D02*
X37040000Y-96500000D01*
X30000000Y-95500000D02*
X31000000Y-96500000D01*
X45810000Y-90516000D02*
X44326000Y-92000000D01*
X44326000Y-92000000D02*
X31000000Y-92000000D01*
X45810000Y-89250000D02*
X45810000Y-90516000D01*
X31000000Y-92000000D02*
X30000000Y-93000000D01*
X30000000Y-93000000D02*
X30000000Y-95500000D01*
X50220010Y-109300010D02*
X49000000Y-108080000D01*
X53249990Y-109300010D02*
X50220010Y-109300010D01*
X53575000Y-108975000D02*
X53249990Y-109300010D01*
X53575000Y-108500000D02*
X53575000Y-108975000D01*
X58000000Y-108000000D02*
X58000000Y-105460000D01*
X84985000Y-105500000D02*
X85000000Y-105485000D01*
X83250000Y-105500000D02*
X84985000Y-105500000D01*
X75500000Y-68062500D02*
X75437500Y-68000000D01*
X75437500Y-68000000D02*
X75000000Y-68000000D01*
X75500000Y-70750000D02*
X75500000Y-68062500D01*
X43100000Y-72700000D02*
X43200000Y-72800000D01*
X39500000Y-72700000D02*
X43100000Y-72700000D01*
X43200000Y-72800000D02*
X43200000Y-71200000D01*
D37*
X33200000Y-72700000D02*
X39500000Y-72700000D01*
X39500000Y-72700000D02*
X40200000Y-72700000D01*
X73100000Y-77950000D02*
X73100000Y-79250000D01*
X75500000Y-71941998D02*
X75550001Y-71991999D01*
X75500000Y-70750000D02*
X75500000Y-71941998D01*
X74700000Y-76300000D02*
X75000000Y-76000000D01*
X74700000Y-79250000D02*
X74700000Y-76300000D01*
X75550001Y-75499999D02*
X75000000Y-76000000D01*
X75000000Y-76000000D02*
X73100000Y-77950000D01*
X75550001Y-71991999D02*
X75550001Y-75499999D01*
D36*
X65870000Y-76970000D02*
X64000000Y-76970000D01*
X66000000Y-77100000D02*
X65870000Y-76970000D01*
X66000000Y-77600000D02*
X66000000Y-77100000D01*
X39500000Y-72700000D02*
X38250000Y-72700000D01*
X111460000Y-86000000D02*
X112000000Y-86540000D01*
X108000000Y-86000000D02*
X111460000Y-86000000D01*
X105600000Y-82060000D02*
X101540000Y-78000000D01*
X105600000Y-83268994D02*
X105600000Y-82060000D01*
X108000000Y-85668994D02*
X105600000Y-83268994D01*
X108000000Y-86000000D02*
X108000000Y-85668994D01*
X38350000Y-105000000D02*
X37200000Y-105000000D01*
X37200000Y-105000000D02*
X36200000Y-104000000D01*
X33902409Y-102699999D02*
X32350000Y-104252408D01*
X34100001Y-102699999D02*
X33902409Y-102699999D01*
X32350000Y-104252408D02*
X32350000Y-105000000D01*
X34500000Y-102300000D02*
X34100001Y-102699999D01*
X43200000Y-72800000D02*
X45000000Y-72800000D01*
X45000000Y-72800000D02*
X46500000Y-74300000D01*
X97100000Y-72700000D02*
X97100000Y-70900000D01*
X97100000Y-70900000D02*
X97200000Y-70800000D01*
X75200000Y-67800000D02*
X75000000Y-68000000D01*
X76800000Y-67800000D02*
X75200000Y-67800000D01*
X66000000Y-77600000D02*
X66000000Y-79400000D01*
X74700000Y-78184316D02*
X74700000Y-79250000D01*
X75234315Y-77650001D02*
X74700000Y-78184316D01*
X75800000Y-77650001D02*
X75234315Y-77650001D01*
X64000000Y-76970000D02*
X61100000Y-79870000D01*
X61100000Y-84360000D02*
X58000000Y-87460000D01*
X61100000Y-79870000D02*
X61100000Y-84360000D01*
X47554000Y-78620000D02*
X51000000Y-78620000D01*
X38190000Y-87984000D02*
X47554000Y-78620000D01*
X38190000Y-89250000D02*
X38190000Y-87984000D01*
X29250000Y-97050000D02*
X34500000Y-102300000D01*
X29250000Y-92000000D02*
X29250000Y-97050000D01*
X38190000Y-89250000D02*
X32000000Y-89250000D01*
X32000000Y-89250000D02*
X29250000Y-92000000D01*
X89800000Y-70500000D02*
X90105865Y-70805865D01*
X86800000Y-70500000D02*
X89800000Y-70500000D01*
X65900000Y-76000000D02*
X66000000Y-75900000D01*
X66000000Y-75900000D02*
X66000000Y-75400000D01*
X64000000Y-76000000D02*
X65900000Y-76000000D01*
X66000000Y-75400000D02*
X69250000Y-75400000D01*
X69350000Y-75500000D02*
X69250000Y-75400000D01*
X71000000Y-75500000D02*
X69350000Y-75500000D01*
X118444999Y-74824999D02*
X116540000Y-72920000D01*
X118444999Y-85175001D02*
X118444999Y-74824999D01*
X117080000Y-86540000D02*
X118444999Y-85175001D01*
X115904999Y-87715001D02*
X117080000Y-86540000D01*
X108471007Y-87715001D02*
X115904999Y-87715001D01*
X102715001Y-81958995D02*
X108471007Y-87715001D01*
X102715001Y-81715001D02*
X102715001Y-81958995D01*
X101540000Y-80540000D02*
X102715001Y-81715001D01*
X91500000Y-73000000D02*
X77750000Y-73000000D01*
X96950010Y-78450010D02*
X91500000Y-73000000D01*
X100142501Y-79142501D02*
X100110001Y-79175001D01*
X97889999Y-79175001D02*
X97165008Y-78450010D01*
X101540000Y-80540000D02*
X100142501Y-79142501D01*
X97165008Y-78450010D02*
X96950010Y-78450010D01*
X100110001Y-79175001D02*
X97889999Y-79175001D01*
X115175001Y-74095001D02*
X114000000Y-72920000D01*
X117080000Y-82797919D02*
X115175001Y-80892920D01*
X115175001Y-80892920D02*
X115175001Y-74095001D01*
X117080000Y-84000000D02*
X117080000Y-82797919D01*
X76300000Y-70750000D02*
X76825000Y-70750000D01*
X79375000Y-68200000D02*
X120900000Y-68200000D01*
X76825000Y-70750000D02*
X79375000Y-68200000D01*
X115175001Y-71555001D02*
X114000000Y-70380000D01*
X116914003Y-71555001D02*
X115175001Y-71555001D01*
X119620000Y-74260998D02*
X116914003Y-71555001D01*
X119620000Y-84000000D02*
X119620000Y-74260998D01*
X105520000Y-70380000D02*
X114000000Y-70380000D01*
X99000000Y-76900000D02*
X105520000Y-70380000D01*
X99000000Y-78000000D02*
X99000000Y-76900000D01*
X92100000Y-72200000D02*
X77750000Y-72200000D01*
X97900000Y-78000000D02*
X92100000Y-72200000D01*
X99000000Y-78000000D02*
X97900000Y-78000000D01*
X70700000Y-70225000D02*
X70700000Y-70750000D01*
X61553588Y-69700000D02*
X70175000Y-69700000D01*
X70175000Y-69700000D02*
X70700000Y-70225000D01*
X60208589Y-71044999D02*
X61553588Y-69700000D01*
X56374990Y-78288600D02*
X56374990Y-72106008D01*
X52328589Y-82335001D02*
X56374990Y-78288600D01*
X46378999Y-82335001D02*
X52328589Y-82335001D01*
X40730000Y-87984000D02*
X46378999Y-82335001D01*
X57435999Y-71044999D02*
X60208589Y-71044999D01*
X56374990Y-72106008D02*
X57435999Y-71044999D01*
X40730000Y-89250000D02*
X40730000Y-87984000D01*
D35*
X108900000Y-24400000D02*
X108800000Y-24400000D01*
X111650000Y-24400000D02*
X111700000Y-24350000D01*
X108900000Y-24400000D02*
X111650000Y-24400000D01*
X114350000Y-24350000D02*
X115000000Y-25000000D01*
X111700000Y-24350000D02*
X114350000Y-24350000D01*
X103000000Y-29360034D02*
X103000000Y-33000000D01*
X107960034Y-24400000D02*
X103000000Y-29360034D01*
X108900000Y-24400000D02*
X107960034Y-24400000D01*
D36*
X120795001Y-74635001D02*
X116540000Y-70380000D01*
X120795001Y-85364999D02*
X120795001Y-74635001D01*
X119620000Y-86540000D02*
X120795001Y-85364999D01*
X87700000Y-75400000D02*
X77750000Y-75400000D01*
X100465011Y-88165011D02*
X87700000Y-75400000D01*
X119620000Y-86540000D02*
X117994989Y-88165011D01*
X117994989Y-88165011D02*
X100465011Y-88165011D01*
X115690001Y-74610001D02*
X116540000Y-75460000D01*
X114564001Y-71744999D02*
X115175001Y-72355999D01*
X113435999Y-71744999D02*
X114564001Y-71744999D01*
X115175001Y-73458591D02*
X115690001Y-73973591D01*
X112374989Y-72806009D02*
X113435999Y-71744999D01*
X112374989Y-81269318D02*
X112374989Y-72806009D01*
X113364999Y-82259328D02*
X112374989Y-81269318D01*
X115690001Y-73973591D02*
X115690001Y-74610001D01*
X115175001Y-72355999D02*
X115175001Y-73458591D01*
X113364999Y-85364999D02*
X113364999Y-82259328D01*
X114540000Y-86540000D02*
X113364999Y-85364999D01*
X77750000Y-74600000D02*
X86400000Y-74600000D01*
X112824999Y-76635001D02*
X114000000Y-75460000D01*
X114540000Y-82797919D02*
X112824999Y-81082918D01*
X112824999Y-81082918D02*
X112824999Y-76635001D01*
X114540000Y-84000000D02*
X114540000Y-82797919D01*
X77750000Y-73800000D02*
X86736410Y-73800000D01*
X100376421Y-87440011D02*
X106800000Y-87440011D01*
X86736410Y-73800000D02*
X100376421Y-87440011D01*
X108900000Y-29230000D02*
X108900000Y-28200000D01*
X108900000Y-28200000D02*
X110900000Y-28200000D01*
X110900000Y-28200000D02*
X110900000Y-29230000D01*
X108900000Y-29230000D02*
X107230000Y-29230000D01*
X107230000Y-29230000D02*
X107000000Y-29000000D01*
X74678614Y-70771386D02*
X74700000Y-70750000D01*
X74678614Y-72160690D02*
X74678614Y-70771386D01*
X69250000Y-76200000D02*
X67575000Y-76200000D01*
X67575000Y-76200000D02*
X67500000Y-76125000D01*
X62700000Y-76800000D02*
X60900000Y-78600000D01*
X60900000Y-78600000D02*
X60800000Y-78600000D01*
X52040000Y-81160000D02*
X51000000Y-81160000D01*
X55400000Y-77800000D02*
X52040000Y-81160000D01*
X76825000Y-79250000D02*
X76300000Y-79250000D01*
X77095001Y-79520001D02*
X76825000Y-79250000D01*
X77095001Y-84374003D02*
X77095001Y-79520001D01*
X78460000Y-85739002D02*
X77095001Y-84374003D01*
X78460000Y-86540000D02*
X78460000Y-85739002D01*
X71500000Y-80300000D02*
X71500000Y-79250000D01*
X74744999Y-87715001D02*
X70086001Y-87715001D01*
X75920000Y-86540000D02*
X74744999Y-87715001D01*
X70086001Y-87715001D02*
X69600000Y-87229000D01*
X69600000Y-87229000D02*
X69600000Y-82200000D01*
X69600000Y-82200000D02*
X71500000Y-80300000D01*
X75500000Y-83580000D02*
X75920000Y-84000000D01*
X75500000Y-79250000D02*
X75500000Y-83580000D01*
X68300000Y-86500000D02*
X68300000Y-86540000D01*
X67600000Y-85800000D02*
X68300000Y-86500000D01*
X69250000Y-77800000D02*
X69250000Y-78325000D01*
X69250000Y-78325000D02*
X67124999Y-80450001D01*
X67124999Y-80450001D02*
X67124999Y-84564001D01*
X67600000Y-85039002D02*
X67600000Y-85800000D01*
X67124999Y-84564001D02*
X67600000Y-85039002D01*
X70175000Y-79250000D02*
X70700000Y-79250000D01*
X68300000Y-81125000D02*
X70175000Y-79250000D01*
X68300000Y-84000000D02*
X68300000Y-81125000D01*
X65760000Y-86540000D02*
X63600000Y-84380000D01*
X63600000Y-84380000D02*
X63600000Y-79100000D01*
X67600000Y-72200000D02*
X69250000Y-72200000D01*
X66500000Y-71100000D02*
X67600000Y-72200000D01*
X64910001Y-83150001D02*
X64910001Y-79210001D01*
X65760000Y-84000000D02*
X64910001Y-83150001D01*
X64910001Y-79210001D02*
X65000000Y-79120002D01*
X65000000Y-79120002D02*
X65000000Y-79000000D01*
X70300000Y-73000000D02*
X69250000Y-73000000D01*
X71774846Y-74474846D02*
X70300000Y-73000000D01*
X71774846Y-76500154D02*
X71774846Y-74474846D01*
X71374847Y-76900153D02*
X71774846Y-76500154D01*
D37*
X31925000Y-75000000D02*
X33200000Y-75000000D01*
X30200000Y-73275000D02*
X31925000Y-75000000D01*
X35300000Y-75600000D02*
X43200000Y-75600000D01*
X34700000Y-75000000D02*
X35300000Y-75600000D01*
X33200000Y-75000000D02*
X34700000Y-75000000D01*
D35*
X116000000Y-37850000D02*
X116000000Y-35850000D01*
X116362500Y-38212500D02*
X116000000Y-37850000D01*
X121000000Y-38212500D02*
X116362500Y-38212500D01*
X116000000Y-42150000D02*
X116000000Y-35850000D01*
X116000000Y-32400000D02*
X116400000Y-32000000D01*
X116000000Y-35850000D02*
X116000000Y-32400000D01*
X117460000Y-32000000D02*
X120000000Y-29460000D01*
X116400000Y-32000000D02*
X117460000Y-32000000D01*
D36*
X77540000Y-90000000D02*
X81000000Y-86540000D01*
X58000000Y-90000000D02*
X77540000Y-90000000D01*
X88540000Y-86540000D02*
X89000000Y-86080000D01*
X81000000Y-86540000D02*
X88540000Y-86540000D01*
X46400000Y-75600000D02*
X51000000Y-71000000D01*
X43200000Y-75600000D02*
X46400000Y-75600000D01*
X33450000Y-75000000D02*
X33200000Y-75000000D01*
X94775001Y-108624999D02*
X94400000Y-109000000D01*
X94775001Y-104789997D02*
X94775001Y-108624999D01*
X98024998Y-101540000D02*
X94775001Y-104789997D01*
X94400000Y-109000000D02*
X93600000Y-109000000D01*
X101000000Y-101540000D02*
X98024998Y-101540000D01*
X91924999Y-109875001D02*
X86675001Y-109875001D01*
X92800000Y-109000000D02*
X91924999Y-109875001D01*
X86600000Y-109800000D02*
X86600000Y-109000000D01*
X86675001Y-109875001D02*
X86600000Y-109800000D01*
X93600000Y-109000000D02*
X92800000Y-109000000D01*
X37274990Y-109075010D02*
X37895936Y-108454064D01*
X32677418Y-109075010D02*
X37274990Y-109075010D01*
X37895936Y-108454064D02*
X38350000Y-108000000D01*
X32350000Y-108747592D02*
X32677418Y-109075010D01*
X32350000Y-108000000D02*
X32350000Y-108747592D01*
X71749980Y-109750020D02*
X72500000Y-109000000D01*
X38350000Y-108747592D02*
X39352428Y-109750020D01*
X39352428Y-109750020D02*
X71749980Y-109750020D01*
X38350000Y-108000000D02*
X38350000Y-108747592D01*
X86600000Y-109000000D02*
X72500000Y-109000000D01*
X108674999Y-102865001D02*
X110000000Y-101540000D01*
X102325001Y-102865001D02*
X108674999Y-102865001D01*
X101000000Y-101540000D02*
X102325001Y-102865001D01*
X58000000Y-93747494D02*
X58000000Y-90000000D01*
X60750000Y-95750000D02*
X58000000Y-95750000D01*
X58000000Y-95750000D02*
X58000000Y-93747494D01*
X72500000Y-109000000D02*
X74000000Y-109000000D01*
X74000000Y-109000000D02*
X60750000Y-95750000D01*
X88280001Y-82820001D02*
X89000000Y-83540000D01*
X79639999Y-82820001D02*
X88280001Y-82820001D01*
X78460000Y-84000000D02*
X79639999Y-82820001D01*
X68000000Y-68000000D02*
X65575000Y-68000000D01*
X110900000Y-30200000D02*
X108900000Y-30200000D01*
X108900000Y-32000000D02*
X109250000Y-32350000D01*
X108900000Y-30200000D02*
X108900000Y-32000000D01*
X109250000Y-33097592D02*
X109250000Y-32350000D01*
X109250000Y-33550000D02*
X109250000Y-33097592D01*
X109750000Y-34050000D02*
X109250000Y-33550000D01*
X109750000Y-34750000D02*
X109750000Y-34050000D01*
X110400000Y-39215000D02*
X108900000Y-39215000D01*
X108900000Y-36850000D02*
X108800000Y-36750000D01*
X108900000Y-39215000D02*
X108900000Y-36850000D01*
X110900000Y-26450000D02*
X111700000Y-25650000D01*
X110900000Y-27230000D02*
X110900000Y-26450000D01*
X108900000Y-25700000D02*
X108900000Y-27230000D01*
X69800000Y-68000000D02*
X68970000Y-68000000D01*
X71500000Y-69700000D02*
X69800000Y-68000000D01*
X71500000Y-70750000D02*
X71500000Y-69700000D01*
X52300000Y-106700000D02*
X53000000Y-106000000D01*
X54920000Y-106000000D02*
X58000000Y-102920000D01*
X53000000Y-106000000D02*
X54920000Y-106000000D01*
X52000000Y-107000000D02*
X53000000Y-106000000D01*
X52000000Y-108500000D02*
X52000000Y-107000000D01*
X58000000Y-102920000D02*
X55080000Y-100000000D01*
X53240000Y-100000000D02*
X51240000Y-98000000D01*
X55080000Y-100000000D02*
X53240000Y-100000000D01*
X69175000Y-73875000D02*
X69250000Y-73800000D01*
X45485000Y-98675000D02*
X46160000Y-98000000D01*
X45485000Y-102000000D02*
X45485000Y-98675000D01*
X43620000Y-98000000D02*
X46160000Y-98000000D01*
X68000000Y-73800000D02*
X69250000Y-73800000D01*
X67784999Y-73584999D02*
X68000000Y-73800000D01*
X57435999Y-73584999D02*
X67784999Y-73584999D01*
X56824999Y-74195999D02*
X57435999Y-73584999D01*
X56824999Y-75324001D02*
X56824999Y-74195999D01*
X58000000Y-76499002D02*
X56824999Y-75324001D01*
X58000000Y-77300000D02*
X58000000Y-76499002D01*
X54000000Y-81300000D02*
X58000000Y-77300000D01*
X54000000Y-92000000D02*
X54000000Y-81300000D01*
X41485000Y-98405000D02*
X41080000Y-98000000D01*
X41485000Y-102000000D02*
X41485000Y-98405000D01*
X63240000Y-74600000D02*
X58000000Y-79840000D01*
X69250000Y-74600000D02*
X63240000Y-74600000D01*
X55000000Y-82840000D02*
X58000000Y-79840000D01*
X55000000Y-95247494D02*
X55000000Y-82840000D01*
X41080000Y-98000000D02*
X43080000Y-96000000D01*
X54247494Y-96000000D02*
X55000000Y-95247494D01*
X43080000Y-96000000D02*
X54247494Y-96000000D01*
X34104064Y-105454064D02*
X33650000Y-105000000D01*
X34104064Y-107545936D02*
X34104064Y-105454064D01*
X33650000Y-108000000D02*
X34104064Y-107545936D01*
X36650000Y-102000000D02*
X40515000Y-102000000D01*
X33650000Y-105000000D02*
X36650000Y-102000000D01*
X36000000Y-101350000D02*
X36650000Y-102000000D01*
X36000000Y-98000000D02*
X36000000Y-101350000D01*
X44515000Y-102320000D02*
X44515000Y-102000000D01*
X40840010Y-102645010D02*
X44189990Y-102645010D01*
X40515000Y-102320000D02*
X40840010Y-102645010D01*
X44189990Y-102645010D02*
X44515000Y-102320000D01*
X40515000Y-102000000D02*
X40515000Y-102320000D01*
D35*
X115000000Y-28525000D02*
X115000000Y-29000000D01*
X118525000Y-25000000D02*
X115000000Y-28525000D01*
X119000000Y-25000000D02*
X118525000Y-25000000D01*
X113600000Y-35750000D02*
X113700000Y-35850000D01*
X113600000Y-32000000D02*
X113600000Y-35750000D01*
X113000000Y-31400000D02*
X113600000Y-32000000D01*
X115000000Y-29000000D02*
X113000000Y-29000000D01*
X113000000Y-29000000D02*
X113000000Y-31400000D01*
D36*
X52540000Y-102000000D02*
X53000000Y-102000000D01*
X49000000Y-105540000D02*
X52540000Y-102000000D01*
X40104064Y-105454064D02*
X39650000Y-105000000D01*
X40104064Y-107545936D02*
X40104064Y-105454064D01*
X39650000Y-108000000D02*
X40104064Y-107545936D01*
X47000000Y-105000000D02*
X49000000Y-103000000D01*
X39650000Y-105000000D02*
X47000000Y-105000000D01*
X68200000Y-77000000D02*
X68124999Y-77075001D01*
X69250000Y-77000000D02*
X68200000Y-77000000D01*
X68124999Y-77075001D02*
X68124999Y-78813591D01*
X68124999Y-78813591D02*
X66000000Y-80938590D01*
X66000000Y-80938590D02*
X66000000Y-81800000D01*
X62400000Y-87350000D02*
X62400000Y-81800000D01*
X60750000Y-89000000D02*
X62400000Y-87350000D01*
X89400000Y-105400000D02*
X89000000Y-105000000D01*
X89400000Y-109000000D02*
X89400000Y-105400000D01*
X106080000Y-101540000D02*
X104290000Y-101540000D01*
X104290000Y-101540000D02*
X104250000Y-101500000D01*
X90200000Y-109000000D02*
X89400000Y-109000000D01*
X90250000Y-108950000D02*
X90200000Y-109000000D01*
X90250000Y-107250000D02*
X90250000Y-108950000D01*
X96000000Y-108600000D02*
X96400000Y-109000000D01*
X96000000Y-105000000D02*
X96000000Y-108600000D01*
X110020000Y-106600000D02*
X115080000Y-101540000D01*
X99600000Y-106600000D02*
X110020000Y-106600000D01*
X96400000Y-109000000D02*
X97200000Y-109000000D01*
X97200000Y-109000000D02*
X99600000Y-106600000D01*
X93535000Y-104515000D02*
X94000000Y-104050000D01*
X92000000Y-104515000D02*
X93535000Y-104515000D01*
X94000000Y-104050000D02*
X94000000Y-101000000D01*
X86535000Y-104515000D02*
X87000000Y-104050000D01*
X85000000Y-104515000D02*
X86535000Y-104515000D01*
X87000000Y-104050000D02*
X87000000Y-101485000D01*
X77825000Y-76125000D02*
X77750000Y-76200000D01*
X108900000Y-40185000D02*
X108900000Y-40600000D01*
X108900000Y-40600000D02*
X108000000Y-41500000D01*
X76100000Y-76200000D02*
X77750000Y-76200000D01*
X84400000Y-77000000D02*
X77750000Y-77000000D01*
X85600000Y-78200000D02*
X84400000Y-77000000D01*
X94000000Y-100030000D02*
X95470000Y-100030000D01*
X95470000Y-100030000D02*
X95500000Y-100000000D01*
X78050000Y-78100000D02*
X77750000Y-77800000D01*
X84000000Y-78100000D02*
X78050000Y-78100000D01*
X87000000Y-100515000D02*
X88235000Y-100515000D01*
X88235000Y-100515000D02*
X88250000Y-100500000D01*
X101000000Y-109160000D02*
X106080000Y-109160000D01*
X119150001Y-107230001D02*
X120000000Y-108080000D01*
X109424212Y-107230001D02*
X119150001Y-107230001D01*
X107494213Y-109160000D02*
X109424212Y-107230001D01*
X106080000Y-109160000D02*
X107494213Y-109160000D01*
X107405001Y-97674999D02*
X106080000Y-99000000D01*
X119500001Y-97674999D02*
X107405001Y-97674999D01*
X121175001Y-99349999D02*
X119500001Y-97674999D01*
X121175001Y-104364999D02*
X121175001Y-99349999D01*
X120000000Y-105540000D02*
X121175001Y-104364999D01*
X110000000Y-109160000D02*
X115080000Y-109160000D01*
X118824999Y-104175001D02*
X120000000Y-103000000D01*
X118824999Y-106104001D02*
X118824999Y-104175001D01*
X119435999Y-106715001D02*
X118824999Y-106104001D01*
X121175001Y-107515999D02*
X120374003Y-106715001D01*
X121175001Y-108644001D02*
X121175001Y-107515999D01*
X116589214Y-109255001D02*
X120564001Y-109255001D01*
X120374003Y-106715001D02*
X119435999Y-106715001D01*
X116494213Y-109160000D02*
X116589214Y-109255001D01*
X120564001Y-109255001D02*
X121175001Y-108644001D01*
X115080000Y-109160000D02*
X116494213Y-109160000D01*
X116540000Y-100460000D02*
X115080000Y-99000000D01*
X120000000Y-100460000D02*
X116540000Y-100460000D01*
D38*
G36*
X122340001Y-64873000D02*
G01*
X119650685Y-64873000D01*
X119650450Y-64870617D01*
X119612710Y-64746207D01*
X119551425Y-64631550D01*
X119468948Y-64531052D01*
X119368450Y-64448575D01*
X119253793Y-64387290D01*
X119129383Y-64349550D01*
X119032419Y-64340000D01*
X119000000Y-64336807D01*
X118967581Y-64340000D01*
X97032419Y-64340000D01*
X97000000Y-64336807D01*
X96967581Y-64340000D01*
X96870617Y-64349550D01*
X96746207Y-64387290D01*
X96631550Y-64448575D01*
X96531052Y-64531052D01*
X96448575Y-64631550D01*
X96387290Y-64746207D01*
X96349550Y-64870617D01*
X96349315Y-64873000D01*
X92650685Y-64873000D01*
X92650450Y-64870617D01*
X92612710Y-64746207D01*
X92551425Y-64631550D01*
X92468948Y-64531052D01*
X92368450Y-64448575D01*
X92253793Y-64387290D01*
X92129383Y-64349550D01*
X92032419Y-64340000D01*
X92000000Y-64336807D01*
X91967581Y-64340000D01*
X59032419Y-64340000D01*
X59000000Y-64336807D01*
X58967581Y-64340000D01*
X58870617Y-64349550D01*
X58746207Y-64387290D01*
X58631550Y-64448575D01*
X58531052Y-64531052D01*
X58448575Y-64631550D01*
X58387290Y-64746207D01*
X58349550Y-64870617D01*
X58349315Y-64873000D01*
X54650685Y-64873000D01*
X54650450Y-64870617D01*
X54612710Y-64746207D01*
X54551425Y-64631550D01*
X54468948Y-64531052D01*
X54368450Y-64448575D01*
X54253793Y-64387290D01*
X54129383Y-64349550D01*
X54032419Y-64340000D01*
X54000000Y-64336807D01*
X53967581Y-64340000D01*
X31032419Y-64340000D01*
X31000000Y-64336807D01*
X30967581Y-64340000D01*
X30870617Y-64349550D01*
X30746207Y-64387290D01*
X30631550Y-64448575D01*
X30531052Y-64531052D01*
X30448575Y-64631550D01*
X30387290Y-64746207D01*
X30349550Y-64870617D01*
X30349315Y-64873000D01*
X27660000Y-64873000D01*
X27660000Y-52250000D01*
X28611928Y-52250000D01*
X28611928Y-55750000D01*
X28624188Y-55874482D01*
X28660498Y-55994180D01*
X28719463Y-56104494D01*
X28798815Y-56201185D01*
X28895506Y-56280537D01*
X29005820Y-56339502D01*
X29125518Y-56375812D01*
X29250000Y-56388072D01*
X32750000Y-56388072D01*
X32874482Y-56375812D01*
X32994180Y-56339502D01*
X33104494Y-56280537D01*
X33201185Y-56201185D01*
X33280537Y-56104494D01*
X33339502Y-55994180D01*
X33375812Y-55874482D01*
X33388072Y-55750000D01*
X33388072Y-53779872D01*
X37410000Y-53779872D01*
X37410000Y-54220128D01*
X37495890Y-54651925D01*
X37664369Y-55058669D01*
X37908962Y-55424729D01*
X38220271Y-55736038D01*
X38586331Y-55980631D01*
X38993075Y-56149110D01*
X39424872Y-56235000D01*
X39865128Y-56235000D01*
X40296925Y-56149110D01*
X40703669Y-55980631D01*
X41069729Y-55736038D01*
X41381038Y-55424729D01*
X41625631Y-55058669D01*
X41794110Y-54651925D01*
X41880000Y-54220128D01*
X41880000Y-53779872D01*
X93020000Y-53779872D01*
X93020000Y-54220128D01*
X93105890Y-54651925D01*
X93274369Y-55058669D01*
X93518962Y-55424729D01*
X93830271Y-55736038D01*
X94196331Y-55980631D01*
X94603075Y-56149110D01*
X95034872Y-56235000D01*
X95475128Y-56235000D01*
X95906925Y-56149110D01*
X96313669Y-55980631D01*
X96679729Y-55736038D01*
X96746158Y-55669609D01*
X101509997Y-55669609D01*
X101696073Y-56010766D01*
X102113409Y-56226513D01*
X102564815Y-56356696D01*
X103032946Y-56396313D01*
X103499811Y-56343842D01*
X103947468Y-56201297D01*
X104303927Y-56010766D01*
X104490003Y-55669609D01*
X103000000Y-54179605D01*
X101509997Y-55669609D01*
X96746158Y-55669609D01*
X96991038Y-55424729D01*
X97235631Y-55058669D01*
X97404110Y-54651925D01*
X97490000Y-54220128D01*
X97490000Y-54032946D01*
X100603687Y-54032946D01*
X100656158Y-54499811D01*
X100798703Y-54947468D01*
X100989234Y-55303927D01*
X101330391Y-55490003D01*
X102820395Y-54000000D01*
X103179605Y-54000000D01*
X104669609Y-55490003D01*
X105010766Y-55303927D01*
X105167884Y-55000000D01*
X110961928Y-55000000D01*
X110974188Y-55124482D01*
X111010498Y-55244180D01*
X111069463Y-55354494D01*
X111148815Y-55451185D01*
X111245506Y-55530537D01*
X111355820Y-55589502D01*
X111475518Y-55625812D01*
X111600000Y-55638072D01*
X112114250Y-55635000D01*
X112273000Y-55476250D01*
X112273000Y-54327000D01*
X112527000Y-54327000D01*
X112527000Y-55476250D01*
X112685750Y-55635000D01*
X113200000Y-55638072D01*
X113324482Y-55625812D01*
X113444180Y-55589502D01*
X113554494Y-55530537D01*
X113651185Y-55451185D01*
X113730537Y-55354494D01*
X113789502Y-55244180D01*
X113825812Y-55124482D01*
X113838072Y-55000000D01*
X113835000Y-54485750D01*
X113676250Y-54327000D01*
X112527000Y-54327000D01*
X112273000Y-54327000D01*
X111123750Y-54327000D01*
X110965000Y-54485750D01*
X110961928Y-55000000D01*
X105167884Y-55000000D01*
X105226513Y-54886591D01*
X105356696Y-54435185D01*
X105396313Y-53967054D01*
X105343842Y-53500189D01*
X105311940Y-53400000D01*
X110961928Y-53400000D01*
X110965000Y-53914250D01*
X111123750Y-54073000D01*
X112273000Y-54073000D01*
X112273000Y-52923750D01*
X112527000Y-52923750D01*
X112527000Y-54073000D01*
X113676250Y-54073000D01*
X113690585Y-54058665D01*
X115965000Y-54058665D01*
X115965000Y-54341335D01*
X116020147Y-54618574D01*
X116128320Y-54879727D01*
X116285363Y-55114759D01*
X116485241Y-55314637D01*
X116720273Y-55471680D01*
X116981426Y-55579853D01*
X117258665Y-55635000D01*
X117541335Y-55635000D01*
X117818574Y-55579853D01*
X118079727Y-55471680D01*
X118314759Y-55314637D01*
X118514637Y-55114759D01*
X118671680Y-54879727D01*
X118779853Y-54618574D01*
X118835000Y-54341335D01*
X118835000Y-54058665D01*
X118779853Y-53781426D01*
X118671680Y-53520273D01*
X118514637Y-53285241D01*
X118314759Y-53085363D01*
X118079727Y-52928320D01*
X117818574Y-52820147D01*
X117541335Y-52765000D01*
X117258665Y-52765000D01*
X116981426Y-52820147D01*
X116720273Y-52928320D01*
X116485241Y-53085363D01*
X116285363Y-53285241D01*
X116128320Y-53520273D01*
X116020147Y-53781426D01*
X115965000Y-54058665D01*
X113690585Y-54058665D01*
X113835000Y-53914250D01*
X113838072Y-53400000D01*
X113825812Y-53275518D01*
X113789502Y-53155820D01*
X113730537Y-53045506D01*
X113651185Y-52948815D01*
X113554494Y-52869463D01*
X113444180Y-52810498D01*
X113324482Y-52774188D01*
X113200000Y-52761928D01*
X112685750Y-52765000D01*
X112527000Y-52923750D01*
X112273000Y-52923750D01*
X112114250Y-52765000D01*
X111600000Y-52761928D01*
X111475518Y-52774188D01*
X111355820Y-52810498D01*
X111245506Y-52869463D01*
X111148815Y-52948815D01*
X111069463Y-53045506D01*
X111010498Y-53155820D01*
X110974188Y-53275518D01*
X110961928Y-53400000D01*
X105311940Y-53400000D01*
X105201297Y-53052532D01*
X105010766Y-52696073D01*
X104669609Y-52509997D01*
X103179605Y-54000000D01*
X102820395Y-54000000D01*
X101330391Y-52509997D01*
X100989234Y-52696073D01*
X100773487Y-53113409D01*
X100643304Y-53564815D01*
X100603687Y-54032946D01*
X97490000Y-54032946D01*
X97490000Y-53779872D01*
X97404110Y-53348075D01*
X97235631Y-52941331D01*
X96991038Y-52575271D01*
X96746158Y-52330391D01*
X101509997Y-52330391D01*
X103000000Y-53820395D01*
X104490003Y-52330391D01*
X104303927Y-51989234D01*
X103886591Y-51773487D01*
X103435185Y-51643304D01*
X102967054Y-51603687D01*
X102500189Y-51656158D01*
X102052532Y-51798703D01*
X101696073Y-51989234D01*
X101509997Y-52330391D01*
X96746158Y-52330391D01*
X96679729Y-52263962D01*
X96313669Y-52019369D01*
X95906925Y-51850890D01*
X95475128Y-51765000D01*
X95034872Y-51765000D01*
X94603075Y-51850890D01*
X94196331Y-52019369D01*
X93830271Y-52263962D01*
X93518962Y-52575271D01*
X93274369Y-52941331D01*
X93105890Y-53348075D01*
X93020000Y-53779872D01*
X41880000Y-53779872D01*
X41794110Y-53348075D01*
X41625631Y-52941331D01*
X41381038Y-52575271D01*
X41069729Y-52263962D01*
X40703669Y-52019369D01*
X40296925Y-51850890D01*
X39865128Y-51765000D01*
X39424872Y-51765000D01*
X38993075Y-51850890D01*
X38586331Y-52019369D01*
X38220271Y-52263962D01*
X37908962Y-52575271D01*
X37664369Y-52941331D01*
X37495890Y-53348075D01*
X37410000Y-53779872D01*
X33388072Y-53779872D01*
X33388072Y-52250000D01*
X33375812Y-52125518D01*
X33339502Y-52005820D01*
X33280537Y-51895506D01*
X33201185Y-51798815D01*
X33104494Y-51719463D01*
X32994180Y-51660498D01*
X32874482Y-51624188D01*
X32750000Y-51611928D01*
X32135000Y-51611928D01*
X32135000Y-35110033D01*
X32520349Y-34852550D01*
X32852550Y-34520349D01*
X33113560Y-34129721D01*
X33293346Y-33695679D01*
X33385000Y-33234902D01*
X33385000Y-32779872D01*
X36510000Y-32779872D01*
X36510000Y-33220128D01*
X36595890Y-33651925D01*
X36764369Y-34058669D01*
X37008962Y-34424729D01*
X37320271Y-34736038D01*
X37686331Y-34980631D01*
X38093075Y-35149110D01*
X38524872Y-35235000D01*
X38965128Y-35235000D01*
X39396925Y-35149110D01*
X39803669Y-34980631D01*
X40169729Y-34736038D01*
X40481038Y-34424729D01*
X40725631Y-34058669D01*
X40894110Y-33651925D01*
X40980000Y-33220128D01*
X40980000Y-32779872D01*
X92120000Y-32779872D01*
X92120000Y-33220128D01*
X92205890Y-33651925D01*
X92374369Y-34058669D01*
X92618962Y-34424729D01*
X92930271Y-34736038D01*
X93296331Y-34980631D01*
X93703075Y-35149110D01*
X94134872Y-35235000D01*
X94575128Y-35235000D01*
X95006925Y-35149110D01*
X95413669Y-34980631D01*
X95779729Y-34736038D01*
X96091038Y-34424729D01*
X96335631Y-34058669D01*
X96504110Y-33651925D01*
X96590000Y-33220128D01*
X96590000Y-32779872D01*
X96504110Y-32348075D01*
X96335631Y-31941331D01*
X96091038Y-31575271D01*
X95779729Y-31263962D01*
X95758834Y-31250000D01*
X100611928Y-31250000D01*
X100611928Y-34750000D01*
X100624188Y-34874482D01*
X100660498Y-34994180D01*
X100719463Y-35104494D01*
X100798815Y-35201185D01*
X100895506Y-35280537D01*
X101005820Y-35339502D01*
X101125518Y-35375812D01*
X101250000Y-35388072D01*
X104750000Y-35388072D01*
X104874482Y-35375812D01*
X104994180Y-35339502D01*
X105104494Y-35280537D01*
X105201185Y-35201185D01*
X105280537Y-35104494D01*
X105339502Y-34994180D01*
X105375812Y-34874482D01*
X105388072Y-34750000D01*
X105388072Y-31250000D01*
X105375812Y-31125518D01*
X105339502Y-31005820D01*
X105280537Y-30895506D01*
X105201185Y-30798815D01*
X105104494Y-30719463D01*
X104994180Y-30660498D01*
X104874482Y-30624188D01*
X104750000Y-30611928D01*
X104135000Y-30611928D01*
X104135000Y-29830165D01*
X107677273Y-26287893D01*
X107678502Y-26290192D01*
X107732958Y-26371691D01*
X107812310Y-26468382D01*
X107881618Y-26537690D01*
X107978309Y-26617042D01*
X108059808Y-26671498D01*
X108060520Y-26671879D01*
X108001726Y-26781875D01*
X107957023Y-26929243D01*
X107941928Y-27082500D01*
X107941928Y-27377500D01*
X107957023Y-27530757D01*
X108001726Y-27678125D01*
X108021436Y-27715000D01*
X108001726Y-27751875D01*
X107957023Y-27899243D01*
X107941928Y-28052500D01*
X107941928Y-28347500D01*
X107953994Y-28470000D01*
X107890649Y-28470000D01*
X107803937Y-28340226D01*
X107659774Y-28196063D01*
X107490256Y-28082795D01*
X107301898Y-28004774D01*
X107101939Y-27965000D01*
X106898061Y-27965000D01*
X106698102Y-28004774D01*
X106509744Y-28082795D01*
X106340226Y-28196063D01*
X106196063Y-28340226D01*
X106082795Y-28509744D01*
X106004774Y-28698102D01*
X105965000Y-28898061D01*
X105965000Y-29101939D01*
X106004774Y-29301898D01*
X106082795Y-29490256D01*
X106196063Y-29659774D01*
X106340226Y-29803937D01*
X106509744Y-29917205D01*
X106698102Y-29995226D01*
X106898061Y-30035000D01*
X107101939Y-30035000D01*
X107301898Y-29995226D01*
X107314515Y-29990000D01*
X107948084Y-29990000D01*
X107941928Y-30052500D01*
X107941928Y-30347500D01*
X107957023Y-30500757D01*
X108001726Y-30648125D01*
X108074321Y-30783940D01*
X108140000Y-30863971D01*
X108140001Y-31859119D01*
X108126596Y-31926510D01*
X108114336Y-32050991D01*
X108114336Y-32075550D01*
X108111928Y-32100000D01*
X108111928Y-32600000D01*
X108114336Y-32624450D01*
X108114336Y-32649009D01*
X108126596Y-32773490D01*
X108145718Y-32869623D01*
X108182027Y-32989319D01*
X108219536Y-33079875D01*
X108278502Y-33190192D01*
X108332958Y-33271691D01*
X108412310Y-33368382D01*
X108481618Y-33437690D01*
X108490000Y-33444569D01*
X108490000Y-33512678D01*
X108486324Y-33550000D01*
X108490000Y-33587322D01*
X108490000Y-33587332D01*
X108500997Y-33698985D01*
X108544454Y-33842246D01*
X108615026Y-33974276D01*
X108646533Y-34012667D01*
X108709999Y-34090001D01*
X108739003Y-34113804D01*
X108742000Y-34116801D01*
X108724188Y-34175518D01*
X108711928Y-34300000D01*
X108711928Y-35200000D01*
X108724188Y-35324482D01*
X108760498Y-35444180D01*
X108819463Y-35554494D01*
X108898815Y-35651185D01*
X108911905Y-35661928D01*
X108400000Y-35661928D01*
X108275518Y-35674188D01*
X108155820Y-35710498D01*
X108045506Y-35769463D01*
X107948815Y-35848815D01*
X107869463Y-35945506D01*
X107810498Y-36055820D01*
X107774188Y-36175518D01*
X107761928Y-36300000D01*
X107761928Y-37200000D01*
X107774188Y-37324482D01*
X107810498Y-37444180D01*
X107869463Y-37554494D01*
X107948815Y-37651185D01*
X108045506Y-37730537D01*
X108140001Y-37781046D01*
X108140000Y-38551030D01*
X108074321Y-38631060D01*
X108001726Y-38766875D01*
X107957023Y-38914243D01*
X107941928Y-39067500D01*
X107941928Y-39362500D01*
X107957023Y-39515757D01*
X108001726Y-39663125D01*
X108021436Y-39700000D01*
X108001726Y-39736875D01*
X107957023Y-39884243D01*
X107941928Y-40037500D01*
X107941928Y-40332500D01*
X107954979Y-40465000D01*
X107898061Y-40465000D01*
X107698102Y-40504774D01*
X107509744Y-40582795D01*
X107340226Y-40696063D01*
X107196063Y-40840226D01*
X107082795Y-41009744D01*
X107004774Y-41198102D01*
X106965000Y-41398061D01*
X106965000Y-41601939D01*
X107004774Y-41801898D01*
X107082795Y-41990256D01*
X107196063Y-42159774D01*
X107340226Y-42303937D01*
X107509744Y-42417205D01*
X107698102Y-42495226D01*
X107898061Y-42535000D01*
X108101939Y-42535000D01*
X108301898Y-42495226D01*
X108490256Y-42417205D01*
X108659774Y-42303937D01*
X108803937Y-42159774D01*
X108917205Y-41990256D01*
X108995226Y-41801898D01*
X109035000Y-41601939D01*
X109035000Y-41539802D01*
X109411003Y-41163799D01*
X109440001Y-41140001D01*
X109534974Y-41024276D01*
X109592072Y-40917454D01*
X109607294Y-40904962D01*
X109628815Y-40931185D01*
X109725506Y-41010537D01*
X109835820Y-41069502D01*
X109955518Y-41105812D01*
X110080000Y-41118072D01*
X110114250Y-41115000D01*
X110273000Y-40956250D01*
X110273000Y-40312000D01*
X110527000Y-40312000D01*
X110527000Y-40956250D01*
X110685750Y-41115000D01*
X110720000Y-41118072D01*
X110844482Y-41105812D01*
X110964180Y-41069502D01*
X111074494Y-41010537D01*
X111171185Y-40931185D01*
X111250537Y-40834494D01*
X111309502Y-40724180D01*
X111345812Y-40604482D01*
X111358072Y-40480000D01*
X111355000Y-40470750D01*
X111196250Y-40312000D01*
X110527000Y-40312000D01*
X110273000Y-40312000D01*
X110253000Y-40312000D01*
X110253000Y-40148072D01*
X110572500Y-40148072D01*
X110725757Y-40132977D01*
X110873125Y-40088274D01*
X110929763Y-40058000D01*
X111196250Y-40058000D01*
X111355000Y-39899250D01*
X111358072Y-39890000D01*
X111345812Y-39765518D01*
X111309502Y-39645820D01*
X111305688Y-39638684D01*
X111342977Y-39515757D01*
X111358072Y-39362500D01*
X111358072Y-39067500D01*
X111342977Y-38914243D01*
X111298274Y-38766875D01*
X111225679Y-38631060D01*
X111127983Y-38512017D01*
X111008940Y-38414321D01*
X110873125Y-38341726D01*
X110725757Y-38297023D01*
X110572500Y-38281928D01*
X110227500Y-38281928D01*
X110074243Y-38297023D01*
X109926875Y-38341726D01*
X109791060Y-38414321D01*
X109741492Y-38455000D01*
X109660000Y-38455000D01*
X109660000Y-37640444D01*
X109730537Y-37554494D01*
X109750000Y-37518082D01*
X109769463Y-37554494D01*
X109848815Y-37651185D01*
X109945506Y-37730537D01*
X110055820Y-37789502D01*
X110175518Y-37825812D01*
X110300000Y-37838072D01*
X110414250Y-37835000D01*
X110573000Y-37676250D01*
X110573000Y-36877000D01*
X110827000Y-36877000D01*
X110827000Y-37676250D01*
X110985750Y-37835000D01*
X111100000Y-37838072D01*
X111224482Y-37825812D01*
X111344180Y-37789502D01*
X111454494Y-37730537D01*
X111551185Y-37651185D01*
X111630537Y-37554494D01*
X111689502Y-37444180D01*
X111725812Y-37324482D01*
X111738072Y-37200000D01*
X111735000Y-37035750D01*
X111576250Y-36877000D01*
X110827000Y-36877000D01*
X110573000Y-36877000D01*
X110553000Y-36877000D01*
X110553000Y-36623000D01*
X110573000Y-36623000D01*
X110573000Y-35823750D01*
X110827000Y-35823750D01*
X110827000Y-36623000D01*
X111576250Y-36623000D01*
X111735000Y-36464250D01*
X111738072Y-36300000D01*
X111725812Y-36175518D01*
X111689502Y-36055820D01*
X111630537Y-35945506D01*
X111551185Y-35848815D01*
X111454494Y-35769463D01*
X111344180Y-35710498D01*
X111224482Y-35674188D01*
X111100000Y-35661928D01*
X110985750Y-35665000D01*
X110827000Y-35823750D01*
X110573000Y-35823750D01*
X110488393Y-35739143D01*
X110504494Y-35730537D01*
X110601185Y-35651185D01*
X110680537Y-35554494D01*
X110739502Y-35444180D01*
X110775812Y-35324482D01*
X110788072Y-35200000D01*
X110788072Y-34300000D01*
X110775812Y-34175518D01*
X110739502Y-34055820D01*
X110680537Y-33945506D01*
X110601185Y-33848815D01*
X110504494Y-33769463D01*
X110444730Y-33737518D01*
X110384974Y-33625724D01*
X110290001Y-33509999D01*
X110260997Y-33486196D01*
X110257439Y-33482638D01*
X110280537Y-33454494D01*
X110339502Y-33344180D01*
X110375812Y-33224482D01*
X110388072Y-33100000D01*
X110388072Y-31600000D01*
X110375812Y-31475518D01*
X110339502Y-31355820D01*
X110280537Y-31245506D01*
X110201185Y-31148815D01*
X110104494Y-31069463D01*
X109994180Y-31010498D01*
X109874482Y-30974188D01*
X109750000Y-30961928D01*
X109660000Y-30961928D01*
X109660000Y-30960000D01*
X110241492Y-30960000D01*
X110291060Y-31000679D01*
X110426875Y-31073274D01*
X110574243Y-31117977D01*
X110727500Y-31133072D01*
X111072500Y-31133072D01*
X111225757Y-31117977D01*
X111373125Y-31073274D01*
X111508940Y-31000679D01*
X111627983Y-30902983D01*
X111725679Y-30783940D01*
X111798274Y-30648125D01*
X111842977Y-30500757D01*
X111858072Y-30347500D01*
X111858072Y-30052500D01*
X111842977Y-29899243D01*
X111798274Y-29751875D01*
X111778564Y-29715000D01*
X111798274Y-29678125D01*
X111842977Y-29530757D01*
X111858072Y-29377500D01*
X111858072Y-29082500D01*
X111842977Y-28929243D01*
X111798274Y-28781875D01*
X111762528Y-28715000D01*
X111798274Y-28648125D01*
X111842977Y-28500757D01*
X111858072Y-28347500D01*
X111858072Y-28052500D01*
X111842977Y-27899243D01*
X111798274Y-27751875D01*
X111778564Y-27715000D01*
X111798274Y-27678125D01*
X111842977Y-27530757D01*
X111858072Y-27377500D01*
X111858072Y-27082500D01*
X111842977Y-26929243D01*
X111800154Y-26788072D01*
X111950000Y-26788072D01*
X111974450Y-26785664D01*
X111999009Y-26785664D01*
X112123490Y-26773404D01*
X112219623Y-26754282D01*
X112339319Y-26717973D01*
X112429875Y-26680464D01*
X112540192Y-26621498D01*
X112621691Y-26567042D01*
X112718382Y-26487690D01*
X112787690Y-26418382D01*
X112867042Y-26321691D01*
X112921498Y-26240192D01*
X112980464Y-26129875D01*
X113017973Y-26039319D01*
X113054282Y-25919623D01*
X113073404Y-25823490D01*
X113085664Y-25699009D01*
X113085664Y-25674450D01*
X113088072Y-25650000D01*
X113088072Y-25485000D01*
X113111928Y-25485000D01*
X113111928Y-25900000D01*
X113124188Y-26024482D01*
X113160498Y-26144180D01*
X113219463Y-26254494D01*
X113298815Y-26351185D01*
X113395506Y-26430537D01*
X113505820Y-26489502D01*
X113625518Y-26525812D01*
X113750000Y-26538072D01*
X115381797Y-26538072D01*
X114236865Y-27683004D01*
X114193551Y-27718551D01*
X114073363Y-27865000D01*
X113055751Y-27865000D01*
X113000000Y-27859509D01*
X112944248Y-27865000D01*
X112777501Y-27881423D01*
X112563553Y-27946324D01*
X112366377Y-28051716D01*
X112193551Y-28193551D01*
X112051716Y-28366377D01*
X111946324Y-28563553D01*
X111881423Y-28777501D01*
X111859509Y-29000000D01*
X111865000Y-29055751D01*
X111865001Y-31344239D01*
X111859509Y-31400000D01*
X111881423Y-31622498D01*
X111946324Y-31836446D01*
X111964408Y-31870279D01*
X112051717Y-32033623D01*
X112193552Y-32206449D01*
X112236860Y-32241991D01*
X112411928Y-32417059D01*
X112411928Y-33050000D01*
X112424188Y-33174482D01*
X112460498Y-33294180D01*
X112465000Y-33302603D01*
X112465001Y-34440018D01*
X112419463Y-34495506D01*
X112360498Y-34605820D01*
X112324188Y-34725518D01*
X112311928Y-34850000D01*
X112311928Y-36850000D01*
X112324188Y-36974482D01*
X112360498Y-37094180D01*
X112419463Y-37204494D01*
X112498815Y-37301185D01*
X112595506Y-37380537D01*
X112705820Y-37439502D01*
X112825518Y-37475812D01*
X112950000Y-37488072D01*
X114450000Y-37488072D01*
X114574482Y-37475812D01*
X114694180Y-37439502D01*
X114804494Y-37380537D01*
X114850000Y-37343191D01*
X114865000Y-37355502D01*
X114865000Y-37794248D01*
X114859509Y-37850000D01*
X114865000Y-37905751D01*
X114865001Y-37905758D01*
X114865000Y-40511928D01*
X114100000Y-40511928D01*
X113975518Y-40524188D01*
X113855820Y-40560498D01*
X113745506Y-40619463D01*
X113648815Y-40698815D01*
X113569463Y-40795506D01*
X113510498Y-40905820D01*
X113474188Y-41025518D01*
X113461928Y-41150000D01*
X113461928Y-43150000D01*
X113474188Y-43274482D01*
X113510498Y-43394180D01*
X113569463Y-43504494D01*
X113648815Y-43601185D01*
X113745506Y-43680537D01*
X113855820Y-43739502D01*
X113975518Y-43775812D01*
X114100000Y-43788072D01*
X117900000Y-43788072D01*
X118024482Y-43775812D01*
X118144180Y-43739502D01*
X118254494Y-43680537D01*
X118351185Y-43601185D01*
X118430537Y-43504494D01*
X118489502Y-43394180D01*
X118525812Y-43274482D01*
X118538072Y-43150000D01*
X118538072Y-41150000D01*
X118525812Y-41025518D01*
X118489502Y-40905820D01*
X118430537Y-40795506D01*
X118351185Y-40698815D01*
X118254494Y-40619463D01*
X118144180Y-40560498D01*
X118024482Y-40524188D01*
X117900000Y-40511928D01*
X117135000Y-40511928D01*
X117135000Y-40225000D01*
X119886928Y-40225000D01*
X119899188Y-40349482D01*
X119935498Y-40469180D01*
X119994463Y-40579494D01*
X120073815Y-40676185D01*
X120170506Y-40755537D01*
X120280820Y-40814502D01*
X120400518Y-40850812D01*
X120525000Y-40863072D01*
X120714250Y-40860000D01*
X120873000Y-40701250D01*
X120873000Y-39914500D01*
X121127000Y-39914500D01*
X121127000Y-40701250D01*
X121285750Y-40860000D01*
X121475000Y-40863072D01*
X121599482Y-40850812D01*
X121719180Y-40814502D01*
X121829494Y-40755537D01*
X121926185Y-40676185D01*
X122005537Y-40579494D01*
X122064502Y-40469180D01*
X122100812Y-40349482D01*
X122113072Y-40225000D01*
X122110000Y-40073250D01*
X121951250Y-39914500D01*
X121127000Y-39914500D01*
X120873000Y-39914500D01*
X120048750Y-39914500D01*
X119890000Y-40073250D01*
X119886928Y-40225000D01*
X117135000Y-40225000D01*
X117135000Y-39347500D01*
X119887174Y-39347500D01*
X119886928Y-39350000D01*
X119890000Y-39501750D01*
X120048750Y-39660500D01*
X120873000Y-39660500D01*
X120873000Y-39640500D01*
X121127000Y-39640500D01*
X121127000Y-39660500D01*
X121951250Y-39660500D01*
X122110000Y-39501750D01*
X122113072Y-39350000D01*
X122100812Y-39225518D01*
X122064502Y-39105820D01*
X122005537Y-38995506D01*
X121950900Y-38928930D01*
X121968671Y-38907275D01*
X122047850Y-38759142D01*
X122096608Y-38598408D01*
X122109878Y-38463674D01*
X122118577Y-38434999D01*
X122140491Y-38212500D01*
X122118577Y-37990001D01*
X122109878Y-37961326D01*
X122096608Y-37826592D01*
X122047850Y-37665858D01*
X121968671Y-37517725D01*
X121862115Y-37387885D01*
X121732275Y-37281329D01*
X121584142Y-37202150D01*
X121423408Y-37153392D01*
X121416200Y-37152682D01*
X121222499Y-37093923D01*
X121055752Y-37077500D01*
X119644562Y-37077500D01*
X119675812Y-36974482D01*
X119688072Y-36850000D01*
X119685000Y-36135750D01*
X119526250Y-35977000D01*
X118427000Y-35977000D01*
X118427000Y-35997000D01*
X118173000Y-35997000D01*
X118173000Y-35977000D01*
X118153000Y-35977000D01*
X118153000Y-35723000D01*
X118173000Y-35723000D01*
X118173000Y-34373750D01*
X118427000Y-34373750D01*
X118427000Y-35723000D01*
X119526250Y-35723000D01*
X119685000Y-35564250D01*
X119688072Y-34850000D01*
X119675812Y-34725518D01*
X119639502Y-34605820D01*
X119580537Y-34495506D01*
X119501185Y-34398815D01*
X119404494Y-34319463D01*
X119294180Y-34260498D01*
X119174482Y-34224188D01*
X119050000Y-34211928D01*
X118585750Y-34215000D01*
X118427000Y-34373750D01*
X118173000Y-34373750D01*
X118014250Y-34215000D01*
X117550000Y-34211928D01*
X117425518Y-34224188D01*
X117305820Y-34260498D01*
X117195506Y-34319463D01*
X117150000Y-34356809D01*
X117135000Y-34344499D01*
X117135000Y-33657454D01*
X117194180Y-33639502D01*
X117304494Y-33580537D01*
X117401185Y-33501185D01*
X117480537Y-33404494D01*
X117539502Y-33294180D01*
X117575812Y-33174482D01*
X117580327Y-33128640D01*
X117682499Y-33118577D01*
X117896447Y-33053676D01*
X118093623Y-32948284D01*
X118266449Y-32806449D01*
X118301996Y-32763135D01*
X118593367Y-32471764D01*
X118603175Y-32504099D01*
X118728359Y-32766920D01*
X118902412Y-33000269D01*
X119118645Y-33195178D01*
X119368748Y-33344157D01*
X119643109Y-33441481D01*
X119873000Y-33320814D01*
X119873000Y-32127000D01*
X120127000Y-32127000D01*
X120127000Y-33320814D01*
X120356891Y-33441481D01*
X120631252Y-33344157D01*
X120881355Y-33195178D01*
X121097588Y-33000269D01*
X121271641Y-32766920D01*
X121396825Y-32504099D01*
X121441476Y-32356890D01*
X121320155Y-32127000D01*
X120127000Y-32127000D01*
X119873000Y-32127000D01*
X119853000Y-32127000D01*
X119853000Y-31873000D01*
X119873000Y-31873000D01*
X119873000Y-31853000D01*
X120127000Y-31853000D01*
X120127000Y-31873000D01*
X121320155Y-31873000D01*
X121441476Y-31643110D01*
X121396825Y-31495901D01*
X121271641Y-31233080D01*
X121097588Y-30999731D01*
X121013534Y-30923966D01*
X121094180Y-30899502D01*
X121204494Y-30840537D01*
X121301185Y-30761185D01*
X121380537Y-30664494D01*
X121439502Y-30554180D01*
X121475812Y-30434482D01*
X121488072Y-30310000D01*
X121488072Y-28610000D01*
X121475812Y-28485518D01*
X121439502Y-28365820D01*
X121380537Y-28255506D01*
X121301185Y-28158815D01*
X121204494Y-28079463D01*
X121094180Y-28020498D01*
X120974482Y-27984188D01*
X120850000Y-27971928D01*
X119150000Y-27971928D01*
X119025518Y-27984188D01*
X118905820Y-28020498D01*
X118795506Y-28079463D01*
X118698815Y-28158815D01*
X118619463Y-28255506D01*
X118560498Y-28365820D01*
X118524188Y-28485518D01*
X118511928Y-28610000D01*
X118511928Y-29342940D01*
X116989869Y-30865000D01*
X116455741Y-30865000D01*
X116399999Y-30859510D01*
X116344257Y-30865000D01*
X116344248Y-30865000D01*
X116177501Y-30881423D01*
X115963553Y-30946324D01*
X115766377Y-31051716D01*
X115593551Y-31193551D01*
X115558004Y-31236865D01*
X115236860Y-31558009D01*
X115193552Y-31593551D01*
X115051717Y-31766377D01*
X115045771Y-31777502D01*
X114946324Y-31963554D01*
X114881423Y-32177502D01*
X114859509Y-32400000D01*
X114865001Y-32455761D01*
X114865000Y-34344498D01*
X114850000Y-34356809D01*
X114804494Y-34319463D01*
X114735000Y-34282317D01*
X114735000Y-33302603D01*
X114739502Y-33294180D01*
X114775812Y-33174482D01*
X114788072Y-33050000D01*
X114788072Y-31950000D01*
X114775812Y-31825518D01*
X114739502Y-31705820D01*
X114680537Y-31595506D01*
X114652484Y-31561324D01*
X114548284Y-31366377D01*
X114406449Y-31193551D01*
X114363135Y-31158004D01*
X114135000Y-30929869D01*
X114135000Y-30135000D01*
X114944249Y-30135000D01*
X115000000Y-30140491D01*
X115222499Y-30118577D01*
X115251174Y-30109878D01*
X115385908Y-30096608D01*
X115546642Y-30047850D01*
X115694775Y-29968671D01*
X115716430Y-29950900D01*
X115783006Y-30005537D01*
X115893320Y-30064502D01*
X116013018Y-30100812D01*
X116137500Y-30113072D01*
X116289250Y-30110000D01*
X116448000Y-29951250D01*
X116448000Y-29127000D01*
X116702000Y-29127000D01*
X116702000Y-29951250D01*
X116860750Y-30110000D01*
X117012500Y-30113072D01*
X117136982Y-30100812D01*
X117256680Y-30064502D01*
X117366994Y-30005537D01*
X117463685Y-29926185D01*
X117543037Y-29829494D01*
X117602002Y-29719180D01*
X117638312Y-29599482D01*
X117650572Y-29475000D01*
X117647500Y-29285750D01*
X117488750Y-29127000D01*
X116702000Y-29127000D01*
X116448000Y-29127000D01*
X116428000Y-29127000D01*
X116428000Y-28873000D01*
X116448000Y-28873000D01*
X116448000Y-28853000D01*
X116702000Y-28853000D01*
X116702000Y-28873000D01*
X117488750Y-28873000D01*
X117647500Y-28714250D01*
X117650572Y-28525000D01*
X117638312Y-28400518D01*
X117602002Y-28280820D01*
X117543037Y-28170506D01*
X117463685Y-28073815D01*
X117366994Y-27994463D01*
X117256680Y-27935498D01*
X117209074Y-27921057D01*
X118592060Y-26538072D01*
X120250000Y-26538072D01*
X120374482Y-26525812D01*
X120494180Y-26489502D01*
X120604494Y-26430537D01*
X120701185Y-26351185D01*
X120780537Y-26254494D01*
X120839502Y-26144180D01*
X120875812Y-26024482D01*
X120888072Y-25900000D01*
X120888072Y-24100000D01*
X120875812Y-23975518D01*
X120839502Y-23855820D01*
X120780537Y-23745506D01*
X120701185Y-23648815D01*
X120604494Y-23569463D01*
X120494180Y-23510498D01*
X120374482Y-23474188D01*
X120250000Y-23461928D01*
X117750000Y-23461928D01*
X117625518Y-23474188D01*
X117505820Y-23510498D01*
X117395506Y-23569463D01*
X117298815Y-23648815D01*
X117219463Y-23745506D01*
X117160498Y-23855820D01*
X117124188Y-23975518D01*
X117111928Y-24100000D01*
X117111928Y-24807940D01*
X116888072Y-25031796D01*
X116888072Y-24100000D01*
X116875812Y-23975518D01*
X116839502Y-23855820D01*
X116780537Y-23745506D01*
X116701185Y-23648815D01*
X116604494Y-23569463D01*
X116494180Y-23510498D01*
X116374482Y-23474188D01*
X116250000Y-23461928D01*
X115056991Y-23461928D01*
X114983623Y-23401716D01*
X114786447Y-23296324D01*
X114572499Y-23231423D01*
X114405752Y-23215000D01*
X114405751Y-23215000D01*
X114350000Y-23209509D01*
X114294249Y-23215000D01*
X112005751Y-23215000D01*
X111999009Y-23214336D01*
X111974450Y-23214336D01*
X111950000Y-23211928D01*
X111724561Y-23211928D01*
X111700000Y-23209509D01*
X111675439Y-23211928D01*
X111450000Y-23211928D01*
X111425550Y-23214336D01*
X111400991Y-23214336D01*
X111276510Y-23226596D01*
X111180377Y-23245718D01*
X111116812Y-23265000D01*
X109205751Y-23265000D01*
X109199009Y-23264336D01*
X109174450Y-23264336D01*
X109150000Y-23261928D01*
X108650000Y-23261928D01*
X108625550Y-23264336D01*
X108600991Y-23264336D01*
X108594249Y-23265000D01*
X108015775Y-23265000D01*
X107960033Y-23259510D01*
X107904291Y-23265000D01*
X107904282Y-23265000D01*
X107737535Y-23281423D01*
X107523587Y-23346324D01*
X107326411Y-23451716D01*
X107153585Y-23593551D01*
X107118045Y-23636857D01*
X102236865Y-28518038D01*
X102193551Y-28553585D01*
X102051716Y-28726411D01*
X101955968Y-28905546D01*
X101946324Y-28923588D01*
X101881423Y-29137536D01*
X101859509Y-29360034D01*
X101865000Y-29415786D01*
X101865000Y-30611928D01*
X101250000Y-30611928D01*
X101125518Y-30624188D01*
X101005820Y-30660498D01*
X100895506Y-30719463D01*
X100798815Y-30798815D01*
X100719463Y-30895506D01*
X100660498Y-31005820D01*
X100624188Y-31125518D01*
X100611928Y-31250000D01*
X95758834Y-31250000D01*
X95413669Y-31019369D01*
X95006925Y-30850890D01*
X94575128Y-30765000D01*
X94134872Y-30765000D01*
X93703075Y-30850890D01*
X93296331Y-31019369D01*
X92930271Y-31263962D01*
X92618962Y-31575271D01*
X92374369Y-31941331D01*
X92205890Y-32348075D01*
X92120000Y-32779872D01*
X40980000Y-32779872D01*
X40894110Y-32348075D01*
X40725631Y-31941331D01*
X40481038Y-31575271D01*
X40169729Y-31263962D01*
X39803669Y-31019369D01*
X39396925Y-30850890D01*
X38965128Y-30765000D01*
X38524872Y-30765000D01*
X38093075Y-30850890D01*
X37686331Y-31019369D01*
X37320271Y-31263962D01*
X37008962Y-31575271D01*
X36764369Y-31941331D01*
X36595890Y-32348075D01*
X36510000Y-32779872D01*
X33385000Y-32779872D01*
X33385000Y-32765098D01*
X33293346Y-32304321D01*
X33113560Y-31870279D01*
X32852550Y-31479651D01*
X32520349Y-31147450D01*
X32129721Y-30886440D01*
X31695679Y-30706654D01*
X31234902Y-30615000D01*
X30765098Y-30615000D01*
X30304321Y-30706654D01*
X29870279Y-30886440D01*
X29479651Y-31147450D01*
X29147450Y-31479651D01*
X28886440Y-31870279D01*
X28706654Y-32304321D01*
X28615000Y-32765098D01*
X28615000Y-33234902D01*
X28706654Y-33695679D01*
X28886440Y-34129721D01*
X29147450Y-34520349D01*
X29479651Y-34852550D01*
X29865000Y-35110033D01*
X29865001Y-51611928D01*
X29250000Y-51611928D01*
X29125518Y-51624188D01*
X29005820Y-51660498D01*
X28895506Y-51719463D01*
X28798815Y-51798815D01*
X28719463Y-51895506D01*
X28660498Y-52005820D01*
X28624188Y-52125518D01*
X28611928Y-52250000D01*
X27660000Y-52250000D01*
X27660000Y-22660000D01*
X122340000Y-22660000D01*
X122340001Y-64873000D01*
G37*
X122340001Y-64873000D02*
X119650685Y-64873000D01*
X119650450Y-64870617D01*
X119612710Y-64746207D01*
X119551425Y-64631550D01*
X119468948Y-64531052D01*
X119368450Y-64448575D01*
X119253793Y-64387290D01*
X119129383Y-64349550D01*
X119032419Y-64340000D01*
X119000000Y-64336807D01*
X118967581Y-64340000D01*
X97032419Y-64340000D01*
X97000000Y-64336807D01*
X96967581Y-64340000D01*
X96870617Y-64349550D01*
X96746207Y-64387290D01*
X96631550Y-64448575D01*
X96531052Y-64531052D01*
X96448575Y-64631550D01*
X96387290Y-64746207D01*
X96349550Y-64870617D01*
X96349315Y-64873000D01*
X92650685Y-64873000D01*
X92650450Y-64870617D01*
X92612710Y-64746207D01*
X92551425Y-64631550D01*
X92468948Y-64531052D01*
X92368450Y-64448575D01*
X92253793Y-64387290D01*
X92129383Y-64349550D01*
X92032419Y-64340000D01*
X92000000Y-64336807D01*
X91967581Y-64340000D01*
X59032419Y-64340000D01*
X59000000Y-64336807D01*
X58967581Y-64340000D01*
X58870617Y-64349550D01*
X58746207Y-64387290D01*
X58631550Y-64448575D01*
X58531052Y-64531052D01*
X58448575Y-64631550D01*
X58387290Y-64746207D01*
X58349550Y-64870617D01*
X58349315Y-64873000D01*
X54650685Y-64873000D01*
X54650450Y-64870617D01*
X54612710Y-64746207D01*
X54551425Y-64631550D01*
X54468948Y-64531052D01*
X54368450Y-64448575D01*
X54253793Y-64387290D01*
X54129383Y-64349550D01*
X54032419Y-64340000D01*
X54000000Y-64336807D01*
X53967581Y-64340000D01*
X31032419Y-64340000D01*
X31000000Y-64336807D01*
X30967581Y-64340000D01*
X30870617Y-64349550D01*
X30746207Y-64387290D01*
X30631550Y-64448575D01*
X30531052Y-64531052D01*
X30448575Y-64631550D01*
X30387290Y-64746207D01*
X30349550Y-64870617D01*
X30349315Y-64873000D01*
X27660000Y-64873000D01*
X27660000Y-52250000D01*
X28611928Y-52250000D01*
X28611928Y-55750000D01*
X28624188Y-55874482D01*
X28660498Y-55994180D01*
X28719463Y-56104494D01*
X28798815Y-56201185D01*
X28895506Y-56280537D01*
X29005820Y-56339502D01*
X29125518Y-56375812D01*
X29250000Y-56388072D01*
X32750000Y-56388072D01*
X32874482Y-56375812D01*
X32994180Y-56339502D01*
X33104494Y-56280537D01*
X33201185Y-56201185D01*
X33280537Y-56104494D01*
X33339502Y-55994180D01*
X33375812Y-55874482D01*
X33388072Y-55750000D01*
X33388072Y-53779872D01*
X37410000Y-53779872D01*
X37410000Y-54220128D01*
X37495890Y-54651925D01*
X37664369Y-55058669D01*
X37908962Y-55424729D01*
X38220271Y-55736038D01*
X38586331Y-55980631D01*
X38993075Y-56149110D01*
X39424872Y-56235000D01*
X39865128Y-56235000D01*
X40296925Y-56149110D01*
X40703669Y-55980631D01*
X41069729Y-55736038D01*
X41381038Y-55424729D01*
X41625631Y-55058669D01*
X41794110Y-54651925D01*
X41880000Y-54220128D01*
X41880000Y-53779872D01*
X93020000Y-53779872D01*
X93020000Y-54220128D01*
X93105890Y-54651925D01*
X93274369Y-55058669D01*
X93518962Y-55424729D01*
X93830271Y-55736038D01*
X94196331Y-55980631D01*
X94603075Y-56149110D01*
X95034872Y-56235000D01*
X95475128Y-56235000D01*
X95906925Y-56149110D01*
X96313669Y-55980631D01*
X96679729Y-55736038D01*
X96746158Y-55669609D01*
X101509997Y-55669609D01*
X101696073Y-56010766D01*
X102113409Y-56226513D01*
X102564815Y-56356696D01*
X103032946Y-56396313D01*
X103499811Y-56343842D01*
X103947468Y-56201297D01*
X104303927Y-56010766D01*
X104490003Y-55669609D01*
X103000000Y-54179605D01*
X101509997Y-55669609D01*
X96746158Y-55669609D01*
X96991038Y-55424729D01*
X97235631Y-55058669D01*
X97404110Y-54651925D01*
X97490000Y-54220128D01*
X97490000Y-54032946D01*
X100603687Y-54032946D01*
X100656158Y-54499811D01*
X100798703Y-54947468D01*
X100989234Y-55303927D01*
X101330391Y-55490003D01*
X102820395Y-54000000D01*
X103179605Y-54000000D01*
X104669609Y-55490003D01*
X105010766Y-55303927D01*
X105167884Y-55000000D01*
X110961928Y-55000000D01*
X110974188Y-55124482D01*
X111010498Y-55244180D01*
X111069463Y-55354494D01*
X111148815Y-55451185D01*
X111245506Y-55530537D01*
X111355820Y-55589502D01*
X111475518Y-55625812D01*
X111600000Y-55638072D01*
X112114250Y-55635000D01*
X112273000Y-55476250D01*
X112273000Y-54327000D01*
X112527000Y-54327000D01*
X112527000Y-55476250D01*
X112685750Y-55635000D01*
X113200000Y-55638072D01*
X113324482Y-55625812D01*
X113444180Y-55589502D01*
X113554494Y-55530537D01*
X113651185Y-55451185D01*
X113730537Y-55354494D01*
X113789502Y-55244180D01*
X113825812Y-55124482D01*
X113838072Y-55000000D01*
X113835000Y-54485750D01*
X113676250Y-54327000D01*
X112527000Y-54327000D01*
X112273000Y-54327000D01*
X111123750Y-54327000D01*
X110965000Y-54485750D01*
X110961928Y-55000000D01*
X105167884Y-55000000D01*
X105226513Y-54886591D01*
X105356696Y-54435185D01*
X105396313Y-53967054D01*
X105343842Y-53500189D01*
X105311940Y-53400000D01*
X110961928Y-53400000D01*
X110965000Y-53914250D01*
X111123750Y-54073000D01*
X112273000Y-54073000D01*
X112273000Y-52923750D01*
X112527000Y-52923750D01*
X112527000Y-54073000D01*
X113676250Y-54073000D01*
X113690585Y-54058665D01*
X115965000Y-54058665D01*
X115965000Y-54341335D01*
X116020147Y-54618574D01*
X116128320Y-54879727D01*
X116285363Y-55114759D01*
X116485241Y-55314637D01*
X116720273Y-55471680D01*
X116981426Y-55579853D01*
X117258665Y-55635000D01*
X117541335Y-55635000D01*
X117818574Y-55579853D01*
X118079727Y-55471680D01*
X118314759Y-55314637D01*
X118514637Y-55114759D01*
X118671680Y-54879727D01*
X118779853Y-54618574D01*
X118835000Y-54341335D01*
X118835000Y-54058665D01*
X118779853Y-53781426D01*
X118671680Y-53520273D01*
X118514637Y-53285241D01*
X118314759Y-53085363D01*
X118079727Y-52928320D01*
X117818574Y-52820147D01*
X117541335Y-52765000D01*
X117258665Y-52765000D01*
X116981426Y-52820147D01*
X116720273Y-52928320D01*
X116485241Y-53085363D01*
X116285363Y-53285241D01*
X116128320Y-53520273D01*
X116020147Y-53781426D01*
X115965000Y-54058665D01*
X113690585Y-54058665D01*
X113835000Y-53914250D01*
X113838072Y-53400000D01*
X113825812Y-53275518D01*
X113789502Y-53155820D01*
X113730537Y-53045506D01*
X113651185Y-52948815D01*
X113554494Y-52869463D01*
X113444180Y-52810498D01*
X113324482Y-52774188D01*
X113200000Y-52761928D01*
X112685750Y-52765000D01*
X112527000Y-52923750D01*
X112273000Y-52923750D01*
X112114250Y-52765000D01*
X111600000Y-52761928D01*
X111475518Y-52774188D01*
X111355820Y-52810498D01*
X111245506Y-52869463D01*
X111148815Y-52948815D01*
X111069463Y-53045506D01*
X111010498Y-53155820D01*
X110974188Y-53275518D01*
X110961928Y-53400000D01*
X105311940Y-53400000D01*
X105201297Y-53052532D01*
X105010766Y-52696073D01*
X104669609Y-52509997D01*
X103179605Y-54000000D01*
X102820395Y-54000000D01*
X101330391Y-52509997D01*
X100989234Y-52696073D01*
X100773487Y-53113409D01*
X100643304Y-53564815D01*
X100603687Y-54032946D01*
X97490000Y-54032946D01*
X97490000Y-53779872D01*
X97404110Y-53348075D01*
X97235631Y-52941331D01*
X96991038Y-52575271D01*
X96746158Y-52330391D01*
X101509997Y-52330391D01*
X103000000Y-53820395D01*
X104490003Y-52330391D01*
X104303927Y-51989234D01*
X103886591Y-51773487D01*
X103435185Y-51643304D01*
X102967054Y-51603687D01*
X102500189Y-51656158D01*
X102052532Y-51798703D01*
X101696073Y-51989234D01*
X101509997Y-52330391D01*
X96746158Y-52330391D01*
X96679729Y-52263962D01*
X96313669Y-52019369D01*
X95906925Y-51850890D01*
X95475128Y-51765000D01*
X95034872Y-51765000D01*
X94603075Y-51850890D01*
X94196331Y-52019369D01*
X93830271Y-52263962D01*
X93518962Y-52575271D01*
X93274369Y-52941331D01*
X93105890Y-53348075D01*
X93020000Y-53779872D01*
X41880000Y-53779872D01*
X41794110Y-53348075D01*
X41625631Y-52941331D01*
X41381038Y-52575271D01*
X41069729Y-52263962D01*
X40703669Y-52019369D01*
X40296925Y-51850890D01*
X39865128Y-51765000D01*
X39424872Y-51765000D01*
X38993075Y-51850890D01*
X38586331Y-52019369D01*
X38220271Y-52263962D01*
X37908962Y-52575271D01*
X37664369Y-52941331D01*
X37495890Y-53348075D01*
X37410000Y-53779872D01*
X33388072Y-53779872D01*
X33388072Y-52250000D01*
X33375812Y-52125518D01*
X33339502Y-52005820D01*
X33280537Y-51895506D01*
X33201185Y-51798815D01*
X33104494Y-51719463D01*
X32994180Y-51660498D01*
X32874482Y-51624188D01*
X32750000Y-51611928D01*
X32135000Y-51611928D01*
X32135000Y-35110033D01*
X32520349Y-34852550D01*
X32852550Y-34520349D01*
X33113560Y-34129721D01*
X33293346Y-33695679D01*
X33385000Y-33234902D01*
X33385000Y-32779872D01*
X36510000Y-32779872D01*
X36510000Y-33220128D01*
X36595890Y-33651925D01*
X36764369Y-34058669D01*
X37008962Y-34424729D01*
X37320271Y-34736038D01*
X37686331Y-34980631D01*
X38093075Y-35149110D01*
X38524872Y-35235000D01*
X38965128Y-35235000D01*
X39396925Y-35149110D01*
X39803669Y-34980631D01*
X40169729Y-34736038D01*
X40481038Y-34424729D01*
X40725631Y-34058669D01*
X40894110Y-33651925D01*
X40980000Y-33220128D01*
X40980000Y-32779872D01*
X92120000Y-32779872D01*
X92120000Y-33220128D01*
X92205890Y-33651925D01*
X92374369Y-34058669D01*
X92618962Y-34424729D01*
X92930271Y-34736038D01*
X93296331Y-34980631D01*
X93703075Y-35149110D01*
X94134872Y-35235000D01*
X94575128Y-35235000D01*
X95006925Y-35149110D01*
X95413669Y-34980631D01*
X95779729Y-34736038D01*
X96091038Y-34424729D01*
X96335631Y-34058669D01*
X96504110Y-33651925D01*
X96590000Y-33220128D01*
X96590000Y-32779872D01*
X96504110Y-32348075D01*
X96335631Y-31941331D01*
X96091038Y-31575271D01*
X95779729Y-31263962D01*
X95758834Y-31250000D01*
X100611928Y-31250000D01*
X100611928Y-34750000D01*
X100624188Y-34874482D01*
X100660498Y-34994180D01*
X100719463Y-35104494D01*
X100798815Y-35201185D01*
X100895506Y-35280537D01*
X101005820Y-35339502D01*
X101125518Y-35375812D01*
X101250000Y-35388072D01*
X104750000Y-35388072D01*
X104874482Y-35375812D01*
X104994180Y-35339502D01*
X105104494Y-35280537D01*
X105201185Y-35201185D01*
X105280537Y-35104494D01*
X105339502Y-34994180D01*
X105375812Y-34874482D01*
X105388072Y-34750000D01*
X105388072Y-31250000D01*
X105375812Y-31125518D01*
X105339502Y-31005820D01*
X105280537Y-30895506D01*
X105201185Y-30798815D01*
X105104494Y-30719463D01*
X104994180Y-30660498D01*
X104874482Y-30624188D01*
X104750000Y-30611928D01*
X104135000Y-30611928D01*
X104135000Y-29830165D01*
X107677273Y-26287893D01*
X107678502Y-26290192D01*
X107732958Y-26371691D01*
X107812310Y-26468382D01*
X107881618Y-26537690D01*
X107978309Y-26617042D01*
X108059808Y-26671498D01*
X108060520Y-26671879D01*
X108001726Y-26781875D01*
X107957023Y-26929243D01*
X107941928Y-27082500D01*
X107941928Y-27377500D01*
X107957023Y-27530757D01*
X108001726Y-27678125D01*
X108021436Y-27715000D01*
X108001726Y-27751875D01*
X107957023Y-27899243D01*
X107941928Y-28052500D01*
X107941928Y-28347500D01*
X107953994Y-28470000D01*
X107890649Y-28470000D01*
X107803937Y-28340226D01*
X107659774Y-28196063D01*
X107490256Y-28082795D01*
X107301898Y-28004774D01*
X107101939Y-27965000D01*
X106898061Y-27965000D01*
X106698102Y-28004774D01*
X106509744Y-28082795D01*
X106340226Y-28196063D01*
X106196063Y-28340226D01*
X106082795Y-28509744D01*
X106004774Y-28698102D01*
X105965000Y-28898061D01*
X105965000Y-29101939D01*
X106004774Y-29301898D01*
X106082795Y-29490256D01*
X106196063Y-29659774D01*
X106340226Y-29803937D01*
X106509744Y-29917205D01*
X106698102Y-29995226D01*
X106898061Y-30035000D01*
X107101939Y-30035000D01*
X107301898Y-29995226D01*
X107314515Y-29990000D01*
X107948084Y-29990000D01*
X107941928Y-30052500D01*
X107941928Y-30347500D01*
X107957023Y-30500757D01*
X108001726Y-30648125D01*
X108074321Y-30783940D01*
X108140000Y-30863971D01*
X108140001Y-31859119D01*
X108126596Y-31926510D01*
X108114336Y-32050991D01*
X108114336Y-32075550D01*
X108111928Y-32100000D01*
X108111928Y-32600000D01*
X108114336Y-32624450D01*
X108114336Y-32649009D01*
X108126596Y-32773490D01*
X108145718Y-32869623D01*
X108182027Y-32989319D01*
X108219536Y-33079875D01*
X108278502Y-33190192D01*
X108332958Y-33271691D01*
X108412310Y-33368382D01*
X108481618Y-33437690D01*
X108490000Y-33444569D01*
X108490000Y-33512678D01*
X108486324Y-33550000D01*
X108490000Y-33587322D01*
X108490000Y-33587332D01*
X108500997Y-33698985D01*
X108544454Y-33842246D01*
X108615026Y-33974276D01*
X108646533Y-34012667D01*
X108709999Y-34090001D01*
X108739003Y-34113804D01*
X108742000Y-34116801D01*
X108724188Y-34175518D01*
X108711928Y-34300000D01*
X108711928Y-35200000D01*
X108724188Y-35324482D01*
X108760498Y-35444180D01*
X108819463Y-35554494D01*
X108898815Y-35651185D01*
X108911905Y-35661928D01*
X108400000Y-35661928D01*
X108275518Y-35674188D01*
X108155820Y-35710498D01*
X108045506Y-35769463D01*
X107948815Y-35848815D01*
X107869463Y-35945506D01*
X107810498Y-36055820D01*
X107774188Y-36175518D01*
X107761928Y-36300000D01*
X107761928Y-37200000D01*
X107774188Y-37324482D01*
X107810498Y-37444180D01*
X107869463Y-37554494D01*
X107948815Y-37651185D01*
X108045506Y-37730537D01*
X108140001Y-37781046D01*
X108140000Y-38551030D01*
X108074321Y-38631060D01*
X108001726Y-38766875D01*
X107957023Y-38914243D01*
X107941928Y-39067500D01*
X107941928Y-39362500D01*
X107957023Y-39515757D01*
X108001726Y-39663125D01*
X108021436Y-39700000D01*
X108001726Y-39736875D01*
X107957023Y-39884243D01*
X107941928Y-40037500D01*
X107941928Y-40332500D01*
X107954979Y-40465000D01*
X107898061Y-40465000D01*
X107698102Y-40504774D01*
X107509744Y-40582795D01*
X107340226Y-40696063D01*
X107196063Y-40840226D01*
X107082795Y-41009744D01*
X107004774Y-41198102D01*
X106965000Y-41398061D01*
X106965000Y-41601939D01*
X107004774Y-41801898D01*
X107082795Y-41990256D01*
X107196063Y-42159774D01*
X107340226Y-42303937D01*
X107509744Y-42417205D01*
X107698102Y-42495226D01*
X107898061Y-42535000D01*
X108101939Y-42535000D01*
X108301898Y-42495226D01*
X108490256Y-42417205D01*
X108659774Y-42303937D01*
X108803937Y-42159774D01*
X108917205Y-41990256D01*
X108995226Y-41801898D01*
X109035000Y-41601939D01*
X109035000Y-41539802D01*
X109411003Y-41163799D01*
X109440001Y-41140001D01*
X109534974Y-41024276D01*
X109592072Y-40917454D01*
X109607294Y-40904962D01*
X109628815Y-40931185D01*
X109725506Y-41010537D01*
X109835820Y-41069502D01*
X109955518Y-41105812D01*
X110080000Y-41118072D01*
X110114250Y-41115000D01*
X110273000Y-40956250D01*
X110273000Y-40312000D01*
X110527000Y-40312000D01*
X110527000Y-40956250D01*
X110685750Y-41115000D01*
X110720000Y-41118072D01*
X110844482Y-41105812D01*
X110964180Y-41069502D01*
X111074494Y-41010537D01*
X111171185Y-40931185D01*
X111250537Y-40834494D01*
X111309502Y-40724180D01*
X111345812Y-40604482D01*
X111358072Y-40480000D01*
X111355000Y-40470750D01*
X111196250Y-40312000D01*
X110527000Y-40312000D01*
X110273000Y-40312000D01*
X110253000Y-40312000D01*
X110253000Y-40148072D01*
X110572500Y-40148072D01*
X110725757Y-40132977D01*
X110873125Y-40088274D01*
X110929763Y-40058000D01*
X111196250Y-40058000D01*
X111355000Y-39899250D01*
X111358072Y-39890000D01*
X111345812Y-39765518D01*
X111309502Y-39645820D01*
X111305688Y-39638684D01*
X111342977Y-39515757D01*
X111358072Y-39362500D01*
X111358072Y-39067500D01*
X111342977Y-38914243D01*
X111298274Y-38766875D01*
X111225679Y-38631060D01*
X111127983Y-38512017D01*
X111008940Y-38414321D01*
X110873125Y-38341726D01*
X110725757Y-38297023D01*
X110572500Y-38281928D01*
X110227500Y-38281928D01*
X110074243Y-38297023D01*
X109926875Y-38341726D01*
X109791060Y-38414321D01*
X109741492Y-38455000D01*
X109660000Y-38455000D01*
X109660000Y-37640444D01*
X109730537Y-37554494D01*
X109750000Y-37518082D01*
X109769463Y-37554494D01*
X109848815Y-37651185D01*
X109945506Y-37730537D01*
X110055820Y-37789502D01*
X110175518Y-37825812D01*
X110300000Y-37838072D01*
X110414250Y-37835000D01*
X110573000Y-37676250D01*
X110573000Y-36877000D01*
X110827000Y-36877000D01*
X110827000Y-37676250D01*
X110985750Y-37835000D01*
X111100000Y-37838072D01*
X111224482Y-37825812D01*
X111344180Y-37789502D01*
X111454494Y-37730537D01*
X111551185Y-37651185D01*
X111630537Y-37554494D01*
X111689502Y-37444180D01*
X111725812Y-37324482D01*
X111738072Y-37200000D01*
X111735000Y-37035750D01*
X111576250Y-36877000D01*
X110827000Y-36877000D01*
X110573000Y-36877000D01*
X110553000Y-36877000D01*
X110553000Y-36623000D01*
X110573000Y-36623000D01*
X110573000Y-35823750D01*
X110827000Y-35823750D01*
X110827000Y-36623000D01*
X111576250Y-36623000D01*
X111735000Y-36464250D01*
X111738072Y-36300000D01*
X111725812Y-36175518D01*
X111689502Y-36055820D01*
X111630537Y-35945506D01*
X111551185Y-35848815D01*
X111454494Y-35769463D01*
X111344180Y-35710498D01*
X111224482Y-35674188D01*
X111100000Y-35661928D01*
X110985750Y-35665000D01*
X110827000Y-35823750D01*
X110573000Y-35823750D01*
X110488393Y-35739143D01*
X110504494Y-35730537D01*
X110601185Y-35651185D01*
X110680537Y-35554494D01*
X110739502Y-35444180D01*
X110775812Y-35324482D01*
X110788072Y-35200000D01*
X110788072Y-34300000D01*
X110775812Y-34175518D01*
X110739502Y-34055820D01*
X110680537Y-33945506D01*
X110601185Y-33848815D01*
X110504494Y-33769463D01*
X110444730Y-33737518D01*
X110384974Y-33625724D01*
X110290001Y-33509999D01*
X110260997Y-33486196D01*
X110257439Y-33482638D01*
X110280537Y-33454494D01*
X110339502Y-33344180D01*
X110375812Y-33224482D01*
X110388072Y-33100000D01*
X110388072Y-31600000D01*
X110375812Y-31475518D01*
X110339502Y-31355820D01*
X110280537Y-31245506D01*
X110201185Y-31148815D01*
X110104494Y-31069463D01*
X109994180Y-31010498D01*
X109874482Y-30974188D01*
X109750000Y-30961928D01*
X109660000Y-30961928D01*
X109660000Y-30960000D01*
X110241492Y-30960000D01*
X110291060Y-31000679D01*
X110426875Y-31073274D01*
X110574243Y-31117977D01*
X110727500Y-31133072D01*
X111072500Y-31133072D01*
X111225757Y-31117977D01*
X111373125Y-31073274D01*
X111508940Y-31000679D01*
X111627983Y-30902983D01*
X111725679Y-30783940D01*
X111798274Y-30648125D01*
X111842977Y-30500757D01*
X111858072Y-30347500D01*
X111858072Y-30052500D01*
X111842977Y-29899243D01*
X111798274Y-29751875D01*
X111778564Y-29715000D01*
X111798274Y-29678125D01*
X111842977Y-29530757D01*
X111858072Y-29377500D01*
X111858072Y-29082500D01*
X111842977Y-28929243D01*
X111798274Y-28781875D01*
X111762528Y-28715000D01*
X111798274Y-28648125D01*
X111842977Y-28500757D01*
X111858072Y-28347500D01*
X111858072Y-28052500D01*
X111842977Y-27899243D01*
X111798274Y-27751875D01*
X111778564Y-27715000D01*
X111798274Y-27678125D01*
X111842977Y-27530757D01*
X111858072Y-27377500D01*
X111858072Y-27082500D01*
X111842977Y-26929243D01*
X111800154Y-26788072D01*
X111950000Y-26788072D01*
X111974450Y-26785664D01*
X111999009Y-26785664D01*
X112123490Y-26773404D01*
X112219623Y-26754282D01*
X112339319Y-26717973D01*
X112429875Y-26680464D01*
X112540192Y-26621498D01*
X112621691Y-26567042D01*
X112718382Y-26487690D01*
X112787690Y-26418382D01*
X112867042Y-26321691D01*
X112921498Y-26240192D01*
X112980464Y-26129875D01*
X113017973Y-26039319D01*
X113054282Y-25919623D01*
X113073404Y-25823490D01*
X113085664Y-25699009D01*
X113085664Y-25674450D01*
X113088072Y-25650000D01*
X113088072Y-25485000D01*
X113111928Y-25485000D01*
X113111928Y-25900000D01*
X113124188Y-26024482D01*
X113160498Y-26144180D01*
X113219463Y-26254494D01*
X113298815Y-26351185D01*
X113395506Y-26430537D01*
X113505820Y-26489502D01*
X113625518Y-26525812D01*
X113750000Y-26538072D01*
X115381797Y-26538072D01*
X114236865Y-27683004D01*
X114193551Y-27718551D01*
X114073363Y-27865000D01*
X113055751Y-27865000D01*
X113000000Y-27859509D01*
X112944248Y-27865000D01*
X112777501Y-27881423D01*
X112563553Y-27946324D01*
X112366377Y-28051716D01*
X112193551Y-28193551D01*
X112051716Y-28366377D01*
X111946324Y-28563553D01*
X111881423Y-28777501D01*
X111859509Y-29000000D01*
X111865000Y-29055751D01*
X111865001Y-31344239D01*
X111859509Y-31400000D01*
X111881423Y-31622498D01*
X111946324Y-31836446D01*
X111964408Y-31870279D01*
X112051717Y-32033623D01*
X112193552Y-32206449D01*
X112236860Y-32241991D01*
X112411928Y-32417059D01*
X112411928Y-33050000D01*
X112424188Y-33174482D01*
X112460498Y-33294180D01*
X112465000Y-33302603D01*
X112465001Y-34440018D01*
X112419463Y-34495506D01*
X112360498Y-34605820D01*
X112324188Y-34725518D01*
X112311928Y-34850000D01*
X112311928Y-36850000D01*
X112324188Y-36974482D01*
X112360498Y-37094180D01*
X112419463Y-37204494D01*
X112498815Y-37301185D01*
X112595506Y-37380537D01*
X112705820Y-37439502D01*
X112825518Y-37475812D01*
X112950000Y-37488072D01*
X114450000Y-37488072D01*
X114574482Y-37475812D01*
X114694180Y-37439502D01*
X114804494Y-37380537D01*
X114850000Y-37343191D01*
X114865000Y-37355502D01*
X114865000Y-37794248D01*
X114859509Y-37850000D01*
X114865000Y-37905751D01*
X114865001Y-37905758D01*
X114865000Y-40511928D01*
X114100000Y-40511928D01*
X113975518Y-40524188D01*
X113855820Y-40560498D01*
X113745506Y-40619463D01*
X113648815Y-40698815D01*
X113569463Y-40795506D01*
X113510498Y-40905820D01*
X113474188Y-41025518D01*
X113461928Y-41150000D01*
X113461928Y-43150000D01*
X113474188Y-43274482D01*
X113510498Y-43394180D01*
X113569463Y-43504494D01*
X113648815Y-43601185D01*
X113745506Y-43680537D01*
X113855820Y-43739502D01*
X113975518Y-43775812D01*
X114100000Y-43788072D01*
X117900000Y-43788072D01*
X118024482Y-43775812D01*
X118144180Y-43739502D01*
X118254494Y-43680537D01*
X118351185Y-43601185D01*
X118430537Y-43504494D01*
X118489502Y-43394180D01*
X118525812Y-43274482D01*
X118538072Y-43150000D01*
X118538072Y-41150000D01*
X118525812Y-41025518D01*
X118489502Y-40905820D01*
X118430537Y-40795506D01*
X118351185Y-40698815D01*
X118254494Y-40619463D01*
X118144180Y-40560498D01*
X118024482Y-40524188D01*
X117900000Y-40511928D01*
X117135000Y-40511928D01*
X117135000Y-40225000D01*
X119886928Y-40225000D01*
X119899188Y-40349482D01*
X119935498Y-40469180D01*
X119994463Y-40579494D01*
X120073815Y-40676185D01*
X120170506Y-40755537D01*
X120280820Y-40814502D01*
X120400518Y-40850812D01*
X120525000Y-40863072D01*
X120714250Y-40860000D01*
X120873000Y-40701250D01*
X120873000Y-39914500D01*
X121127000Y-39914500D01*
X121127000Y-40701250D01*
X121285750Y-40860000D01*
X121475000Y-40863072D01*
X121599482Y-40850812D01*
X121719180Y-40814502D01*
X121829494Y-40755537D01*
X121926185Y-40676185D01*
X122005537Y-40579494D01*
X122064502Y-40469180D01*
X122100812Y-40349482D01*
X122113072Y-40225000D01*
X122110000Y-40073250D01*
X121951250Y-39914500D01*
X121127000Y-39914500D01*
X120873000Y-39914500D01*
X120048750Y-39914500D01*
X119890000Y-40073250D01*
X119886928Y-40225000D01*
X117135000Y-40225000D01*
X117135000Y-39347500D01*
X119887174Y-39347500D01*
X119886928Y-39350000D01*
X119890000Y-39501750D01*
X120048750Y-39660500D01*
X120873000Y-39660500D01*
X120873000Y-39640500D01*
X121127000Y-39640500D01*
X121127000Y-39660500D01*
X121951250Y-39660500D01*
X122110000Y-39501750D01*
X122113072Y-39350000D01*
X122100812Y-39225518D01*
X122064502Y-39105820D01*
X122005537Y-38995506D01*
X121950900Y-38928930D01*
X121968671Y-38907275D01*
X122047850Y-38759142D01*
X122096608Y-38598408D01*
X122109878Y-38463674D01*
X122118577Y-38434999D01*
X122140491Y-38212500D01*
X122118577Y-37990001D01*
X122109878Y-37961326D01*
X122096608Y-37826592D01*
X122047850Y-37665858D01*
X121968671Y-37517725D01*
X121862115Y-37387885D01*
X121732275Y-37281329D01*
X121584142Y-37202150D01*
X121423408Y-37153392D01*
X121416200Y-37152682D01*
X121222499Y-37093923D01*
X121055752Y-37077500D01*
X119644562Y-37077500D01*
X119675812Y-36974482D01*
X119688072Y-36850000D01*
X119685000Y-36135750D01*
X119526250Y-35977000D01*
X118427000Y-35977000D01*
X118427000Y-35997000D01*
X118173000Y-35997000D01*
X118173000Y-35977000D01*
X118153000Y-35977000D01*
X118153000Y-35723000D01*
X118173000Y-35723000D01*
X118173000Y-34373750D01*
X118427000Y-34373750D01*
X118427000Y-35723000D01*
X119526250Y-35723000D01*
X119685000Y-35564250D01*
X119688072Y-34850000D01*
X119675812Y-34725518D01*
X119639502Y-34605820D01*
X119580537Y-34495506D01*
X119501185Y-34398815D01*
X119404494Y-34319463D01*
X119294180Y-34260498D01*
X119174482Y-34224188D01*
X119050000Y-34211928D01*
X118585750Y-34215000D01*
X118427000Y-34373750D01*
X118173000Y-34373750D01*
X118014250Y-34215000D01*
X117550000Y-34211928D01*
X117425518Y-34224188D01*
X117305820Y-34260498D01*
X117195506Y-34319463D01*
X117150000Y-34356809D01*
X117135000Y-34344499D01*
X117135000Y-33657454D01*
X117194180Y-33639502D01*
X117304494Y-33580537D01*
X117401185Y-33501185D01*
X117480537Y-33404494D01*
X117539502Y-33294180D01*
X117575812Y-33174482D01*
X117580327Y-33128640D01*
X117682499Y-33118577D01*
X117896447Y-33053676D01*
X118093623Y-32948284D01*
X118266449Y-32806449D01*
X118301996Y-32763135D01*
X118593367Y-32471764D01*
X118603175Y-32504099D01*
X118728359Y-32766920D01*
X118902412Y-33000269D01*
X119118645Y-33195178D01*
X119368748Y-33344157D01*
X119643109Y-33441481D01*
X119873000Y-33320814D01*
X119873000Y-32127000D01*
X120127000Y-32127000D01*
X120127000Y-33320814D01*
X120356891Y-33441481D01*
X120631252Y-33344157D01*
X120881355Y-33195178D01*
X121097588Y-33000269D01*
X121271641Y-32766920D01*
X121396825Y-32504099D01*
X121441476Y-32356890D01*
X121320155Y-32127000D01*
X120127000Y-32127000D01*
X119873000Y-32127000D01*
X119853000Y-32127000D01*
X119853000Y-31873000D01*
X119873000Y-31873000D01*
X119873000Y-31853000D01*
X120127000Y-31853000D01*
X120127000Y-31873000D01*
X121320155Y-31873000D01*
X121441476Y-31643110D01*
X121396825Y-31495901D01*
X121271641Y-31233080D01*
X121097588Y-30999731D01*
X121013534Y-30923966D01*
X121094180Y-30899502D01*
X121204494Y-30840537D01*
X121301185Y-30761185D01*
X121380537Y-30664494D01*
X121439502Y-30554180D01*
X121475812Y-30434482D01*
X121488072Y-30310000D01*
X121488072Y-28610000D01*
X121475812Y-28485518D01*
X121439502Y-28365820D01*
X121380537Y-28255506D01*
X121301185Y-28158815D01*
X121204494Y-28079463D01*
X121094180Y-28020498D01*
X120974482Y-27984188D01*
X120850000Y-27971928D01*
X119150000Y-27971928D01*
X119025518Y-27984188D01*
X118905820Y-28020498D01*
X118795506Y-28079463D01*
X118698815Y-28158815D01*
X118619463Y-28255506D01*
X118560498Y-28365820D01*
X118524188Y-28485518D01*
X118511928Y-28610000D01*
X118511928Y-29342940D01*
X116989869Y-30865000D01*
X116455741Y-30865000D01*
X116399999Y-30859510D01*
X116344257Y-30865000D01*
X116344248Y-30865000D01*
X116177501Y-30881423D01*
X115963553Y-30946324D01*
X115766377Y-31051716D01*
X115593551Y-31193551D01*
X115558004Y-31236865D01*
X115236860Y-31558009D01*
X115193552Y-31593551D01*
X115051717Y-31766377D01*
X115045771Y-31777502D01*
X114946324Y-31963554D01*
X114881423Y-32177502D01*
X114859509Y-32400000D01*
X114865001Y-32455761D01*
X114865000Y-34344498D01*
X114850000Y-34356809D01*
X114804494Y-34319463D01*
X114735000Y-34282317D01*
X114735000Y-33302603D01*
X114739502Y-33294180D01*
X114775812Y-33174482D01*
X114788072Y-33050000D01*
X114788072Y-31950000D01*
X114775812Y-31825518D01*
X114739502Y-31705820D01*
X114680537Y-31595506D01*
X114652484Y-31561324D01*
X114548284Y-31366377D01*
X114406449Y-31193551D01*
X114363135Y-31158004D01*
X114135000Y-30929869D01*
X114135000Y-30135000D01*
X114944249Y-30135000D01*
X115000000Y-30140491D01*
X115222499Y-30118577D01*
X115251174Y-30109878D01*
X115385908Y-30096608D01*
X115546642Y-30047850D01*
X115694775Y-29968671D01*
X115716430Y-29950900D01*
X115783006Y-30005537D01*
X115893320Y-30064502D01*
X116013018Y-30100812D01*
X116137500Y-30113072D01*
X116289250Y-30110000D01*
X116448000Y-29951250D01*
X116448000Y-29127000D01*
X116702000Y-29127000D01*
X116702000Y-29951250D01*
X116860750Y-30110000D01*
X117012500Y-30113072D01*
X117136982Y-30100812D01*
X117256680Y-30064502D01*
X117366994Y-30005537D01*
X117463685Y-29926185D01*
X117543037Y-29829494D01*
X117602002Y-29719180D01*
X117638312Y-29599482D01*
X117650572Y-29475000D01*
X117647500Y-29285750D01*
X117488750Y-29127000D01*
X116702000Y-29127000D01*
X116448000Y-29127000D01*
X116428000Y-29127000D01*
X116428000Y-28873000D01*
X116448000Y-28873000D01*
X116448000Y-28853000D01*
X116702000Y-28853000D01*
X116702000Y-28873000D01*
X117488750Y-28873000D01*
X117647500Y-28714250D01*
X117650572Y-28525000D01*
X117638312Y-28400518D01*
X117602002Y-28280820D01*
X117543037Y-28170506D01*
X117463685Y-28073815D01*
X117366994Y-27994463D01*
X117256680Y-27935498D01*
X117209074Y-27921057D01*
X118592060Y-26538072D01*
X120250000Y-26538072D01*
X120374482Y-26525812D01*
X120494180Y-26489502D01*
X120604494Y-26430537D01*
X120701185Y-26351185D01*
X120780537Y-26254494D01*
X120839502Y-26144180D01*
X120875812Y-26024482D01*
X120888072Y-25900000D01*
X120888072Y-24100000D01*
X120875812Y-23975518D01*
X120839502Y-23855820D01*
X120780537Y-23745506D01*
X120701185Y-23648815D01*
X120604494Y-23569463D01*
X120494180Y-23510498D01*
X120374482Y-23474188D01*
X120250000Y-23461928D01*
X117750000Y-23461928D01*
X117625518Y-23474188D01*
X117505820Y-23510498D01*
X117395506Y-23569463D01*
X117298815Y-23648815D01*
X117219463Y-23745506D01*
X117160498Y-23855820D01*
X117124188Y-23975518D01*
X117111928Y-24100000D01*
X117111928Y-24807940D01*
X116888072Y-25031796D01*
X116888072Y-24100000D01*
X116875812Y-23975518D01*
X116839502Y-23855820D01*
X116780537Y-23745506D01*
X116701185Y-23648815D01*
X116604494Y-23569463D01*
X116494180Y-23510498D01*
X116374482Y-23474188D01*
X116250000Y-23461928D01*
X115056991Y-23461928D01*
X114983623Y-23401716D01*
X114786447Y-23296324D01*
X114572499Y-23231423D01*
X114405752Y-23215000D01*
X114405751Y-23215000D01*
X114350000Y-23209509D01*
X114294249Y-23215000D01*
X112005751Y-23215000D01*
X111999009Y-23214336D01*
X111974450Y-23214336D01*
X111950000Y-23211928D01*
X111724561Y-23211928D01*
X111700000Y-23209509D01*
X111675439Y-23211928D01*
X111450000Y-23211928D01*
X111425550Y-23214336D01*
X111400991Y-23214336D01*
X111276510Y-23226596D01*
X111180377Y-23245718D01*
X111116812Y-23265000D01*
X109205751Y-23265000D01*
X109199009Y-23264336D01*
X109174450Y-23264336D01*
X109150000Y-23261928D01*
X108650000Y-23261928D01*
X108625550Y-23264336D01*
X108600991Y-23264336D01*
X108594249Y-23265000D01*
X108015775Y-23265000D01*
X107960033Y-23259510D01*
X107904291Y-23265000D01*
X107904282Y-23265000D01*
X107737535Y-23281423D01*
X107523587Y-23346324D01*
X107326411Y-23451716D01*
X107153585Y-23593551D01*
X107118045Y-23636857D01*
X102236865Y-28518038D01*
X102193551Y-28553585D01*
X102051716Y-28726411D01*
X101955968Y-28905546D01*
X101946324Y-28923588D01*
X101881423Y-29137536D01*
X101859509Y-29360034D01*
X101865000Y-29415786D01*
X101865000Y-30611928D01*
X101250000Y-30611928D01*
X101125518Y-30624188D01*
X101005820Y-30660498D01*
X100895506Y-30719463D01*
X100798815Y-30798815D01*
X100719463Y-30895506D01*
X100660498Y-31005820D01*
X100624188Y-31125518D01*
X100611928Y-31250000D01*
X95758834Y-31250000D01*
X95413669Y-31019369D01*
X95006925Y-30850890D01*
X94575128Y-30765000D01*
X94134872Y-30765000D01*
X93703075Y-30850890D01*
X93296331Y-31019369D01*
X92930271Y-31263962D01*
X92618962Y-31575271D01*
X92374369Y-31941331D01*
X92205890Y-32348075D01*
X92120000Y-32779872D01*
X40980000Y-32779872D01*
X40894110Y-32348075D01*
X40725631Y-31941331D01*
X40481038Y-31575271D01*
X40169729Y-31263962D01*
X39803669Y-31019369D01*
X39396925Y-30850890D01*
X38965128Y-30765000D01*
X38524872Y-30765000D01*
X38093075Y-30850890D01*
X37686331Y-31019369D01*
X37320271Y-31263962D01*
X37008962Y-31575271D01*
X36764369Y-31941331D01*
X36595890Y-32348075D01*
X36510000Y-32779872D01*
X33385000Y-32779872D01*
X33385000Y-32765098D01*
X33293346Y-32304321D01*
X33113560Y-31870279D01*
X32852550Y-31479651D01*
X32520349Y-31147450D01*
X32129721Y-30886440D01*
X31695679Y-30706654D01*
X31234902Y-30615000D01*
X30765098Y-30615000D01*
X30304321Y-30706654D01*
X29870279Y-30886440D01*
X29479651Y-31147450D01*
X29147450Y-31479651D01*
X28886440Y-31870279D01*
X28706654Y-32304321D01*
X28615000Y-32765098D01*
X28615000Y-33234902D01*
X28706654Y-33695679D01*
X28886440Y-34129721D01*
X29147450Y-34520349D01*
X29479651Y-34852550D01*
X29865000Y-35110033D01*
X29865001Y-51611928D01*
X29250000Y-51611928D01*
X29125518Y-51624188D01*
X29005820Y-51660498D01*
X28895506Y-51719463D01*
X28798815Y-51798815D01*
X28719463Y-51895506D01*
X28660498Y-52005820D01*
X28624188Y-52125518D01*
X28611928Y-52250000D01*
X27660000Y-52250000D01*
X27660000Y-22660000D01*
X122340000Y-22660000D01*
X122340001Y-64873000D01*
M02*
