M48
; DRILL file {KiCad 5.1.5-1.fc30} date Tue 13 Oct 2020 00:09:31 CEST
; FORMAT={-:-/ absolute / inch / decimal}
; #@! TF.CreationDate,2020-10-13T00:09:31+02:00
; #@! TF.GenerationSoftware,Kicad,Pcbnew,5.1.5-1.fc30
; #@! TF.FileFunction,Plated,1,2,PTH
FMAT,2
INCH
T1C0.0157
T2C0.0315
T3C0.0394
T4C0.0400
T5C0.0787
%
G90
G05
T1
X1.3583Y-4.0276
X1.4252Y-4.0945
X1.8307Y-2.9252
X2.126Y-3.622
X2.1811Y-3.063
X2.3917Y-3.5039
X2.3937Y-3.0945
X2.4567Y-3.2205
X2.4685Y-3.0236
X2.5039Y-3.1142
X2.5591Y-3.1102
X2.5984Y-3.126
X2.5984Y-3.2205
X2.6181Y-2.7992
X2.6575Y-2.997
X2.7953Y-2.9724
X2.81Y-3.0276
X2.9401Y-2.841
X2.9843Y-3.0571
X2.9961Y-3.0
X3.0236Y-2.6693
X3.2638Y-3.189
X3.2776Y-4.1535
X3.3071Y-3.0748
X3.3701Y-3.0787
X3.4016Y-2.937
X3.4173Y-2.7756
X3.4744Y-3.9567
X3.5475Y-2.7876
X3.5531Y-4.2224
X3.7598Y-3.937
X3.8228Y-2.8622
X3.8268Y-2.7874
X4.1043Y-3.9961
X4.2047Y-3.4425
X4.2126Y-1.1417
X4.252Y-1.6339
X4.7598Y-2.685
T2
X4.4252Y-2.1339
X4.622Y-2.1339
X2.2835Y-4.052
X2.2835Y-4.152
X2.2835Y-4.252
X3.5039Y-3.189
X3.5039Y-3.289
X3.5039Y-3.389
T3
X2.0079Y-2.7953
X2.0079Y-2.8953
X2.0079Y-2.9953
X2.0079Y-3.0953
X2.0079Y-3.1953
X2.0079Y-3.2953
X4.7244Y-1.1598
X4.7244Y-1.2598
X4.7244Y-3.9551
X4.7244Y-4.0551
X4.7244Y-4.1551
X4.7244Y-4.2551
X1.9291Y-4.0551
X1.9291Y-4.1551
X1.9291Y-4.2551
X4.3307Y-3.8976
X4.3307Y-3.9976
X4.3307Y-4.2976
X4.5307Y-3.8976
X4.5307Y-3.9976
X4.5307Y-4.2976
X2.2835Y-2.7433
X2.2835Y-2.8433
X2.2835Y-2.9433
X2.2835Y-3.0433
X2.2835Y-3.1433
X2.2835Y-3.2433
X2.2835Y-3.3433
X2.2835Y-3.4433
X2.2835Y-3.5433
X4.4882Y-2.7709
X4.4882Y-2.8709
X4.4882Y-2.9709
X4.4882Y-3.0709
X4.5882Y-2.7709
X4.5882Y-2.8709
X4.5882Y-2.9709
X4.5882Y-3.0709
X3.9764Y-3.8976
X3.9764Y-3.9976
X3.9764Y-4.2976
X4.1764Y-3.8976
X4.1764Y-3.9976
X4.1764Y-4.2976
X1.4173Y-3.8583
X1.5173Y-3.8583
X1.6173Y-3.8583
X1.7173Y-3.8583
X1.8173Y-3.8583
X1.9173Y-3.8583
X2.0173Y-3.8583
X2.1173Y-3.8583
X2.2173Y-3.8583
X2.3173Y-3.8583
X4.4094Y-3.3071
X4.4094Y-3.4071
X4.5094Y-3.3071
X4.5094Y-3.4071
X4.6094Y-3.3071
X4.6094Y-3.4071
X4.7094Y-3.3071
X4.7094Y-3.4071
X2.589Y-3.3071
X2.589Y-3.4071
X2.689Y-3.3071
X2.689Y-3.4071
X2.789Y-3.3071
X2.789Y-3.4071
X2.889Y-3.3071
X2.889Y-3.4071
X2.989Y-3.3071
X2.989Y-3.4071
X3.089Y-3.3071
X3.089Y-3.4071
X3.189Y-3.3071
X3.189Y-3.4071
X3.8976Y-3.0709
X3.8976Y-3.1709
X3.8976Y-3.2709
X3.9976Y-3.0709
X3.9976Y-3.1709
X3.9976Y-3.2709
T4
X1.5035Y-3.5138
X1.6035Y-3.5138
X1.7035Y-3.5138
X1.8035Y-3.5138
T5
X1.2205Y-1.2992
X4.0551Y-1.2992
X1.2205Y-2.126
X4.0551Y-2.126
T0
M30
