G04 #@! TF.GenerationSoftware,KiCad,Pcbnew,5.1.5-1.fc30*
G04 #@! TF.CreationDate,2020-10-13T00:09:33+02:00*
G04 #@! TF.ProjectId,BeaconTemperature2,42656163-6f6e-4546-956d-706572617475,rev?*
G04 #@! TF.SameCoordinates,Original*
G04 #@! TF.FileFunction,Other,Fab,Top*
%FSLAX46Y46*%
G04 Gerber Fmt 4.6, Leading zero omitted, Abs format (unit mm)*
G04 Created by KiCad (PCBNEW 5.1.5-1.fc30) date 2020-10-13 00:09:33*
%MOMM*%
%LPD*%
G04 APERTURE LIST*
%ADD10C,0.100000*%
%ADD11C,0.120000*%
%ADD12C,0.150000*%
%ADD13C,0.060000*%
%ADD14C,0.040000*%
%ADD15C,0.075000*%
G04 APERTURE END LIST*
D10*
X53587500Y-108900000D02*
X51987500Y-108900000D01*
X53587500Y-108100000D02*
X53587500Y-108900000D01*
X51987500Y-108100000D02*
X53587500Y-108100000D01*
X51987500Y-108900000D02*
X51987500Y-108100000D01*
X60130000Y-99270000D02*
X34730000Y-99270000D01*
X60130000Y-96730000D02*
X60130000Y-99270000D01*
X35365000Y-96730000D02*
X60130000Y-96730000D01*
X34730000Y-97365000D02*
X35365000Y-96730000D01*
X34730000Y-99270000D02*
X34730000Y-97365000D01*
X68985000Y-68250000D02*
X67985000Y-68250000D01*
X68985000Y-67750000D02*
X68985000Y-68250000D01*
X67985000Y-67750000D02*
X68985000Y-67750000D01*
X67985000Y-68250000D02*
X67985000Y-67750000D01*
X65587500Y-68400000D02*
X65587500Y-67600000D01*
X63987500Y-68400000D02*
X65587500Y-68400000D01*
X63987500Y-67900000D02*
X63987500Y-68400000D01*
X64287500Y-67600000D02*
X63987500Y-67900000D01*
X65587500Y-67600000D02*
X64287500Y-67600000D01*
X91235000Y-80045000D02*
X89066000Y-80044000D01*
X91235000Y-80045000D02*
X89066000Y-80044000D01*
X86590000Y-78775000D02*
X86590000Y-88305000D01*
X91420000Y-78775000D02*
X86590000Y-78775000D01*
X91420000Y-88305000D02*
X91420000Y-78775000D01*
X86590000Y-88305000D02*
X91420000Y-88305000D01*
X91245000Y-80045000D02*
G75*
G03X91245000Y-80045000I-1095000J0D01*
G01*
X59270000Y-90635000D02*
X58635000Y-91270000D01*
X59270000Y-68410000D02*
X59270000Y-90635000D01*
X56730000Y-68410000D02*
X59270000Y-68410000D01*
X56730000Y-91270000D02*
X56730000Y-68410000D01*
X58635000Y-91270000D02*
X56730000Y-91270000D01*
X45500000Y-102250000D02*
X44500000Y-102250000D01*
X45500000Y-101750000D02*
X45500000Y-102250000D01*
X44500000Y-101750000D02*
X45500000Y-101750000D01*
X44500000Y-102250000D02*
X44500000Y-101750000D01*
X41500000Y-102250000D02*
X40500000Y-102250000D01*
X41500000Y-101750000D02*
X41500000Y-102250000D01*
X40500000Y-101750000D02*
X41500000Y-101750000D01*
X40500000Y-102250000D02*
X40500000Y-101750000D01*
X117810000Y-69110000D02*
X117810000Y-79270000D01*
X112730000Y-69110000D02*
X117810000Y-69110000D01*
X112730000Y-78270000D02*
X112730000Y-69110000D01*
X113730000Y-79270000D02*
X112730000Y-78270000D01*
X117810000Y-79270000D02*
X113730000Y-79270000D01*
X28200000Y-44150000D02*
X105800000Y-44150000D01*
X105800000Y-44150000D02*
X105800000Y-63850000D01*
X105800000Y-63850000D02*
X28200000Y-63850000D01*
X28200000Y-63850000D02*
X28200000Y-44150000D01*
X118730000Y-28825000D02*
X119365000Y-28190000D01*
X118730000Y-33270000D02*
X118730000Y-28825000D01*
X121270000Y-33270000D02*
X118730000Y-33270000D01*
X121270000Y-28190000D02*
X121270000Y-33270000D01*
X119365000Y-28190000D02*
X121270000Y-28190000D01*
X111873241Y-52052500D02*
X111873241Y-52852500D01*
X111473241Y-52452500D02*
X112273241Y-52452500D01*
X118900000Y-54200000D02*
G75*
G03X118900000Y-54200000I-4000000J0D01*
G01*
X119350000Y-40850000D02*
X112650000Y-40850000D01*
X112650000Y-37150000D02*
X112650000Y-40850000D01*
X119350000Y-38150000D02*
X119350000Y-40850000D01*
X118350000Y-37150000D02*
X112650000Y-37150000D01*
X118350000Y-37150000D02*
X119350000Y-38150000D01*
D11*
X109900000Y-97900000D02*
X116200000Y-97900000D01*
X116200000Y-97900000D02*
X116200000Y-110200000D01*
X116200000Y-110200000D02*
X108800000Y-110200000D01*
X108800000Y-110200000D02*
X108800000Y-98900000D01*
X108800000Y-98900000D02*
X109900000Y-97900000D01*
X100900000Y-97900000D02*
X107200000Y-97900000D01*
X107200000Y-97900000D02*
X107200000Y-110200000D01*
X107200000Y-110200000D02*
X99800000Y-110200000D01*
X99800000Y-110200000D02*
X99800000Y-98900000D01*
X99800000Y-98900000D02*
X100900000Y-97900000D01*
D10*
X118730000Y-99825000D02*
X119365000Y-99190000D01*
X118730000Y-109350000D02*
X118730000Y-99825000D01*
X121270000Y-109350000D02*
X118730000Y-109350000D01*
X121270000Y-99190000D02*
X121270000Y-109350000D01*
X119365000Y-99190000D02*
X121270000Y-99190000D01*
X84750000Y-105500000D02*
X84750000Y-104500000D01*
X85250000Y-105500000D02*
X84750000Y-105500000D01*
X85250000Y-104500000D02*
X85250000Y-105500000D01*
X84750000Y-104500000D02*
X85250000Y-104500000D01*
X91750000Y-105500000D02*
X91750000Y-104500000D01*
X92250000Y-105500000D02*
X91750000Y-105500000D01*
X92250000Y-104500000D02*
X92250000Y-105500000D01*
X91750000Y-104500000D02*
X92250000Y-104500000D01*
X86750000Y-101500000D02*
X86750000Y-100500000D01*
X87250000Y-101500000D02*
X86750000Y-101500000D01*
X87250000Y-100500000D02*
X87250000Y-101500000D01*
X86750000Y-100500000D02*
X87250000Y-100500000D01*
X93750000Y-101015000D02*
X93750000Y-100015000D01*
X94250000Y-101015000D02*
X93750000Y-101015000D01*
X94250000Y-100015000D02*
X94250000Y-101015000D01*
X93750000Y-100015000D02*
X94250000Y-100015000D01*
X87300000Y-106520000D02*
X88700000Y-106520000D01*
X88700000Y-103480000D02*
X88700000Y-106520000D01*
X87300000Y-104050000D02*
X87850000Y-103480000D01*
X87850000Y-103480000D02*
X88700000Y-103480000D01*
X87300000Y-104050000D02*
X87300000Y-106500000D01*
X94300000Y-106520000D02*
X95700000Y-106520000D01*
X95700000Y-103480000D02*
X95700000Y-106520000D01*
X94300000Y-104050000D02*
X94850000Y-103480000D01*
X94850000Y-103480000D02*
X95700000Y-103480000D01*
X94300000Y-104050000D02*
X94300000Y-106500000D01*
X93600000Y-108100000D02*
X96400000Y-108100000D01*
X96400000Y-108100000D02*
X96400000Y-109900000D01*
X96400000Y-109900000D02*
X93600000Y-109900000D01*
X93600000Y-109900000D02*
X93600000Y-108100000D01*
X94250000Y-109000000D02*
X94650000Y-109000000D01*
X94650000Y-109000000D02*
X94650000Y-108450000D01*
X94650000Y-109000000D02*
X94650000Y-109550000D01*
X94650000Y-109000000D02*
X95250000Y-108600000D01*
X95250000Y-108600000D02*
X95250000Y-109400000D01*
X95250000Y-109400000D02*
X94650000Y-109000000D01*
X95250000Y-109000000D02*
X95750000Y-109000000D01*
X86600000Y-108100000D02*
X89400000Y-108100000D01*
X89400000Y-108100000D02*
X89400000Y-109900000D01*
X89400000Y-109900000D02*
X86600000Y-109900000D01*
X86600000Y-109900000D02*
X86600000Y-108100000D01*
X87250000Y-109000000D02*
X87650000Y-109000000D01*
X87650000Y-109000000D02*
X87650000Y-108450000D01*
X87650000Y-109000000D02*
X87650000Y-109550000D01*
X87650000Y-109000000D02*
X88250000Y-108600000D01*
X88250000Y-108600000D02*
X88250000Y-109400000D01*
X88250000Y-109400000D02*
X87650000Y-109000000D01*
X88250000Y-109000000D02*
X88750000Y-109000000D01*
X55765000Y-108955000D02*
X57934000Y-108956000D01*
X55765000Y-108955000D02*
X57934000Y-108956000D01*
X60410000Y-110225000D02*
X60410000Y-100695000D01*
X55580000Y-110225000D02*
X60410000Y-110225000D01*
X55580000Y-100695000D02*
X55580000Y-110225000D01*
X60410000Y-100695000D02*
X55580000Y-100695000D01*
X57945000Y-108955000D02*
G75*
G03X57945000Y-108955000I-1095000J0D01*
G01*
X47730000Y-102365000D02*
X48365000Y-101730000D01*
X47730000Y-109350000D02*
X47730000Y-102365000D01*
X50270000Y-109350000D02*
X47730000Y-109350000D01*
X50270000Y-101730000D02*
X50270000Y-109350000D01*
X48365000Y-101730000D02*
X50270000Y-101730000D01*
X49730000Y-70365000D02*
X50365000Y-69730000D01*
X49730000Y-84970000D02*
X49730000Y-70365000D01*
X52270000Y-84970000D02*
X49730000Y-84970000D01*
X52270000Y-69730000D02*
X52270000Y-84970000D01*
X50365000Y-69730000D02*
X52270000Y-69730000D01*
X53001020Y-104649440D02*
X52200920Y-103498820D01*
X53001020Y-104649440D02*
X53750320Y-103498820D01*
X53750320Y-103498820D02*
X52200920Y-103498820D01*
X52200920Y-104649440D02*
X53801120Y-104649440D01*
X53001020Y-103498820D02*
X53001020Y-102500600D01*
X53001020Y-104649440D02*
X53001020Y-105551140D01*
X51500000Y-101700000D02*
X51500000Y-106300000D01*
X51500000Y-101700000D02*
X54500000Y-101700000D01*
X54500000Y-106300000D02*
X51500000Y-106300000D01*
X54500000Y-101700000D02*
X54500000Y-106300000D01*
X81000000Y-82730000D02*
X82270000Y-84000000D01*
X64490000Y-82730000D02*
X81000000Y-82730000D01*
X64490000Y-87810000D02*
X64490000Y-82730000D01*
X82270000Y-87810000D02*
X64490000Y-87810000D01*
X82270000Y-84000000D02*
X82270000Y-87810000D01*
X120890000Y-87810000D02*
X110730000Y-87810000D01*
X120890000Y-82730000D02*
X120890000Y-87810000D01*
X111730000Y-82730000D02*
X120890000Y-82730000D01*
X110730000Y-83730000D02*
X111730000Y-82730000D01*
X110730000Y-87810000D02*
X110730000Y-83730000D01*
X120600000Y-39800000D02*
X120600000Y-38200000D01*
X121400000Y-39800000D02*
X120600000Y-39800000D01*
X121400000Y-38200000D02*
X121400000Y-39800000D01*
X120600000Y-38200000D02*
X121400000Y-38200000D01*
X43600000Y-69612500D02*
X43600000Y-71212500D01*
X42800000Y-69612500D02*
X43600000Y-69612500D01*
X42800000Y-71212500D02*
X42800000Y-69612500D01*
X43600000Y-71212500D02*
X42800000Y-71212500D01*
X63750000Y-76985000D02*
X63750000Y-75985000D01*
X64250000Y-76985000D02*
X63750000Y-76985000D01*
X64250000Y-75985000D02*
X64250000Y-76985000D01*
X63750000Y-75985000D02*
X64250000Y-75985000D01*
X110150000Y-40200000D02*
X110150000Y-39200000D01*
X110650000Y-40200000D02*
X110150000Y-40200000D01*
X110650000Y-39200000D02*
X110650000Y-40200000D01*
X110150000Y-39200000D02*
X110650000Y-39200000D01*
X108650000Y-40200000D02*
X108650000Y-39200000D01*
X109150000Y-40200000D02*
X108650000Y-40200000D01*
X109150000Y-39200000D02*
X109150000Y-40200000D01*
X108650000Y-39200000D02*
X109150000Y-39200000D01*
X110650000Y-30215000D02*
X110650000Y-29215000D01*
X111150000Y-30215000D02*
X110650000Y-30215000D01*
X111150000Y-29215000D02*
X111150000Y-30215000D01*
X110650000Y-29215000D02*
X111150000Y-29215000D01*
X108650000Y-30215000D02*
X108650000Y-29215000D01*
X109150000Y-30215000D02*
X108650000Y-30215000D01*
X109150000Y-29215000D02*
X109150000Y-30215000D01*
X108650000Y-29215000D02*
X109150000Y-29215000D01*
X108650000Y-28215000D02*
X108650000Y-27215000D01*
X109150000Y-28215000D02*
X108650000Y-28215000D01*
X109150000Y-27215000D02*
X109150000Y-28215000D01*
X108650000Y-27215000D02*
X109150000Y-27215000D01*
X110650000Y-28215000D02*
X110650000Y-27215000D01*
X111150000Y-28215000D02*
X110650000Y-28215000D01*
X111150000Y-27215000D02*
X111150000Y-28215000D01*
X110650000Y-27215000D02*
X111150000Y-27215000D01*
X111270000Y-36450000D02*
X111270000Y-35050000D01*
X108230000Y-35050000D02*
X111270000Y-35050000D01*
X108800000Y-36450000D02*
X108230000Y-35900000D01*
X108230000Y-35900000D02*
X108230000Y-35050000D01*
X108800000Y-36450000D02*
X111250000Y-36450000D01*
X113600000Y-31600000D02*
X116400000Y-31600000D01*
X116400000Y-31600000D02*
X116400000Y-33400000D01*
X116400000Y-33400000D02*
X113600000Y-33400000D01*
X113600000Y-33400000D02*
X113600000Y-31600000D01*
X114250000Y-32500000D02*
X114650000Y-32500000D01*
X114650000Y-32500000D02*
X114650000Y-31950000D01*
X114650000Y-32500000D02*
X114650000Y-33050000D01*
X114650000Y-32500000D02*
X115250000Y-32100000D01*
X115250000Y-32100000D02*
X115250000Y-32900000D01*
X115250000Y-32900000D02*
X114650000Y-32500000D01*
X115250000Y-32500000D02*
X115750000Y-32500000D01*
X117649440Y-24998980D02*
X116498820Y-25799080D01*
X117649440Y-24998980D02*
X116498820Y-24249680D01*
X116498820Y-24249680D02*
X116498820Y-25799080D01*
X117649440Y-25799080D02*
X117649440Y-24198880D01*
X116498820Y-24998980D02*
X115500600Y-24998980D01*
X117649440Y-24998980D02*
X118551140Y-24998980D01*
X114700000Y-26500000D02*
X119300000Y-26500000D01*
X114700000Y-26500000D02*
X114700000Y-23500000D01*
X119300000Y-23500000D02*
X119300000Y-26500000D01*
X114700000Y-23500000D02*
X119300000Y-23500000D01*
X42300000Y-75600000D02*
X42300000Y-72800000D01*
X42300000Y-72800000D02*
X44100000Y-72800000D01*
X44100000Y-72800000D02*
X44100000Y-75600000D01*
X44100000Y-75600000D02*
X42300000Y-75600000D01*
X43200000Y-74950000D02*
X43200000Y-74550000D01*
X43200000Y-74550000D02*
X42650000Y-74550000D01*
X43200000Y-74550000D02*
X43750000Y-74550000D01*
X43200000Y-74550000D02*
X42800000Y-73950000D01*
X42800000Y-73950000D02*
X43600000Y-73950000D01*
X43600000Y-73950000D02*
X43200000Y-74550000D01*
X43200000Y-73950000D02*
X43200000Y-73450000D01*
X116587500Y-29400000D02*
X114987500Y-29400000D01*
X116587500Y-28600000D02*
X116587500Y-29400000D01*
X114987500Y-28600000D02*
X116587500Y-28600000D01*
X114987500Y-29400000D02*
X114987500Y-28600000D01*
X97730000Y-78000000D02*
X99000000Y-76730000D01*
X97730000Y-84350000D02*
X97730000Y-78000000D01*
X102810000Y-84350000D02*
X97730000Y-84350000D01*
X102810000Y-76730000D02*
X102810000Y-84350000D01*
X99000000Y-76730000D02*
X102810000Y-76730000D01*
D12*
X71000000Y-78500000D02*
X70000000Y-77500000D01*
X77000000Y-78500000D02*
X71000000Y-78500000D01*
X77000000Y-71500000D02*
X77000000Y-78500000D01*
X70000000Y-71500000D02*
X77000000Y-71500000D01*
X70000000Y-77500000D02*
X70000000Y-71500000D01*
D10*
X38200000Y-69350000D02*
X38200000Y-76050000D01*
X34500000Y-76050000D02*
X38200000Y-76050000D01*
X35500000Y-69350000D02*
X38200000Y-69350000D01*
X34500000Y-70350000D02*
X34500000Y-76050000D01*
X34500000Y-70350000D02*
X35500000Y-69350000D01*
X65300000Y-77400000D02*
X65300000Y-75600000D01*
X65300000Y-75600000D02*
X66700000Y-75600000D01*
X66700000Y-75600000D02*
X66700000Y-77400000D01*
X66700000Y-77400000D02*
X65300000Y-77400000D01*
X65650000Y-76800000D02*
X66350000Y-76800000D01*
X66000000Y-76800000D02*
X66000000Y-77000000D01*
X66000000Y-76800000D02*
X65650000Y-76300000D01*
X65650000Y-76300000D02*
X66350000Y-76300000D01*
X66350000Y-76300000D02*
X66000000Y-76800000D01*
X66000000Y-76300000D02*
X66000000Y-76050000D01*
X73412500Y-67600000D02*
X75012500Y-67600000D01*
X73412500Y-68400000D02*
X73412500Y-67600000D01*
X75012500Y-68400000D02*
X73412500Y-68400000D01*
X75012500Y-67600000D02*
X75012500Y-68400000D01*
X107600000Y-86012500D02*
X107600000Y-84412500D01*
X108400000Y-86012500D02*
X107600000Y-86012500D01*
X108400000Y-84412500D02*
X108400000Y-86012500D01*
X107600000Y-84412500D02*
X108400000Y-84412500D01*
X30600000Y-71687500D02*
X30600000Y-73287500D01*
X29800000Y-71687500D02*
X30600000Y-71687500D01*
X29800000Y-73287500D02*
X29800000Y-71687500D01*
X30600000Y-73287500D02*
X29800000Y-73287500D01*
X105800000Y-42850000D02*
X28200000Y-42850000D01*
X28200000Y-42850000D02*
X28200000Y-23150000D01*
X28200000Y-23150000D02*
X105800000Y-23150000D01*
X105800000Y-23150000D02*
X105800000Y-42850000D01*
D13*
X52720833Y-108642857D02*
X52701785Y-108661904D01*
X52644642Y-108680952D01*
X52606547Y-108680952D01*
X52549404Y-108661904D01*
X52511309Y-108623809D01*
X52492261Y-108585714D01*
X52473214Y-108509523D01*
X52473214Y-108452380D01*
X52492261Y-108376190D01*
X52511309Y-108338095D01*
X52549404Y-108300000D01*
X52606547Y-108280952D01*
X52644642Y-108280952D01*
X52701785Y-108300000D01*
X52720833Y-108319047D01*
X52911309Y-108680952D02*
X52987500Y-108680952D01*
X53025595Y-108661904D01*
X53044642Y-108642857D01*
X53082738Y-108585714D01*
X53101785Y-108509523D01*
X53101785Y-108357142D01*
X53082738Y-108319047D01*
X53063690Y-108300000D01*
X53025595Y-108280952D01*
X52949404Y-108280952D01*
X52911309Y-108300000D01*
X52892261Y-108319047D01*
X52873214Y-108357142D01*
X52873214Y-108452380D01*
X52892261Y-108490476D01*
X52911309Y-108509523D01*
X52949404Y-108528571D01*
X53025595Y-108528571D01*
X53063690Y-108509523D01*
X53082738Y-108490476D01*
X53101785Y-108452380D01*
D12*
X44310952Y-98166666D02*
X44787142Y-98166666D01*
X44215714Y-98452380D02*
X44549047Y-97452380D01*
X44882380Y-98452380D01*
X45215714Y-98452380D02*
X45215714Y-97452380D01*
X45453809Y-97452380D01*
X45596666Y-97500000D01*
X45691904Y-97595238D01*
X45739523Y-97690476D01*
X45787142Y-97880952D01*
X45787142Y-98023809D01*
X45739523Y-98214285D01*
X45691904Y-98309523D01*
X45596666Y-98404761D01*
X45453809Y-98452380D01*
X45215714Y-98452380D01*
X46168095Y-98404761D02*
X46310952Y-98452380D01*
X46549047Y-98452380D01*
X46644285Y-98404761D01*
X46691904Y-98357142D01*
X46739523Y-98261904D01*
X46739523Y-98166666D01*
X46691904Y-98071428D01*
X46644285Y-98023809D01*
X46549047Y-97976190D01*
X46358571Y-97928571D01*
X46263333Y-97880952D01*
X46215714Y-97833333D01*
X46168095Y-97738095D01*
X46168095Y-97642857D01*
X46215714Y-97547619D01*
X46263333Y-97500000D01*
X46358571Y-97452380D01*
X46596666Y-97452380D01*
X46739523Y-97500000D01*
X47691904Y-98452380D02*
X47120476Y-98452380D01*
X47406190Y-98452380D02*
X47406190Y-97452380D01*
X47310952Y-97595238D01*
X47215714Y-97690476D01*
X47120476Y-97738095D01*
X48644285Y-98452380D02*
X48072857Y-98452380D01*
X48358571Y-98452380D02*
X48358571Y-97452380D01*
X48263333Y-97595238D01*
X48168095Y-97690476D01*
X48072857Y-97738095D01*
X49596666Y-98452380D02*
X49025238Y-98452380D01*
X49310952Y-98452380D02*
X49310952Y-97452380D01*
X49215714Y-97595238D01*
X49120476Y-97690476D01*
X49025238Y-97738095D01*
X50501428Y-97452380D02*
X50025238Y-97452380D01*
X49977619Y-97928571D01*
X50025238Y-97880952D01*
X50120476Y-97833333D01*
X50358571Y-97833333D01*
X50453809Y-97880952D01*
X50501428Y-97928571D01*
X50549047Y-98023809D01*
X50549047Y-98261904D01*
X50501428Y-98357142D01*
X50453809Y-98404761D01*
X50358571Y-98452380D01*
X50120476Y-98452380D01*
X50025238Y-98404761D01*
X49977619Y-98357142D01*
D14*
X68443333Y-68113095D02*
X68360000Y-67994047D01*
X68300476Y-68113095D02*
X68300476Y-67863095D01*
X68395714Y-67863095D01*
X68419523Y-67875000D01*
X68431428Y-67886904D01*
X68443333Y-67910714D01*
X68443333Y-67946428D01*
X68431428Y-67970238D01*
X68419523Y-67982142D01*
X68395714Y-67994047D01*
X68300476Y-67994047D01*
X68526666Y-67863095D02*
X68693333Y-67863095D01*
X68586190Y-68113095D01*
D13*
X65182261Y-68510952D02*
X65182261Y-68110952D01*
X65277500Y-68110952D01*
X65334642Y-68130000D01*
X65372738Y-68168095D01*
X65391785Y-68206190D01*
X65410833Y-68282380D01*
X65410833Y-68339523D01*
X65391785Y-68415714D01*
X65372738Y-68453809D01*
X65334642Y-68491904D01*
X65277500Y-68510952D01*
X65182261Y-68510952D01*
X65753690Y-68244285D02*
X65753690Y-68510952D01*
X65658452Y-68091904D02*
X65563214Y-68377619D01*
X65810833Y-68377619D01*
D12*
X88457380Y-86151190D02*
X88457380Y-85579761D01*
X89457380Y-85865476D02*
X88457380Y-85865476D01*
X89457380Y-85246428D02*
X88790714Y-85246428D01*
X88981190Y-85246428D02*
X88885952Y-85198809D01*
X88838333Y-85151190D01*
X88790714Y-85055952D01*
X88790714Y-84960714D01*
X89457380Y-84627380D02*
X88790714Y-84627380D01*
X88457380Y-84627380D02*
X88505000Y-84675000D01*
X88552619Y-84627380D01*
X88505000Y-84579761D01*
X88457380Y-84627380D01*
X88552619Y-84627380D01*
X89457380Y-84151190D02*
X88790714Y-84151190D01*
X88885952Y-84151190D02*
X88838333Y-84103571D01*
X88790714Y-84008333D01*
X88790714Y-83865476D01*
X88838333Y-83770238D01*
X88933571Y-83722619D01*
X89457380Y-83722619D01*
X88933571Y-83722619D02*
X88838333Y-83675000D01*
X88790714Y-83579761D01*
X88790714Y-83436904D01*
X88838333Y-83341666D01*
X88933571Y-83294047D01*
X89457380Y-83294047D01*
X89457380Y-82294047D02*
X89457380Y-82865476D01*
X89457380Y-82579761D02*
X88457380Y-82579761D01*
X88600238Y-82675000D01*
X88695476Y-82770238D01*
X88743095Y-82865476D01*
X58404761Y-82816190D02*
X58452380Y-82673333D01*
X58452380Y-82435238D01*
X58404761Y-82340000D01*
X58357142Y-82292380D01*
X58261904Y-82244761D01*
X58166666Y-82244761D01*
X58071428Y-82292380D01*
X58023809Y-82340000D01*
X57976190Y-82435238D01*
X57928571Y-82625714D01*
X57880952Y-82720952D01*
X57833333Y-82768571D01*
X57738095Y-82816190D01*
X57642857Y-82816190D01*
X57547619Y-82768571D01*
X57500000Y-82720952D01*
X57452380Y-82625714D01*
X57452380Y-82387619D01*
X57500000Y-82244761D01*
X58404761Y-81435238D02*
X58452380Y-81530476D01*
X58452380Y-81720952D01*
X58404761Y-81816190D01*
X58309523Y-81863809D01*
X57928571Y-81863809D01*
X57833333Y-81816190D01*
X57785714Y-81720952D01*
X57785714Y-81530476D01*
X57833333Y-81435238D01*
X57928571Y-81387619D01*
X58023809Y-81387619D01*
X58119047Y-81863809D01*
X58452380Y-80959047D02*
X57785714Y-80959047D01*
X57976190Y-80959047D02*
X57880952Y-80911428D01*
X57833333Y-80863809D01*
X57785714Y-80768571D01*
X57785714Y-80673333D01*
X57785714Y-80435238D02*
X58452380Y-80197142D01*
X57785714Y-79959047D01*
X58452380Y-79578095D02*
X57785714Y-79578095D01*
X57452380Y-79578095D02*
X57500000Y-79625714D01*
X57547619Y-79578095D01*
X57500000Y-79530476D01*
X57452380Y-79578095D01*
X57547619Y-79578095D01*
X58404761Y-78673333D02*
X58452380Y-78768571D01*
X58452380Y-78959047D01*
X58404761Y-79054285D01*
X58357142Y-79101904D01*
X58261904Y-79149523D01*
X57976190Y-79149523D01*
X57880952Y-79101904D01*
X57833333Y-79054285D01*
X57785714Y-78959047D01*
X57785714Y-78768571D01*
X57833333Y-78673333D01*
X58404761Y-77863809D02*
X58452380Y-77959047D01*
X58452380Y-78149523D01*
X58404761Y-78244761D01*
X58309523Y-78292380D01*
X57928571Y-78292380D01*
X57833333Y-78244761D01*
X57785714Y-78149523D01*
X57785714Y-77959047D01*
X57833333Y-77863809D01*
X57928571Y-77816190D01*
X58023809Y-77816190D01*
X58119047Y-78292380D01*
X58452380Y-76863809D02*
X58452380Y-77435238D01*
X58452380Y-77149523D02*
X57452380Y-77149523D01*
X57595238Y-77244761D01*
X57690476Y-77340000D01*
X57738095Y-77435238D01*
D14*
X44839285Y-102113095D02*
X44755952Y-101994047D01*
X44696428Y-102113095D02*
X44696428Y-101863095D01*
X44791666Y-101863095D01*
X44815476Y-101875000D01*
X44827380Y-101886904D01*
X44839285Y-101910714D01*
X44839285Y-101946428D01*
X44827380Y-101970238D01*
X44815476Y-101982142D01*
X44791666Y-101994047D01*
X44696428Y-101994047D01*
X45077380Y-102113095D02*
X44934523Y-102113095D01*
X45005952Y-102113095D02*
X45005952Y-101863095D01*
X44982142Y-101898809D01*
X44958333Y-101922619D01*
X44934523Y-101934523D01*
X45232142Y-101863095D02*
X45255952Y-101863095D01*
X45279761Y-101875000D01*
X45291666Y-101886904D01*
X45303571Y-101910714D01*
X45315476Y-101958333D01*
X45315476Y-102017857D01*
X45303571Y-102065476D01*
X45291666Y-102089285D01*
X45279761Y-102101190D01*
X45255952Y-102113095D01*
X45232142Y-102113095D01*
X45208333Y-102101190D01*
X45196428Y-102089285D01*
X45184523Y-102065476D01*
X45172619Y-102017857D01*
X45172619Y-101958333D01*
X45184523Y-101910714D01*
X45196428Y-101886904D01*
X45208333Y-101875000D01*
X45232142Y-101863095D01*
X40958333Y-102113095D02*
X40875000Y-101994047D01*
X40815476Y-102113095D02*
X40815476Y-101863095D01*
X40910714Y-101863095D01*
X40934523Y-101875000D01*
X40946428Y-101886904D01*
X40958333Y-101910714D01*
X40958333Y-101946428D01*
X40946428Y-101970238D01*
X40934523Y-101982142D01*
X40910714Y-101994047D01*
X40815476Y-101994047D01*
X41077380Y-102113095D02*
X41125000Y-102113095D01*
X41148809Y-102101190D01*
X41160714Y-102089285D01*
X41184523Y-102053571D01*
X41196428Y-102005952D01*
X41196428Y-101910714D01*
X41184523Y-101886904D01*
X41172619Y-101875000D01*
X41148809Y-101863095D01*
X41101190Y-101863095D01*
X41077380Y-101875000D01*
X41065476Y-101886904D01*
X41053571Y-101910714D01*
X41053571Y-101970238D01*
X41065476Y-101994047D01*
X41077380Y-102005952D01*
X41101190Y-102017857D01*
X41148809Y-102017857D01*
X41172619Y-102005952D01*
X41184523Y-101994047D01*
X41196428Y-101970238D01*
D12*
X115722380Y-75880476D02*
X114722380Y-75880476D01*
X115722380Y-75309047D01*
X114722380Y-75309047D01*
X115722380Y-74261428D02*
X115246190Y-74594761D01*
X115722380Y-74832857D02*
X114722380Y-74832857D01*
X114722380Y-74451904D01*
X114770000Y-74356666D01*
X114817619Y-74309047D01*
X114912857Y-74261428D01*
X115055714Y-74261428D01*
X115150952Y-74309047D01*
X115198571Y-74356666D01*
X115246190Y-74451904D01*
X115246190Y-74832857D01*
X115198571Y-73499523D02*
X115198571Y-73832857D01*
X115722380Y-73832857D02*
X114722380Y-73832857D01*
X114722380Y-73356666D01*
X114817619Y-73023333D02*
X114770000Y-72975714D01*
X114722380Y-72880476D01*
X114722380Y-72642380D01*
X114770000Y-72547142D01*
X114817619Y-72499523D01*
X114912857Y-72451904D01*
X115008095Y-72451904D01*
X115150952Y-72499523D01*
X115722380Y-73070952D01*
X115722380Y-72451904D01*
X66214285Y-51528571D02*
X66357142Y-51576190D01*
X66404761Y-51623809D01*
X66452380Y-51719047D01*
X66452380Y-51861904D01*
X66404761Y-51957142D01*
X66357142Y-52004761D01*
X66261904Y-52052380D01*
X65880952Y-52052380D01*
X65880952Y-51052380D01*
X66214285Y-51052380D01*
X66309523Y-51100000D01*
X66357142Y-51147619D01*
X66404761Y-51242857D01*
X66404761Y-51338095D01*
X66357142Y-51433333D01*
X66309523Y-51480952D01*
X66214285Y-51528571D01*
X65880952Y-51528571D01*
X66738095Y-51052380D02*
X67309523Y-51052380D01*
X67023809Y-52052380D02*
X67023809Y-51052380D01*
X67595238Y-51147619D02*
X67642857Y-51100000D01*
X67738095Y-51052380D01*
X67976190Y-51052380D01*
X68071428Y-51100000D01*
X68119047Y-51147619D01*
X68166666Y-51242857D01*
X68166666Y-51338095D01*
X68119047Y-51480952D01*
X67547619Y-52052380D01*
X68166666Y-52052380D01*
X120452380Y-32301428D02*
X119452380Y-32301428D01*
X119452380Y-31920476D01*
X119500000Y-31825238D01*
X119547619Y-31777619D01*
X119642857Y-31730000D01*
X119785714Y-31730000D01*
X119880952Y-31777619D01*
X119928571Y-31825238D01*
X119976190Y-31920476D01*
X119976190Y-32301428D01*
X119785714Y-31396666D02*
X120452380Y-31206190D01*
X119976190Y-31015714D01*
X120452380Y-30825238D01*
X119785714Y-30634761D01*
X120452380Y-30253809D02*
X119785714Y-30253809D01*
X119976190Y-30253809D02*
X119880952Y-30206190D01*
X119833333Y-30158571D01*
X119785714Y-30063333D01*
X119785714Y-29968095D01*
X120452380Y-29110952D02*
X120452380Y-29682380D01*
X120452380Y-29396666D02*
X119452380Y-29396666D01*
X119595238Y-29491904D01*
X119690476Y-29587142D01*
X119738095Y-29682380D01*
X114733333Y-54557142D02*
X114685714Y-54604761D01*
X114542857Y-54652380D01*
X114447619Y-54652380D01*
X114304761Y-54604761D01*
X114209523Y-54509523D01*
X114161904Y-54414285D01*
X114114285Y-54223809D01*
X114114285Y-54080952D01*
X114161904Y-53890476D01*
X114209523Y-53795238D01*
X114304761Y-53700000D01*
X114447619Y-53652380D01*
X114542857Y-53652380D01*
X114685714Y-53700000D01*
X114733333Y-53747619D01*
X115685714Y-54652380D02*
X115114285Y-54652380D01*
X115400000Y-54652380D02*
X115400000Y-53652380D01*
X115304761Y-53795238D01*
X115209523Y-53890476D01*
X115114285Y-53938095D01*
D11*
X115390476Y-38561904D02*
X115390476Y-39209523D01*
X115428571Y-39285714D01*
X115466666Y-39323809D01*
X115542857Y-39361904D01*
X115695238Y-39361904D01*
X115771428Y-39323809D01*
X115809523Y-39285714D01*
X115847619Y-39209523D01*
X115847619Y-38561904D01*
X116190476Y-38638095D02*
X116228571Y-38600000D01*
X116304761Y-38561904D01*
X116495238Y-38561904D01*
X116571428Y-38600000D01*
X116609523Y-38638095D01*
X116647619Y-38714285D01*
X116647619Y-38790476D01*
X116609523Y-38904761D01*
X116152380Y-39361904D01*
X116647619Y-39361904D01*
D12*
X111801904Y-105802380D02*
X111801904Y-104802380D01*
X112373333Y-105802380D02*
X111944761Y-105230952D01*
X112373333Y-104802380D02*
X111801904Y-105373809D01*
X112754285Y-104897619D02*
X112801904Y-104850000D01*
X112897142Y-104802380D01*
X113135238Y-104802380D01*
X113230476Y-104850000D01*
X113278095Y-104897619D01*
X113325714Y-104992857D01*
X113325714Y-105088095D01*
X113278095Y-105230952D01*
X112706666Y-105802380D01*
X113325714Y-105802380D01*
X102801904Y-105802380D02*
X102801904Y-104802380D01*
X103373333Y-105802380D02*
X102944761Y-105230952D01*
X103373333Y-104802380D02*
X102801904Y-105373809D01*
X104325714Y-105802380D02*
X103754285Y-105802380D01*
X104040000Y-105802380D02*
X104040000Y-104802380D01*
X103944761Y-104945238D01*
X103849523Y-105040476D01*
X103754285Y-105088095D01*
X120452380Y-106698571D02*
X119976190Y-107031904D01*
X120452380Y-107270000D02*
X119452380Y-107270000D01*
X119452380Y-106889047D01*
X119500000Y-106793809D01*
X119547619Y-106746190D01*
X119642857Y-106698571D01*
X119785714Y-106698571D01*
X119880952Y-106746190D01*
X119928571Y-106793809D01*
X119976190Y-106889047D01*
X119976190Y-107270000D01*
X120404761Y-105889047D02*
X120452380Y-105984285D01*
X120452380Y-106174761D01*
X120404761Y-106270000D01*
X120309523Y-106317619D01*
X119928571Y-106317619D01*
X119833333Y-106270000D01*
X119785714Y-106174761D01*
X119785714Y-105984285D01*
X119833333Y-105889047D01*
X119928571Y-105841428D01*
X120023809Y-105841428D01*
X120119047Y-106317619D01*
X120452380Y-105412857D02*
X119785714Y-105412857D01*
X119880952Y-105412857D02*
X119833333Y-105365238D01*
X119785714Y-105270000D01*
X119785714Y-105127142D01*
X119833333Y-105031904D01*
X119928571Y-104984285D01*
X120452380Y-104984285D01*
X119928571Y-104984285D02*
X119833333Y-104936666D01*
X119785714Y-104841428D01*
X119785714Y-104698571D01*
X119833333Y-104603333D01*
X119928571Y-104555714D01*
X120452380Y-104555714D01*
X120452380Y-103936666D02*
X120404761Y-104031904D01*
X120357142Y-104079523D01*
X120261904Y-104127142D01*
X119976190Y-104127142D01*
X119880952Y-104079523D01*
X119833333Y-104031904D01*
X119785714Y-103936666D01*
X119785714Y-103793809D01*
X119833333Y-103698571D01*
X119880952Y-103650952D01*
X119976190Y-103603333D01*
X120261904Y-103603333D01*
X120357142Y-103650952D01*
X120404761Y-103698571D01*
X120452380Y-103793809D01*
X120452380Y-103936666D01*
X119785714Y-103317619D02*
X119785714Y-102936666D01*
X119452380Y-103174761D02*
X120309523Y-103174761D01*
X120404761Y-103127142D01*
X120452380Y-103031904D01*
X120452380Y-102936666D01*
X120404761Y-102222380D02*
X120452380Y-102317619D01*
X120452380Y-102508095D01*
X120404761Y-102603333D01*
X120309523Y-102650952D01*
X119928571Y-102650952D01*
X119833333Y-102603333D01*
X119785714Y-102508095D01*
X119785714Y-102317619D01*
X119833333Y-102222380D01*
X119928571Y-102174761D01*
X120023809Y-102174761D01*
X120119047Y-102650952D01*
X120452380Y-101222380D02*
X120452380Y-101793809D01*
X120452380Y-101508095D02*
X119452380Y-101508095D01*
X119595238Y-101603333D01*
X119690476Y-101698571D01*
X119738095Y-101793809D01*
D14*
X85113095Y-105160714D02*
X84994047Y-105244047D01*
X85113095Y-105303571D02*
X84863095Y-105303571D01*
X84863095Y-105208333D01*
X84875000Y-105184523D01*
X84886904Y-105172619D01*
X84910714Y-105160714D01*
X84946428Y-105160714D01*
X84970238Y-105172619D01*
X84982142Y-105184523D01*
X84994047Y-105208333D01*
X84994047Y-105303571D01*
X85113095Y-104922619D02*
X85113095Y-105065476D01*
X85113095Y-104994047D02*
X84863095Y-104994047D01*
X84898809Y-105017857D01*
X84922619Y-105041666D01*
X84934523Y-105065476D01*
X84946428Y-104708333D02*
X85113095Y-104708333D01*
X84851190Y-104767857D02*
X85029761Y-104827380D01*
X85029761Y-104672619D01*
X92113095Y-105160714D02*
X91994047Y-105244047D01*
X92113095Y-105303571D02*
X91863095Y-105303571D01*
X91863095Y-105208333D01*
X91875000Y-105184523D01*
X91886904Y-105172619D01*
X91910714Y-105160714D01*
X91946428Y-105160714D01*
X91970238Y-105172619D01*
X91982142Y-105184523D01*
X91994047Y-105208333D01*
X91994047Y-105303571D01*
X92113095Y-104922619D02*
X92113095Y-105065476D01*
X92113095Y-104994047D02*
X91863095Y-104994047D01*
X91898809Y-105017857D01*
X91922619Y-105041666D01*
X91934523Y-105065476D01*
X91863095Y-104839285D02*
X91863095Y-104684523D01*
X91958333Y-104767857D01*
X91958333Y-104732142D01*
X91970238Y-104708333D01*
X91982142Y-104696428D01*
X92005952Y-104684523D01*
X92065476Y-104684523D01*
X92089285Y-104696428D01*
X92101190Y-104708333D01*
X92113095Y-104732142D01*
X92113095Y-104803571D01*
X92101190Y-104827380D01*
X92089285Y-104839285D01*
X87113095Y-101160714D02*
X86994047Y-101244047D01*
X87113095Y-101303571D02*
X86863095Y-101303571D01*
X86863095Y-101208333D01*
X86875000Y-101184523D01*
X86886904Y-101172619D01*
X86910714Y-101160714D01*
X86946428Y-101160714D01*
X86970238Y-101172619D01*
X86982142Y-101184523D01*
X86994047Y-101208333D01*
X86994047Y-101303571D01*
X87113095Y-100922619D02*
X87113095Y-101065476D01*
X87113095Y-100994047D02*
X86863095Y-100994047D01*
X86898809Y-101017857D01*
X86922619Y-101041666D01*
X86934523Y-101065476D01*
X86886904Y-100827380D02*
X86875000Y-100815476D01*
X86863095Y-100791666D01*
X86863095Y-100732142D01*
X86875000Y-100708333D01*
X86886904Y-100696428D01*
X86910714Y-100684523D01*
X86934523Y-100684523D01*
X86970238Y-100696428D01*
X87113095Y-100839285D01*
X87113095Y-100684523D01*
X94113095Y-100675714D02*
X93994047Y-100759047D01*
X94113095Y-100818571D02*
X93863095Y-100818571D01*
X93863095Y-100723333D01*
X93875000Y-100699523D01*
X93886904Y-100687619D01*
X93910714Y-100675714D01*
X93946428Y-100675714D01*
X93970238Y-100687619D01*
X93982142Y-100699523D01*
X93994047Y-100723333D01*
X93994047Y-100818571D01*
X94113095Y-100437619D02*
X94113095Y-100580476D01*
X94113095Y-100509047D02*
X93863095Y-100509047D01*
X93898809Y-100532857D01*
X93922619Y-100556666D01*
X93934523Y-100580476D01*
X94113095Y-100199523D02*
X94113095Y-100342380D01*
X94113095Y-100270952D02*
X93863095Y-100270952D01*
X93898809Y-100294761D01*
X93922619Y-100318571D01*
X93934523Y-100342380D01*
D15*
X88273809Y-105047619D02*
X88250000Y-105095238D01*
X88202380Y-105142857D01*
X88130952Y-105214285D01*
X88107142Y-105261904D01*
X88107142Y-105309523D01*
X88226190Y-105285714D02*
X88202380Y-105333333D01*
X88154761Y-105380952D01*
X88059523Y-105404761D01*
X87892857Y-105404761D01*
X87797619Y-105380952D01*
X87750000Y-105333333D01*
X87726190Y-105285714D01*
X87726190Y-105190476D01*
X87750000Y-105142857D01*
X87797619Y-105095238D01*
X87892857Y-105071428D01*
X88059523Y-105071428D01*
X88154761Y-105095238D01*
X88202380Y-105142857D01*
X88226190Y-105190476D01*
X88226190Y-105285714D01*
X87726190Y-104904761D02*
X87726190Y-104595238D01*
X87916666Y-104761904D01*
X87916666Y-104690476D01*
X87940476Y-104642857D01*
X87964285Y-104619047D01*
X88011904Y-104595238D01*
X88130952Y-104595238D01*
X88178571Y-104619047D01*
X88202380Y-104642857D01*
X88226190Y-104690476D01*
X88226190Y-104833333D01*
X88202380Y-104880952D01*
X88178571Y-104904761D01*
X95273809Y-105047619D02*
X95250000Y-105095238D01*
X95202380Y-105142857D01*
X95130952Y-105214285D01*
X95107142Y-105261904D01*
X95107142Y-105309523D01*
X95226190Y-105285714D02*
X95202380Y-105333333D01*
X95154761Y-105380952D01*
X95059523Y-105404761D01*
X94892857Y-105404761D01*
X94797619Y-105380952D01*
X94750000Y-105333333D01*
X94726190Y-105285714D01*
X94726190Y-105190476D01*
X94750000Y-105142857D01*
X94797619Y-105095238D01*
X94892857Y-105071428D01*
X95059523Y-105071428D01*
X95154761Y-105095238D01*
X95202380Y-105142857D01*
X95226190Y-105190476D01*
X95226190Y-105285714D01*
X94773809Y-104880952D02*
X94750000Y-104857142D01*
X94726190Y-104809523D01*
X94726190Y-104690476D01*
X94750000Y-104642857D01*
X94773809Y-104619047D01*
X94821428Y-104595238D01*
X94869047Y-104595238D01*
X94940476Y-104619047D01*
X95226190Y-104904761D01*
X95226190Y-104595238D01*
D12*
X94134904Y-107547380D02*
X94134904Y-106547380D01*
X94373000Y-106547380D01*
X94515857Y-106595000D01*
X94611095Y-106690238D01*
X94658714Y-106785476D01*
X94706333Y-106975952D01*
X94706333Y-107118809D01*
X94658714Y-107309285D01*
X94611095Y-107404523D01*
X94515857Y-107499761D01*
X94373000Y-107547380D01*
X94134904Y-107547380D01*
X95277761Y-106975952D02*
X95182523Y-106928333D01*
X95134904Y-106880714D01*
X95087285Y-106785476D01*
X95087285Y-106737857D01*
X95134904Y-106642619D01*
X95182523Y-106595000D01*
X95277761Y-106547380D01*
X95468238Y-106547380D01*
X95563476Y-106595000D01*
X95611095Y-106642619D01*
X95658714Y-106737857D01*
X95658714Y-106785476D01*
X95611095Y-106880714D01*
X95563476Y-106928333D01*
X95468238Y-106975952D01*
X95277761Y-106975952D01*
X95182523Y-107023571D01*
X95134904Y-107071190D01*
X95087285Y-107166428D01*
X95087285Y-107356904D01*
X95134904Y-107452142D01*
X95182523Y-107499761D01*
X95277761Y-107547380D01*
X95468238Y-107547380D01*
X95563476Y-107499761D01*
X95611095Y-107452142D01*
X95658714Y-107356904D01*
X95658714Y-107166428D01*
X95611095Y-107071190D01*
X95563476Y-107023571D01*
X95468238Y-106975952D01*
X87134904Y-107547380D02*
X87134904Y-106547380D01*
X87373000Y-106547380D01*
X87515857Y-106595000D01*
X87611095Y-106690238D01*
X87658714Y-106785476D01*
X87706333Y-106975952D01*
X87706333Y-107118809D01*
X87658714Y-107309285D01*
X87611095Y-107404523D01*
X87515857Y-107499761D01*
X87373000Y-107547380D01*
X87134904Y-107547380D01*
X88039666Y-106547380D02*
X88706333Y-106547380D01*
X88277761Y-107547380D01*
X57447380Y-106801190D02*
X57447380Y-106229761D01*
X58447380Y-106515476D02*
X57447380Y-106515476D01*
X58447380Y-105896428D02*
X57780714Y-105896428D01*
X57971190Y-105896428D02*
X57875952Y-105848809D01*
X57828333Y-105801190D01*
X57780714Y-105705952D01*
X57780714Y-105610714D01*
X58447380Y-105277380D02*
X57780714Y-105277380D01*
X57447380Y-105277380D02*
X57495000Y-105325000D01*
X57542619Y-105277380D01*
X57495000Y-105229761D01*
X57447380Y-105277380D01*
X57542619Y-105277380D01*
X58447380Y-104801190D02*
X57780714Y-104801190D01*
X57875952Y-104801190D02*
X57828333Y-104753571D01*
X57780714Y-104658333D01*
X57780714Y-104515476D01*
X57828333Y-104420238D01*
X57923571Y-104372619D01*
X58447380Y-104372619D01*
X57923571Y-104372619D02*
X57828333Y-104325000D01*
X57780714Y-104229761D01*
X57780714Y-104086904D01*
X57828333Y-103991666D01*
X57923571Y-103944047D01*
X58447380Y-103944047D01*
X57542619Y-103515476D02*
X57495000Y-103467857D01*
X57447380Y-103372619D01*
X57447380Y-103134523D01*
X57495000Y-103039285D01*
X57542619Y-102991666D01*
X57637857Y-102944047D01*
X57733095Y-102944047D01*
X57875952Y-102991666D01*
X58447380Y-103563095D01*
X58447380Y-102944047D01*
X49404761Y-109682857D02*
X49452380Y-109540000D01*
X49452380Y-109301904D01*
X49404761Y-109206666D01*
X49357142Y-109159047D01*
X49261904Y-109111428D01*
X49166666Y-109111428D01*
X49071428Y-109159047D01*
X49023809Y-109206666D01*
X48976190Y-109301904D01*
X48928571Y-109492380D01*
X48880952Y-109587619D01*
X48833333Y-109635238D01*
X48738095Y-109682857D01*
X48642857Y-109682857D01*
X48547619Y-109635238D01*
X48500000Y-109587619D01*
X48452380Y-109492380D01*
X48452380Y-109254285D01*
X48500000Y-109111428D01*
X49452380Y-108540000D02*
X49404761Y-108635238D01*
X49357142Y-108682857D01*
X49261904Y-108730476D01*
X48976190Y-108730476D01*
X48880952Y-108682857D01*
X48833333Y-108635238D01*
X48785714Y-108540000D01*
X48785714Y-108397142D01*
X48833333Y-108301904D01*
X48880952Y-108254285D01*
X48976190Y-108206666D01*
X49261904Y-108206666D01*
X49357142Y-108254285D01*
X49404761Y-108301904D01*
X49452380Y-108397142D01*
X49452380Y-108540000D01*
X48785714Y-107778095D02*
X49452380Y-107778095D01*
X48880952Y-107778095D02*
X48833333Y-107730476D01*
X48785714Y-107635238D01*
X48785714Y-107492380D01*
X48833333Y-107397142D01*
X48928571Y-107349523D01*
X49452380Y-107349523D01*
X49452380Y-106444761D02*
X48452380Y-106444761D01*
X49404761Y-106444761D02*
X49452380Y-106540000D01*
X49452380Y-106730476D01*
X49404761Y-106825714D01*
X49357142Y-106873333D01*
X49261904Y-106920952D01*
X48976190Y-106920952D01*
X48880952Y-106873333D01*
X48833333Y-106825714D01*
X48785714Y-106730476D01*
X48785714Y-106540000D01*
X48833333Y-106444761D01*
X49452380Y-105540000D02*
X48928571Y-105540000D01*
X48833333Y-105587619D01*
X48785714Y-105682857D01*
X48785714Y-105873333D01*
X48833333Y-105968571D01*
X49404761Y-105540000D02*
X49452380Y-105635238D01*
X49452380Y-105873333D01*
X49404761Y-105968571D01*
X49309523Y-106016190D01*
X49214285Y-106016190D01*
X49119047Y-105968571D01*
X49071428Y-105873333D01*
X49071428Y-105635238D01*
X49023809Y-105540000D01*
X49357142Y-104492380D02*
X49404761Y-104540000D01*
X49452380Y-104682857D01*
X49452380Y-104778095D01*
X49404761Y-104920952D01*
X49309523Y-105016190D01*
X49214285Y-105063809D01*
X49023809Y-105111428D01*
X48880952Y-105111428D01*
X48690476Y-105063809D01*
X48595238Y-105016190D01*
X48500000Y-104920952D01*
X48452380Y-104778095D01*
X48452380Y-104682857D01*
X48500000Y-104540000D01*
X48547619Y-104492380D01*
X49452380Y-103920952D02*
X49404761Y-104016190D01*
X49357142Y-104063809D01*
X49261904Y-104111428D01*
X48976190Y-104111428D01*
X48880952Y-104063809D01*
X48833333Y-104016190D01*
X48785714Y-103920952D01*
X48785714Y-103778095D01*
X48833333Y-103682857D01*
X48880952Y-103635238D01*
X48976190Y-103587619D01*
X49261904Y-103587619D01*
X49357142Y-103635238D01*
X49404761Y-103682857D01*
X49452380Y-103778095D01*
X49452380Y-103920952D01*
X49452380Y-103159047D02*
X48785714Y-103159047D01*
X48976190Y-103159047D02*
X48880952Y-103111428D01*
X48833333Y-103063809D01*
X48785714Y-102968571D01*
X48785714Y-102873333D01*
X49452380Y-102540000D02*
X48785714Y-102540000D01*
X48976190Y-102540000D02*
X48880952Y-102492380D01*
X48833333Y-102444761D01*
X48785714Y-102349523D01*
X48785714Y-102254285D01*
X49452380Y-101397142D02*
X49452380Y-101968571D01*
X49452380Y-101682857D02*
X48452380Y-101682857D01*
X48595238Y-101778095D01*
X48690476Y-101873333D01*
X48738095Y-101968571D01*
X51404761Y-79802380D02*
X51452380Y-79659523D01*
X51452380Y-79421428D01*
X51404761Y-79326190D01*
X51357142Y-79278571D01*
X51261904Y-79230952D01*
X51166666Y-79230952D01*
X51071428Y-79278571D01*
X51023809Y-79326190D01*
X50976190Y-79421428D01*
X50928571Y-79611904D01*
X50880952Y-79707142D01*
X50833333Y-79754761D01*
X50738095Y-79802380D01*
X50642857Y-79802380D01*
X50547619Y-79754761D01*
X50500000Y-79707142D01*
X50452380Y-79611904D01*
X50452380Y-79373809D01*
X50500000Y-79230952D01*
X51404761Y-78421428D02*
X51452380Y-78516666D01*
X51452380Y-78707142D01*
X51404761Y-78802380D01*
X51309523Y-78850000D01*
X50928571Y-78850000D01*
X50833333Y-78802380D01*
X50785714Y-78707142D01*
X50785714Y-78516666D01*
X50833333Y-78421428D01*
X50928571Y-78373809D01*
X51023809Y-78373809D01*
X51119047Y-78850000D01*
X51452380Y-77945238D02*
X50785714Y-77945238D01*
X50976190Y-77945238D02*
X50880952Y-77897619D01*
X50833333Y-77850000D01*
X50785714Y-77754761D01*
X50785714Y-77659523D01*
X51452380Y-77326190D02*
X50785714Y-77326190D01*
X50452380Y-77326190D02*
X50500000Y-77373809D01*
X50547619Y-77326190D01*
X50500000Y-77278571D01*
X50452380Y-77326190D01*
X50547619Y-77326190D01*
X51452380Y-76421428D02*
X50928571Y-76421428D01*
X50833333Y-76469047D01*
X50785714Y-76564285D01*
X50785714Y-76754761D01*
X50833333Y-76850000D01*
X51404761Y-76421428D02*
X51452380Y-76516666D01*
X51452380Y-76754761D01*
X51404761Y-76850000D01*
X51309523Y-76897619D01*
X51214285Y-76897619D01*
X51119047Y-76850000D01*
X51071428Y-76754761D01*
X51071428Y-76516666D01*
X51023809Y-76421428D01*
X51452380Y-75802380D02*
X51404761Y-75897619D01*
X51309523Y-75945238D01*
X50452380Y-75945238D01*
X51452380Y-74897619D02*
X51452380Y-75469047D01*
X51452380Y-75183333D02*
X50452380Y-75183333D01*
X50595238Y-75278571D01*
X50690476Y-75373809D01*
X50738095Y-75469047D01*
X50952380Y-104738095D02*
X49952380Y-104738095D01*
X49952380Y-104500000D01*
X50000000Y-104357142D01*
X50095238Y-104261904D01*
X50190476Y-104214285D01*
X50380952Y-104166666D01*
X50523809Y-104166666D01*
X50714285Y-104214285D01*
X50809523Y-104261904D01*
X50904761Y-104357142D01*
X50952380Y-104500000D01*
X50952380Y-104738095D01*
X49952380Y-103309523D02*
X49952380Y-103500000D01*
X50000000Y-103595238D01*
X50047619Y-103642857D01*
X50190476Y-103738095D01*
X50380952Y-103785714D01*
X50761904Y-103785714D01*
X50857142Y-103738095D01*
X50904761Y-103690476D01*
X50952380Y-103595238D01*
X50952380Y-103404761D01*
X50904761Y-103309523D01*
X50857142Y-103261904D01*
X50761904Y-103214285D01*
X50523809Y-103214285D01*
X50428571Y-103261904D01*
X50380952Y-103309523D01*
X50333333Y-103404761D01*
X50333333Y-103595238D01*
X50380952Y-103690476D01*
X50428571Y-103738095D01*
X50523809Y-103785714D01*
X70451428Y-85722380D02*
X70451428Y-84722380D01*
X70689523Y-84722380D01*
X70832380Y-84770000D01*
X70927619Y-84865238D01*
X70975238Y-84960476D01*
X71022857Y-85150952D01*
X71022857Y-85293809D01*
X70975238Y-85484285D01*
X70927619Y-85579523D01*
X70832380Y-85674761D01*
X70689523Y-85722380D01*
X70451428Y-85722380D01*
X71451428Y-85722380D02*
X71451428Y-85055714D01*
X71451428Y-84722380D02*
X71403809Y-84770000D01*
X71451428Y-84817619D01*
X71499047Y-84770000D01*
X71451428Y-84722380D01*
X71451428Y-84817619D01*
X71880000Y-85674761D02*
X71975238Y-85722380D01*
X72165714Y-85722380D01*
X72260952Y-85674761D01*
X72308571Y-85579523D01*
X72308571Y-85531904D01*
X72260952Y-85436666D01*
X72165714Y-85389047D01*
X72022857Y-85389047D01*
X71927619Y-85341428D01*
X71880000Y-85246190D01*
X71880000Y-85198571D01*
X71927619Y-85103333D01*
X72022857Y-85055714D01*
X72165714Y-85055714D01*
X72260952Y-85103333D01*
X72737142Y-85055714D02*
X72737142Y-86055714D01*
X72737142Y-85103333D02*
X72832380Y-85055714D01*
X73022857Y-85055714D01*
X73118095Y-85103333D01*
X73165714Y-85150952D01*
X73213333Y-85246190D01*
X73213333Y-85531904D01*
X73165714Y-85627142D01*
X73118095Y-85674761D01*
X73022857Y-85722380D01*
X72832380Y-85722380D01*
X72737142Y-85674761D01*
X73784761Y-85722380D02*
X73689523Y-85674761D01*
X73641904Y-85579523D01*
X73641904Y-84722380D01*
X74594285Y-85722380D02*
X74594285Y-85198571D01*
X74546666Y-85103333D01*
X74451428Y-85055714D01*
X74260952Y-85055714D01*
X74165714Y-85103333D01*
X74594285Y-85674761D02*
X74499047Y-85722380D01*
X74260952Y-85722380D01*
X74165714Y-85674761D01*
X74118095Y-85579523D01*
X74118095Y-85484285D01*
X74165714Y-85389047D01*
X74260952Y-85341428D01*
X74499047Y-85341428D01*
X74594285Y-85293809D01*
X74975238Y-85055714D02*
X75213333Y-85722380D01*
X75451428Y-85055714D02*
X75213333Y-85722380D01*
X75118095Y-85960476D01*
X75070476Y-86008095D01*
X74975238Y-86055714D01*
X76356190Y-85722380D02*
X75784761Y-85722380D01*
X76070476Y-85722380D02*
X76070476Y-84722380D01*
X75975238Y-84865238D01*
X75880000Y-84960476D01*
X75784761Y-85008095D01*
X114119523Y-85722380D02*
X114119523Y-84722380D01*
X114690952Y-85722380D01*
X114690952Y-84722380D01*
X115738571Y-85722380D02*
X115405238Y-85246190D01*
X115167142Y-85722380D02*
X115167142Y-84722380D01*
X115548095Y-84722380D01*
X115643333Y-84770000D01*
X115690952Y-84817619D01*
X115738571Y-84912857D01*
X115738571Y-85055714D01*
X115690952Y-85150952D01*
X115643333Y-85198571D01*
X115548095Y-85246190D01*
X115167142Y-85246190D01*
X116500476Y-85198571D02*
X116167142Y-85198571D01*
X116167142Y-85722380D02*
X116167142Y-84722380D01*
X116643333Y-84722380D01*
X117548095Y-85722380D02*
X116976666Y-85722380D01*
X117262380Y-85722380D02*
X117262380Y-84722380D01*
X117167142Y-84865238D01*
X117071904Y-84960476D01*
X116976666Y-85008095D01*
D13*
X121142857Y-39066666D02*
X121161904Y-39085714D01*
X121180952Y-39142857D01*
X121180952Y-39180952D01*
X121161904Y-39238095D01*
X121123809Y-39276190D01*
X121085714Y-39295238D01*
X121009523Y-39314285D01*
X120952380Y-39314285D01*
X120876190Y-39295238D01*
X120838095Y-39276190D01*
X120800000Y-39238095D01*
X120780952Y-39180952D01*
X120780952Y-39142857D01*
X120800000Y-39085714D01*
X120819047Y-39066666D01*
X120780952Y-38933333D02*
X120780952Y-38666666D01*
X121180952Y-38838095D01*
X43342857Y-70479166D02*
X43361904Y-70498214D01*
X43380952Y-70555357D01*
X43380952Y-70593452D01*
X43361904Y-70650595D01*
X43323809Y-70688690D01*
X43285714Y-70707738D01*
X43209523Y-70726785D01*
X43152380Y-70726785D01*
X43076190Y-70707738D01*
X43038095Y-70688690D01*
X43000000Y-70650595D01*
X42980952Y-70593452D01*
X42980952Y-70555357D01*
X43000000Y-70498214D01*
X43019047Y-70479166D01*
X42980952Y-70345833D02*
X42980952Y-70098214D01*
X43133333Y-70231547D01*
X43133333Y-70174404D01*
X43152380Y-70136309D01*
X43171428Y-70117261D01*
X43209523Y-70098214D01*
X43304761Y-70098214D01*
X43342857Y-70117261D01*
X43361904Y-70136309D01*
X43380952Y-70174404D01*
X43380952Y-70288690D01*
X43361904Y-70326785D01*
X43342857Y-70345833D01*
D14*
X64113095Y-76526666D02*
X63994047Y-76610000D01*
X64113095Y-76669523D02*
X63863095Y-76669523D01*
X63863095Y-76574285D01*
X63875000Y-76550476D01*
X63886904Y-76538571D01*
X63910714Y-76526666D01*
X63946428Y-76526666D01*
X63970238Y-76538571D01*
X63982142Y-76550476D01*
X63994047Y-76574285D01*
X63994047Y-76669523D01*
X63970238Y-76383809D02*
X63958333Y-76407619D01*
X63946428Y-76419523D01*
X63922619Y-76431428D01*
X63910714Y-76431428D01*
X63886904Y-76419523D01*
X63875000Y-76407619D01*
X63863095Y-76383809D01*
X63863095Y-76336190D01*
X63875000Y-76312380D01*
X63886904Y-76300476D01*
X63910714Y-76288571D01*
X63922619Y-76288571D01*
X63946428Y-76300476D01*
X63958333Y-76312380D01*
X63970238Y-76336190D01*
X63970238Y-76383809D01*
X63982142Y-76407619D01*
X63994047Y-76419523D01*
X64017857Y-76431428D01*
X64065476Y-76431428D01*
X64089285Y-76419523D01*
X64101190Y-76407619D01*
X64113095Y-76383809D01*
X64113095Y-76336190D01*
X64101190Y-76312380D01*
X64089285Y-76300476D01*
X64065476Y-76288571D01*
X64017857Y-76288571D01*
X63994047Y-76300476D01*
X63982142Y-76312380D01*
X63970238Y-76336190D01*
X110513095Y-39741666D02*
X110394047Y-39825000D01*
X110513095Y-39884523D02*
X110263095Y-39884523D01*
X110263095Y-39789285D01*
X110275000Y-39765476D01*
X110286904Y-39753571D01*
X110310714Y-39741666D01*
X110346428Y-39741666D01*
X110370238Y-39753571D01*
X110382142Y-39765476D01*
X110394047Y-39789285D01*
X110394047Y-39884523D01*
X110263095Y-39527380D02*
X110263095Y-39575000D01*
X110275000Y-39598809D01*
X110286904Y-39610714D01*
X110322619Y-39634523D01*
X110370238Y-39646428D01*
X110465476Y-39646428D01*
X110489285Y-39634523D01*
X110501190Y-39622619D01*
X110513095Y-39598809D01*
X110513095Y-39551190D01*
X110501190Y-39527380D01*
X110489285Y-39515476D01*
X110465476Y-39503571D01*
X110405952Y-39503571D01*
X110382142Y-39515476D01*
X110370238Y-39527380D01*
X110358333Y-39551190D01*
X110358333Y-39598809D01*
X110370238Y-39622619D01*
X110382142Y-39634523D01*
X110405952Y-39646428D01*
X109013095Y-39741666D02*
X108894047Y-39825000D01*
X109013095Y-39884523D02*
X108763095Y-39884523D01*
X108763095Y-39789285D01*
X108775000Y-39765476D01*
X108786904Y-39753571D01*
X108810714Y-39741666D01*
X108846428Y-39741666D01*
X108870238Y-39753571D01*
X108882142Y-39765476D01*
X108894047Y-39789285D01*
X108894047Y-39884523D01*
X108763095Y-39515476D02*
X108763095Y-39634523D01*
X108882142Y-39646428D01*
X108870238Y-39634523D01*
X108858333Y-39610714D01*
X108858333Y-39551190D01*
X108870238Y-39527380D01*
X108882142Y-39515476D01*
X108905952Y-39503571D01*
X108965476Y-39503571D01*
X108989285Y-39515476D01*
X109001190Y-39527380D01*
X109013095Y-39551190D01*
X109013095Y-39610714D01*
X109001190Y-39634523D01*
X108989285Y-39646428D01*
X111013095Y-29756666D02*
X110894047Y-29840000D01*
X111013095Y-29899523D02*
X110763095Y-29899523D01*
X110763095Y-29804285D01*
X110775000Y-29780476D01*
X110786904Y-29768571D01*
X110810714Y-29756666D01*
X110846428Y-29756666D01*
X110870238Y-29768571D01*
X110882142Y-29780476D01*
X110894047Y-29804285D01*
X110894047Y-29899523D01*
X110846428Y-29542380D02*
X111013095Y-29542380D01*
X110751190Y-29601904D02*
X110929761Y-29661428D01*
X110929761Y-29506666D01*
X109013095Y-29756666D02*
X108894047Y-29840000D01*
X109013095Y-29899523D02*
X108763095Y-29899523D01*
X108763095Y-29804285D01*
X108775000Y-29780476D01*
X108786904Y-29768571D01*
X108810714Y-29756666D01*
X108846428Y-29756666D01*
X108870238Y-29768571D01*
X108882142Y-29780476D01*
X108894047Y-29804285D01*
X108894047Y-29899523D01*
X108763095Y-29673333D02*
X108763095Y-29518571D01*
X108858333Y-29601904D01*
X108858333Y-29566190D01*
X108870238Y-29542380D01*
X108882142Y-29530476D01*
X108905952Y-29518571D01*
X108965476Y-29518571D01*
X108989285Y-29530476D01*
X109001190Y-29542380D01*
X109013095Y-29566190D01*
X109013095Y-29637619D01*
X109001190Y-29661428D01*
X108989285Y-29673333D01*
X109013095Y-27756666D02*
X108894047Y-27840000D01*
X109013095Y-27899523D02*
X108763095Y-27899523D01*
X108763095Y-27804285D01*
X108775000Y-27780476D01*
X108786904Y-27768571D01*
X108810714Y-27756666D01*
X108846428Y-27756666D01*
X108870238Y-27768571D01*
X108882142Y-27780476D01*
X108894047Y-27804285D01*
X108894047Y-27899523D01*
X108786904Y-27661428D02*
X108775000Y-27649523D01*
X108763095Y-27625714D01*
X108763095Y-27566190D01*
X108775000Y-27542380D01*
X108786904Y-27530476D01*
X108810714Y-27518571D01*
X108834523Y-27518571D01*
X108870238Y-27530476D01*
X109013095Y-27673333D01*
X109013095Y-27518571D01*
X111013095Y-27756666D02*
X110894047Y-27840000D01*
X111013095Y-27899523D02*
X110763095Y-27899523D01*
X110763095Y-27804285D01*
X110775000Y-27780476D01*
X110786904Y-27768571D01*
X110810714Y-27756666D01*
X110846428Y-27756666D01*
X110870238Y-27768571D01*
X110882142Y-27780476D01*
X110894047Y-27804285D01*
X110894047Y-27899523D01*
X111013095Y-27518571D02*
X111013095Y-27661428D01*
X111013095Y-27590000D02*
X110763095Y-27590000D01*
X110798809Y-27613809D01*
X110822619Y-27637619D01*
X110834523Y-27661428D01*
D15*
X109702380Y-36023809D02*
X109654761Y-36000000D01*
X109607142Y-35952380D01*
X109535714Y-35880952D01*
X109488095Y-35857142D01*
X109440476Y-35857142D01*
X109464285Y-35976190D02*
X109416666Y-35952380D01*
X109369047Y-35904761D01*
X109345238Y-35809523D01*
X109345238Y-35642857D01*
X109369047Y-35547619D01*
X109416666Y-35500000D01*
X109464285Y-35476190D01*
X109559523Y-35476190D01*
X109607142Y-35500000D01*
X109654761Y-35547619D01*
X109678571Y-35642857D01*
X109678571Y-35809523D01*
X109654761Y-35904761D01*
X109607142Y-35952380D01*
X109559523Y-35976190D01*
X109464285Y-35976190D01*
X110154761Y-35976190D02*
X109869047Y-35976190D01*
X110011904Y-35976190D02*
X110011904Y-35476190D01*
X109964285Y-35547619D01*
X109916666Y-35595238D01*
X109869047Y-35619047D01*
D12*
X114134904Y-31047380D02*
X114134904Y-30047380D01*
X114373000Y-30047380D01*
X114515857Y-30095000D01*
X114611095Y-30190238D01*
X114658714Y-30285476D01*
X114706333Y-30475952D01*
X114706333Y-30618809D01*
X114658714Y-30809285D01*
X114611095Y-30904523D01*
X114515857Y-30999761D01*
X114373000Y-31047380D01*
X114134904Y-31047380D01*
X115039666Y-30047380D02*
X115658714Y-30047380D01*
X115325380Y-30428333D01*
X115468238Y-30428333D01*
X115563476Y-30475952D01*
X115611095Y-30523571D01*
X115658714Y-30618809D01*
X115658714Y-30856904D01*
X115611095Y-30952142D01*
X115563476Y-30999761D01*
X115468238Y-31047380D01*
X115182523Y-31047380D01*
X115087285Y-30999761D01*
X115039666Y-30952142D01*
X116261904Y-27952380D02*
X116261904Y-26952380D01*
X116500000Y-26952380D01*
X116642857Y-27000000D01*
X116738095Y-27095238D01*
X116785714Y-27190476D01*
X116833333Y-27380952D01*
X116833333Y-27523809D01*
X116785714Y-27714285D01*
X116738095Y-27809523D01*
X116642857Y-27904761D01*
X116500000Y-27952380D01*
X116261904Y-27952380D01*
X117214285Y-27047619D02*
X117261904Y-27000000D01*
X117357142Y-26952380D01*
X117595238Y-26952380D01*
X117690476Y-27000000D01*
X117738095Y-27047619D01*
X117785714Y-27142857D01*
X117785714Y-27238095D01*
X117738095Y-27380952D01*
X117166666Y-27952380D01*
X117785714Y-27952380D01*
X41747380Y-75065095D02*
X40747380Y-75065095D01*
X40747380Y-74827000D01*
X40795000Y-74684142D01*
X40890238Y-74588904D01*
X40985476Y-74541285D01*
X41175952Y-74493666D01*
X41318809Y-74493666D01*
X41509285Y-74541285D01*
X41604523Y-74588904D01*
X41699761Y-74684142D01*
X41747380Y-74827000D01*
X41747380Y-75065095D01*
X41747380Y-73541285D02*
X41747380Y-74112714D01*
X41747380Y-73827000D02*
X40747380Y-73827000D01*
X40890238Y-73922238D01*
X40985476Y-74017476D01*
X41033095Y-74112714D01*
D13*
X115720833Y-29142857D02*
X115701785Y-29161904D01*
X115644642Y-29180952D01*
X115606547Y-29180952D01*
X115549404Y-29161904D01*
X115511309Y-29123809D01*
X115492261Y-29085714D01*
X115473214Y-29009523D01*
X115473214Y-28952380D01*
X115492261Y-28876190D01*
X115511309Y-28838095D01*
X115549404Y-28800000D01*
X115606547Y-28780952D01*
X115644642Y-28780952D01*
X115701785Y-28800000D01*
X115720833Y-28819047D01*
X116063690Y-28780952D02*
X115987500Y-28780952D01*
X115949404Y-28800000D01*
X115930357Y-28819047D01*
X115892261Y-28876190D01*
X115873214Y-28952380D01*
X115873214Y-29104761D01*
X115892261Y-29142857D01*
X115911309Y-29161904D01*
X115949404Y-29180952D01*
X116025595Y-29180952D01*
X116063690Y-29161904D01*
X116082738Y-29142857D01*
X116101785Y-29104761D01*
X116101785Y-29009523D01*
X116082738Y-28971428D01*
X116063690Y-28952380D01*
X116025595Y-28933333D01*
X115949404Y-28933333D01*
X115911309Y-28952380D01*
X115892261Y-28971428D01*
X115873214Y-29009523D01*
D12*
X100722380Y-82492380D02*
X99722380Y-82492380D01*
X100627142Y-81444761D02*
X100674761Y-81492380D01*
X100722380Y-81635238D01*
X100722380Y-81730476D01*
X100674761Y-81873333D01*
X100579523Y-81968571D01*
X100484285Y-82016190D01*
X100293809Y-82063809D01*
X100150952Y-82063809D01*
X99960476Y-82016190D01*
X99865238Y-81968571D01*
X99770000Y-81873333D01*
X99722380Y-81730476D01*
X99722380Y-81635238D01*
X99770000Y-81492380D01*
X99817619Y-81444761D01*
X100674761Y-81063809D02*
X100722380Y-80920952D01*
X100722380Y-80682857D01*
X100674761Y-80587619D01*
X100627142Y-80540000D01*
X100531904Y-80492380D01*
X100436666Y-80492380D01*
X100341428Y-80540000D01*
X100293809Y-80587619D01*
X100246190Y-80682857D01*
X100198571Y-80873333D01*
X100150952Y-80968571D01*
X100103333Y-81016190D01*
X100008095Y-81063809D01*
X99912857Y-81063809D01*
X99817619Y-81016190D01*
X99770000Y-80968571D01*
X99722380Y-80873333D01*
X99722380Y-80635238D01*
X99770000Y-80492380D01*
X100722380Y-80063809D02*
X99722380Y-80063809D01*
X99722380Y-79682857D01*
X99770000Y-79587619D01*
X99817619Y-79540000D01*
X99912857Y-79492380D01*
X100055714Y-79492380D01*
X100150952Y-79540000D01*
X100198571Y-79587619D01*
X100246190Y-79682857D01*
X100246190Y-80063809D01*
X100722380Y-78540000D02*
X100722380Y-79111428D01*
X100722380Y-78825714D02*
X99722380Y-78825714D01*
X99865238Y-78920952D01*
X99960476Y-79016190D01*
X100008095Y-79111428D01*
X72952380Y-75761904D02*
X73761904Y-75761904D01*
X73857142Y-75714285D01*
X73904761Y-75666666D01*
X73952380Y-75571428D01*
X73952380Y-75380952D01*
X73904761Y-75285714D01*
X73857142Y-75238095D01*
X73761904Y-75190476D01*
X72952380Y-75190476D01*
X72952380Y-74809523D02*
X72952380Y-74190476D01*
X73333333Y-74523809D01*
X73333333Y-74380952D01*
X73380952Y-74285714D01*
X73428571Y-74238095D01*
X73523809Y-74190476D01*
X73761904Y-74190476D01*
X73857142Y-74238095D01*
X73904761Y-74285714D01*
X73952380Y-74380952D01*
X73952380Y-74666666D01*
X73904761Y-74761904D01*
X73857142Y-74809523D01*
D11*
X35911904Y-73309523D02*
X36559523Y-73309523D01*
X36635714Y-73271428D01*
X36673809Y-73233333D01*
X36711904Y-73157142D01*
X36711904Y-73004761D01*
X36673809Y-72928571D01*
X36635714Y-72890476D01*
X36559523Y-72852380D01*
X35911904Y-72852380D01*
X36711904Y-72052380D02*
X36711904Y-72509523D01*
X36711904Y-72280952D02*
X35911904Y-72280952D01*
X36026190Y-72357142D01*
X36102380Y-72433333D01*
X36140476Y-72509523D01*
D12*
X64602380Y-77238095D02*
X63602380Y-77238095D01*
X63602380Y-77000000D01*
X63650000Y-76857142D01*
X63745238Y-76761904D01*
X63840476Y-76714285D01*
X64030952Y-76666666D01*
X64173809Y-76666666D01*
X64364285Y-76714285D01*
X64459523Y-76761904D01*
X64554761Y-76857142D01*
X64602380Y-77000000D01*
X64602380Y-77238095D01*
X63602380Y-75761904D02*
X63602380Y-76238095D01*
X64078571Y-76285714D01*
X64030952Y-76238095D01*
X63983333Y-76142857D01*
X63983333Y-75904761D01*
X64030952Y-75809523D01*
X64078571Y-75761904D01*
X64173809Y-75714285D01*
X64411904Y-75714285D01*
X64507142Y-75761904D01*
X64554761Y-75809523D01*
X64602380Y-75904761D01*
X64602380Y-76142857D01*
X64554761Y-76238095D01*
X64507142Y-76285714D01*
D13*
X74145833Y-68142857D02*
X74126785Y-68161904D01*
X74069642Y-68180952D01*
X74031547Y-68180952D01*
X73974404Y-68161904D01*
X73936309Y-68123809D01*
X73917261Y-68085714D01*
X73898214Y-68009523D01*
X73898214Y-67952380D01*
X73917261Y-67876190D01*
X73936309Y-67838095D01*
X73974404Y-67800000D01*
X74031547Y-67780952D01*
X74069642Y-67780952D01*
X74126785Y-67800000D01*
X74145833Y-67819047D01*
X74374404Y-67952380D02*
X74336309Y-67933333D01*
X74317261Y-67914285D01*
X74298214Y-67876190D01*
X74298214Y-67857142D01*
X74317261Y-67819047D01*
X74336309Y-67800000D01*
X74374404Y-67780952D01*
X74450595Y-67780952D01*
X74488690Y-67800000D01*
X74507738Y-67819047D01*
X74526785Y-67857142D01*
X74526785Y-67876190D01*
X74507738Y-67914285D01*
X74488690Y-67933333D01*
X74450595Y-67952380D01*
X74374404Y-67952380D01*
X74336309Y-67971428D01*
X74317261Y-67990476D01*
X74298214Y-68028571D01*
X74298214Y-68104761D01*
X74317261Y-68142857D01*
X74336309Y-68161904D01*
X74374404Y-68180952D01*
X74450595Y-68180952D01*
X74488690Y-68161904D01*
X74507738Y-68142857D01*
X74526785Y-68104761D01*
X74526785Y-68028571D01*
X74507738Y-67990476D01*
X74488690Y-67971428D01*
X74450595Y-67952380D01*
X108142857Y-85279166D02*
X108161904Y-85298214D01*
X108180952Y-85355357D01*
X108180952Y-85393452D01*
X108161904Y-85450595D01*
X108123809Y-85488690D01*
X108085714Y-85507738D01*
X108009523Y-85526785D01*
X107952380Y-85526785D01*
X107876190Y-85507738D01*
X107838095Y-85488690D01*
X107800000Y-85450595D01*
X107780952Y-85393452D01*
X107780952Y-85355357D01*
X107800000Y-85298214D01*
X107819047Y-85279166D01*
X107780952Y-84917261D02*
X107780952Y-85107738D01*
X107971428Y-85126785D01*
X107952380Y-85107738D01*
X107933333Y-85069642D01*
X107933333Y-84974404D01*
X107952380Y-84936309D01*
X107971428Y-84917261D01*
X108009523Y-84898214D01*
X108104761Y-84898214D01*
X108142857Y-84917261D01*
X108161904Y-84936309D01*
X108180952Y-84974404D01*
X108180952Y-85069642D01*
X108161904Y-85107738D01*
X108142857Y-85126785D01*
X30342857Y-72554166D02*
X30361904Y-72573214D01*
X30380952Y-72630357D01*
X30380952Y-72668452D01*
X30361904Y-72725595D01*
X30323809Y-72763690D01*
X30285714Y-72782738D01*
X30209523Y-72801785D01*
X30152380Y-72801785D01*
X30076190Y-72782738D01*
X30038095Y-72763690D01*
X30000000Y-72725595D01*
X29980952Y-72668452D01*
X29980952Y-72630357D01*
X30000000Y-72573214D01*
X30019047Y-72554166D01*
X30019047Y-72401785D02*
X30000000Y-72382738D01*
X29980952Y-72344642D01*
X29980952Y-72249404D01*
X30000000Y-72211309D01*
X30019047Y-72192261D01*
X30057142Y-72173214D01*
X30095238Y-72173214D01*
X30152380Y-72192261D01*
X30380952Y-72420833D01*
X30380952Y-72173214D01*
D12*
X66214285Y-35328571D02*
X66357142Y-35376190D01*
X66404761Y-35423809D01*
X66452380Y-35519047D01*
X66452380Y-35661904D01*
X66404761Y-35757142D01*
X66357142Y-35804761D01*
X66261904Y-35852380D01*
X65880952Y-35852380D01*
X65880952Y-34852380D01*
X66214285Y-34852380D01*
X66309523Y-34900000D01*
X66357142Y-34947619D01*
X66404761Y-35042857D01*
X66404761Y-35138095D01*
X66357142Y-35233333D01*
X66309523Y-35280952D01*
X66214285Y-35328571D01*
X65880952Y-35328571D01*
X66738095Y-34852380D02*
X67309523Y-34852380D01*
X67023809Y-35852380D02*
X67023809Y-34852380D01*
X68166666Y-35852380D02*
X67595238Y-35852380D01*
X67880952Y-35852380D02*
X67880952Y-34852380D01*
X67785714Y-34995238D01*
X67690476Y-35090476D01*
X67595238Y-35138095D01*
M02*
